<?xml version="1.0" encoding="UTF-8" standalone="no"?>
<!-- Created with Inkscape (http://www.inkscape.org/) -->

<svg
   version="1.1"
   id="svg2"
   width="991.5733"
   height="249.98666"
   viewBox="0 0 991.5733 249.98666"
   sodipodi:docname="dci_local_use.eps"
   xmlns:inkscape="http://www.inkscape.org/namespaces/inkscape"
   xmlns:sodipodi="http://sodipodi.sourceforge.net/DTD/sodipodi-0.dtd"
   xmlns="http://www.w3.org/2000/svg"
   xmlns:svg="http://www.w3.org/2000/svg">
  <defs
     id="defs6" />
  <sodipodi:namedview
     id="namedview4"
     pagecolor="#ffffff"
     bordercolor="#000000"
     borderopacity="0.25"
     inkscape:showpageshadow="2"
     inkscape:pageopacity="0.0"
     inkscape:pagecheckerboard="0"
     inkscape:deskcolor="#d1d1d1" />
  <g
     id="g8"
     inkscape:groupmode="layer"
     inkscape:label="ink_ext_XXXXXX"
     transform="matrix(1.3333333,0,0,-1.3333333,0,249.98667)">
    <g
       id="g10"
       transform="scale(0.1)">
      <path
         d="M 3897.03,0 H 7436.84 V 1874.91 H 3897.03 Z"
         style="fill:#231f20;fill-opacity:1;fill-rule:nonzero;stroke:none"
         id="path12" />
      <path
         d="m 605.48,596.238 c 223.79,-1.078 428.06,182.473 428.06,405.782 0,244.18 -204.27,412.97 -428.06,412.89 H 412.883 C 186.41,1414.99 0,1246.16 0,1002.02 0,778.66 186.41,595.16 412.883,596.238 H 605.48"
         style="fill:#1266ac;fill-opacity:1;fill-rule:nonzero;stroke:none"
         id="path14" />
      <path
         d="M 498.789,784.578 V 1228 c 89.133,-34.19 152.41,-120.49 152.566,-221.7 C 651.199,905.082 587.922,818.84 498.789,784.578 m -322.5,221.722 c 0.191,101.15 63.379,187.4 152.461,221.68 V 784.68 C 239.668,818.941 176.48,905.129 176.289,1006.3 m 237.5,374.78 C 206.84,1381.01 39.1523,1213.29 39.1055,1006.3 39.1523,799.352 206.84,631.648 413.789,631.59 c 207.004,0.058 374.723,167.762 374.75,374.71 -0.027,206.99 -167.746,374.71 -374.75,374.78"
         style="fill:#ffffff;fill-opacity:1;fill-rule:nonzero;stroke:none"
         id="path16" />
      <path
         d="m 1214.11,904.309 c 0,-33.137 23.71,-37.008 44.8,-37.008 93.03,0 123.56,70.172 123.56,134.329 0,80.5 -51.66,138.62 -134.75,138.62 -17.68,0 -25.82,-1.26 -33.61,-1.72 z m -42.2,201.971 c 0,38.71 -20.2,36.17 -39.56,36.58 v 11.18 c 16.78,-0.81 33.99,-0.81 50.8,-0.81 18.08,0 42.62,0.81 74.5,0.81 111.5,0 172.2,-74.44 172.2,-150.69 0,-42.643 -24.96,-149.838 -177.38,-149.838 -21.94,0 -42.21,0.859 -62.44,0.859 -19.36,0 -38.32,-0.43 -57.68,-0.859 v 11.187 c 25.8,2.602 38.32,3.461 39.56,32.727 v 208.854"
         style="fill:#231f20;fill-opacity:1;fill-rule:nonzero;stroke:none"
         id="path18" />
      <path
         d="m 1491.03,1116.57 c -11.23,0 -21.11,10.34 -21.11,21.54 0,10.78 10.34,20.71 21.11,20.71 11.14,0 21.08,-9.09 21.08,-20.71 0,-11.63 -9.48,-21.54 -21.08,-21.54 m -46.07,-251.879 h 8.17 c 12.03,0 20.64,0 20.64,14.247 v 116.66 c 0,18.942 -6.44,21.562 -22.39,30.112 v 6.9 c 20.25,6.07 44.38,14.21 46.08,15.51 3.01,1.71 5.59,2.17 7.75,2.17 2.12,0 3.03,-2.59 3.03,-6.06 V 878.938 c 0,-14.247 9.47,-14.247 21.54,-14.247 h 7.29 v -11.179 c -14.64,0 -29.74,0.859 -45.19,0.859 -15.5,0 -31.02,-0.43 -46.92,-0.859 v 11.179"
         style="fill:#231f20;fill-opacity:1;fill-rule:nonzero;stroke:none"
         id="path20" />
      <path
         d="m 1577.98,993.031 c 0,15.919 -4.75,20.219 -24.94,28.389 v 8.18 c 18.48,6.02 36.11,11.63 56.8,20.7 1.3,0 2.55,-0.89 2.55,-4.31 v -28 c 24.57,17.63 45.69,32.31 74.57,32.31 36.57,0 49.48,-26.71 49.48,-60.296 V 878.938 c 0,-14.239 9.47,-14.239 21.52,-14.239 h 7.77 v -11.187 c -15.11,0 -30.17,0.859 -45.64,0.859 -15.53,0 -31.04,-0.43 -46.52,-0.859 v 11.187 h 7.75 c 12.07,0 20.64,0 20.64,14.239 v 111.484 c 0,24.568 -15,36.598 -39.57,36.598 -13.78,0 -35.74,-11.19 -50,-20.66 V 878.938 c 0,-14.239 9.52,-14.239 21.59,-14.239 h 7.73 v -11.187 c -15.06,0 -30.16,0.859 -45.66,0.859 -15.47,0 -31,-0.43 -46.49,-0.859 v 11.187 h 7.78 c 12.05,0 20.64,0 20.64,14.239 v 114.093"
         style="fill:#231f20;fill-opacity:1;fill-rule:nonzero;stroke:none"
         id="path22" />
      <path
         d="m 1874.68,986.125 c 10.76,0 12.01,5.605 12.01,10.762 0,21.943 -13.34,39.613 -37.46,39.613 -26.25,0 -44.34,-19.33 -49.49,-50.375 z m -76.21,-13.789 c -0.9,-3.895 -0.9,-10.32 0,-24.981 2.52,-40.886 28.85,-74.476 63.24,-74.476 23.73,0 42.27,12.934 58.17,28.851 l 6.01,-6.035 c -19.82,-26.265 -44.35,-48.656 -79.63,-48.656 -68.49,0 -82.26,66.332 -82.26,93.883 0,84.398 56.83,109.368 86.95,109.368 34.9,0 72.38,-21.96 72.77,-67.591 0,-2.617 0,-5.168 -0.39,-7.773 l -3.9,-2.59 h -120.96"
         style="fill:#231f20;fill-opacity:1;fill-rule:nonzero;stroke:none"
         id="path24" />
      <path
         d="m 1933.64,864.699 h 11.64 c 12.01,0 20.63,0 20.63,14.239 v 120.957 c 0,13.335 -15.91,15.935 -22.39,19.395 v 6.42 c 31.43,13.38 48.66,24.58 52.6,24.58 2.52,0 3.81,-1.29 3.81,-5.62 v -38.74 h 0.92 c 10.72,16.8 28.83,44.36 55.08,44.36 10.78,0 24.53,-7.31 24.53,-22.82 0,-11.64 -8.15,-21.99 -20.22,-21.99 -13.37,0 -13.37,10.35 -28.44,10.35 -7.32,0 -31.42,-9.9 -31.42,-35.748 V 878.938 c 0,-14.239 8.59,-14.239 20.64,-14.239 h 24.1 v -11.187 c -23.66,0.429 -41.69,0.859 -60.23,0.859 -17.66,0 -35.73,-0.43 -51.25,-0.859 v 11.187"
         style="fill:#231f20;fill-opacity:1;fill-rule:nonzero;stroke:none"
         id="path26" />
      <path
         d="m 2099.4,913.371 c 5.61,-28.418 22.81,-52.543 54.29,-52.543 25.34,0 34.82,15.504 34.82,30.563 0,50.808 -93.84,34.461 -93.84,103.769 0,24.13 19.4,55.13 66.75,55.13 13.75,0 32.27,-3.89 49.05,-12.5 l 3.04,-43.892 h -9.91 c -4.3,27.102 -19.38,42.612 -46.93,42.612 -17.25,0 -33.59,-9.92 -33.59,-28.42 0,-50.41 99.89,-34.875 99.89,-102.473 0,-28.406 -22.8,-58.578 -74.05,-58.578 -17.23,0 -37.48,6.039 -52.53,14.633 l -4.73,49.531 7.74,2.168"
         style="fill:#231f20;fill-opacity:1;fill-rule:nonzero;stroke:none"
         id="path28" />
      <path
         d="m 2611.77,1076.13 h -10.74 c -8.21,50.35 -43.95,70.6 -92.13,70.6 -49.55,0 -121.47,-33.14 -121.47,-136.47 0,-87.014 62.05,-149.432 128.32,-149.432 42.62,0 77.95,29.274 86.57,74.508 l 9.9,-2.59 -9.9,-62.848 c -18.09,-11.238 -66.74,-22.859 -95.18,-22.859 -100.72,0 -164.43,65.024 -164.43,161.911 0,88.27 78.77,151.58 163.16,151.58 34.86,0 68.46,-11.22 101.6,-22.86 l 4.3,-61.54"
         style="fill:#231f20;fill-opacity:1;fill-rule:nonzero;stroke:none"
         id="path30" />
      <path
         d="m 2627.29,864.699 h 8.14 c 12.09,0 20.72,0 20.72,14.239 v 239.782 c 0,28.01 -6.46,28.87 -22.82,33.6 v 6.89 c 17.21,5.59 35.29,13.34 44.34,18.53 4.7,2.56 8.16,4.73 9.44,4.73 2.61,0 3.49,-2.59 3.49,-6.04 V 878.938 c 0,-14.239 9.46,-14.239 21.51,-14.239 h 7.29 v -11.187 c -14.59,0 -29.68,0.859 -45.18,0.859 -15.47,0 -30.98,-0.43 -46.93,-0.859 v 11.187"
         style="fill:#231f20;fill-opacity:1;fill-rule:nonzero;stroke:none"
         id="path32" />
      <path
         d="m 2903.74,877.211 c 0,-7.781 4.73,-8.191 12.03,-8.191 5.18,0 11.62,0.41 17.25,0.41 v -9.078 c -18.56,-1.68 -53.85,-10.731 -62.03,-13.313 l -2.17,1.301 v 34.855 c -25.8,-21.093 -45.63,-36.156 -76.23,-36.156 -23.24,0 -47.35,15.063 -47.35,51.207 v 110.264 c 0,11.2 -1.7,21.97 -25.78,24.11 v 8.19 c 15.51,0.42 49.89,2.99 55.51,2.99 4.77,0 4.77,-2.99 4.77,-12.48 V 920.266 c 0,-12.938 0,-49.957 37.44,-49.957 14.63,0 34,11.187 52.07,26.226 v 115.875 c 0,8.59 -20.67,13.3 -36.12,17.62 v 7.76 c 38.7,2.59 62.86,6.01 67.13,6.01 3.48,0 3.48,-2.99 3.48,-7.75 V 877.211"
         style="fill:#231f20;fill-opacity:1;fill-rule:nonzero;stroke:none"
         id="path34" />
      <path
         d="m 2989.4,902.18 c 0,-16.367 15.51,-43.95 44.36,-43.95 46.07,0 65.43,45.239 65.43,83.571 0,46.492 -35.27,85.219 -68.87,85.219 -15.97,0 -29.29,-10.35 -40.92,-20.25 z m 0,117.11 c 17.22,14.63 40.49,31.01 64.16,31.01 49.97,0 80.08,-43.53 80.08,-90.445 0,-56.386 -41.33,-112.816 -102.93,-112.816 -31.84,0 -48.63,10.352 -59.85,15.063 l -12.89,-9.864 -9.01,4.711 c 3.82,25.399 6.02,50.379 6.02,76.637 v 185.134 c 0,28.01 -6.5,28.87 -22.85,33.6 v 6.89 c 17.25,5.59 35.33,13.34 44.36,18.53 4.74,2.58 8.16,4.73 9.49,4.73 2.58,0 3.42,-2.58 3.42,-6.04 v -157.14"
         style="fill:#231f20;fill-opacity:1;fill-rule:nonzero;stroke:none"
         id="path36" />
      <path
         d="m 3129,1073.13 h 3.29 c 3.57,0 5.25,2.71 5.25,7.07 0,4.44 -2.57,5.98 -5.43,5.98 H 3129 Z m -9.36,-14.64 v 1.38 c 3.42,0.47 4.06,0.36 4.06,2.49 v 20.54 c 0,2.89 -0.33,3.87 -3.93,3.71 v 1.41 h 14.21 c 4.88,0 9.38,-2.31 9.38,-7.34 0,-4.14 -2.73,-7.19 -6.57,-8.39 l 4.55,-6.35 c 2.13,-2.88 4.54,-5.6 6.15,-6.54 v -0.91 h -5.43 c -2.61,0 -4.88,5.48 -9.97,12.79 H 3129 v -9.22 c 0,-1.83 0.64,-1.72 4.06,-2.19 v -1.38 z m 13.81,-7.85 c 12.43,0 21.97,10.57 21.97,22.49 0,11.97 -9.4,22.66 -21.97,22.66 -12.48,0 -21.99,-10.69 -21.99,-22.66 0,-11.92 9.51,-22.49 21.99,-22.49 m 0,50.34 c 15.91,0 27.77,-12.23 27.77,-27.85 0,-15.56 -11.86,-27.67 -27.77,-27.67 -15.86,0 -27.77,12.11 -27.77,27.67 0,15.62 11.91,27.85 27.77,27.85"
         style="fill:#231f20;fill-opacity:1;fill-rule:nonzero;stroke:none"
         id="path38" />
      <path
         d="m 4700.31,596.238 c 223.79,-1.078 428.05,182.473 428.05,405.782 0,244.18 -204.26,412.97 -428.05,412.89 H 4507.7 c -226.46,0.08 -412.87,-168.75 -412.87,-412.89 0,-223.36 186.41,-406.86 412.87,-405.782 h 192.61"
         style="fill:#1266ac;fill-opacity:1;fill-rule:nonzero;stroke:none"
         id="path40" />
      <path
         d="M 4593.62,784.578 V 1228 c 89.13,-34.19 152.4,-120.49 152.57,-221.7 -0.17,-101.218 -63.44,-187.46 -152.57,-221.722 m -322.5,221.722 c 0.19,101.15 63.38,187.4 152.46,221.68 v -443.3 c -89.08,34.261 -152.27,120.449 -152.46,221.62 m 237.5,374.78 c -206.95,-0.07 -374.65,-167.79 -374.7,-374.78 0.05,-206.948 167.75,-374.652 374.7,-374.71 206.99,0.058 374.72,167.762 374.74,374.71 -0.02,206.99 -167.75,374.71 -374.74,374.78"
         style="fill:#ffffff;fill-opacity:1;fill-rule:nonzero;stroke:none"
         id="path42" />
      <path
         d="m 5308.94,904.309 c 0,-33.137 23.71,-37.008 44.81,-37.008 93.02,0 123.55,70.172 123.55,134.329 0,80.5 -51.66,138.62 -134.75,138.62 -17.68,0 -25.82,-1.26 -33.61,-1.72 z m -42.2,201.971 c 0,38.71 -20.2,36.17 -39.56,36.58 v 11.18 c 16.78,-0.81 33.99,-0.81 50.8,-0.81 18.08,0 42.62,0.81 74.51,0.81 111.49,0 172.19,-74.44 172.19,-150.69 0,-42.643 -24.96,-149.838 -177.38,-149.838 -21.94,0 -42.21,0.859 -62.44,0.859 -19.36,0 -38.32,-0.43 -57.68,-0.859 v 11.187 c 25.8,2.602 38.32,3.461 39.56,32.727 v 208.854"
         style="fill:#ffffff;fill-opacity:1;fill-rule:nonzero;stroke:none"
         id="path44" />
      <path
         d="m 5585.85,1116.57 c -11.22,0 -21.11,10.34 -21.11,21.54 0,10.78 10.35,20.71 21.11,20.71 11.16,0 21.1,-9.09 21.1,-20.71 0,-11.63 -9.49,-21.54 -21.1,-21.54 m -46.07,-251.879 h 8.17 c 12.04,0 20.66,0 20.66,14.247 v 116.66 c 0,18.942 -6.45,21.562 -22.4,30.112 v 6.9 c 20.25,6.07 44.37,14.21 46.07,15.51 3.03,1.71 5.6,2.17 7.76,2.17 2.12,0 3.02,-2.59 3.02,-6.06 V 878.938 c 0,-14.247 9.47,-14.247 21.54,-14.247 h 7.3 v -11.179 c -14.65,0 -29.74,0.859 -45.19,0.859 -15.5,0 -31.01,-0.43 -46.93,-0.859 v 11.179"
         style="fill:#ffffff;fill-opacity:1;fill-rule:nonzero;stroke:none"
         id="path46" />
      <path
         d="m 5672.81,993.031 c 0,15.919 -4.75,20.219 -24.94,28.389 v 8.18 c 18.47,6.02 36.11,11.63 56.79,20.7 1.31,0 2.56,-0.89 2.56,-4.31 v -28 c 24.57,17.63 45.69,32.31 74.57,32.31 36.56,0 49.47,-26.71 49.47,-60.296 V 878.938 c 0,-14.239 9.48,-14.239 21.53,-14.239 h 7.77 v -11.187 c -15.12,0 -30.17,0.859 -45.64,0.859 -15.53,0 -31.04,-0.43 -46.53,-0.859 v 11.187 h 7.76 c 12.07,0 20.64,0 20.64,14.239 v 111.484 c 0,24.568 -15,36.598 -39.57,36.598 -13.78,0 -35.74,-11.19 -50,-20.66 V 878.938 c 0,-14.239 9.51,-14.239 21.58,-14.239 h 7.74 v -11.187 c -15.06,0 -30.16,0.859 -45.67,0.859 -15.46,0 -30.99,-0.43 -46.48,-0.859 v 11.187 h 7.77 c 12.05,0 20.65,0 20.65,14.239 v 114.093"
         style="fill:#ffffff;fill-opacity:1;fill-rule:nonzero;stroke:none"
         id="path48" />
      <path
         d="m 5969.51,986.125 c 10.76,0 12.01,5.605 12.01,10.762 0,21.943 -13.34,39.613 -37.46,39.613 -26.25,0 -44.34,-19.33 -49.49,-50.375 z m -76.21,-13.789 c -0.9,-3.895 -0.9,-10.32 0,-24.981 2.52,-40.886 28.84,-74.476 63.24,-74.476 23.73,0 42.26,12.934 58.16,28.851 l 6.02,-6.035 c -19.83,-26.265 -44.36,-48.656 -79.63,-48.656 -68.5,0 -82.27,66.332 -82.27,93.883 0,84.398 56.84,109.368 86.96,109.368 34.9,0 72.38,-21.96 72.77,-67.591 0,-2.617 0,-5.168 -0.39,-7.773 l -3.91,-2.59 H 5893.3"
         style="fill:#ffffff;fill-opacity:1;fill-rule:nonzero;stroke:none"
         id="path50" />
      <path
         d="m 6028.47,864.699 h 11.64 c 12.01,0 20.63,0 20.63,14.239 v 120.957 c 0,13.335 -15.92,15.935 -22.39,19.395 v 6.42 c 31.43,13.38 48.66,24.58 52.6,24.58 2.52,0 3.81,-1.29 3.81,-5.62 v -38.74 h 0.92 c 10.72,16.8 28.83,44.36 55.08,44.36 10.78,0 24.53,-7.31 24.53,-22.82 0,-11.64 -8.15,-21.99 -20.22,-21.99 -13.38,0 -13.38,10.35 -28.43,10.35 -7.33,0 -31.43,-9.9 -31.43,-35.748 V 878.938 c 0,-14.239 8.59,-14.239 20.64,-14.239 h 24.11 v -11.187 c -23.68,0.429 -41.7,0.859 -60.24,0.859 -17.65,0 -35.74,-0.43 -51.25,-0.859 v 11.187"
         style="fill:#ffffff;fill-opacity:1;fill-rule:nonzero;stroke:none"
         id="path52" />
      <path
         d="m 6194.23,913.371 c 5.61,-28.418 22.82,-52.543 54.28,-52.543 25.35,0 34.82,15.504 34.82,30.563 0,50.808 -93.82,34.461 -93.82,103.769 0,24.13 19.39,55.13 66.74,55.13 13.75,0 32.26,-3.89 49.06,-12.5 l 3.02,-43.892 h -9.9 c -4.29,27.102 -19.37,42.612 -46.93,42.612 -17.25,0 -33.59,-9.92 -33.59,-28.42 0,-50.41 99.9,-34.875 99.9,-102.473 0,-28.406 -22.81,-58.578 -74.06,-58.578 -17.23,0 -37.49,6.039 -52.52,14.633 l -4.75,49.531 7.75,2.168"
         style="fill:#ffffff;fill-opacity:1;fill-rule:nonzero;stroke:none"
         id="path54" />
      <path
         d="m 6706.6,1076.13 h -10.75 c -8.2,50.35 -43.94,70.6 -92.12,70.6 -49.56,0 -121.47,-33.14 -121.47,-136.47 0,-87.014 62.05,-149.432 128.32,-149.432 42.62,0 77.95,29.274 86.56,74.508 l 9.91,-2.59 -9.91,-62.848 c -18.08,-11.238 -66.73,-22.859 -95.17,-22.859 -100.72,0 -164.44,65.024 -164.44,161.911 0,88.27 78.77,151.58 163.17,151.58 34.86,0 68.46,-11.22 101.6,-22.86 l 4.3,-61.54"
         style="fill:#ffffff;fill-opacity:1;fill-rule:nonzero;stroke:none"
         id="path56" />
      <path
         d="m 6722.12,864.699 h 8.15 c 12.09,0 20.7,0 20.7,14.239 v 239.782 c 0,28.01 -6.44,28.87 -22.81,33.6 v 6.89 c 17.21,5.59 35.29,13.34 44.34,18.53 4.7,2.56 8.16,4.73 9.45,4.73 2.6,0 3.47,-2.59 3.47,-6.04 V 878.938 c 0,-14.239 9.48,-14.239 21.53,-14.239 h 7.28 v -11.187 c -14.59,0 -29.68,0.859 -45.17,0.859 -15.49,0 -31,-0.43 -46.94,-0.859 v 11.187"
         style="fill:#ffffff;fill-opacity:1;fill-rule:nonzero;stroke:none"
         id="path58" />
      <path
         d="m 6998.57,877.211 c 0,-7.781 4.73,-8.191 12.03,-8.191 5.18,0 11.62,0.41 17.25,0.41 v -9.078 c -18.56,-1.68 -53.85,-10.731 -62.03,-13.313 l -2.17,1.301 v 34.855 c -25.8,-21.093 -45.63,-36.156 -76.23,-36.156 -23.25,0 -47.35,15.063 -47.35,51.207 v 110.264 c 0,11.2 -1.7,21.97 -25.78,24.11 v 8.19 c 15.51,0.42 49.88,2.99 55.51,2.99 4.77,0 4.77,-2.99 4.77,-12.48 V 920.266 c 0,-12.938 0,-49.957 37.44,-49.957 14.63,0 34,11.187 52.07,26.226 v 115.875 c 0,8.59 -20.67,13.3 -36.12,17.62 v 7.76 c 38.7,2.59 62.86,6.01 67.13,6.01 3.48,0 3.48,-2.99 3.48,-7.75 V 877.211"
         style="fill:#ffffff;fill-opacity:1;fill-rule:nonzero;stroke:none"
         id="path60" />
      <path
         d="m 7084.23,902.18 c 0,-16.367 15.51,-43.95 44.36,-43.95 46.07,0 65.43,45.239 65.43,83.571 0,46.492 -35.27,85.219 -68.87,85.219 -15.98,0 -29.3,-10.35 -40.92,-20.25 z m 0,117.11 c 17.21,14.63 40.49,31.01 64.16,31.01 49.96,0 80.08,-43.53 80.08,-90.445 0,-56.386 -41.33,-112.816 -102.93,-112.816 -31.83,0 -48.63,10.352 -59.85,15.063 l -12.88,-9.864 -9.03,4.711 c 3.83,25.399 6.02,50.379 6.02,76.637 v 185.134 c 0,28.01 -6.48,28.87 -22.83,33.6 v 6.89 c 17.24,5.59 35.31,13.34 44.35,18.53 4.73,2.58 8.17,4.73 9.5,4.73 2.57,0 3.41,-2.58 3.41,-6.04 v -157.14"
         style="fill:#ffffff;fill-opacity:1;fill-rule:nonzero;stroke:none"
         id="path62" />
      <path
         d="m 7223.83,1073.13 h 3.28 c 3.58,0 5.27,2.71 5.27,7.07 0,4.44 -2.59,5.98 -5.44,5.98 h -3.11 z m -9.36,-14.64 v 1.38 c 3.43,0.47 4.05,0.36 4.05,2.49 v 20.54 c 0,2.89 -0.32,3.87 -3.93,3.71 v 1.41 h 14.22 c 4.89,0 9.38,-2.31 9.38,-7.34 0,-4.14 -2.74,-7.19 -6.56,-8.39 l 4.55,-6.35 c 2.13,-2.88 4.54,-5.6 6.13,-6.54 v -0.91 h -5.43 c -2.6,0 -4.86,5.48 -9.96,12.79 h -3.09 v -9.22 c 0,-1.83 0.64,-1.72 4.07,-2.19 v -1.38 z m 13.82,-7.85 c 12.43,0 21.95,10.57 21.95,22.49 0,11.97 -9.4,22.66 -21.95,22.66 -12.48,0 -22,-10.69 -22,-22.66 0,-11.92 9.52,-22.49 22,-22.49 m 0,50.34 c 15.89,0 27.75,-12.23 27.75,-27.85 0,-15.56 -11.86,-27.67 -27.75,-27.67 -15.86,0 -27.78,12.11 -27.78,27.67 0,15.62 11.92,27.85 27.78,27.85"
         style="fill:#ffffff;fill-opacity:1;fill-rule:nonzero;stroke:none"
         id="path64" />
    </g>
  </g>
</svg>
