<svg width="65" height="65" viewBox="0 0 65 65" fill="none" xmlns="http://www.w3.org/2000/svg">
<rect width="65" height="65" rx="4" fill="#FEFDFA"/>
<path d="M24.8333 45.25L22.5 49.9167C19.5279 48.6782 16.4502 47.4398 13.1783 45.3083C12.0373 44.5649 11.3455 43.3017 11.3181 41.9402C11.1757 34.9507 12.8155 27.9238 16.9673 20.4945C17.5107 19.5221 18.416 18.8093 19.466 18.4365C21.9709 17.5475 23.6713 16.8603 26.5833 16.375L28.3333 19.5833C28.3333 19.5833 30.0833 19 33 19C35.9166 19 37.6666 19.5833 37.6666 19.5833L39.4166 16.375C42.3286 16.8603 44.029 17.5475 46.5339 18.4365C47.5839 18.8093 48.4892 19.5221 49.0326 20.4945C53.1845 27.9238 54.8242 34.9507 54.6822 41.9402C54.6545 43.3017 53.9626 44.5649 52.8216 45.3083C49.5497 47.4398 46.4723 48.6782 43.5 49.9167L41.1666 45.25M21.3333 42.9167C21.3333 42.9167 27.1666 45.8333 33 45.8333C38.8333 45.8333 44.6666 42.9167 44.6666 42.9167" stroke="#161719" stroke-width="3.5" stroke-linecap="round" stroke-linejoin="round"/>
<path d="M25.7084 38.8335C27.8025 38.8335 29.5001 36.8747 29.5001 34.4585C29.5001 32.0423 27.8025 30.0835 25.7084 30.0835C23.6143 30.0835 21.9167 32.0423 21.9167 34.4585C21.9167 36.8747 23.6143 38.8335 25.7084 38.8335Z" fill="#161719"/>
<path d="M40.2917 38.8335C42.3857 38.8335 44.0833 36.8747 44.0833 34.4585C44.0833 32.0423 42.3857 30.0835 40.2917 30.0835C38.1976 30.0835 36.5 32.0423 36.5 34.4585C36.5 36.8747 38.1976 38.8335 40.2917 38.8335Z" fill="#161719"/>
</svg>
