<svg width="256" height="198" viewBox="0 0 256 198" fill="none" xmlns="http://www.w3.org/2000/svg">
<g clip-path="url(#clip0_927_2)">
<path d="M256 157.418C256 179.325 238.161 197.164 216.254 197.164H0V39.7457C0 17.8386 17.8386 0 39.7457 0H256V157.418Z" fill="white"/>
<path d="M185.584 117.046H202.015C202.484 117.046 203.579 116.89 204.049 116.89C207.178 116.264 209.839 113.447 209.839 109.535C209.839 105.78 207.178 102.963 204.049 102.181C203.579 102.024 202.641 102.024 202.015 102.024H185.584V117.046Z" fill="url(#paint0_linear_927_2)"/>
<path d="M200.137 13.3007C184.489 13.3007 171.658 25.9755 171.658 41.7799V71.3545H211.873C212.812 71.3545 213.907 71.3545 214.689 71.511C223.765 71.9804 230.494 76.6748 230.494 84.8117C230.494 91.2274 225.956 96.7041 217.506 97.7995V98.1125C226.738 98.7384 233.78 103.902 233.78 111.883C233.78 120.489 225.956 126.122 215.628 126.122H171.501V184.02H213.281C228.929 184.02 241.76 171.345 241.76 155.54V13.3007H200.137Z" fill="url(#paint1_linear_927_2)"/>
<path d="M207.804 86.6895C207.804 82.934 205.144 80.4303 202.015 79.9609C201.702 79.9609 200.919 79.8044 200.45 79.8044H185.584V93.5746H200.45C200.919 93.5746 201.858 93.5746 202.015 93.4181C205.144 92.9487 207.804 90.445 207.804 86.6895Z" fill="url(#paint2_linear_927_2)"/>
<path d="M42.7188 13.3007C27.0709 13.3007 14.2396 25.9755 14.2396 41.7799V112.039C22.22 115.951 30.5134 118.455 38.8068 118.455C48.665 118.455 53.9853 112.509 53.9853 104.372V71.198H78.3961V104.215C78.3961 117.046 70.4156 127.531 43.3447 127.531C26.9144 127.531 14.0831 123.932 14.0831 123.932V183.863H55.8631C71.511 183.863 84.3423 171.188 84.3423 155.384V13.3007H42.7188Z" fill="url(#paint3_linear_927_2)"/>
<path d="M121.428 13.3007C105.78 13.3007 92.9487 25.9755 92.9487 41.7799V79.022C100.147 72.9193 112.665 69.0073 132.851 69.9462C143.648 70.4156 155.227 73.3887 155.227 73.3887V85.4376C149.438 82.4645 142.553 79.8044 133.633 79.1785C118.298 78.0831 109.066 85.5941 109.066 98.7384C109.066 112.039 118.298 119.55 133.633 118.298C142.553 117.672 149.438 114.856 155.227 112.039V124.088C155.227 124.088 143.804 127.061 132.851 127.531C112.665 128.469 100.147 124.557 92.9487 118.455V184.176H134.729C150.377 184.176 163.208 171.501 163.208 155.697V13.3007H121.428Z" fill="url(#paint4_linear_927_2)"/>
</g>
<defs>
<linearGradient id="paint0_linear_927_2" x1="-1209.69" y1="854.99" x2="5822.07" y2="854.99" gradientUnits="userSpaceOnUse">
<stop stop-color="#007940"/>
<stop offset="0.2285" stop-color="#00873F"/>
<stop offset="0.7433" stop-color="#40A737"/>
<stop offset="1" stop-color="#5CB531"/>
</linearGradient>
<linearGradient id="paint1_linear_927_2" x1="184.325" y1="8542.41" x2="7216.63" y2="8542.41" gradientUnits="userSpaceOnUse">
<stop stop-color="#007940"/>
<stop offset="0.2285" stop-color="#00873F"/>
<stop offset="0.7433" stop-color="#40A737"/>
<stop offset="1" stop-color="#5CB531"/>
</linearGradient>
<linearGradient id="paint2_linear_927_2" x1="-1209.87" y1="766.355" x2="5822.17" y2="766.355" gradientUnits="userSpaceOnUse">
<stop stop-color="#007940"/>
<stop offset="0.2285" stop-color="#00873F"/>
<stop offset="0.7433" stop-color="#40A737"/>
<stop offset="1" stop-color="#5CB531"/>
</linearGradient>
<linearGradient id="paint3_linear_927_2" x1="26.4176" y1="8542.41" x2="7167.04" y2="8542.41" gradientUnits="userSpaceOnUse">
<stop stop-color="#1F286F"/>
<stop offset="0.4751" stop-color="#004E94"/>
<stop offset="0.8261" stop-color="#0066B1"/>
<stop offset="1" stop-color="#006FBC"/>
</linearGradient>
<linearGradient id="paint4_linear_927_2" x1="52.4895" y1="8542.41" x2="6987.69" y2="8542.41" gradientUnits="userSpaceOnUse">
<stop stop-color="#6C2C2F"/>
<stop offset="0.1735" stop-color="#882730"/>
<stop offset="0.5731" stop-color="#BE1833"/>
<stop offset="0.8585" stop-color="#DC0436"/>
<stop offset="1" stop-color="#E60039"/>
</linearGradient>
</defs>
</svg>
