<svg width="143" height="147" viewBox="0 0 143 147" fill="none" xmlns="http://www.w3.org/2000/svg">
<g clip-path="url(#clip0_457_31)">
<ellipse cx="71.5" cy="73.5" rx="71.5" ry="73.5" fill="#FCF9F2"/>
<g clip-path="url(#clip1_457_31)">
<path d="M52.4867 98.0734C52.4147 97.946 52.3504 97.8144 52.2944 97.6792C51.9068 96.7824 51.7874 95.7924 51.9508 94.8292H29.0193L63.0985 34.857L74.2865 54.5243L77.5307 48.7839L67.778 31.6026C67.3105 30.7226 66.6298 29.9738 65.7982 29.4247C64.9666 28.8756 64.0107 28.5438 63.0177 28.4596C62.0271 28.505 61.0691 28.8274 60.2526 29.3902C59.4361 29.9529 58.7939 30.7336 58.399 31.6432L23.8751 92.3429C23.359 93.2 23.0614 94.1708 23.0085 95.1699C22.9557 96.169 23.1491 97.1658 23.5719 98.0726C24.103 98.9098 24.8577 99.5816 25.7507 100.012C26.6438 100.443 27.6394 100.615 28.6252 100.509H57.5399C56.5541 100.617 55.5579 100.445 54.6646 100.015C53.7713 99.5841 53.0167 98.9115 52.4867 98.0734Z" fill="#00C492"/>
<path d="M118.968 92.343L90.5986 42.3662C90.1333 41.4768 89.4515 40.7189 88.616 40.1625C87.7805 39.6061 86.8183 39.2692 85.8182 39.1828C84.8282 39.2255 83.8702 39.5457 83.0535 40.1068C82.2368 40.6679 81.5943 41.4474 81.1995 42.3562L77.5308 48.784L80.7951 54.5244L85.8476 45.5802L113.914 94.8293H103.242C103.378 95.6434 103.302 96.4791 103.019 97.2548C102.96 97.4261 102.886 97.5919 102.797 97.7501L102.706 97.932C102.126 98.7508 101.353 99.4143 100.456 99.8636C99.559 100.313 98.565 100.534 97.5619 100.508H114.258C115.261 100.535 116.256 100.314 117.153 99.8649C118.05 99.4155 118.823 98.7515 119.402 97.932C119.859 97.0529 120.061 96.0632 119.984 95.0753C119.907 94.0875 119.555 93.1409 118.968 92.343Z" fill="#008776"/>
<path d="M102.706 97.9318L102.797 97.7499C102.886 97.5917 102.96 97.426 103.02 97.2547C103.302 96.4789 103.378 95.6433 103.242 94.8292C103.085 93.9511 102.77 93.1087 102.312 92.3429L80.8162 54.5243L77.5317 48.7839L74.2673 54.5243L52.7807 92.3439C52.3637 93.1188 52.0833 93.9599 51.952 94.8301C51.7791 95.7905 51.888 96.7803 52.2654 97.6801C52.3214 97.8153 52.3856 97.947 52.4577 98.0743C52.9889 98.9113 53.7437 99.583 54.6367 100.013C55.5298 100.444 56.5254 100.616 57.5111 100.51H97.5318C98.5399 100.54 99.5397 100.32 100.442 99.8699C101.345 99.4202 102.123 98.7544 102.706 97.9318ZM77.5309 60.2647L97.178 94.8292H57.8939L77.5309 60.2647Z" fill="#2D4A5D"/>
</g>
</g>
<defs>
<clipPath id="clip0_457_31">
<rect width="143" height="147" fill="white"/>
</clipPath>
<clipPath id="clip1_457_31">
<rect width="97" height="97" fill="white" transform="translate(23 16)"/>
</clipPath>
</defs>
</svg>
