<svg width="1000" height="325" viewBox="0 0 1000 325" fill="none" xmlns="http://www.w3.org/2000/svg">
<g clip-path="url(#clip0_735_37)">
<path d="M651.185 0.5C580.252 0.5 516.863 37.2659 516.863 105.194C516.863 183.094 629.286 188.474 629.286 227.609C629.286 244.087 610.402 258.838 578.149 258.838C532.376 258.838 498.165 238.227 498.165 238.227L483.527 306.774C483.527 306.774 522.937 324.184 575.261 324.184C652.813 324.184 713.837 285.612 713.837 216.523C713.837 134.208 600.946 128.987 600.946 92.6631C600.946 79.7549 616.448 65.6115 648.609 65.6115C684.896 65.6115 714.501 80.6011 714.501 80.6011L728.827 14.3967C728.827 14.3967 696.614 0.5 651.185 0.5ZM2.21757 5.49657L0.5 15.4897C0.5 15.4897 30.3416 20.9512 57.2188 31.8456C91.8254 44.3383 94.2906 51.6109 100.119 74.1993L163.63 319.031H248.767L379.926 5.49657H294.985L210.707 218.67L176.316 37.9742C173.163 17.2937 157.187 5.49657 137.632 5.49657H2.21757ZM414.083 5.49657L347.449 319.031H428.448L494.847 5.49657H414.083ZM865.842 5.49657C846.31 5.49657 835.962 15.9535 828.368 34.2268L709.699 319.031H794.641L811.075 271.563H914.558L924.552 319.031H999.5L934.115 5.49657H865.842ZM876.889 90.2039L902.067 207.857H834.613L876.889 90.2039Z" fill="#FCF9F2"/>
</g>
<defs>
<clipPath id="clip0_735_37">
<rect width="1000" height="324.684" fill="white"/>
</clipPath>
</defs>
</svg>
