<svg width="49" height="18" viewBox="0 0 49 18" fill="none" xmlns="http://www.w3.org/2000/svg">
<path d="M19.3243 5.95249C19.4054 5.95249 19.4831 5.91796 19.5371 5.85677C19.5968 5.78958 19.6216 5.698 19.6032 5.61017L18.7132 1.31383C18.6847 1.17608 18.5593 1.07849 18.4201 1.08749L15.3286 1.24476C14.8951 1.26691 14.406 1.57132 14.0123 1.81605L12.1554 2.96348C11.6032 3.3043 11.3138 3.75097 11.3818 4.15789C11.4144 4.35383 11.5627 4.70366 12.1892 4.84554C13.4943 5.14094 14.8234 5.38867 16.1401 5.58312C17.1825 5.73702 18.2459 5.86088 19.3003 5.95209C19.3082 5.95209 19.316 5.95249 19.3243 5.95249ZM18.2046 1.66855L18.9677 5.35C18.05 5.26366 17.1285 5.15293 16.2228 5.01931C14.9203 4.8275 13.6051 4.58202 12.3146 4.28961C12.0972 4.24044 11.9584 4.15561 11.943 4.06364C11.9204 3.92814 12.089 3.67327 12.4542 3.4473L14.3126 2.29911C14.6144 2.11144 15.0704 1.82767 15.3572 1.81302L18.2046 1.66855Z" fill="#202124"/>
<path d="M44.3099 15.3915C45.9795 15.3915 47.4344 15.2331 48.6449 14.9186C48.7961 14.8791 48.8874 14.7252 48.8495 14.574C48.6622 13.8255 48.7113 12.6799 48.9951 11.1691C49.0033 11.1255 49.0011 11.0809 48.9891 11.0385C48.7849 10.3238 48.4426 9.63879 47.9982 9.05696C47.6968 8.66171 47.3605 8.32539 46.9979 8.0578C46.3211 7.55708 45.5163 7.27106 44.7378 6.99446L44.5141 6.91488C42.9808 6.36836 41.3949 5.80311 37.8733 5.36243C36.5472 4.68304 35.197 4.0307 33.8495 3.41774C31.9964 2.57469 30.0874 1.7789 28.1749 1.05303C28.167 1.05003 28.1591 1.0474 28.1508 1.04515C27.0638 0.740356 26.0593 0.515147 25.0804 0.357116C22.573 -0.0482737 20.0176 -0.0313803 17.8484 0.0391891C15.2941 0.121768 13.1703 0.289179 11.1656 0.565441C11.1558 0.566943 11.1464 0.56882 11.137 0.571072C9.95838 0.858596 8.78501 1.21406 7.64883 1.62807C6.61777 2.00381 5.59036 2.4381 4.59341 2.91896C3.04884 2.87843 2.33566 2.87655 1.85895 4.04169C1.5001 4.9174 1.2336 6.50518 0.441986 11.2182C0.31136 11.9963 0.166469 12.86 0.00394058 13.8205C-0.0204579 13.9665 0.0707574 14.1069 0.213394 14.1437L4.77993 15.3212C4.87941 15.3475 4.98525 15.3171 5.05657 15.2427C5.12789 15.1684 5.15341 15.0615 5.12376 14.9631C4.73001 13.6666 4.96836 12.3003 5.77838 11.214C6.58315 10.1345 7.81465 9.51704 9.15964 9.51704H9.18366C10.5387 9.52417 11.7732 10.1563 12.5716 11.2512C13.3693 12.3462 13.593 13.7147 13.1854 15.0059C13.158 15.0926 13.1737 15.1868 13.2274 15.26C13.2811 15.3332 13.3663 15.3763 13.4567 15.3763L34.7667 15.3309C34.8568 15.3305 34.9412 15.2877 34.9949 15.2157C35.0486 15.1432 35.0647 15.0498 35.0384 14.9634C34.6447 13.667 34.8838 12.3003 35.6934 11.214C36.4982 10.1345 37.7297 9.51699 39.0747 9.51699H39.0987C40.4534 9.52412 41.6875 10.1562 42.4855 11.2512C43.2835 12.3457 43.5073 13.7146 43.1 15.0062C43.0733 15.091 43.0876 15.1838 43.139 15.2562C43.1904 15.3286 43.273 15.3733 43.362 15.3763C43.6855 15.3864 44.0014 15.3915 44.3099 15.3915ZM48.2388 14.4321C46.9896 14.7234 45.4792 14.8529 43.742 14.8157C44.0599 13.4588 43.7777 12.0553 42.9459 10.9142C42.0402 9.67175 40.6393 8.95443 39.1019 8.94626H39.0748C37.5482 8.94626 36.1504 9.64743 35.2371 10.8726C34.3937 12.0032 34.0961 13.4017 34.3975 14.7609L13.8301 14.8048C14.1443 13.4509 13.8613 12.0523 13.0321 10.9147C12.1264 9.67185 10.7251 8.95462 9.18729 8.94636H9.16027C7.63367 8.94636 6.23622 9.64753 5.32258 10.8727C4.50242 11.9725 4.19841 13.3256 4.46001 14.6496L0.61002 13.6567C0.754906 12.7987 0.885527 12.0198 1.00452 11.3116C1.78826 6.64517 2.05211 5.0735 2.3866 4.25673C2.71129 3.46322 3.02771 3.44596 4.64849 3.48949C4.69728 3.49175 4.73933 3.48086 4.78024 3.46097C5.7794 2.97638 6.81017 2.53947 7.84469 2.16258C8.95646 1.75758 10.105 1.40925 11.2585 1.12739C13.2389 0.854887 15.3398 0.689727 17.8678 0.607905C20.0095 0.53884 22.5308 0.521573 24.9905 0.919077C25.9443 1.07298 26.9244 1.29218 27.9855 1.58947C29.8825 2.30978 31.7762 3.09916 33.6147 3.93544C35.2284 4.66926 36.8454 5.46012 38.4204 6.28631C38.5601 6.35913 38.732 6.30545 38.8048 6.16619C38.8213 6.13466 38.8314 6.10126 38.8352 6.06748C41.5907 6.47624 42.9776 6.97096 44.324 7.45071L44.5485 7.53066C45.2876 7.79341 46.0521 8.0648 46.6606 8.5156C46.98 8.75132 47.2776 9.04935 47.5464 9.40182C47.9349 9.91043 48.2371 10.5065 48.424 11.1303C48.1627 12.5417 48.1018 13.6263 48.2388 14.4321Z" fill="#202124"/>
<path d="M7.64152 10.2775C9.55133 9.55382 11.686 10.5159 12.4089 12.4253C13.1322 14.3351 12.1705 16.4698 10.2611 17.1923C8.35125 17.916 6.21658 16.954 5.49407 15.0445C4.77039 13.1347 5.73168 11.0008 7.64152 10.2775ZM7.20572 15.481C8.17 16.4453 9.7334 16.4453 10.6977 15.481C11.6616 14.5168 11.6616 12.9534 10.6977 11.9891C9.7334 11.0248 8.17 11.0248 7.20572 11.9891C6.24068 12.9534 6.24068 14.5164 7.20572 15.481Z" fill="#202124"/>
<path d="M37.7651 10.2775C39.675 9.55382 41.8089 10.5159 42.5325 12.4253C43.2558 14.3351 42.2942 16.4698 40.3844 17.1923C38.4746 17.916 36.3399 16.954 35.617 15.0445C34.8941 13.1347 35.8558 11.0008 37.7651 10.2775ZM37.329 15.481C38.2932 16.4453 39.8567 16.4453 40.8213 15.481C41.7856 14.5168 41.7856 12.9534 40.8213 11.9891C39.857 11.0248 38.2936 11.0248 37.329 11.9891C36.3643 12.9534 36.3643 14.5164 37.329 15.481Z" fill="#202124"/>
<path d="M48.0777 10.4476C46.0353 10.0482 44.9333 9.86282 44.1342 9.65975C43.3358 9.4563 42.8395 9.23409 42.692 8.83472C45.9914 8.95333 46.3904 8.96084 46.6907 9.06819C46.9902 9.17517 47.1895 9.38202 48.0777 10.4476Z" fill="#202124"/>
<path d="M34.3827 7.12963C34.4672 7.12963 34.5479 7.0921 34.6023 7.02641C34.6616 6.95472 34.6823 6.85825 34.6571 6.76854L34.1099 4.80242C34.0873 4.72247 34.031 4.65604 33.9556 4.62038L32.9966 4.1752C32.0229 3.72253 31.0162 3.30926 30.0425 2.90949C29.749 2.789 29.4551 2.66814 29.1612 2.54615L28.9656 2.4647C28.0704 2.09197 27.1448 1.70685 26.1827 1.48389C25.3494 1.29096 24.4872 1.21927 23.6757 1.16258C21.9468 1.0421 20.6589 1.01094 19.4544 1.05711L19.2033 1.06724C19.1166 1.07099 19.0363 1.11341 18.9852 1.1836C18.9338 1.25379 18.9173 1.34313 18.9402 1.42682L20.1338 5.8057C20.1653 5.92206 20.2671 6.00576 20.3872 6.01477L20.6634 6.03617C24.8003 6.35185 29.0121 6.68666 33.1822 7.03119L34.3593 7.12879C34.3668 7.12954 34.3747 7.12954 34.3826 7.12954L34.3827 7.12963ZM33.5964 5.08174L33.9988 6.52762L33.2293 6.46381C29.058 6.11886 24.8449 5.78404 20.7067 5.4684L20.6301 5.4624L19.5832 1.62288C20.7396 1.58309 21.9791 1.61537 23.6359 1.73136C24.4245 1.78654 25.2612 1.85561 26.0543 2.03915C26.9702 2.25085 27.8734 2.62696 28.7468 2.99067L28.9428 3.07212C29.237 3.19449 29.5317 3.31535 29.826 3.43622C30.7936 3.83373 31.7943 4.24437 32.7564 4.69175L33.5964 5.08174Z" fill="#202124"/>
</svg>
