<svg width="217" height="221" viewBox="0 0 217 221" fill="none" xmlns="http://www.w3.org/2000/svg">
<mask id="mask0_371_47" style="mask-type:alpha" maskUnits="userSpaceOnUse" x="0" y="-9" width="216" height="221">
<path d="M211 101.5C211 159.875 164.778 207 108 207C51.2219 207 5 159.875 5 101.5C5 43.1255 51.2219 -4 108 -4C164.778 -4 211 43.1255 211 101.5Z" fill="#D9D9D9" stroke="#202124" stroke-width="10"/>
</mask>
<g mask="url(#mask0_371_47)">
</g>
<mask id="mask1_371_47" style="mask-type:alpha" maskUnits="userSpaceOnUse" x="103" y="91" width="216" height="221">
<path d="M314 201.5C314 259.875 267.778 307 211 307C154.222 307 108 259.875 108 201.5C108 143.125 154.222 96 211 96C267.778 96 314 143.125 314 201.5Z" fill="#D9D9D9" stroke="#202124" stroke-width="10"/>
</mask>
<g mask="url(#mask1_371_47)">
<path d="M211 101.5C211 159.875 164.778 207 108 207C51.2219 207 5 159.875 5 101.5C5 43.1255 51.2219 -4 108 -4C164.778 -4 211 43.1255 211 101.5Z" stroke="#202124" stroke-width="10"/>
</g>
<mask id="mask2_371_47" style="mask-type:alpha" maskUnits="userSpaceOnUse" x="0" y="-37" width="216" height="216">
<rect y="-37" width="216" height="216" fill="#D9D9D9"/>
</mask>
<g mask="url(#mask2_371_47)">
<path d="M314 201.5C314 259.875 267.778 307 211 307C154.222 307 108 259.875 108 201.5C108 143.125 154.222 96 211 96C267.778 96 314 143.125 314 201.5Z" stroke="#202124" stroke-width="10"/>
</g>
<mask id="mask3_371_47" style="mask-type:alpha" maskUnits="userSpaceOnUse" x="0" y="-9" width="216" height="221">
<path d="M211 101.5C211 159.875 164.778 207 108 207C51.2219 207 5 159.875 5 101.5C5 43.1255 51.2219 -4 108 -4C164.778 -4 211 43.1255 211 101.5Z" fill="#D9D9D9" stroke="#202124" stroke-width="10"/>
</mask>
<g mask="url(#mask3_371_47)">
</g>
<mask id="mask4_371_47" style="mask-type:alpha" maskUnits="userSpaceOnUse" x="-101" y="91" width="216" height="221">
<path d="M110 201.5C110 259.875 63.7781 307 7 307C-49.7781 307 -96 259.875 -96 201.5C-96 143.125 -49.7781 96 7 96C63.7781 96 110 143.125 110 201.5Z" fill="#D9D9D9" stroke="#202124" stroke-width="10"/>
</mask>
<g mask="url(#mask4_371_47)">
<path d="M211 101.5C211 159.875 164.778 207 108 207C51.2219 207 5 159.875 5 101.5C5 43.1255 51.2219 -4 108 -4C164.778 -4 211 43.1255 211 101.5Z" stroke="#202124" stroke-width="10"/>
<mask id="mask5_371_47" style="mask-type:alpha" maskUnits="userSpaceOnUse" x="0" y="-37" width="216" height="216">
<rect y="-37" width="216" height="216" fill="#D9D9D9"/>
</mask>
<g mask="url(#mask5_371_47)">
<path d="M108 201.5C108 259.875 61.7781 307 5 307C-51.7781 307 -98 259.875 -98 201.5C-98 143.125 -51.7781 96 5 96C61.7781 96 108 143.125 108 201.5Z" stroke="#202124" stroke-width="10"/>
</g>
</g>
<mask id="mask6_371_47" style="mask-type:alpha" maskUnits="userSpaceOnUse" x="12" y="3" width="185" height="98">
<rect x="12" y="3" width="185" height="98" fill="#D9D9D9"/>
</mask>
<g mask="url(#mask6_371_47)">
<path d="M192 101.5C192 149.377 154.064 188 107.5 188C60.9355 188 23 149.377 23 101.5C23 53.6226 60.9355 15 107.5 15C154.064 15 192 53.6226 192 101.5Z" stroke="#202124" stroke-width="10"/>
</g>
</svg>
