<?xml version="1.0" encoding="UTF-8"?>
<svg width="47px" height="18px" viewBox="0 0 47 18" version="1.1" xmlns="http://www.w3.org/2000/svg" xmlns:xlink="http://www.w3.org/1999/xlink">
    <!-- Generator: Sketch 47.1 (45422) - http://www.bohemiancoding.com/sketch -->
    <title>Combined Shape</title>
    <desc>Created with Sketch.</desc>
    <defs></defs>
    <g id="Dashboard-(Admin)" stroke="none" stroke-width="1" fill="none" fill-rule="evenodd">
        <g id="bedrift-copy-21" transform="translate(-40.000000, -40.000000)" fill="#0F1C14">
            <g id="Group-6">
                <g id="Group-2" transform="translate(40.000000, 40.000000)">
                    <g id="Group" transform="translate(0.028176, 0.023904)">
                        <g id="Page-1-Copy" transform="translate(0.000000, 0.000000)">
                            <path d="M2.05750554,13.6912327 L2.05750554,6.55610078 L2.05750554,6.48661945 L1.98730791,6.48661945 L2.13162821e-14,6.48661945 L2.13162821e-14,4.31757967 L1.98730791,4.31757967 L2.05750554,4.31757967 L2.05750554,4.24799112 L2.05750554,1.3578681 L4.5231973,1.3578681 L4.5231973,4.24799112 L4.5231973,4.31757967 L4.59339493,4.31757967 L10.4487223,4.31757967 L10.4487223,6.48661945 L4.59339493,6.48661945 L4.5231973,6.48661945 L4.5231973,6.55610078 L4.5231973,13.5012313 C4.5231973,15.0554471 5.25388097,15.5800955 7.41906621,15.5800955 L12.8233088,15.5800955 L12.8935064,15.5800955 L12.8935064,15.5105069 L12.8935064,4.31757967 L15.3866056,4.31757967 L15.3866056,17.7550326 L12.8232004,17.7550326 L7.00752177,17.749028 C3.39906025,17.749028 2.05750554,16.6492287 2.05750554,13.6912327 Z M18.9623515,17.7551076 L18.9623515,1.41219864 L21.4554507,1.41219864 L21.4554507,17.7551076 L18.9623515,17.7551076 Z M25.1956411,17.7551076 L25.1956411,1.41219864 L27.6888486,1.41219864 L27.6888486,17.7551076 L25.1956411,17.7551076 Z M40.4236087,4.31753678 L40.493698,4.31753678 L46.4804292,4.31753678 L46.4804292,6.48657656 L40.493698,6.48657656 L40.4236087,6.48657656 L40.4236087,6.55605789 L40.4236087,13.5010812 C40.4236087,15.0554042 41.1542924,15.5800526 43.3193693,15.5800526 L46.4804292,15.5800526 L46.4804292,17.7549897 L42.9080415,17.7489851 C39.2994716,17.7489851 37.9578086,16.6491858 37.9578086,13.6911898 L37.9578086,6.55605789 L37.9578086,6.48657656 L37.8877193,6.48657656 L37.8509955,6.48657656 L35.7937067,6.48657656 L33.8277397,6.48657656 L33.7576504,6.48657656 L33.7576504,6.55605789 L33.7576504,17.7550969 L31.2644429,17.7550969 L31.2644429,4.31753678 L33.8277397,4.31753678 L35.7937067,4.31753678 L37.8509955,4.31753678 L37.8877193,4.31753678 L37.9578086,4.31753678 L37.9578086,4.24805545 L37.9578086,1.35782521 L40.4236087,1.35782521 L40.4236087,4.24805545 L40.4236087,4.31753678 Z M13.8276657,2.80697196 C13.3063833,2.69170587 12.8858475,2.27535403 12.7693931,1.75949806 C12.5385426,0.736256834 13.4440703,-0.16003085 14.4778604,0.068464072 C14.9990345,0.183622939 15.4196786,0.599974785 15.536133,1.11593798 C15.7669836,2.1391792 14.8614558,3.03546689 13.8276657,2.80697196 Z M32.185906,2.80697196 C31.6646235,2.69170587 31.2440877,2.27535403 31.127525,1.75939083 C30.8968911,0.73614961 31.8024189,-0.160138075 32.836209,0.068464072 C33.3573831,0.183730164 33.7780272,0.599974785 33.8943733,1.11593798 C34.1252238,2.1391792 33.2196961,3.03557411 32.185906,2.80697196 Z" id="Combined-Shape"></path>
                        </g>
                    </g>
                </g>
            </g>
        </g>
    </g>
</svg>