<svg width="49" height="19" viewBox="0 0 49 19" fill="none" xmlns="http://www.w3.org/2000/svg">
<path d="M48.4401 17.8663H45.0816V11.1892L45.679 11.1486C45.98 11.1279 46.2108 10.873 46.2006 10.5716C46.1909 10.2698 45.9433 10.0308 45.6415 10.0308H41.1637V6.04227L42.732 5.82715C43.0381 5.78498 43.2524 5.5027 43.2107 5.19661C43.1685 4.89052 42.8858 4.67383 42.5798 4.71795L31.0127 6.30383C30.9428 6.3132 30.8757 6.33624 30.8136 6.37059L24.3177 10.0296H19.6142C19.5334 10.0296 19.4534 10.0472 19.3796 10.0811L17.6082 10.8979V9.21828C17.7023 9.22414 17.7964 9.23077 17.8952 9.23077C18.1079 9.23077 18.332 9.21633 18.5675 9.18549C18.874 9.14527 19.0899 8.86417 19.0496 8.55769C19.0098 8.25121 18.7275 8.03687 18.4222 8.07552C16.1625 8.3738 15.6292 6.76209 15.5741 6.57199C15.4921 6.27448 15.1833 6.10114 14.8893 6.18C14.591 6.26082 14.4138 6.56769 14.4942 6.86637C14.6699 7.51837 15.2786 8.52492 16.4893 8.98558V11.4144L12.5714 13.2209V9.80236C12.612 9.80431 12.653 9.81173 12.6932 9.81173C13.184 9.81173 13.6591 9.65634 14.0448 9.34595C14.2857 9.1523 14.3236 8.79975 14.1299 8.55924C13.9355 8.31875 13.5833 8.2797 13.3428 8.47413C12.8743 8.85167 12.2692 8.68808 11.8948 8.43353C11.4438 8.12782 11.0491 7.5172 11.2947 6.71961C11.7608 5.20239 12.7619 4.32634 14.1463 3.11366C14.3938 2.89736 14.6503 2.67248 14.9143 2.43471C16.0051 1.45124 17.1744 0.953072 17.89 1.16506C18.2918 1.28336 18.5663 1.63357 18.7287 2.23561C19.219 4.05148 18.0646 4.5918 17.9365 4.64527C17.6491 4.75772 17.5063 5.08255 17.6191 5.37029C17.7315 5.65842 18.0548 5.79976 18.3445 5.6881C18.9817 5.43901 19.9738 4.60036 19.9664 3.04846C20.1522 3.03596 20.381 3.05002 20.6043 3.14996C20.9502 3.30574 21.2208 3.64033 21.4078 4.14476C21.8017 5.20752 21.4839 6.04928 21.2591 6.45647C20.9635 6.99175 20.6027 7.2221 20.5118 7.24123C20.2088 7.30448 20.0156 7.60121 20.0788 7.90378C20.1338 8.1677 20.3669 8.34886 20.6258 8.34886C20.6641 8.34886 20.7023 8.34496 20.741 8.33676C21.2618 8.22783 21.8494 7.70231 22.2386 6.99795C22.5556 6.42324 23.0062 5.23755 22.4568 3.75621C22.1617 2.96053 21.6928 2.4131 21.0631 2.12975C20.6031 1.92282 20.153 1.90175 19.8071 1.93571C19.4709 0.703541 18.7521 0.252574 18.2067 0.0917562C17.094 -0.236595 15.5815 0.327575 14.1658 1.60348C13.9058 1.83774 13.6532 2.05871 13.4092 2.27227C12.9492 2.67519 12.5131 3.06132 12.1106 3.46037C11.3739 2.9903 10.2104 2.61002 9.26329 3.40453C8.965 3.6548 8.41489 3.88007 7.8835 4.09793C7.00583 4.45712 5.89622 4.91548 5.44805 5.76617C5.19466 5.63226 4.91941 5.53895 4.61761 5.50732C3.25541 5.36756 1.7203 6.32332 0.815667 7.18576C0.14921 7.82138 -0.133845 8.8501 0.0598057 9.93784C0.289378 11.229 1.13425 12.3354 2.26417 12.8262C2.67021 13.0022 3.08367 13.0721 3.49284 13.0721C4.32639 13.0721 5.1408 12.7836 5.85453 12.5169V16.3189L3.61588 17.3512V14.2286C3.61588 13.9193 3.36562 13.6687 3.05601 13.6687C2.74679 13.6687 2.49613 13.9193 2.49613 14.2286V17.8665L0.864573 17.8661C0.555351 17.8661 0.3047 18.1168 0.3047 18.426C0.3047 18.7352 0.554962 18.9858 0.864573 18.9858H48.4401C48.7494 18.9858 49 18.7352 49 18.426C48.9996 18.1168 48.7494 17.8661 48.4401 17.8661L48.4401 17.8663ZM43.9623 17.8663H40.6039V11.4929L43.9623 11.2649V17.8663ZM17.6558 14.1522L20.3646 12.8673L24.3724 12.5952V17.8663H17.6559L17.6558 14.1522ZM16.5361 17.8663H9.82356L16.5361 14.6827V17.8663ZM25.4917 12.519L33.3275 11.9869V17.8663H25.4917V12.519ZM34.4473 11.9111L39.4845 11.5691V17.8663H34.4473V11.9111ZM33.9804 10.0305V8.57925L40.0444 7.98853V10.0305L33.9804 10.0305ZM31.2709 7.39905L40.044 6.19617V6.86419L33.3663 7.51463C33.0793 7.54235 32.8607 7.78363 32.8607 8.07177V10.031L26.5994 10.0306L31.2709 7.39905ZM19.7378 11.1498H29.1346L20.1836 11.7577C20.1138 11.7624 20.0447 11.7804 19.9814 11.8104L7.29493 17.8272C7.27424 17.837 7.26136 17.8546 7.24262 17.8663H5.17298L19.7378 11.1498ZM2.71053 11.7991C1.76609 11.3892 1.29176 10.4678 1.16252 9.74156C1.03447 9.02435 1.19415 8.37156 1.58886 7.99556C2.35292 7.26741 3.58704 6.52991 4.50217 6.62046C4.82505 6.65404 5.08117 6.80084 5.28653 7.05422C5.34744 7.536 5.34198 7.93346 5.33417 8.28329C5.31543 9.10591 5.29825 9.88327 6.46518 10.4463C6.54327 10.4841 6.62643 10.5021 6.70803 10.5017C6.91612 10.5017 7.11641 10.3854 7.21246 10.1851C7.34677 9.9067 7.23003 9.57211 6.95166 9.4378C6.43356 9.18793 6.4363 9.07119 6.45386 8.30868C6.46323 7.89912 6.47455 7.38963 6.37617 6.74309C6.26724 6.02666 7.07073 5.64056 8.30837 5.13342C8.9475 4.87144 9.55153 4.6243 9.98331 4.26198C10.4073 3.90748 10.9609 4.09527 11.3447 4.30923C10.8684 4.90736 10.478 5.57028 10.2254 6.39096C9.87557 7.52907 10.2851 8.69447 11.2679 9.36053C11.328 9.40113 11.3908 9.43198 11.4525 9.46712V13.7372L10.3332 14.2534V9.75018C10.3332 9.44096 10.0829 9.19031 9.77333 9.19031C9.53049 9.19031 9.32903 9.34648 9.25133 9.56238C9.16153 9.62485 9.08384 9.70489 9.04246 9.8146C9.03816 9.82748 8.56653 11.0803 7.74702 10.9538C7.09111 10.8609 6.36653 11.1299 5.59893 11.418C4.60686 11.7913 3.57958 12.1774 2.71053 11.7991ZM6.97474 12.1341C7.2086 12.0728 7.4206 12.0369 7.58536 12.0623C8.25143 12.1575 8.79644 11.9006 9.21383 11.5223V14.7702L6.97518 15.8025L6.97474 12.1341Z" fill="#202124"/>
</svg>
