<svg width="50" height="23" viewBox="0 0 50 23" fill="none" xmlns="http://www.w3.org/2000/svg">
<path d="M20.4922 21.9998C20.3304 21.9995 20.1789 21.9171 20.0864 21.7792C19.9712 21.6044 19.9712 21.3737 20.0864 21.1989L26.9268 10.7949C26.9889 10.6975 27.0817 10.6251 27.189 10.5897L35.3497 8.02213C35.5577 7.95658 35.7827 8.04004 35.9038 8.22738C36.0425 8.42331 36.0301 8.69339 35.8741 8.87428L26.8671 20.2741C26.7988 20.3612 26.705 20.4224 26.6001 20.4489L20.6105 21.9895C20.5715 21.9978 20.5315 22.0013 20.4918 21.9995L20.4922 21.9998ZM27.6441 11.5243L21.6296 20.6851L26.1948 19.4937L34.0789 9.50604L27.6441 11.5243Z" fill="#202124"/>
<path d="M14.2134 15.9975C12.7691 16.0177 11.3255 15.914 9.89767 15.6875C9.07655 15.6073 7.42925 14.7942 7.16259 12.3336L2.13888 6.67453C2.01897 6.54133 1.9728 6.35365 2.01575 6.1768C2.05977 5.99994 2.18756 5.85891 2.35436 5.80256L7.05488 4.2355C7.20987 4.18326 7.37918 4.21124 7.51162 4.31012L13.6693 8.9155V8.91588C13.7706 8.9905 13.8995 9.01251 14.0183 8.97446L35.4523 1.94044C35.7243 1.83336 42.7339 -0.787447 48.281 3.21875C48.5168 3.36315 49.7793 4.1549 49.9743 5.23542C50.0599 5.70778 49.9289 6.19432 49.6203 6.55136L49.5638 6.61032C49.4664 6.70136 46.998 8.87294 32.7325 12.9757C32.5976 13.0283 32.4476 13.0197 32.3191 12.9515C32.1906 12.8835 32.0958 12.7619 32.0575 12.6171C32.0188 12.4724 32.0406 12.3175 32.1176 12.1903C32.1942 12.0631 32.3188 11.9754 32.4605 11.9485C45.6539 8.15055 48.5321 6.06444 48.8812 5.82947H48.8816C48.9704 5.72612 49.0065 5.58508 48.9789 5.44963C48.8916 4.94668 48.127 4.37993 47.773 4.16053L47.6857 4.11239C42.5542 0.394657 35.832 2.92473 35.7651 2.95166L14.3311 9.99084C13.9009 10.1248 13.4348 10.0397 13.074 9.761L7.14716 5.33739L3.4371 6.55151L8.05525 11.724C8.13328 11.8124 8.18017 11.9255 8.18876 12.0449C8.36844 14.4146 9.98496 14.607 10.0515 14.6123C15.183 15.5163 24.8246 14.0347 24.9328 14.0187H24.9331C25.2162 13.9758 25.4793 14.1806 25.5205 14.4761C25.5617 14.7716 25.3652 15.0455 25.0817 15.0884C21.4815 15.6339 17.8512 15.9376 14.213 15.9977L14.2134 15.9975Z" fill="#202124"/>
<path d="M5.48641 9.99985C5.25143 10.002 5.0494 9.82429 5.00771 9.57915C4.96602 9.33365 5.0968 9.09244 5.31766 9.00716L10.3491 7.03251V7.03287C10.4691 6.9847 10.6022 6.98969 10.7189 7.04643C10.8356 7.10316 10.9263 7.20664 10.9707 7.33474C11.0615 7.59878 10.9344 7.89102 10.6863 7.98951L5.65484 9.96918C5.60105 9.99095 5.54389 10.0013 5.48641 9.99985Z" fill="#202124"/>
<path d="M25.7662 5.99993C25.6658 5.99993 25.5674 5.97116 25.4842 5.91735L20.2283 2.55493C20.0611 2.44968 19.9744 2.25946 20.0067 2.0696C20.0284 1.88955 20.1528 1.7359 20.329 1.67194L24.8096 0.0271598C24.9171 -0.00905326 25.0344 -0.00905326 25.1418 0.0271598L33.6348 2.68598C33.7662 2.72219 33.8768 2.8085 33.9411 2.92491C34.0053 3.041 34.0176 3.17773 33.9751 3.30295C33.9326 3.42851 33.8392 3.53173 33.7163 3.58927C33.593 3.64681 33.4508 3.65324 33.3226 3.60789L24.9958 1.02185L21.5975 2.26869L26.0176 5.1072C26.2024 5.22159 26.2887 5.43819 26.2311 5.64227C26.1736 5.84635 25.9853 5.99113 25.7662 5.99993Z" fill="#202124"/>
<path d="M40.7834 4.99967C40.1292 4.9985 39.48 4.8639 38.8657 4.6025L35.3512 3.09816H35.3509C35.2218 3.05641 35.1137 2.95342 35.0525 2.81413C34.9917 2.67485 34.9833 2.51216 35.0295 2.36546C35.076 2.21916 35.1729 2.10173 35.2967 2.04203C35.4208 1.98273 35.5602 1.98624 35.682 2.05217L39.1964 3.55113C40.2289 3.99316 41.362 3.99316 42.3945 3.55113C43.9193 2.89685 45.3578 2.28708 45.3578 2.28708C45.6066 2.18213 45.8812 2.33234 45.9715 2.62261C46.0611 2.91327 45.9324 3.23358 45.6835 3.33853L42.7206 4.62524C42.0982 4.87923 41.443 5.00602 40.7835 4.99978L40.7834 4.99967Z" fill="#202124"/>
<path d="M12.5549 21.9928C12.2802 21.9893 12.0482 21.7623 12.0066 21.4569C11.9647 21.1519 12.1254 20.857 12.3864 20.7605L17.2688 19.0292C17.5651 18.9247 17.881 19.1098 17.9739 19.443C18.0672 19.7767 17.9026 20.1315 17.6059 20.2364L12.7234 21.9927C12.6678 22.0024 12.611 22.0025 12.5549 21.9928Z" fill="#202124"/>
<path d="M8.50486 23C8.25802 22.9986 8.04857 22.8947 8.00726 22.7532C7.96594 22.6118 8.1045 22.4736 8.33638 22.4246L10.287 22.0242H10.2873C10.4166 21.9918 10.5637 21.992 10.693 22.0246C10.8227 22.0573 10.9228 22.1198 10.9702 22.197C11.0179 22.2742 11.0079 22.3594 10.9434 22.4323C10.8786 22.5053 10.765 22.5593 10.6293 22.5818L8.67341 22.9822C8.61962 22.9938 8.56258 22.9998 8.50486 23Z" fill="#202124"/>
<path d="M8.51883 18.9997C8.26678 19.0024 8.04921 18.8959 8.00726 18.7493C7.96496 18.6027 8.11107 18.4599 8.35067 18.4136L10.323 18.0167C10.5875 17.9626 10.8765 18.0445 10.9704 18.2001C11.0159 18.2754 11.0088 18.3585 10.9505 18.4306C10.8922 18.5027 10.7873 18.5583 10.6593 18.5849L8.68698 18.9878C8.63259 18.9972 8.57571 19.0012 8.51883 18.9997Z" fill="#202124"/>
<path d="M1.49325 21.9993C1.28156 22.0128 1.0892 21.8403 1.02365 21.579C0.943035 21.2611 1.0751 20.9181 1.31956 20.811L5.37853 19.0321C5.62496 18.9245 5.89204 19.0962 5.97528 19.4158C6.05819 19.7358 5.9258 20.0822 5.67936 20.1897L1.64372 21.9627C1.59555 21.9852 1.54471 21.998 1.49325 21.9993Z" fill="#202124"/>
<path d="M0.562921 17.9928C0.316843 18.0049 0.0948457 17.8233 0.0233542 17.5514C-0.0184108 17.3931 -0.00373713 17.2223 0.06399 17.0766C0.131718 16.9304 0.247227 16.822 0.384941 16.7743L5.29899 15.0278C5.58496 14.9263 5.88822 15.1115 5.97589 15.441C6.06393 15.7706 5.90327 16.1201 5.6173 16.2211L0.719435 17.9928C0.667511 18.0024 0.614849 18.0023 0.562921 17.9928Z" fill="#202124"/>
</svg>
