<svg width="929" height="388" viewBox="0 0 929 388" fill="none" xmlns="http://www.w3.org/2000/svg">
<rect width="929" height="388" fill="#202124"/>
<path d="M370.773 80.543H389.719V150.465L459.641 80.543H486.496L426.828 138.355L488.156 224H462.863L412.668 152.027L389.719 174V224H370.773V80.543ZM515.305 196.168C515.305 201.246 517.16 205.25 520.871 208.18C524.582 211.109 528.977 212.574 534.055 212.574C540.24 212.574 546.229 211.142 552.023 208.277C561.789 203.525 566.672 195.745 566.672 184.938V170.777C564.523 172.145 561.757 173.284 558.371 174.195C554.986 175.107 551.665 175.758 548.41 176.148L537.766 177.516C531.385 178.362 526.6 179.697 523.41 181.52C518.007 184.579 515.305 189.462 515.305 196.168ZM557.883 160.621C561.919 160.1 564.621 158.408 565.988 155.543C566.77 153.98 567.16 151.734 567.16 148.805C567.16 142.815 565.012 138.486 560.715 135.816C556.483 133.082 550.396 131.715 542.453 131.715C533.273 131.715 526.763 134.189 522.922 139.137C520.773 141.871 519.374 145.94 518.723 151.344H502.316C502.642 138.453 506.809 129.501 514.816 124.488C522.889 119.41 532.232 116.871 542.844 116.871C555.148 116.871 565.142 119.215 572.824 123.902C580.441 128.59 584.25 135.882 584.25 145.777V206.031C584.25 207.854 584.608 209.319 585.324 210.426C586.105 211.533 587.701 212.086 590.109 212.086C590.891 212.086 591.77 212.053 592.746 211.988C593.723 211.858 594.764 211.695 595.871 211.5V224.488C593.137 225.27 591.053 225.758 589.621 225.953C588.189 226.148 586.236 226.246 583.762 226.246C577.707 226.246 573.312 224.098 570.578 219.801C569.146 217.522 568.137 214.299 567.551 210.133C563.97 214.82 558.827 218.889 552.121 222.34C545.415 225.79 538.026 227.516 529.953 227.516C520.253 227.516 512.31 224.586 506.125 218.727C500.005 212.802 496.945 205.413 496.945 196.559C496.945 186.858 499.973 179.339 506.027 174C512.082 168.661 520.025 165.374 529.855 164.137L557.883 160.621ZM613.645 80.543H631.223V224H613.645V80.543ZM661.203 90.2109H678.977V119.41H695.676V133.766H678.977V202.027C678.977 205.673 680.214 208.115 682.688 209.352C684.055 210.068 686.333 210.426 689.523 210.426C690.37 210.426 691.281 210.426 692.258 210.426C693.234 210.361 694.374 210.263 695.676 210.133V224C693.658 224.586 691.542 225.009 689.328 225.27C687.18 225.53 684.836 225.66 682.297 225.66C674.094 225.66 668.527 223.577 665.598 219.41C662.668 215.178 661.203 209.71 661.203 203.004V133.766H647.043V119.41H661.203V90.2109Z" fill="#FCF9F2"/>
<ellipse cx="235.5" cy="150.5" rx="71.5" ry="73.5" fill="#FCF9F2"/>
<g clip-path="url(#clip0_457_14)">
<circle cx="409.5" cy="309.5" r="10.5" fill="#FCF9F2"/>
<path fill-rule="evenodd" clip-rule="evenodd" d="M409.573 301.821L416.732 313.893H402.414L409.573 301.821Z" fill="#202124"/>
</g>
<g clip-path="url(#clip1_457_14)">
<circle cx="533.5" cy="310.5" r="10.5" fill="#FCF9F2"/>
<g clip-path="url(#clip2_457_14)">
<path d="M534.79 317.339C534.423 317.789 533.677 317.542 533.668 316.967L533.539 308.556H539.353C540.406 308.556 540.993 309.739 540.339 310.541L534.79 317.339Z" fill="url(#paint0_linear_457_14)"/>
<path d="M534.79 317.339C534.423 317.789 533.677 317.542 533.668 316.967L533.539 308.556H539.353C540.406 308.556 540.993 309.739 540.339 310.541L534.79 317.339Z" fill="url(#paint1_linear_457_14)" fill-opacity="0.2"/>
<path d="M532.426 303.804C532.793 303.354 533.539 303.6 533.548 304.176L533.605 312.587H527.863C526.81 312.587 526.223 311.404 526.878 310.601L532.426 303.804Z" fill="#3ECF8E"/>
</g>
</g>
<g clip-path="url(#clip3_457_14)">
<circle cx="292.5" cy="310.5" r="10.5" fill="#FCF9F2"/>
<g clip-path="url(#clip4_457_14)">
<path d="M289.708 314.01C289.697 313.992 289.688 313.974 289.68 313.954C289.623 313.826 289.605 313.685 289.629 313.547H286.262L291.266 304.98L292.909 307.789L293.386 306.969L291.953 304.515C291.885 304.389 291.785 304.282 291.663 304.204C291.54 304.125 291.4 304.078 291.254 304.066C291.109 304.072 290.968 304.118 290.848 304.199C290.728 304.279 290.634 304.391 290.576 304.52L285.506 313.192C285.43 313.314 285.387 313.453 285.379 313.596C285.371 313.738 285.399 313.881 285.462 314.01C285.54 314.13 285.65 314.226 285.782 314.287C285.913 314.349 286.059 314.374 286.204 314.358H290.45C290.305 314.374 290.159 314.349 290.028 314.288C289.896 314.226 289.786 314.13 289.708 314.01Z" fill="#00C492"/>
<path d="M299.471 313.192L295.305 306.052C295.236 305.925 295.136 305.817 295.014 305.737C294.891 305.658 294.75 305.61 294.603 305.598C294.457 305.604 294.317 305.649 294.197 305.73C294.077 305.81 293.982 305.921 293.924 306.051L293.386 306.969L293.865 307.789L294.607 306.511L298.729 313.547H297.161C297.181 313.663 297.17 313.783 297.129 313.894C297.12 313.918 297.109 313.942 297.096 313.964L297.083 313.99C296.998 314.107 296.884 314.202 296.752 314.266C296.621 314.33 296.475 314.362 296.327 314.358H298.779C298.926 314.362 299.072 314.331 299.204 314.266C299.336 314.202 299.449 314.107 299.535 313.99C299.602 313.865 299.631 313.723 299.62 313.582C299.609 313.441 299.557 313.306 299.471 313.192Z" fill="#008776"/>
<path d="M297.083 313.99L297.096 313.964C297.109 313.942 297.12 313.918 297.129 313.894C297.17 313.783 297.181 313.663 297.161 313.547C297.138 313.422 297.092 313.301 297.025 313.192L293.868 307.789L293.386 306.969L292.906 307.789L289.751 313.192C289.69 313.303 289.649 313.423 289.629 313.547C289.604 313.684 289.62 313.826 289.675 313.954C289.684 313.974 289.693 313.992 289.704 314.011C289.782 314.13 289.892 314.226 290.024 314.288C290.155 314.349 290.301 314.374 290.446 314.359H296.323C296.471 314.363 296.618 314.331 296.75 314.267C296.883 314.203 296.997 314.108 297.083 313.99ZM293.386 308.609L296.271 313.547H290.502L293.386 308.609Z" fill="#2D4A5D"/>
</g>
</g>
<path d="M433.122 303.909L437.009 314.929H437.162L441.048 303.909H442.71L437.903 317H436.267L431.46 303.909H433.122ZM447.747 317.205C446.801 317.205 445.985 316.996 445.299 316.578C444.617 316.156 444.091 315.568 443.72 314.814C443.354 314.055 443.17 313.173 443.17 312.168C443.17 311.162 443.354 310.276 443.72 309.509C444.091 308.737 444.607 308.136 445.267 307.706C445.932 307.271 446.707 307.054 447.594 307.054C448.105 307.054 448.61 307.139 449.109 307.31C449.607 307.48 450.061 307.757 450.47 308.141C450.879 308.52 451.205 309.023 451.448 309.649C451.691 310.276 451.812 311.047 451.812 311.963V312.602H444.244V311.298H450.278C450.278 310.744 450.168 310.25 449.946 309.815C449.729 309.381 449.418 309.038 449.013 308.786C448.612 308.535 448.139 308.409 447.594 308.409C446.993 308.409 446.473 308.558 446.034 308.857C445.599 309.151 445.265 309.534 445.031 310.007C444.796 310.48 444.679 310.987 444.679 311.528V312.398C444.679 313.139 444.807 313.768 445.062 314.283C445.322 314.795 445.683 315.185 446.143 315.453C446.603 315.717 447.138 315.849 447.747 315.849C448.143 315.849 448.501 315.794 448.821 315.683C449.145 315.568 449.424 315.398 449.658 315.172C449.893 314.942 450.074 314.656 450.202 314.315L451.659 314.724C451.506 315.219 451.248 315.653 450.886 316.028C450.523 316.399 450.076 316.689 449.543 316.898C449.011 317.102 448.412 317.205 447.747 317.205ZM454.107 317V307.182H455.565V308.665H455.667C455.846 308.179 456.17 307.785 456.638 307.482C457.107 307.18 457.636 307.028 458.224 307.028C458.335 307.028 458.473 307.031 458.639 307.035C458.805 307.039 458.931 307.045 459.016 307.054V308.588C458.965 308.575 458.848 308.556 458.665 308.531C458.486 308.501 458.296 308.486 458.096 308.486C457.619 308.486 457.192 308.586 456.817 308.786C456.447 308.982 456.153 309.255 455.935 309.604C455.722 309.95 455.616 310.344 455.616 310.787V317H454.107ZM464.494 317.205C463.574 317.205 462.781 316.987 462.116 316.553C461.452 316.118 460.94 315.519 460.582 314.756C460.224 313.994 460.045 313.122 460.045 312.142C460.045 311.145 460.229 310.265 460.595 309.502C460.966 308.735 461.482 308.136 462.142 307.706C462.807 307.271 463.582 307.054 464.469 307.054C465.159 307.054 465.781 307.182 466.335 307.438C466.889 307.693 467.343 308.051 467.697 308.511C468.05 308.972 468.27 309.509 468.355 310.122H466.847C466.732 309.675 466.476 309.278 466.08 308.933C465.688 308.584 465.159 308.409 464.494 308.409C463.906 308.409 463.391 308.562 462.947 308.869C462.509 309.172 462.165 309.6 461.918 310.154C461.675 310.704 461.554 311.349 461.554 312.091C461.554 312.849 461.673 313.51 461.912 314.072C462.155 314.635 462.496 315.072 462.935 315.383C463.378 315.694 463.898 315.849 464.494 315.849C464.886 315.849 465.242 315.781 465.562 315.645C465.881 315.509 466.152 315.312 466.374 315.057C466.595 314.801 466.753 314.494 466.847 314.136H468.355C468.27 314.716 468.059 315.238 467.722 315.702C467.39 316.163 466.949 316.529 466.399 316.802C465.854 317.07 465.219 317.205 464.494 317.205ZM474.677 317.205C473.731 317.205 472.915 316.996 472.229 316.578C471.547 316.156 471.021 315.568 470.65 314.814C470.283 314.055 470.1 313.173 470.1 312.168C470.1 311.162 470.283 310.276 470.65 309.509C471.021 308.737 471.536 308.136 472.197 307.706C472.862 307.271 473.637 307.054 474.523 307.054C475.035 307.054 475.54 307.139 476.038 307.31C476.537 307.48 476.991 307.757 477.4 308.141C477.809 308.52 478.135 309.023 478.378 309.649C478.621 310.276 478.742 311.047 478.742 311.963V312.602H471.174V311.298H477.208C477.208 310.744 477.097 310.25 476.876 309.815C476.658 309.381 476.347 309.038 475.942 308.786C475.542 308.535 475.069 308.409 474.523 308.409C473.923 308.409 473.403 308.558 472.964 308.857C472.529 309.151 472.195 309.534 471.96 310.007C471.726 310.48 471.609 310.987 471.609 311.528V312.398C471.609 313.139 471.737 313.768 471.992 314.283C472.252 314.795 472.612 315.185 473.072 315.453C473.533 315.717 474.067 315.849 474.677 315.849C475.073 315.849 475.431 315.794 475.751 315.683C476.075 315.568 476.354 315.398 476.588 315.172C476.822 314.942 477.004 314.656 477.131 314.315L478.589 314.724C478.435 315.219 478.178 315.653 477.815 316.028C477.453 316.399 477.006 316.689 476.473 316.898C475.94 317.102 475.342 317.205 474.677 317.205ZM482.545 303.909V317H481.037V303.909H482.545Z" fill="white"/>
<path d="M325.966 303.909V317H324.432L317.298 306.722H317.17V317H315.585V303.909H317.119L324.278 314.213H324.406V303.909H325.966ZM335.121 312.986V307.182H336.629V317H335.121V315.338H335.019C334.789 315.837 334.431 316.261 333.945 316.61C333.459 316.955 332.845 317.128 332.104 317.128C331.49 317.128 330.945 316.994 330.468 316.725C329.99 316.452 329.615 316.043 329.343 315.498C329.07 314.948 328.933 314.256 328.933 313.42V307.182H330.442V313.318C330.442 314.034 330.642 314.605 331.043 315.031C331.448 315.457 331.963 315.67 332.59 315.67C332.965 315.67 333.346 315.575 333.734 315.383C334.126 315.191 334.454 314.897 334.718 314.501C334.987 314.104 335.121 313.599 335.121 312.986ZM340.517 307.182L342.87 311.196L345.222 307.182H346.961L343.79 312.091L346.961 317H345.222L342.87 313.19L340.517 317H338.779L341.898 312.091L338.779 307.182H340.517ZM353.383 307.182V308.46H348.295V307.182H353.383ZM349.778 304.83H351.286V314.188C351.286 314.614 351.348 314.933 351.472 315.146C351.6 315.355 351.762 315.496 351.958 315.568C352.158 315.636 352.369 315.67 352.59 315.67C352.757 315.67 352.893 315.662 352.999 315.645C353.106 315.624 353.191 315.607 353.255 315.594L353.562 316.949C353.46 316.987 353.317 317.026 353.134 317.064C352.95 317.107 352.718 317.128 352.437 317.128C352.011 317.128 351.593 317.036 351.184 316.853C350.779 316.67 350.443 316.391 350.174 316.016C349.91 315.641 349.778 315.168 349.778 314.597V304.83Z" fill="white"/>
<path d="M563.744 307.182C563.668 306.534 563.357 306.031 562.811 305.673C562.266 305.315 561.597 305.136 560.804 305.136C560.224 305.136 559.717 305.23 559.283 305.418C558.852 305.605 558.516 305.863 558.273 306.191C558.034 306.519 557.915 306.892 557.915 307.31C557.915 307.659 557.998 307.96 558.164 308.211C558.335 308.458 558.552 308.665 558.816 308.831C559.08 308.993 559.357 309.127 559.647 309.234C559.937 309.336 560.203 309.419 560.446 309.483L561.776 309.841C562.116 309.93 562.496 310.054 562.913 310.212C563.335 310.369 563.738 310.585 564.121 310.857C564.509 311.126 564.829 311.471 565.08 311.893C565.332 312.315 565.457 312.832 565.457 313.446C565.457 314.153 565.272 314.793 564.901 315.364C564.535 315.935 563.998 316.388 563.29 316.725C562.587 317.062 561.733 317.23 560.727 317.23C559.79 317.23 558.978 317.079 558.292 316.776C557.61 316.474 557.073 316.052 556.681 315.511C556.293 314.969 556.074 314.341 556.023 313.625H557.659C557.702 314.119 557.868 314.528 558.158 314.852C558.452 315.172 558.822 315.411 559.27 315.568C559.722 315.722 560.207 315.798 560.727 315.798C561.332 315.798 561.876 315.7 562.357 315.504C562.839 315.304 563.22 315.027 563.501 314.673C563.783 314.315 563.923 313.898 563.923 313.42C563.923 312.986 563.802 312.632 563.559 312.359C563.316 312.087 562.996 311.865 562.6 311.695C562.204 311.524 561.776 311.375 561.315 311.247L559.705 310.787C558.682 310.493 557.872 310.073 557.276 309.528C556.679 308.982 556.381 308.268 556.381 307.386C556.381 306.653 556.579 306.014 556.975 305.469C557.376 304.919 557.913 304.493 558.586 304.19C559.263 303.884 560.02 303.73 560.855 303.73C561.699 303.73 562.449 303.881 563.105 304.184C563.761 304.482 564.281 304.891 564.665 305.411C565.053 305.931 565.257 306.521 565.278 307.182H563.744ZM574.047 312.986V307.182H575.555V317H574.047V315.338H573.944C573.714 315.837 573.356 316.261 572.871 316.61C572.385 316.955 571.771 317.128 571.03 317.128C570.416 317.128 569.871 316.994 569.393 316.725C568.916 316.452 568.541 316.043 568.268 315.498C567.996 314.948 567.859 314.256 567.859 313.42V307.182H569.368V313.318C569.368 314.034 569.568 314.605 569.969 315.031C570.373 315.457 570.889 315.67 571.515 315.67C571.89 315.67 572.272 315.575 572.66 315.383C573.052 315.191 573.38 314.897 573.644 314.501C573.912 314.104 574.047 313.599 574.047 312.986ZM578.318 320.682V307.182H579.776V308.741H579.955C580.065 308.571 580.219 308.354 580.415 308.089C580.615 307.821 580.901 307.582 581.271 307.374C581.646 307.161 582.153 307.054 582.793 307.054C583.619 307.054 584.348 307.261 584.979 307.674C585.609 308.087 586.102 308.673 586.455 309.432C586.809 310.19 586.986 311.085 586.986 312.116C586.986 313.156 586.809 314.058 586.455 314.82C586.102 315.579 585.612 316.167 584.985 316.585C584.359 316.998 583.636 317.205 582.818 317.205C582.188 317.205 581.683 317.1 581.303 316.891C580.924 316.678 580.632 316.437 580.428 316.169C580.223 315.896 580.065 315.67 579.955 315.491H579.827V320.682H578.318ZM579.801 312.091C579.801 312.832 579.91 313.487 580.127 314.053C580.344 314.616 580.662 315.057 581.08 315.376C581.497 315.692 582.009 315.849 582.614 315.849C583.244 315.849 583.771 315.683 584.192 315.351C584.619 315.014 584.938 314.562 585.151 313.996C585.369 313.425 585.477 312.79 585.477 312.091C585.477 311.401 585.371 310.778 585.158 310.224C584.949 309.666 584.631 309.225 584.205 308.901C583.783 308.573 583.253 308.409 582.614 308.409C582 308.409 581.484 308.565 581.067 308.876C580.649 309.183 580.334 309.613 580.121 310.167C579.908 310.717 579.801 311.358 579.801 312.091ZM592.176 317.23C591.554 317.23 590.989 317.113 590.482 316.879C589.975 316.64 589.572 316.297 589.274 315.849C588.976 315.398 588.827 314.852 588.827 314.213C588.827 313.651 588.938 313.195 589.159 312.845C589.381 312.491 589.677 312.214 590.048 312.014C590.418 311.814 590.827 311.665 591.275 311.567C591.727 311.464 592.18 311.384 592.636 311.324C593.233 311.247 593.717 311.19 594.087 311.151C594.462 311.109 594.735 311.038 594.906 310.94C595.08 310.842 595.168 310.672 595.168 310.429V310.378C595.168 309.747 594.995 309.257 594.65 308.908C594.309 308.558 593.791 308.384 593.097 308.384C592.376 308.384 591.812 308.541 591.403 308.857C590.994 309.172 590.706 309.509 590.54 309.866L589.108 309.355C589.364 308.759 589.705 308.294 590.131 307.962C590.561 307.625 591.03 307.391 591.537 307.259C592.048 307.122 592.551 307.054 593.045 307.054C593.361 307.054 593.723 307.092 594.132 307.169C594.545 307.241 594.944 307.393 595.327 307.623C595.715 307.853 596.037 308.2 596.293 308.665C596.548 309.129 596.676 309.751 596.676 310.531V317H595.168V315.67H595.091C594.989 315.884 594.818 316.112 594.58 316.354C594.341 316.597 594.023 316.804 593.627 316.974C593.231 317.145 592.747 317.23 592.176 317.23ZM592.406 315.875C593.003 315.875 593.506 315.758 593.915 315.523C594.328 315.289 594.639 314.987 594.848 314.616C595.061 314.245 595.168 313.855 595.168 313.446V312.065C595.104 312.142 594.963 312.212 594.746 312.276C594.533 312.336 594.286 312.389 594.004 312.436C593.727 312.479 593.457 312.517 593.192 312.551C592.933 312.581 592.722 312.607 592.56 312.628C592.168 312.679 591.801 312.762 591.46 312.877C591.124 312.988 590.851 313.156 590.642 313.382C590.438 313.604 590.335 313.906 590.335 314.29C590.335 314.814 590.529 315.21 590.917 315.479C591.309 315.743 591.805 315.875 592.406 315.875ZM599.634 317V303.909H601.143V308.741H601.27C601.381 308.571 601.535 308.354 601.731 308.089C601.931 307.821 602.216 307.582 602.587 307.374C602.962 307.161 603.469 307.054 604.108 307.054C604.935 307.054 605.664 307.261 606.295 307.674C606.925 308.087 607.417 308.673 607.771 309.432C608.125 310.19 608.302 311.085 608.302 312.116C608.302 313.156 608.125 314.058 607.771 314.82C607.417 315.579 606.927 316.167 606.301 316.585C605.675 316.998 604.952 317.205 604.134 317.205C603.503 317.205 602.998 317.1 602.619 316.891C602.24 316.678 601.948 316.437 601.743 316.169C601.539 315.896 601.381 315.67 601.27 315.491H601.091V317H599.634ZM601.117 312.091C601.117 312.832 601.226 313.487 601.443 314.053C601.66 314.616 601.978 315.057 602.395 315.376C602.813 315.692 603.324 315.849 603.93 315.849C604.56 315.849 605.086 315.683 605.508 315.351C605.934 315.014 606.254 314.562 606.467 313.996C606.684 313.425 606.793 312.79 606.793 312.091C606.793 311.401 606.687 310.778 606.474 310.224C606.265 309.666 605.947 309.225 605.521 308.901C605.099 308.573 604.569 308.409 603.93 308.409C603.316 308.409 602.8 308.565 602.383 308.876C601.965 309.183 601.65 309.613 601.437 310.167C601.224 310.717 601.117 311.358 601.117 312.091ZM613.498 317.23C612.876 317.23 612.312 317.113 611.805 316.879C611.297 316.64 610.895 316.297 610.596 315.849C610.298 315.398 610.149 314.852 610.149 314.213C610.149 313.651 610.26 313.195 610.481 312.845C610.703 312.491 610.999 312.214 611.37 312.014C611.741 311.814 612.15 311.665 612.597 311.567C613.049 311.464 613.503 311.384 613.959 311.324C614.555 311.247 615.039 311.19 615.41 311.151C615.785 311.109 616.057 311.038 616.228 310.94C616.403 310.842 616.49 310.672 616.49 310.429V310.378C616.49 309.747 616.317 309.257 615.972 308.908C615.631 308.558 615.113 308.384 614.419 308.384C613.699 308.384 613.134 308.541 612.725 308.857C612.316 309.172 612.028 309.509 611.862 309.866L610.43 309.355C610.686 308.759 611.027 308.294 611.453 307.962C611.883 307.625 612.352 307.391 612.859 307.259C613.371 307.122 613.873 307.054 614.368 307.054C614.683 307.054 615.045 307.092 615.454 307.169C615.868 307.241 616.266 307.393 616.65 307.623C617.037 307.853 617.359 308.2 617.615 308.665C617.871 309.129 617.998 309.751 617.998 310.531V317H616.49V315.67H616.413C616.311 315.884 616.14 316.112 615.902 316.354C615.663 316.597 615.346 316.804 614.949 316.974C614.553 317.145 614.069 317.23 613.498 317.23ZM613.729 315.875C614.325 315.875 614.828 315.758 615.237 315.523C615.65 315.289 615.961 314.987 616.17 314.616C616.383 314.245 616.49 313.855 616.49 313.446V312.065C616.426 312.142 616.285 312.212 616.068 312.276C615.855 312.336 615.608 312.389 615.327 312.436C615.05 312.479 614.779 312.517 614.515 312.551C614.255 312.581 614.044 312.607 613.882 312.628C613.49 312.679 613.123 312.762 612.782 312.877C612.446 312.988 612.173 313.156 611.964 313.382C611.76 313.604 611.657 313.906 611.657 314.29C611.657 314.814 611.851 315.21 612.239 315.479C612.631 315.743 613.128 315.875 613.729 315.875ZM627.706 309.381L626.351 309.764C626.266 309.538 626.14 309.319 625.974 309.106C625.812 308.888 625.591 308.71 625.309 308.569C625.028 308.428 624.668 308.358 624.229 308.358C623.628 308.358 623.127 308.496 622.727 308.773C622.331 309.046 622.132 309.393 622.132 309.815C622.132 310.19 622.269 310.487 622.542 310.704C622.814 310.921 623.24 311.102 623.82 311.247L625.277 311.605C626.155 311.818 626.809 312.144 627.24 312.583C627.67 313.018 627.885 313.578 627.885 314.264C627.885 314.827 627.723 315.33 627.4 315.773C627.08 316.216 626.632 316.565 626.057 316.821C625.482 317.077 624.813 317.205 624.05 317.205C623.049 317.205 622.22 316.987 621.564 316.553C620.907 316.118 620.492 315.483 620.317 314.648L621.749 314.29C621.885 314.818 622.143 315.214 622.522 315.479C622.906 315.743 623.407 315.875 624.025 315.875C624.728 315.875 625.286 315.726 625.699 315.428C626.117 315.125 626.326 314.763 626.326 314.341C626.326 314 626.206 313.714 625.968 313.484C625.729 313.25 625.363 313.075 624.868 312.96L623.232 312.577C622.333 312.364 621.672 312.033 621.25 311.586C620.833 311.134 620.624 310.57 620.624 309.892C620.624 309.338 620.779 308.848 621.091 308.422C621.406 307.996 621.834 307.661 622.375 307.418C622.921 307.175 623.539 307.054 624.229 307.054C625.201 307.054 625.963 307.267 626.517 307.693C627.076 308.119 627.472 308.682 627.706 309.381ZM634.273 317.205C633.327 317.205 632.51 316.996 631.824 316.578C631.143 316.156 630.616 315.568 630.246 314.814C629.879 314.055 629.696 313.173 629.696 312.168C629.696 311.162 629.879 310.276 630.246 309.509C630.616 308.737 631.132 308.136 631.792 307.706C632.457 307.271 633.233 307.054 634.119 307.054C634.631 307.054 635.135 307.139 635.634 307.31C636.133 307.48 636.586 307.757 636.996 308.141C637.405 308.52 637.731 309.023 637.974 309.649C638.216 310.276 638.338 311.047 638.338 311.963V312.602H630.77V311.298H636.804C636.804 310.744 636.693 310.25 636.471 309.815C636.254 309.381 635.943 309.038 635.538 308.786C635.138 308.535 634.665 308.409 634.119 308.409C633.518 308.409 632.998 308.558 632.559 308.857C632.125 309.151 631.79 309.534 631.556 310.007C631.322 310.48 631.204 310.987 631.204 311.528V312.398C631.204 313.139 631.332 313.768 631.588 314.283C631.848 314.795 632.208 315.185 632.668 315.453C633.128 315.717 633.663 315.849 634.273 315.849C634.669 315.849 635.027 315.794 635.346 315.683C635.67 315.568 635.949 315.398 636.184 315.172C636.418 314.942 636.599 314.656 636.727 314.315L638.184 314.724C638.031 315.219 637.773 315.653 637.411 316.028C637.049 316.399 636.601 316.689 636.069 316.898C635.536 317.102 634.937 317.205 634.273 317.205Z" fill="white"/>
<defs>
<linearGradient id="paint0_linear_457_14" x1="533.539" y1="310.421" x2="538.663" y2="312.63" gradientUnits="userSpaceOnUse">
<stop stop-color="#249361"/>
<stop offset="1" stop-color="#3ECF8E"/>
</linearGradient>
<linearGradient id="paint1_linear_457_14" x1="531.248" y1="307.37" x2="533.505" y2="311.737" gradientUnits="userSpaceOnUse">
<stop/>
<stop offset="1" stop-opacity="0"/>
</linearGradient>
<clipPath id="clip0_457_14">
<rect width="21" height="21" fill="white" transform="translate(399 299)"/>
</clipPath>
<clipPath id="clip1_457_14">
<rect width="21" height="21" fill="white" transform="translate(523 300)"/>
</clipPath>
<clipPath id="clip2_457_14">
<rect width="14.3916" height="14" fill="white" transform="translate(526.378 303.571)"/>
</clipPath>
<clipPath id="clip3_457_14">
<rect width="21" height="21" fill="white" transform="translate(282 300)"/>
</clipPath>
<clipPath id="clip4_457_14">
<rect width="14.2448" height="13.8571" fill="white" transform="translate(285.378 302.286)"/>
</clipPath>
</defs>
</svg>
