<svg width="223" height="196" viewBox="0 0 223 196" fill="none" xmlns="http://www.w3.org/2000/svg">
<g clip-path="url(#clip0_2922_342)">
<g opacity="0.5" filter="url(#filter0_f_2922_342)">
<path d="M155.083 86.5452C163.833 94.5938 170.107 105.84 170.272 117.361C170.492 128.828 164.604 140.515 155.853 145.311C147.103 150.052 135.436 147.957 123.714 148.012C111.992 148.067 100.16 150.327 91.3 145.531C82.3847 140.79 76.4412 128.938 77.7619 118.464C79.0827 107.99 87.7779 98.8937 96.6382 90.9003C105.554 82.8517 114.634 75.9608 124.87 74.9134C135.051 73.8108 146.278 78.5518 155.083 86.5452Z" fill="#33FFC0"/>
<path d="M107.046 116.248C96.9901 122.653 84.4831 125.822 73.2943 122.987C62.1445 120.219 52.3662 111.462 49.9966 101.717C47.6803 91.9869 52.7337 81.2011 55.7215 69.8029C58.7093 58.4047 59.5924 46.3262 66.5308 38.9684C73.4302 31.5429 86.4382 28.8524 96.2282 32.8583C106.018 36.8643 112.562 47.6736 117.996 58.3566C123.469 69.1074 127.78 79.7176 126.138 89.9308C124.563 100.105 117.064 109.775 107.046 116.248Z" fill="#5FB0FC"/>
<path d="M110.134 89.651C99.0331 115.194 85.0803 120.152 79.4915 119.438H76.2152V134.235C87.5214 130.211 112.716 118.932 123.046 106.005C133.376 93.0776 139.298 70.6365 140.969 61.0318L126.707 46.0408C125.808 49.9346 121.234 64.1079 110.134 89.651Z" fill="#FEFDFA"/>
<path d="M100.192 85.8476C82.4592 107.242 67.6271 108.11 62.4277 105.871L59.2648 104.959L55.2004 119.141C67.2207 118.432 94.6421 114.633 108.166 105.117C121.689 95.6011 133.571 75.7392 137.822 66.9978L128.172 48.6591C126.234 52.1411 117.925 64.4535 100.192 85.8476Z" fill="#FEFDFA"/>
<path d="M108.602 89.9663C84.0714 102.955 70.031 98.0813 66.077 94.021L63.5004 91.9676L54.3481 103.522C65.7289 107.466 92.5206 114.45 108.641 110.829C124.761 107.209 143.3 93.3977 150.555 86.9446L148.612 66.3001C145.496 68.777 133.132 76.9778 108.602 89.9663Z" fill="#FEFDFA"/>
<path d="M109.614 128.082C109.614 148.471 93.1352 165 72.8072 165C52.4791 165 36 148.471 36 128.082C36 107.692 52.4791 91.1633 72.8072 91.1633C93.1352 91.1633 109.614 107.692 109.614 128.082Z" fill="#FEFDFA"/>
<path d="M188 62.7908C188 80.3484 173.81 94.5816 156.305 94.5816C138.8 94.5816 124.61 80.3484 124.61 62.7908C124.61 45.2332 138.8 31 156.305 31C173.81 31 188 45.2332 188 62.7908Z" fill="#FEFDFA"/>
</g>
</g>
<defs>
<filter id="filter0_f_2922_342" x="-8.6" y="-13.6" width="241.2" height="223.2" filterUnits="userSpaceOnUse" color-interpolation-filters="sRGB">
<feFlood flood-opacity="0" result="BackgroundImageFix"/>
<feBlend mode="normal" in="SourceGraphic" in2="BackgroundImageFix" result="shape"/>
<feGaussianBlur stdDeviation="22.3" result="effect1_foregroundBlur_2922_342"/>
</filter>
<clipPath id="clip0_2922_342">
<rect width="223" height="196" fill="white"/>
</clipPath>
</defs>
</svg>
