<svg width="90" height="90" viewBox="0 0 90 90" fill="none" xmlns="http://www.w3.org/2000/svg">
<path d="M55.3 25.6H12.1C7.6315 25.6 4 29.2315 4 33.7V76.9C4 81.3685 7.6315 85 12.1 85H55.3C59.7685 85 63.4 81.3685 63.4 76.9V33.7C63.4 29.2315 59.7685 25.6 55.3 25.6ZM58 76.9C58 78.385 56.785 79.6 55.3 79.6H12.1C10.615 79.6 9.4 78.385 9.4 76.9V33.7C9.4 32.215 10.615 31 12.1 31H55.3C56.785 31 58 32.215 58 33.7V76.9Z" fill="#202124"/>
<path d="M76.9 4H33.7C29.2315 4 25.6 7.6315 25.6 12.1V14.8C25.6 16.285 26.815 17.5 28.3 17.5C29.785 17.5 31 16.285 31 14.8V12.1C31 10.615 32.215 9.4 33.7 9.4H76.9C78.385 9.4 79.6 10.615 79.6 12.1V55.3C79.6 56.785 78.385 58 76.9 58H74.2C72.715 58 71.5 59.215 71.5 60.7C71.5 62.185 72.715 63.4 74.2 63.4H76.9C81.3685 63.4 85 59.7685 85 55.3V12.1C85 7.6315 81.3685 4 76.9 4Z" fill="#202124"/>
</svg>
