<svg width="90" height="90" viewBox="0 0 90 90" fill="none" xmlns="http://www.w3.org/2000/svg">
<path fill-rule="evenodd" clip-rule="evenodd" d="M85.1909 87.5311C85.1909 86.203 86.2651 85.1288 87.5932 85.1288C88.933 85.1288 89.9994 86.1874 89.9994 87.5976C89.9994 88.9257 88.9252 89.9999 87.5932 89.9999C86.2534 89.9999 85.1909 88.9413 85.1909 87.5311ZM79.6948 85.1913H72.0229V57.5893C72.0229 52.4799 67.8588 48.3159 62.7495 48.3159H27.2495C22.1401 48.3159 17.9761 52.48 17.9761 57.5893V85.1913H9.2769C6.8199 85.1913 4.8121 83.1835 4.8121 80.7265V28.4105C4.8121 27.2777 5.11679 26.4144 5.8355 25.5511L21.7265 6.4181C22.6249 5.3322 23.7538 4.8126 25.1718 4.8126H30.6835V18.8246C30.6835 23.934 34.8476 28.098 39.9569 28.098H62.7539C67.8633 28.098 72.0273 23.9339 72.0273 18.8246V4.8126H80.7265C83.1835 4.8126 85.1913 6.8204 85.1913 9.2774V79.6324C85.1913 80.9605 86.2655 82.0347 87.5936 82.0347C88.9217 82.0347 89.9998 80.9605 89.9998 79.6324V9.2734C89.9998 4.1601 85.8357 0 80.7264 0H25.1644C22.3558 0 19.8402 1.1836 18.0394 3.3555L2.1484 22.4885C0.7304 24.1955 0 26.2033 0 28.4104V80.7264C0 85.8358 4.1641 89.9998 9.2734 89.9998H79.6954C81.0235 89.9998 82.0977 88.9256 82.0977 87.5975C82.0977 86.2694 81.0229 85.1913 79.6948 85.1913ZM22.7848 85.1913V57.5893C22.7848 55.1323 24.7926 53.1245 27.2496 53.1245H62.7496C65.2066 53.1245 67.2144 55.1323 67.2144 57.5893V85.1913H22.7848ZM45.0308 17.6093C45.0308 18.9374 43.9527 20.0155 42.6285 20.0155C41.3004 20.0155 40.2223 18.9374 40.2223 17.6093V10.4804C40.2223 9.1523 41.3004 8.0781 42.6285 8.0781C43.9566 8.0781 45.0308 9.1523 45.0308 10.4804V17.6093ZM67.2148 4.8083V18.8203C67.2148 21.2773 65.207 23.2851 62.75 23.2851H39.953C37.496 23.2851 35.4882 21.2773 35.4882 18.8203V4.8083H67.2182H67.2148Z" fill="#202124"/>
</svg>
