<svg width="90" height="80" viewBox="0 0 90 80" fill="none" xmlns="http://www.w3.org/2000/svg">
<path fill-rule="evenodd" clip-rule="evenodd" d="M22.98 46.112L78.555 6.47701L5.64999 21.813L22.98 46.112ZM24.309 55.171L24.292 67.747L30.249 63.5L24.309 55.171ZM80.984 9.87601L63.605 38.928L42.737 73.814L34.867 62.779L25.406 49.514L80.984 9.87601ZM88.884 0.528007C88.9706 0.57451 89.0541 0.626621 89.134 0.684007L89.171 0.712007L89.209 0.742007L89.247 0.773007L89.285 0.806007L89.322 0.840007C89.5925 1.09109 89.7913 1.40966 89.898 1.76301V1.77301L89.91 1.81701L89.922 1.86401L89.932 1.90701V1.91701L89.937 1.93901V1.96101C90.0257 2.42359 89.9553 2.9026 89.737 3.32001V3.32501L89.72 3.35801L89.704 3.38601L89.692 3.40701V3.41401L89.683 3.42801L89.671 3.45001V3.45801L89.662 3.47101L89.649 3.49201V3.49801L44.682 78.7C44.5035 78.9975 44.2537 79.2459 43.9553 79.4228C43.6568 79.5997 43.319 79.6994 42.9723 79.7131C42.6256 79.7268 42.281 79.654 41.9695 79.5012C41.658 79.3484 41.3894 79.1205 41.188 78.838L32.675 66.9L23.411 73.506C23.0987 73.7286 22.7312 73.8609 22.3488 73.8884C21.9663 73.9159 21.5837 73.8376 21.2428 73.6619C20.9019 73.4863 20.616 73.2203 20.4163 72.8929C20.2167 72.5655 20.111 72.1895 20.111 71.806L20.142 49.331L0.392989 21.637C0.191555 21.3542 0.0638058 21.0256 0.0212971 20.6809C-0.0212116 20.3363 0.0228606 19.9865 0.149528 19.6632C0.276195 19.3399 0.481461 19.0532 0.746761 18.8292C1.01206 18.6051 1.32903 18.4508 1.66899 18.38L87.479 0.329007L87.518 0.321007H87.527H87.546H87.58H87.596H87.606H87.645C88.0118 0.276084 88.384 0.32994 88.723 0.477007H88.733L88.769 0.494007C88.797 0.506007 88.823 0.520007 88.85 0.533007L88.86 0.538007H88.868L88.884 0.528007Z" fill="#202124"/>
</svg>
