<?xml version="1.0" encoding="utf-8"?>
<svg version="1.1" xmlns="http://www.w3.org/2000/svg" xmlns:xlink="http://www.w3.org/1999/xlink" x="0px" y="0px"
	 viewBox="0 0 280.58 302.16" style="enable-background:new 0 0 280.58 302.16;" xml:space="preserve">
<style type="text/css">
	.st1{fill:none;stroke:#000000;stroke-width:12;stroke-miterlimit:10;}
</style>
<g id="smiley">
	<path class="st1" d="M217.03,150.74c0,42.46-34.42,76.89-76.89,76.89s-76.89-34.42-76.89-76.89"/>
	<g>
		<path d="M81.24,100.98c-6.64,0-12.02,5.38-12.02,12.02s5.38,12.02,12.02,12.02s12.02-5.38,12.02-12.02S87.88,100.98,81.24,100.98
			L81.24,100.98z"/>
	</g>
	<g>
		<path d="M199.77,100.98c-6.64,0-12.02,5.38-12.02,12.02s5.38,12.02,12.02,12.02s12.02-5.38,12.02-12.02
			S206.41,100.98,199.77,100.98L199.77,100.98z"/>
	</g>
	<g>
		<path d="M140.15,43.17c28.73,0,55.75,11.19,76.07,31.51c20.32,20.32,31.51,47.33,31.51,76.07s-11.19,55.75-31.51,76.07
			c-20.32,20.32-47.33,31.51-76.07,31.51s-55.75-11.19-76.07-31.51c-20.32-20.32-31.51-47.33-31.51-76.07s11.19-55.75,31.51-76.07
			C84.4,54.36,111.41,43.17,140.15,43.17 M140.15,30.17c-66.59,0-120.58,53.98-120.58,120.58s53.98,120.58,120.58,120.58
			s120.58-53.98,120.58-120.58S206.74,30.17,140.15,30.17L140.15,30.17z"/>
	</g>
</g>
</svg>
