<svg width="67" height="90" viewBox="0 0 67 90" xmlns="http://www.w3.org/2000/svg">
    <g fill="none" fill-rule="evenodd">
        <path fill="#EA426B" d="M66.869 41.605 33.434 0 0 41.605v29.13l19.144 18.59h28.58l19.145-18.59v-29.13"/>
        <path fill="#FF164E" d="m23.357 78.94-12.97-12.596V45.26l23.047-28.68 23.048 28.68v21.083L43.512 78.94H23.357"/>
        <path fill="#BD103A" d="m19.144 89.326 4.213-10.386h20.155l4.213 10.386H19.144"/>
        <path fill="#DA214E" d="M47.725 89.326 43.512 78.94l12.97-12.596 10.387 4.392-19.144 18.59M0 70.736l10.386-4.392L23.357 78.94l-4.213 10.386L0 70.736"/>
        <path fill="#DE3F66" d="m56.482 45.261-23.048-28.68V0L66.87 41.605 56.482 45.26"/>
        <path fill="#FF7093" d="M10.386 45.261 0 41.605 33.434 0v16.58L10.386 45.262"/>
        <path fill="#EA426B" d="M0 70.736V41.605l10.386 3.656v21.083L0 70.736"/>
        <path fill="#FF4774" d="M10.386 59.15v-6.576l8.835-18.307 8.065-10.036-16.9 34.919M22.451 78.06l-2.179-2.116 22.946-47.19 1.998 2.488L22.451 78.06M43.512 78.94h-.367l13.337-27.556v6.626L48.908 73.7l-5.396 5.24M18.58 74.3l-7.331-7.119L34.92 18.43l6.745 8.393L18.579 74.3M38.227 78.94h-7.723l19.994-41.126 4.783 5.952L38.227 78.94"/>
        <path fill="#FFF" d="m33.434 16.58 23.048 28.681v21.083l-1.2-20.325zM33.434 16.58 10.386 45.262 0 41.704l10.386 4.66v19.98l.863-20.325z"/>
        <path d="M55.543 48.827c-.52 3.695 0 8.34-6.59 8.9 1.952.911 4.132 1.706 5.494 3.534 1.212 1.628 2.195 4.366 2.4 6.361.373-2.151-.127-4.155 1.203-6.361a6.228 6.228 0 0 1 4.551-2.999c-2.108-1.156-3.94-.986-5.204-3.501a18.538 18.538 0 0 1-1.24-2.97c-.313-1.035-.203-2.637-.868-3.392l.254.428zM10.543 35.827c-.52 3.695 0 8.34-6.59 8.9 1.952.911 4.132 1.706 5.494 3.534 1.212 1.628 2.195 4.366 2.4 6.361.373-2.151-.127-4.155 1.203-6.361a6.228 6.228 0 0 1 4.551-2.999c-2.108-1.156-3.94-.986-5.204-3.501a18.538 18.538 0 0 1-1.24-2.97c-.313-1.035-.203-2.637-.868-3.392l.254.428z" fill="#FFF" fill-rule="nonzero" opacity=".7"/>
    </g>
</svg>
