<svg width="40" height="40" viewBox="0 0 40 40" fill="none" xmlns="http://www.w3.org/2000/svg">
<g clip-path="url(#clip0_35_43)">
<circle cx="10" cy="26" r="2" transform="rotate(-180 10 26)" fill="#161719"/>
<circle cx="30" cy="26" r="2" transform="rotate(-180 30 26)" fill="#161719"/>
<circle cx="20" cy="20" r="19" transform="rotate(-180 20 20)" stroke="#161719" stroke-width="2"/>
<mask id="path-4-inside-1_35_43" fill="white">
<path d="M34 20L6 20C6 12.268 12.268 6 20 6C27.732 6 34 12.268 34 20Z"/>
</mask>
<path d="M34 20L6 20L34 20ZM4 20C4 11.1634 11.1634 4 20 4C28.8366 4 36 11.1634 36 20L32 20C32 13.3726 26.6274 8 20 8C13.3726 8 8 13.3726 8 20L4 20ZM20 4C28.8366 4 36 11.1634 36 20L32 20C32 13.3726 26.6274 8 20 8L20 4ZM4 20C4 11.1634 11.1634 4 20 4L20 8C13.3726 8 8 13.3726 8 20L4 20Z" fill="#161719" mask="url(#path-4-inside-1_35_43)"/>
</g>
<defs>
<clipPath id="clip0_35_43">
<rect width="40" height="40" fill="white"/>
</clipPath>
</defs>
</svg>
