<svg width="40" height="40" viewBox="0 0 40 40" fill="none" xmlns="http://www.w3.org/2000/svg">
<path fill-rule="evenodd" clip-rule="evenodd" d="M27.7843 29.3266C25.8504 30.9826 23.4956 32.9989 20.3993 35.8433C20.2902 35.9441 20.1478 36 20 36C19.8522 36 19.7098 35.9441 19.6007 35.8433C16.5044 32.9993 14.15 30.9826 12.2157 29.3266C8.35541 26.0202 6.1519 24.1328 3.15276 20.0659L3.14093 20.0523C2.30107 18.9347 1.6886 17.66 1.33888 16.3018C0.989163 14.9436 0.909127 13.5289 1.10339 12.1393C1.29766 10.7497 1.76238 9.4128 2.47072 8.20571C3.17907 6.99862 4.117 5.94529 5.23036 5.10655C6.34373 4.2678 7.61047 3.66025 8.95745 3.31897C10.3044 2.9777 11.705 2.90946 13.0782 3.11819C14.4514 3.32693 15.7701 3.80851 16.9581 4.53512C18.1462 5.26173 19.18 6.21898 20 7.3516C20.82 6.21898 21.8538 5.26173 23.0419 4.53512C24.2299 3.80851 25.5486 3.32693 26.9218 3.11819C28.295 2.90946 29.6956 2.9777 31.0426 3.31897C32.3895 3.66025 33.6563 4.2678 34.7696 5.10655C35.883 5.94529 36.8209 6.99862 37.5293 8.20571C38.2376 9.4128 38.7023 10.7497 38.8966 12.1393C39.0909 13.5289 39.0108 14.9436 38.6611 16.3018C38.3114 17.66 37.6989 18.9347 36.8591 20.0523C33.8532 24.1286 31.6492 26.0164 27.7843 29.3266Z" fill="#161719"/>
<path d="M19.9946 9.03742C20.0978 9.03815 20.1994 9.01158 20.2893 8.96035C20.3792 8.90912 20.4543 8.83501 20.507 8.74538C21.162 7.64928 22.031 6.6995 23.061 5.95399C24.0911 5.20847 25.2607 4.68285 26.4984 4.40918C27.7361 4.13551 29.016 4.11953 30.2601 4.36222C31.5041 4.60491 32.6861 5.10118 33.7341 5.82076C34.7821 6.54033 35.6741 7.46813 36.3556 8.54755C37.0371 9.62697 37.4939 10.8354 37.698 12.0991C37.9022 13.3628 37.8495 14.6553 37.5431 15.8977C37.2367 17.1401 36.6831 18.3064 35.916 19.3255L35.9113 19.3319C32.9891 23.298 30.8211 25.1547 27.0183 28.4115C25.1549 30.0064 22.9066 31.9331 20 34.5908C17.0934 31.9331 14.8438 30.0064 12.9817 28.4115C9.18442 25.1594 7.01725 23.3031 4.10177 19.3494C4.09614 19.3414 4.09022 19.3333 4.08402 19.3251C3.3138 18.3067 2.7572 17.1402 2.44823 15.897C2.13926 14.6537 2.08443 13.3599 2.28708 12.0945C2.48973 10.8292 2.94561 9.61888 3.62685 8.53763C4.30808 7.45638 5.20036 6.5269 6.24914 5.806C7.29792 5.0851 8.48116 4.58794 9.72653 4.34491C10.9719 4.10187 12.2532 4.11807 13.4922 4.39251C14.7312 4.66695 15.9017 5.19387 16.9323 5.94105C17.9629 6.68824 18.8319 7.63999 19.4862 8.73812M27.7843 29.3266C25.8504 30.9826 23.4956 32.9989 20.3993 35.8433C20.2902 35.9441 20.1478 36 20 36C19.8522 36 19.7098 35.9441 19.6007 35.8433C16.5044 32.9993 14.15 30.9826 12.2157 29.3266C8.35541 26.0202 6.1519 24.1328 3.15276 20.0659L3.14093 20.0523C2.30107 18.9347 1.6886 17.66 1.33888 16.3018C0.989163 14.9436 0.909127 13.5289 1.10339 12.1393C1.29766 10.7497 1.76238 9.4128 2.47072 8.20571C3.17907 6.99862 4.117 5.94529 5.23036 5.10655C6.34373 4.2678 7.61047 3.66025 8.95745 3.31897C10.3044 2.9777 11.705 2.90946 13.0782 3.11819C14.4514 3.32693 15.7701 3.80851 16.9581 4.53512C18.1462 5.26173 19.18 6.21898 20 7.3516C20.82 6.21898 21.8538 5.26173 23.0419 4.53512C24.2299 3.80851 25.5486 3.32693 26.9218 3.11819C28.295 2.90946 29.6956 2.9777 31.0426 3.31897C32.3895 3.66025 33.6563 4.2678 34.7696 5.10655C35.883 5.94529 36.8209 6.99862 37.5293 8.20571C38.2376 9.4128 38.7023 10.7497 38.8966 12.1393C39.0909 13.5289 39.0108 14.9436 38.6611 16.3018C38.3114 17.66 37.6989 18.9347 36.8591 20.0523C33.8532 24.1286 31.6492 26.0164 27.7843 29.3266Z" stroke="#161719"/>
</svg>
