<svg width="40" height="40" viewBox="0 0 40 40" fill="none" xmlns="http://www.w3.org/2000/svg">
<g clip-path="url(#clip0_33_108)">
<circle cx="20" cy="20" r="19" stroke="#161719" stroke-width="2"/>
<mask id="path-2-inside-1_33_108" fill="white">
<path d="M25 25.7798C25 28.5412 22.7614 30.7798 20 30.7798C17.2386 30.7798 15 28.5412 15 25.7798L15 22L25 22L25 25.7798Z"/>
</mask>
<path d="M27 25.7798C27 29.6458 23.866 32.7798 20 32.7798C16.134 32.7798 13 29.6458 13 25.7798L17 25.7798C17 27.4366 18.3431 28.7798 20 28.7798C21.6569 28.7798 23 27.4366 23 25.7798L27 25.7798ZM15 22L25 22L15 22ZM27 22L27 25.7798C27 29.6458 23.866 32.7798 20 32.7798L20 28.7798C21.6569 28.7798 23 27.4366 23 25.7798L23 22L27 22ZM20 32.7798C16.134 32.7798 13 29.6458 13 25.7798L13 22L17 22L17 25.7798C17 27.4366 18.3431 28.7798 20 28.7798L20 32.7798Z" fill="#161719" mask="url(#path-2-inside-1_33_108)"/>
<rect x="7" y="20" width="26" height="2" fill="#161719"/>
<circle cx="30" cy="14" r="2" fill="#161719"/>
<circle cx="10" cy="14" r="2" fill="#161719"/>
</g>
<defs>
<clipPath id="clip0_33_108">
<rect width="40" height="40" fill="white"/>
</clipPath>
</defs>
</svg>
