<svg width="67" height="67" viewBox="0 0 67 67" fill="none" xmlns="http://www.w3.org/2000/svg">
<mask id="mask0_756_151" style="mask-type:alpha" maskUnits="userSpaceOnUse" x="0" y="0" width="67" height="67">
<circle cx="33.5" cy="33.5" r="31.2283" fill="#303633" stroke="white" stroke-width="4.5434"/>
</mask>
<g mask="url(#mask0_756_151)">
<path d="M54.6691 11.1623H60.2584C63.1585 11.1623 65.5094 13.5133 65.5094 16.4133V60.2584C65.5094 63.1585 63.1585 65.5094 60.2584 65.5094H16.4134C13.5133 65.5094 11.1623 63.1584 11.1623 60.2583V54.6691C11.1623 30.6409 30.6409 11.1623 54.6691 11.1623Z" stroke="#161719" stroke-width="3"/>
<path d="M65.5 31.285V60.249C65.5 63.1491 63.149 65.5 60.249 65.5H31.285C29.1546 65.5 27.4277 63.773 27.4277 61.6427C27.4277 42.7463 42.7463 27.4277 61.6427 27.4277C63.773 27.4277 65.5 29.1546 65.5 31.285Z" stroke="#161719" stroke-width="3"/>
</g>
<rect x="1.5" y="1.5" width="64" height="64" rx="32" stroke="#161719" stroke-width="3"/>
</svg>
