<svg width="291" height="563" viewBox="0 0 291 563" fill="none" xmlns="http://www.w3.org/2000/svg">
<path d="M174.5 290.5C174.5 363.784 166.332 430.113 153.137 478.104C146.538 502.104 138.69 521.489 129.996 534.863C121.288 548.259 111.816 555.5 102 555.5C92.1836 555.5 82.7122 548.259 74.0043 534.863C65.3104 521.489 57.462 502.104 50.8633 478.104C37.6678 430.113 29.5 363.784 29.5 290.5C29.5 217.216 37.6678 150.887 50.8633 102.896C57.462 78.8963 65.3104 59.5108 74.0043 46.1368C82.7122 32.7414 92.1836 25.5 102 25.5C111.816 25.5 121.288 32.7414 129.996 46.1368C138.69 59.5108 146.538 78.8963 153.137 102.896C166.332 150.887 174.5 217.216 174.5 290.5Z" stroke="#202124"/>
<path d="M168.362 291.304C161.895 364.303 147.906 429.651 130.527 476.291C121.836 499.615 112.307 518.232 102.467 530.787C92.6109 543.361 82.5373 549.739 72.7593 548.872C62.9812 548.006 54.1858 539.957 46.694 525.846C39.2143 511.757 33.1073 491.754 28.6522 467.266C19.7435 418.297 17.4609 351.507 23.9282 278.508C30.3955 205.51 44.3848 140.161 61.7641 93.5212C70.455 70.1978 79.9835 51.5805 89.8237 39.0259C99.6797 26.4512 109.753 20.074 119.531 20.9402C129.309 21.8065 138.105 29.8555 145.597 43.9671C153.076 58.0561 159.183 78.0586 163.638 102.547C172.547 151.516 174.83 218.306 168.362 291.304Z" stroke="#202124"/>
<path d="M181.291 293.942C171.909 366.623 155.318 431.36 136.087 477.268C126.47 500.225 116.205 518.446 105.871 530.597C95.5195 542.768 85.199 548.737 75.4634 547.48C65.7278 546.224 57.2613 537.829 50.3399 523.429C43.4296 509.053 38.1274 488.822 34.6552 464.175C27.7119 414.889 28.1023 348.061 37.4837 275.38C46.8652 202.698 63.4568 137.961 82.6873 92.0536C92.304 69.0964 102.569 50.8751 112.904 38.7241C123.255 26.5536 133.575 20.5843 143.311 21.8409C153.047 23.0976 161.513 31.4919 168.435 45.8918C175.345 60.2687 180.647 80.4994 184.119 105.146C191.062 154.432 190.672 221.26 181.291 293.942Z" stroke="#202124"/>
<path d="M204.545 292.204C191.467 364.312 171.593 428.118 150.045 472.984C139.269 495.421 128.088 513.094 117.147 524.702C106.188 536.329 95.5762 541.763 85.9174 540.012C76.2587 538.26 68.2315 529.444 62.0539 514.71C55.8863 499.999 51.6234 479.524 49.4135 454.733C44.9943 405.156 48.7944 338.435 61.8725 266.327C74.9506 194.219 94.8242 130.414 116.372 85.547C127.148 63.1104 138.33 45.4367 149.271 33.8289C160.229 22.2025 170.841 16.7676 180.5 18.5194C190.159 20.2712 198.186 29.0866 204.363 43.821C210.531 58.5317 214.794 79.0067 217.004 103.798C221.423 153.375 217.623 220.096 204.545 292.204Z" stroke="#202124"/>
<path d="M225.374 304.801C207.656 375.911 183.694 438.297 159.287 481.675C147.082 503.367 134.779 520.28 123.11 531.155C111.422 542.048 100.48 546.784 90.9552 544.411C81.4301 542.038 73.9904 532.721 68.7795 517.618C63.5769 502.539 60.6483 481.831 60.0477 456.948C58.8468 407.19 66.9576 340.854 84.6756 269.744C102.394 198.634 126.356 136.248 150.763 92.8707C162.968 71.1787 175.27 54.2658 186.94 43.3905C198.628 32.4978 209.569 27.7612 219.094 30.1345C228.619 32.5078 236.059 41.8243 241.27 56.9277C246.473 72.0068 249.401 92.7147 250.002 117.598C251.203 167.356 243.092 233.691 225.374 304.801Z" stroke="#202124"/>
<path d="M247.288 282.835C237.312 355.437 220.191 420.036 200.585 465.785C190.781 488.663 180.366 506.799 169.933 518.865C159.483 530.951 149.114 536.835 139.389 535.499C129.664 534.163 121.266 525.699 114.463 511.243C107.67 496.81 102.534 476.537 99.2636 451.863C92.724 402.521 93.6614 335.699 103.637 263.097C113.614 190.495 130.735 125.896 150.34 80.1468C160.145 57.2691 170.559 39.1324 180.992 27.0664C191.443 14.9811 201.812 9.09644 211.537 10.4327C221.262 11.769 229.659 20.2323 236.462 34.6885C243.255 49.1214 248.391 69.3948 251.662 94.0691C258.201 143.41 257.264 210.233 247.288 282.835Z" stroke="#202124"/>
<path d="M247.963 272.966C247.963 346.25 239.795 412.578 226.599 460.57C220.001 484.57 212.152 503.955 203.458 517.329C194.75 530.725 185.279 537.966 175.463 537.966C165.646 537.966 156.175 530.725 147.467 517.329C138.773 503.955 130.925 484.57 124.326 460.57C111.13 412.578 102.963 346.25 102.963 272.966C102.963 199.682 111.13 133.353 124.326 85.3616C130.925 61.3622 138.773 41.9767 147.467 28.6028C156.175 15.2073 165.646 7.96594 175.463 7.96594C185.279 7.96594 194.75 15.2073 203.458 28.6028C212.152 41.9767 220.001 61.3622 226.599 85.3616C239.795 133.353 247.963 199.682 247.963 272.966Z" stroke="#202124"/>
</svg>
