<svg width="291" height="563" viewBox="0 0 291 563" fill="none" xmlns="http://www.w3.org/2000/svg">
<path d="M76.5 281.5C76.5 243.392 107.392 212.5 145.5 212.5C183.608 212.5 214.5 243.392 214.5 281.5C214.5 319.608 183.608 350.5 145.5 350.5C107.392 350.5 76.5 319.608 76.5 281.5Z" stroke="#161719"/>
<path d="M67.5 281C67.5 251.27 76.2038 224.375 90.251 204.925C104.299 185.475 123.662 173.5 145 173.5C166.338 173.5 185.701 185.475 199.749 204.925C213.796 224.375 222.5 251.27 222.5 281C222.5 310.73 213.796 337.625 199.749 357.075C185.701 376.525 166.338 388.5 145 388.5C123.662 388.5 104.299 376.525 90.251 357.075C76.2038 337.625 67.5 310.73 67.5 281Z" stroke="#161719"/>
<path d="M57.5 281C57.5 238.545 67.3344 200.134 83.2087 172.354C99.0912 144.559 120.956 127.5 145 127.5C169.044 127.5 190.909 144.559 206.791 172.354C222.666 200.134 232.5 238.545 232.5 281C232.5 323.455 222.666 361.866 206.791 389.646C190.909 417.441 169.044 434.5 145 434.5C120.956 434.5 99.0911 417.441 83.2087 389.646C67.3344 361.866 57.5 323.455 57.5 281Z" stroke="#161719"/>
<path d="M44.5 281C44.5 222.792 55.8505 170.119 74.1792 132.017C92.5252 93.8794 117.773 70.5 145.5 70.5C173.227 70.5 198.475 93.8794 216.821 132.017C235.15 170.119 246.5 222.792 246.5 281C246.5 339.208 235.15 391.881 216.821 429.983C198.475 468.121 173.227 491.5 145.5 491.5C117.773 491.5 92.5251 468.121 74.1792 429.983C55.8505 391.881 44.5 339.208 44.5 281Z" stroke="#161719"/>
<path d="M28.5 281.5C28.5 211.553 41.5863 148.253 62.7225 102.458C83.8783 56.6204 113.004 28.5 145 28.5C176.996 28.5 206.122 56.6204 227.278 102.458C248.414 148.253 261.5 211.553 261.5 281.5C261.5 351.447 248.414 414.747 227.278 460.542C206.122 506.38 176.996 534.5 145 534.5C113.004 534.5 83.8782 506.38 62.7224 460.542C41.5863 414.747 28.5 351.447 28.5 281.5Z" stroke="#161719"/>
</svg>
