<svg width="627" height="387" viewBox="0 0 627 387" fill="none" xmlns="http://www.w3.org/2000/svg">
<path d="M397.989 41.3806H228.71V345.506H397.989V41.3806Z" fill="#FF5A00"/>
<path d="M239.979 193.444C239.979 131.654 269.027 76.814 313.6 41.3806C280.796 15.5882 239.415 0 194.279 0C87.3524 0 0.834961 86.5175 0.834961 193.444C0.834961 300.37 87.3524 386.887 194.279 386.887C239.415 386.887 280.796 371.299 313.6 345.506C268.964 310.574 239.979 255.233 239.979 193.444Z" fill="#EB001B"/>
<path d="M626.365 193.444C626.365 300.37 539.848 386.887 432.922 386.887C387.785 386.887 346.404 371.299 313.6 345.506C358.737 310.011 387.221 255.233 387.221 193.444C387.221 131.654 358.173 76.814 313.6 41.3806C346.342 15.5882 387.722 0 432.859 0C539.848 0 626.365 87.0809 626.365 193.444Z" fill="#F79E1B"/>
</svg>
