<?xml version="1.0" encoding="utf-8"?>
<!-- Generator: Adobe Illustrator 25.4.1, SVG Export Plug-In . SVG Version: 6.00 Build 0)  -->
<svg version="1.1" id="ambivilant" xmlns="http://www.w3.org/2000/svg" xmlns:xlink="http://www.w3.org/1999/xlink" x="0px" y="0px"
	 viewBox="0 0 280.6 302.2" style="enable-background:new 0 0 280.6 302.2;" xml:space="preserve">
<style type="text/css">
	.st0{fill:none;stroke:#000000;stroke-width:12;stroke-miterlimit:10;}
</style>
<path id="lips" class="st0" d="M63.3,150.8c0-42.5,34.4-76.9,76.9-76.9s76.9,34.4,76.9,76.9"/>
<path id="left_eye" d="M199.1,200.5c6.6,0,12-5.4,12-12s-5.4-12-12-12s-12,5.4-12,12C187,195.1,192.4,200.5,199.1,200.5L199.1,200.5
	z"/>
<path id="right_eye" d="M80.5,200.5c6.6,0,12-5.4,12-12s-5.4-12-12-12s-12,5.4-12,12C68.5,195.1,73.9,200.5,80.5,200.5L80.5,200.5z"
	/>
<path id="outline" d="M140.1,258.3c-28.7,0-55.8-11.2-76.1-31.5s-31.5-47.3-31.5-76.1S43.8,95,64.1,74.7s47.3-31.5,76.1-31.5
	s55.8,11.2,76.1,31.5s31.5,47.3,31.5,76.1s-11.2,55.8-31.5,76.1S168.9,258.3,140.1,258.3 M140.1,271.3c66.6,0,120.6-54,120.6-120.6
	s-54-120.6-120.6-120.6S19.6,84.1,19.6,150.8S73.6,271.3,140.1,271.3L140.1,271.3z"/>
</svg>
