<?xml version="1.0" encoding="utf-8"?>
<!-- Generator: Adobe Illustrator 25.4.1, SVG Export Plug-In . SVG Version: 6.00 Build 0)  -->
<svg version="1.1" id="smile" xmlns="http://www.w3.org/2000/svg" xmlns:xlink="http://www.w3.org/1999/xlink" x="0px" y="0px"
	 viewBox="0 0 280.6 302.2" style="enable-background:new 0 0 280.6 302.2;" xml:space="preserve">
<style type="text/css">
	.st0{fill:none;stroke:#000000;stroke-width:12;stroke-miterlimit:10;}
</style>
<path id="lips" class="st0" d="M217,207.4c0-42.5-34.4-76.9-76.9-76.9S63.2,165,0.2,207.4"/>
<path id="left_eye" d="M81.2,101c-6.6,0-12,5.4-12,12s5.4,12,12,12s12-5.4,12-12S87.9,101,81.2,101L81.2,101z"/>
<path id="right_eye" d="M199.8,101c-6.6,0-12,5.4-12,12s5.4,12,12,12s12-5.4,12-12S206.4,101,199.8,101L199.8,101z"/>
<path id="outline" d="M140.1,258.3c28.7,0,55.8-11.2,76.1-31.5s31.5-47.3,31.5-76.1S236.5,95,216.2,74.7s-47.3-31.5-76.1-31.5
	S84.4,54.4,64.1,74.7S32.6,122,32.6,150.7s11.2,55.8,31.5,76.1C84.4,247.1,111.4,258.3,140.1,258.3 M140.1,271.3
	c-66.6,0-120.6-54-120.6-120.6s54-120.6,120.6-120.6s120.6,54,120.6,120.6S206.7,271.3,140.1,271.3L140.1,271.3z"/>
</svg>
