<?xml version="1.0" encoding="UTF-8" standalone="no"?>
<!-- Created with Inkscape (http://www.inkscape.org/) -->

<svg
   version="1.1"
   id="svg2"
   xml:space="preserve"
   width="374.10666"
   height="402.88"
   viewBox="0 0 374.10666 402.88"
   sodipodi:docname="super-happy.ai"
   xmlns:inkscape="http://www.inkscape.org/namespaces/inkscape"
   xmlns:sodipodi="http://sodipodi.sourceforge.net/DTD/sodipodi-0.dtd"
   xmlns="http://www.w3.org/2000/svg"
   xmlns:svg="http://www.w3.org/2000/svg"><defs
     id="defs6"><clipPath
       clipPathUnits="userSpaceOnUse"
       id="clipPath16"><path
         d="M 0,302.16 H 280.58 V 0 H 0 Z"
         id="path14" /></clipPath></defs><sodipodi:namedview
     id="namedview4"
     pagecolor="#ffffff"
     bordercolor="#666666"
     borderopacity="1.0"
     inkscape:pageshadow="2"
     inkscape:pageopacity="0.0"
     inkscape:pagecheckerboard="0" /><g
     id="g8"
     inkscape:groupmode="layer"
     inkscape:label="super-happy"
     transform="matrix(1.3333333,0,0,-1.3333333,0,402.88)"><g
       id="g10"><g
         id="g12"
         clip-path="url(#clipPath16)"><g
           id="g18"
           transform="translate(217.03,151.42)"><path
             d="m 0,0 c 0,-42.46 -34.42,-76.89 -76.89,-76.89 -42.47,0 -76.89,34.42 -76.89,76.89"
             style="fill:none;stroke:#000000;stroke-width:12;stroke-linecap:butt;stroke-linejoin:miter;stroke-miterlimit:10;stroke-dasharray:none;stroke-opacity:1"
             id="path20" /></g><path
           d="M 220.265,145.402 H 61.66 v 0 z"
           style="fill:none;stroke:#000000;stroke-width:12;stroke-linecap:butt;stroke-linejoin:miter;stroke-miterlimit:10;stroke-dasharray:none;stroke-opacity:1"
           id="path22" /><g
           id="g24"
           transform="translate(81.24,201.18)"><path
             d="m 0,0 c -6.64,0 -12.02,-5.38 -12.02,-12.02 0,-6.64 5.38,-12.02 12.02,-12.02 6.64,0 12.02,5.38 12.02,12.02 C 12.02,-5.38 6.64,0 0,0"
             style="fill:#000000;fill-opacity:1;fill-rule:nonzero;stroke:none"
             id="path26" /></g><g
           id="g28"
           transform="translate(199.77,201.18)"><path
             d="m 0,0 c -6.64,0 -12.02,-5.38 -12.02,-12.02 0,-6.64 5.38,-12.02 12.02,-12.02 6.64,0 12.02,5.38 12.02,12.02 C 12.02,-5.38 6.64,0 0,0"
             style="fill:#000000;fill-opacity:1;fill-rule:nonzero;stroke:none"
             id="path30" /></g><g
           id="g32"
           transform="translate(140.15,271.99)"><path
             d="m 0,0 c -66.59,0 -120.58,-53.98 -120.58,-120.58 0,-66.6 53.98,-120.58 120.58,-120.58 66.6,0 120.58,53.98 120.58,120.58 C 120.58,-53.98 66.59,0 0,0 m 0,-13 c 28.73,0 55.75,-11.19 76.07,-31.51 20.32,-20.32 31.51,-47.33 31.51,-76.07 0,-28.74 -11.19,-55.75 -31.51,-76.07 -20.32,-20.32 -47.33,-31.51 -76.07,-31.51 -28.74,0 -55.75,11.19 -76.07,31.51 -20.32,20.32 -31.51,47.33 -31.51,76.07 0,28.74 11.19,55.75 31.51,76.07 C -55.75,-24.19 -28.74,-13 0,-13"
             style="fill:#000000;fill-opacity:1;fill-rule:nonzero;stroke:none"
             id="path34" /></g></g></g></g></svg>
