<svg width="67" height="67" viewBox="0 0 67 67" fill="none" xmlns="http://www.w3.org/2000/svg">
<path d="M13.6293 19.2285C14.2557 29.5643 19.6142 44.4411 21.5805 49.0296C24.8914 56.7558 86.696 43.9839 52.9557 19.2285C25.9636 -0.575778 10.3863 26.5343 5.97168 42.5648C2.50305 55.4944 4.42654 74.3842 39.8695 46.5068C84.1733 11.66 5.34355 1.884 4.71034 16.2327C4.07713 30.5813 30.0792 47.9727 54.0518 38.4098M13.6293 19.2285C13.2009 12.1606 14.9854 7.21609 21.5805 9.13715C37.8199 13.8675 57.055 59.594 46.9645 59.7517C36.8739 59.9094 15.2739 46.0337 23.4725 39.7266C31.671 33.4195 56.582 19.8592 43.6535 6.29897C30.725 -7.26131 2.97605 43.3532 13.2243 49.0296C23.4724 54.706 23.9455 58.1749 46.9645 53.6023C69.9835 49.0296 58.6317 32.3158 54.5324 28.8469C50.4331 25.378 24.5761 9.92556 19.8462 23.3282C15.1162 36.7308 31.671 46.3491 35.6126 41.3034C39.5542 36.2577 43.9689 17.0211 54.5324 14.4982C59.2236 13.3778 58.3177 25.7539 54.0518 38.4098M13.6293 19.2285C-5.2007 29.3199 5.97168 44.7723 26.6257 61.3285C38.1073 70.532 48.7119 54.2517 54.0518 38.4098" stroke="#202124" stroke-width="5.31"/>
</svg>
