<svg width="73" height="73" viewBox="0 0 73 73" fill="none" xmlns="http://www.w3.org/2000/svg">
<mask id="mask0_757_434" style="mask-type:alpha" maskUnits="userSpaceOnUse" x="3" y="3" width="67" height="67">
<circle cx="36.5" cy="36.5" r="31.2283" fill="#303633" stroke="white" stroke-width="4.5434"/>
</mask>
<g mask="url(#mask0_757_434)">
<path d="M21.9124 61.7158C27.0176 42.663 46.6015 31.3563 65.6543 36.4615V36.4615C68.5122 37.2272 70.2082 40.1648 69.4424 43.0227L61.946 70.9999C60.981 74.6013 57.2791 76.7385 53.6777 75.7735L25.7006 68.2771C22.8427 67.5113 21.1466 64.5737 21.9124 61.7158V61.7158Z" stroke="#202124" stroke-width="4.5434"/>
<path d="M61.8043 51.1088C42.7516 46.0036 31.4448 26.4197 36.55 7.36695V7.36695C37.3158 4.50903 40.2534 2.81301 43.1113 3.57879L71.0884 11.0752C74.6899 12.0402 76.8271 15.7421 75.8621 19.3435L68.3657 47.3206C67.5999 50.1785 64.6623 51.8746 61.8043 51.1088V51.1088Z" stroke="#202124" stroke-width="4.5434"/>
<path d="M51.1088 11.268C46.0036 30.3207 26.4197 41.6275 7.36695 36.5223V36.5223C4.50903 35.7565 2.81301 32.819 3.57879 29.961L11.0752 1.9839C12.0402 -1.61754 15.7421 -3.75478 19.3435 -2.78978L47.3206 4.70665C50.1785 5.47244 51.8746 8.41005 51.1088 11.268V11.268Z" stroke="#202124" stroke-width="4.5434"/>
<path d="M11.268 21.9635C30.3207 27.0687 41.6275 46.6526 36.5223 65.7054V65.7054C35.7565 68.5633 32.8189 70.2593 29.961 69.4935L1.9839 61.9971C-1.61754 61.0321 -3.75479 57.3303 -2.78978 53.7288L4.70666 25.7517C5.47244 22.8938 8.41005 21.1978 11.268 21.9635V21.9635Z" stroke="#202124" stroke-width="4.5434"/>
</g>
<rect x="3" y="3" width="67" height="67" rx="33.5" stroke="#202124" stroke-width="4.54"/>
</svg>
