<svg width="71" height="71" viewBox="0 0 71 71" fill="none" xmlns="http://www.w3.org/2000/svg">
<mask id="mask0_757_434" style="mask-type:alpha" maskUnits="userSpaceOnUse" x="2" y="2" width="67" height="67">
<circle cx="35.5" cy="35.5" r="31.2283" fill="#303633" stroke="white" stroke-width="4.5434"/>
</mask>
<g mask="url(#mask0_757_434)">
<path d="M20.9124 60.7158C26.0176 41.663 45.6015 30.3563 64.6543 35.4615V35.4615C67.5122 36.2272 69.2082 39.1648 68.4424 42.0227L60.946 69.9999C59.981 73.6013 56.2791 75.7385 52.6777 74.7735L24.7006 67.2771C21.8427 66.5113 20.1466 63.5737 20.9124 60.7158V60.7158Z" stroke="#161719" stroke-width="3"/>
<path d="M60.8043 50.1088C41.7516 45.0036 30.4448 25.4197 35.55 6.36695V6.36695C36.3158 3.50903 39.2534 1.81301 42.1113 2.57879L70.0884 10.0752C73.6899 11.0402 75.8271 14.7421 74.8621 18.3435L67.3657 46.3206C66.5999 49.1785 63.6623 50.8746 60.8043 50.1088V50.1088Z" stroke="#161719" stroke-width="3"/>
<path d="M50.1088 10.268C45.0036 29.3207 25.4197 40.6275 6.36695 35.5223V35.5223C3.50903 34.7565 1.81301 31.819 2.57879 28.961L10.0752 0.983903C11.0402 -2.61754 14.7421 -4.75478 18.3435 -3.78978L46.3206 3.70665C49.1785 4.47244 50.8746 7.41005 50.1088 10.268V10.268Z" stroke="#161719" stroke-width="3"/>
<path d="M10.268 20.9635C29.3207 26.0687 40.6275 45.6526 35.5223 64.7054V64.7054C34.7565 67.5633 31.8189 69.2593 28.961 68.4935L0.983899 60.9971C-2.61754 60.0321 -4.75479 56.3303 -3.78978 52.7288L3.70666 24.7517C4.47244 21.8938 7.41005 20.1978 10.268 20.9635V20.9635Z" stroke="#161719" stroke-width="3"/>
</g>
<rect x="2" y="2" width="67" height="67" rx="33.5" stroke="#161719" stroke-width="3"/>
</svg>
