<svg width="67" height="67" viewBox="0 0 67 67" fill="none" xmlns="http://www.w3.org/2000/svg">
<mask id="mask0_756_151" style="mask-type:alpha" maskUnits="userSpaceOnUse" x="0" y="0" width="67" height="67">
<circle cx="33.5" cy="33.5" r="31.2283" fill="#303633" stroke="white" stroke-width="4.5434"/>
</mask>
<g mask="url(#mask0_756_151)">
<path d="M54.6691 11.934H60.2584C62.7323 11.934 64.7377 13.9394 64.7377 16.4133V60.2584C64.7377 62.7323 62.7323 64.7377 60.2584 64.7377H16.4134C13.9395 64.7377 11.934 62.7322 11.934 60.2583V54.6691C11.934 31.0671 31.0671 11.934 54.6691 11.934Z" stroke="#161719" stroke-width="4.5434"/>
<path d="M64.7283 31.285V60.249C64.7283 62.7229 62.7228 64.7283 60.249 64.7283H31.285C29.5808 64.7283 28.1994 63.3468 28.1994 61.6427C28.1994 43.1725 43.1725 28.1994 61.6427 28.1994C63.3468 28.1994 64.7283 29.5808 64.7283 31.285Z" stroke="#161719" stroke-width="4.5434"/>
</g>
<rect x="2.27" y="2.27" width="62.46" height="62.46" rx="31.23" stroke="#161719" stroke-width="4.54"/>
</svg>
