<svg width="929" height="381" viewBox="0 0 929 381" fill="none" xmlns="http://www.w3.org/2000/svg">
<rect width="929" height="381" fill="#161719"/>
<rect x="309.761" y="252" width="308.882" height="27" fill="#FEFDFA"/>
<g clip-path="url(#clip0_460_139)">
<circle cx="374.5" cy="265.5" r="10.5" fill="#FEFDFA"/>
<g clip-path="url(#clip1_460_139)">
<path d="M375.791 272.339C375.423 272.789 374.677 272.542 374.669 271.967L374.539 263.556H380.353C381.406 263.556 381.994 264.739 381.339 265.541L375.791 272.339Z" fill="url(#paint0_linear_460_139)"/>
<path d="M375.791 272.339C375.423 272.789 374.677 272.542 374.669 271.967L374.539 263.556H380.353C381.406 263.556 381.994 264.739 381.339 265.541L375.791 272.339Z" fill="url(#paint1_linear_460_139)" fill-opacity="0.2"/>
<path d="M373.426 258.804C373.794 258.354 374.539 258.6 374.548 259.176L374.605 267.587H368.863C367.81 267.587 367.223 266.404 367.878 265.601L373.426 258.804Z" fill="#3ECF8E"/>
</g>
</g>
<ellipse cx="619.239" cy="265.5" rx="4.76119" ry="13.5" fill="#FEFDFA"/>
<path d="M314.022 265.5C314.022 269.187 313.495 272.503 312.656 274.88C312.236 276.07 311.748 276.998 311.23 277.619C310.711 278.242 310.212 278.5 309.761 278.5C309.311 278.5 308.812 278.242 308.292 277.619C307.774 276.998 307.286 276.07 306.866 274.88C306.028 272.503 305.5 269.187 305.5 265.5C305.5 261.813 306.028 258.497 306.866 256.12C307.286 254.93 307.774 254.002 308.292 253.381C308.812 252.758 309.311 252.5 309.761 252.5C310.212 252.5 310.711 252.758 311.23 253.381C311.748 254.002 312.236 254.93 312.656 256.12C313.495 258.497 314.022 261.813 314.022 265.5Z" fill="#161719" stroke="#FEFDFA"/>
<path d="M399.171 272V262.182H400.628V263.716H400.756C400.96 263.192 401.291 262.785 401.747 262.495C402.203 262.201 402.75 262.054 403.389 262.054C404.037 262.054 404.576 262.201 405.007 262.495C405.441 262.785 405.78 263.192 406.023 263.716H406.125C406.377 263.209 406.754 262.806 407.257 262.508C407.759 262.205 408.362 262.054 409.066 262.054C409.943 262.054 410.661 262.329 411.22 262.879C411.778 263.424 412.057 264.274 412.057 265.429V272H410.549V265.429C410.549 264.705 410.35 264.187 409.954 263.876C409.558 263.565 409.091 263.409 408.554 263.409C407.864 263.409 407.329 263.618 406.95 264.036C406.571 264.449 406.381 264.973 406.381 265.608V272H404.847V265.276C404.847 264.717 404.666 264.268 404.304 263.927C403.941 263.582 403.475 263.409 402.904 263.409C402.512 263.409 402.145 263.513 401.804 263.722C401.468 263.931 401.195 264.221 400.986 264.592C400.782 264.958 400.679 265.382 400.679 265.864V272H399.171ZM418.932 272.205C417.986 272.205 417.17 271.996 416.484 271.578C415.802 271.156 415.275 270.568 414.905 269.814C414.538 269.055 414.355 268.173 414.355 267.168C414.355 266.162 414.538 265.276 414.905 264.509C415.275 263.737 415.791 263.136 416.452 262.706C417.116 262.271 417.892 262.054 418.778 262.054C419.29 262.054 419.795 262.139 420.293 262.31C420.792 262.48 421.246 262.757 421.655 263.141C422.064 263.52 422.39 264.023 422.633 264.649C422.876 265.276 422.997 266.047 422.997 266.963V267.602H415.429V266.298H421.463C421.463 265.744 421.352 265.25 421.131 264.815C420.913 264.381 420.602 264.038 420.197 263.786C419.797 263.535 419.324 263.409 418.778 263.409C418.177 263.409 417.658 263.558 417.219 263.857C416.784 264.151 416.449 264.534 416.215 265.007C415.981 265.48 415.864 265.987 415.864 266.528V267.398C415.864 268.139 415.991 268.768 416.247 269.283C416.507 269.795 416.867 270.185 417.327 270.453C417.788 270.717 418.322 270.849 418.932 270.849C419.328 270.849 419.686 270.794 420.006 270.683C420.329 270.568 420.609 270.398 420.843 270.172C421.077 269.942 421.258 269.656 421.386 269.315L422.844 269.724C422.69 270.219 422.432 270.653 422.07 271.028C421.708 271.399 421.261 271.689 420.728 271.898C420.195 272.102 419.597 272.205 418.932 272.205ZM432.246 264.381L430.891 264.764C430.806 264.538 430.68 264.319 430.514 264.106C430.352 263.888 430.131 263.71 429.849 263.569C429.568 263.428 429.208 263.358 428.769 263.358C428.168 263.358 427.668 263.496 427.267 263.773C426.871 264.046 426.672 264.393 426.672 264.815C426.672 265.19 426.809 265.487 427.082 265.704C427.354 265.921 427.78 266.102 428.36 266.247L429.817 266.605C430.695 266.818 431.349 267.144 431.78 267.583C432.21 268.018 432.425 268.578 432.425 269.264C432.425 269.827 432.263 270.33 431.94 270.773C431.62 271.216 431.172 271.565 430.597 271.821C430.022 272.077 429.353 272.205 428.59 272.205C427.589 272.205 426.76 271.987 426.104 271.553C425.447 271.118 425.032 270.483 424.857 269.648L426.289 269.29C426.425 269.818 426.683 270.214 427.062 270.479C427.446 270.743 427.947 270.875 428.565 270.875C429.268 270.875 429.826 270.726 430.239 270.428C430.657 270.125 430.866 269.763 430.866 269.341C430.866 269 430.746 268.714 430.508 268.484C430.269 268.25 429.903 268.075 429.408 267.96L427.772 267.577C426.873 267.364 426.212 267.033 425.79 266.586C425.373 266.134 425.164 265.57 425.164 264.892C425.164 264.338 425.32 263.848 425.631 263.422C425.946 262.996 426.374 262.661 426.915 262.418C427.461 262.175 428.079 262.054 428.769 262.054C429.741 262.054 430.503 262.267 431.057 262.693C431.616 263.119 432.012 263.682 432.246 264.381ZM441.651 264.381L440.296 264.764C440.21 264.538 440.085 264.319 439.918 264.106C439.756 263.888 439.535 263.71 439.254 263.569C438.972 263.428 438.612 263.358 438.173 263.358C437.573 263.358 437.072 263.496 436.671 263.773C436.275 264.046 436.077 264.393 436.077 264.815C436.077 265.19 436.213 265.487 436.486 265.704C436.759 265.921 437.185 266.102 437.764 266.247L439.222 266.605C440.1 266.818 440.754 267.144 441.184 267.583C441.614 268.018 441.83 268.578 441.83 269.264C441.83 269.827 441.668 270.33 441.344 270.773C441.024 271.216 440.577 271.565 440.002 271.821C439.426 272.077 438.757 272.205 437.994 272.205C436.993 272.205 436.164 271.987 435.508 271.553C434.852 271.118 434.436 270.483 434.261 269.648L435.693 269.29C435.83 269.818 436.087 270.214 436.467 270.479C436.85 270.743 437.351 270.875 437.969 270.875C438.672 270.875 439.23 270.726 439.644 270.428C440.061 270.125 440.27 269.763 440.27 269.341C440.27 269 440.151 268.714 439.912 268.484C439.673 268.25 439.307 268.075 438.813 267.96L437.176 267.577C436.277 267.364 435.617 267.033 435.195 266.586C434.777 266.134 434.568 265.57 434.568 264.892C434.568 264.338 434.724 263.848 435.035 263.422C435.35 262.996 435.778 262.661 436.32 262.418C436.865 262.175 437.483 262.054 438.173 262.054C439.145 262.054 439.908 262.267 440.462 262.693C441.02 263.119 441.416 263.682 441.651 264.381ZM446.99 272.23C446.367 272.23 445.803 272.113 445.296 271.879C444.789 271.64 444.386 271.297 444.088 270.849C443.789 270.398 443.64 269.852 443.64 269.213C443.64 268.651 443.751 268.195 443.973 267.845C444.194 267.491 444.49 267.214 444.861 267.014C445.232 266.814 445.641 266.665 446.088 266.567C446.54 266.464 446.994 266.384 447.45 266.324C448.046 266.247 448.53 266.19 448.901 266.151C449.276 266.109 449.549 266.038 449.719 265.94C449.894 265.842 449.981 265.672 449.981 265.429V265.378C449.981 264.747 449.809 264.257 449.463 263.908C449.122 263.558 448.605 263.384 447.91 263.384C447.19 263.384 446.625 263.541 446.216 263.857C445.807 264.172 445.519 264.509 445.353 264.866L443.921 264.355C444.177 263.759 444.518 263.294 444.944 262.962C445.375 262.625 445.843 262.391 446.35 262.259C446.862 262.122 447.365 262.054 447.859 262.054C448.174 262.054 448.536 262.092 448.946 262.169C449.359 262.241 449.757 262.393 450.141 262.623C450.529 262.853 450.85 263.2 451.106 263.665C451.362 264.129 451.49 264.751 451.49 265.531V272H449.981V270.67H449.904C449.802 270.884 449.632 271.112 449.393 271.354C449.154 271.597 448.837 271.804 448.441 271.974C448.044 272.145 447.561 272.23 446.99 272.23ZM447.22 270.875C447.816 270.875 448.319 270.758 448.728 270.523C449.142 270.289 449.453 269.987 449.661 269.616C449.875 269.245 449.981 268.855 449.981 268.446V267.065C449.917 267.142 449.777 267.212 449.559 267.276C449.346 267.336 449.099 267.389 448.818 267.436C448.541 267.479 448.27 267.517 448.006 267.551C447.746 267.581 447.535 267.607 447.373 267.628C446.981 267.679 446.615 267.762 446.274 267.877C445.937 267.988 445.664 268.156 445.456 268.382C445.251 268.604 445.149 268.906 445.149 269.29C445.149 269.814 445.343 270.21 445.73 270.479C446.122 270.743 446.619 270.875 447.22 270.875ZM458.206 275.886C457.477 275.886 456.851 275.793 456.327 275.605C455.803 275.422 455.366 275.179 455.016 274.876C454.671 274.578 454.396 274.259 454.192 273.918L455.394 273.074C455.53 273.253 455.703 273.457 455.911 273.688C456.12 273.922 456.406 274.124 456.768 274.295C457.134 274.469 457.614 274.557 458.206 274.557C458.999 274.557 459.653 274.365 460.168 273.982C460.684 273.598 460.942 272.997 460.942 272.179V270.185H460.814C460.703 270.364 460.546 270.585 460.341 270.849C460.141 271.109 459.851 271.342 459.472 271.546C459.097 271.746 458.59 271.847 457.95 271.847C457.158 271.847 456.446 271.659 455.815 271.284C455.189 270.909 454.693 270.364 454.326 269.648C453.964 268.932 453.783 268.062 453.783 267.04C453.783 266.034 453.96 265.158 454.313 264.413C454.667 263.663 455.159 263.083 455.79 262.674C456.421 262.261 457.149 262.054 457.976 262.054C458.615 262.054 459.122 262.161 459.497 262.374C459.877 262.582 460.166 262.821 460.367 263.089C460.571 263.354 460.729 263.571 460.84 263.741H460.993V262.182H462.45V272.281C462.45 273.125 462.259 273.811 461.875 274.339C461.496 274.872 460.984 275.262 460.341 275.509C459.702 275.761 458.99 275.886 458.206 275.886ZM458.155 270.491C458.76 270.491 459.271 270.353 459.689 270.076C460.107 269.799 460.424 269.401 460.641 268.881C460.859 268.361 460.967 267.739 460.967 267.014C460.967 266.307 460.861 265.683 460.648 265.141C460.435 264.6 460.119 264.176 459.702 263.869C459.284 263.562 458.769 263.409 458.155 263.409C457.516 263.409 456.983 263.571 456.557 263.895C456.135 264.219 455.818 264.653 455.604 265.199C455.396 265.744 455.291 266.349 455.291 267.014C455.291 267.696 455.398 268.299 455.611 268.823C455.828 269.343 456.148 269.752 456.57 270.05C456.996 270.344 457.524 270.491 458.155 270.491ZM469.328 272.205C468.382 272.205 467.566 271.996 466.88 271.578C466.198 271.156 465.672 270.568 465.301 269.814C464.935 269.055 464.752 268.173 464.752 267.168C464.752 266.162 464.935 265.276 465.301 264.509C465.672 263.737 466.188 263.136 466.848 262.706C467.513 262.271 468.288 262.054 469.175 262.054C469.686 262.054 470.191 262.139 470.69 262.31C471.188 262.48 471.642 262.757 472.051 263.141C472.46 263.52 472.786 264.023 473.029 264.649C473.272 265.276 473.394 266.047 473.394 266.963V267.602H465.825V266.298H471.859C471.859 265.744 471.749 265.25 471.527 264.815C471.31 264.381 470.999 264.038 470.594 263.786C470.193 263.535 469.72 263.409 469.175 263.409C468.574 263.409 468.054 263.558 467.615 263.857C467.18 264.151 466.846 264.534 466.612 265.007C466.377 265.48 466.26 265.987 466.26 266.528V267.398C466.26 268.139 466.388 268.768 466.644 269.283C466.903 269.795 467.264 270.185 467.724 270.453C468.184 270.717 468.719 270.849 469.328 270.849C469.725 270.849 470.082 270.794 470.402 270.683C470.726 270.568 471.005 270.398 471.239 270.172C471.474 269.942 471.655 269.656 471.783 269.315L473.24 269.724C473.087 270.219 472.829 270.653 472.467 271.028C472.104 271.399 471.657 271.689 471.124 271.898C470.592 272.102 469.993 272.205 469.328 272.205ZM487.45 275.682V270.491H487.322C487.211 270.67 487.053 270.896 486.849 271.169C486.644 271.437 486.352 271.678 485.973 271.891C485.594 272.1 485.089 272.205 484.458 272.205C483.64 272.205 482.918 271.998 482.291 271.585C481.665 271.167 481.175 270.579 480.821 269.82C480.467 269.058 480.291 268.156 480.291 267.116C480.291 266.085 480.467 265.19 480.821 264.432C481.175 263.673 481.667 263.087 482.298 262.674C482.928 262.261 483.657 262.054 484.484 262.054C485.123 262.054 485.628 262.161 485.999 262.374C486.374 262.582 486.659 262.821 486.855 263.089C487.055 263.354 487.211 263.571 487.322 263.741H487.501V262.182H488.958V275.682H487.45ZM484.663 270.849C485.268 270.849 485.779 270.692 486.197 270.376C486.614 270.057 486.932 269.616 487.149 269.053C487.367 268.487 487.475 267.832 487.475 267.091C487.475 266.358 487.369 265.717 487.156 265.167C486.943 264.613 486.627 264.183 486.21 263.876C485.792 263.565 485.276 263.409 484.663 263.409C484.024 263.409 483.491 263.573 483.065 263.901C482.643 264.225 482.325 264.666 482.112 265.224C481.903 265.778 481.799 266.401 481.799 267.091C481.799 267.79 481.906 268.425 482.119 268.996C482.336 269.562 482.656 270.014 483.078 270.351C483.504 270.683 484.032 270.849 484.663 270.849ZM497.907 267.986V262.182H499.416V272H497.907V270.338H497.805C497.575 270.837 497.217 271.261 496.731 271.61C496.245 271.955 495.631 272.128 494.89 272.128C494.276 272.128 493.731 271.994 493.254 271.725C492.776 271.452 492.401 271.043 492.129 270.498C491.856 269.948 491.72 269.256 491.72 268.42V262.182H493.228V268.318C493.228 269.034 493.428 269.605 493.829 270.031C494.234 270.457 494.749 270.67 495.376 270.67C495.751 270.67 496.132 270.575 496.52 270.383C496.912 270.191 497.24 269.897 497.504 269.501C497.773 269.104 497.907 268.599 497.907 267.986ZM506.295 272.205C505.349 272.205 504.533 271.996 503.847 271.578C503.165 271.156 502.639 270.568 502.268 269.814C501.902 269.055 501.718 268.173 501.718 267.168C501.718 266.162 501.902 265.276 502.268 264.509C502.639 263.737 503.154 263.136 503.815 262.706C504.48 262.271 505.255 262.054 506.142 262.054C506.653 262.054 507.158 262.139 507.657 262.31C508.155 262.48 508.609 262.757 509.018 263.141C509.427 263.52 509.753 264.023 509.996 264.649C510.239 265.276 510.36 266.047 510.36 266.963V267.602H502.792V266.298H508.826C508.826 265.744 508.715 265.25 508.494 264.815C508.277 264.381 507.965 264.038 507.561 263.786C507.16 263.535 506.687 263.409 506.142 263.409C505.541 263.409 505.021 263.558 504.582 263.857C504.147 264.151 503.813 264.534 503.578 265.007C503.344 265.48 503.227 265.987 503.227 266.528V267.398C503.227 268.139 503.355 268.768 503.61 269.283C503.87 269.795 504.23 270.185 504.691 270.453C505.151 270.717 505.686 270.849 506.295 270.849C506.691 270.849 507.049 270.794 507.369 270.683C507.693 270.568 507.972 270.398 508.206 270.172C508.441 269.942 508.622 269.656 508.75 269.315L510.207 269.724C510.054 270.219 509.796 270.653 509.434 271.028C509.071 271.399 508.624 271.689 508.091 271.898C507.559 272.102 506.96 272.205 506.295 272.205ZM518.843 267.986V262.182H520.351V272H518.843V270.338H518.74C518.51 270.837 518.152 271.261 517.666 271.61C517.181 271.955 516.567 272.128 515.826 272.128C515.212 272.128 514.666 271.994 514.189 271.725C513.712 271.452 513.337 271.043 513.064 270.498C512.791 269.948 512.655 269.256 512.655 268.42V262.182H514.164V268.318C514.164 269.034 514.364 269.605 514.764 270.031C515.169 270.457 515.685 270.67 516.311 270.67C516.686 270.67 517.068 270.575 517.456 270.383C517.848 270.191 518.176 269.897 518.44 269.501C518.708 269.104 518.843 268.599 518.843 267.986ZM527.231 272.205C526.285 272.205 525.468 271.996 524.782 271.578C524.101 271.156 523.574 270.568 523.204 269.814C522.837 269.055 522.654 268.173 522.654 267.168C522.654 266.162 522.837 265.276 523.204 264.509C523.574 263.737 524.09 263.136 524.75 262.706C525.415 262.271 526.191 262.054 527.077 262.054C527.589 262.054 528.093 262.139 528.592 262.31C529.091 262.48 529.544 262.757 529.954 263.141C530.363 263.52 530.689 264.023 530.932 264.649C531.174 265.276 531.296 266.047 531.296 266.963V267.602H523.728V266.298H529.762C529.762 265.744 529.651 265.25 529.429 264.815C529.212 264.381 528.901 264.038 528.496 263.786C528.096 263.535 527.623 263.409 527.077 263.409C526.476 263.409 525.956 263.558 525.517 263.857C525.083 264.151 524.748 264.534 524.514 265.007C524.28 265.48 524.162 265.987 524.162 266.528V267.398C524.162 268.139 524.29 268.768 524.546 269.283C524.806 269.795 525.166 270.185 525.626 270.453C526.086 270.717 526.621 270.849 527.231 270.849C527.627 270.849 527.985 270.794 528.304 270.683C528.628 270.568 528.907 270.398 529.142 270.172C529.376 269.942 529.557 269.656 529.685 269.315L531.142 269.724C530.989 270.219 530.731 270.653 530.369 271.028C530.007 271.399 529.559 271.689 529.027 271.898C528.494 272.102 527.895 272.205 527.231 272.205Z" fill="#161719"/>
<g clip-path="url(#clip2_460_139)">
<circle cx="375.5" cy="222.5" r="10.5" fill="#FEFDFA"/>
<path fill-rule="evenodd" clip-rule="evenodd" d="M375.573 214.821L382.732 226.893H368.414L375.573 214.821Z" fill="#161719"/>
</g>
<path d="M399.122 230H397.46L402.267 216.909H403.903L408.71 230H407.048L403.136 218.98H403.034L399.122 230ZM399.736 224.886H406.435V226.293H399.736V224.886ZM414.252 230.205C413.434 230.205 412.712 229.998 412.085 229.585C411.459 229.167 410.969 228.579 410.615 227.82C410.261 227.058 410.085 226.156 410.085 225.116C410.085 224.085 410.261 223.19 410.615 222.432C410.969 221.673 411.461 221.087 412.092 220.674C412.722 220.261 413.451 220.054 414.278 220.054C414.917 220.054 415.422 220.161 415.793 220.374C416.168 220.582 416.453 220.821 416.649 221.089C416.849 221.354 417.005 221.571 417.116 221.741H417.244V216.909H418.752V230H417.295V228.491H417.116C417.005 228.67 416.847 228.896 416.643 229.169C416.438 229.437 416.146 229.678 415.767 229.891C415.388 230.1 414.883 230.205 414.252 230.205ZM414.457 228.849C415.062 228.849 415.573 228.692 415.991 228.376C416.408 228.057 416.726 227.616 416.943 227.053C417.161 226.487 417.269 225.832 417.269 225.091C417.269 224.358 417.163 223.717 416.95 223.167C416.737 222.613 416.421 222.183 416.004 221.876C415.586 221.565 415.07 221.409 414.457 221.409C413.817 221.409 413.285 221.573 412.859 221.901C412.437 222.225 412.119 222.666 411.906 223.224C411.697 223.778 411.593 224.401 411.593 225.091C411.593 225.79 411.7 226.425 411.913 226.996C412.13 227.562 412.45 228.014 412.871 228.351C413.298 228.683 413.826 228.849 414.457 228.849ZM424.614 230.23C423.991 230.23 423.427 230.113 422.92 229.879C422.413 229.64 422.01 229.297 421.712 228.849C421.413 228.398 421.264 227.852 421.264 227.213C421.264 226.651 421.375 226.195 421.597 225.845C421.818 225.491 422.114 225.214 422.485 225.014C422.856 224.814 423.265 224.665 423.712 224.567C424.164 224.464 424.618 224.384 425.074 224.324C425.67 224.247 426.154 224.19 426.525 224.151C426.9 224.109 427.173 224.038 427.343 223.94C427.518 223.842 427.605 223.672 427.605 223.429V223.378C427.605 222.747 427.433 222.257 427.087 221.908C426.746 221.558 426.229 221.384 425.534 221.384C424.814 221.384 424.249 221.541 423.84 221.857C423.431 222.172 423.143 222.509 422.977 222.866L421.545 222.355C421.801 221.759 422.142 221.294 422.568 220.962C422.999 220.625 423.467 220.391 423.974 220.259C424.486 220.122 424.989 220.054 425.483 220.054C425.798 220.054 426.161 220.092 426.57 220.169C426.983 220.241 427.381 220.393 427.765 220.623C428.153 220.853 428.474 221.2 428.73 221.665C428.986 222.129 429.114 222.751 429.114 223.531V230H427.605V228.67H427.528C427.426 228.884 427.256 229.112 427.017 229.354C426.778 229.597 426.461 229.804 426.065 229.974C425.668 230.145 425.185 230.23 424.614 230.23ZM424.844 228.875C425.44 228.875 425.943 228.758 426.352 228.523C426.766 228.289 427.077 227.987 427.286 227.616C427.499 227.245 427.605 226.855 427.605 226.446V225.065C427.541 225.142 427.401 225.212 427.183 225.276C426.97 225.336 426.723 225.389 426.442 225.436C426.165 225.479 425.894 225.517 425.63 225.551C425.37 225.581 425.159 225.607 424.997 225.628C424.605 225.679 424.239 225.762 423.898 225.877C423.561 225.988 423.288 226.156 423.08 226.382C422.875 226.604 422.773 226.906 422.773 227.29C422.773 227.814 422.967 228.21 423.354 228.479C423.746 228.743 424.243 228.875 424.844 228.875ZM431.867 233.682V220.182H433.324V221.741H433.503C433.614 221.571 433.768 221.354 433.964 221.089C434.164 220.821 434.449 220.582 434.82 220.374C435.195 220.161 435.702 220.054 436.341 220.054C437.168 220.054 437.897 220.261 438.528 220.674C439.158 221.087 439.65 221.673 440.004 222.432C440.358 223.19 440.535 224.085 440.535 225.116C440.535 226.156 440.358 227.058 440.004 227.82C439.65 228.579 439.16 229.167 438.534 229.585C437.907 229.998 437.185 230.205 436.367 230.205C435.736 230.205 435.231 230.1 434.852 229.891C434.473 229.678 434.181 229.437 433.976 229.169C433.772 228.896 433.614 228.67 433.503 228.491H433.376V233.682H431.867ZM433.35 225.091C433.35 225.832 433.459 226.487 433.676 227.053C433.893 227.616 434.211 228.057 434.628 228.376C435.046 228.692 435.557 228.849 436.162 228.849C436.793 228.849 437.319 228.683 437.741 228.351C438.167 228.014 438.487 227.562 438.7 226.996C438.917 226.425 439.026 225.79 439.026 225.091C439.026 224.401 438.92 223.778 438.706 223.224C438.498 222.666 438.18 222.225 437.754 221.901C437.332 221.573 436.802 221.409 436.162 221.409C435.549 221.409 435.033 221.565 434.616 221.876C434.198 222.183 433.883 222.613 433.67 223.167C433.456 223.717 433.35 224.358 433.35 225.091ZM447.106 220.182V221.46H442.018V220.182H447.106ZM443.501 217.83H445.009V227.188C445.009 227.614 445.071 227.933 445.194 228.146C445.322 228.355 445.484 228.496 445.68 228.568C445.881 228.636 446.091 228.67 446.313 228.67C446.479 228.67 446.616 228.662 446.722 228.645C446.829 228.624 446.914 228.607 446.978 228.594L447.285 229.949C447.182 229.987 447.04 230.026 446.856 230.064C446.673 230.107 446.441 230.128 446.16 230.128C445.733 230.128 445.316 230.036 444.907 229.853C444.502 229.67 444.165 229.391 443.897 229.016C443.633 228.641 443.501 228.168 443.501 227.597V217.83ZM453.386 230.205C452.44 230.205 451.624 229.996 450.938 229.578C450.256 229.156 449.73 228.568 449.359 227.814C448.992 227.055 448.809 226.173 448.809 225.168C448.809 224.162 448.992 223.276 449.359 222.509C449.73 221.737 450.245 221.136 450.906 220.706C451.57 220.271 452.346 220.054 453.232 220.054C453.744 220.054 454.249 220.139 454.747 220.31C455.246 220.48 455.7 220.757 456.109 221.141C456.518 221.52 456.844 222.023 457.087 222.649C457.33 223.276 457.451 224.047 457.451 224.963V225.602H449.883V224.298H455.917C455.917 223.744 455.806 223.25 455.585 222.815C455.367 222.381 455.056 222.038 454.651 221.786C454.251 221.535 453.778 221.409 453.232 221.409C452.632 221.409 452.112 221.558 451.673 221.857C451.238 222.151 450.904 222.534 450.669 223.007C450.435 223.48 450.318 223.987 450.318 224.528V225.398C450.318 226.139 450.445 226.768 450.701 227.283C450.961 227.795 451.321 228.185 451.781 228.453C452.242 228.717 452.776 228.849 453.386 228.849C453.782 228.849 454.14 228.794 454.46 228.683C454.784 228.568 455.063 228.398 455.297 228.172C455.531 227.942 455.713 227.656 455.84 227.315L457.298 227.724C457.144 228.219 456.887 228.653 456.524 229.028C456.162 229.399 455.715 229.689 455.182 229.898C454.649 230.102 454.051 230.205 453.386 230.205ZM459.746 230V220.182H461.203V221.665H461.306C461.485 221.179 461.808 220.785 462.277 220.482C462.746 220.18 463.274 220.028 463.862 220.028C463.973 220.028 464.112 220.031 464.278 220.035C464.444 220.039 464.57 220.045 464.655 220.054V221.588C464.604 221.575 464.487 221.556 464.303 221.531C464.124 221.501 463.935 221.486 463.735 221.486C463.257 221.486 462.831 221.586 462.456 221.786C462.085 221.982 461.791 222.255 461.574 222.604C461.361 222.95 461.254 223.344 461.254 223.787V230H459.746Z" fill="white"/>
<g clip-path="url(#clip3_460_139)">
<circle cx="374.5" cy="142.5" r="10.5" fill="#FEFDFA"/>
<path fill-rule="evenodd" clip-rule="evenodd" d="M374.573 134.821L381.732 146.893H367.414L374.573 134.821Z" fill="#161719"/>
</g>
<path d="M404.744 140.182C404.668 139.534 404.357 139.031 403.811 138.673C403.266 138.315 402.597 138.136 401.804 138.136C401.224 138.136 400.717 138.23 400.283 138.418C399.852 138.605 399.516 138.863 399.273 139.191C399.034 139.519 398.915 139.892 398.915 140.31C398.915 140.659 398.998 140.96 399.164 141.211C399.335 141.458 399.552 141.665 399.816 141.831C400.08 141.993 400.357 142.127 400.647 142.234C400.937 142.336 401.203 142.419 401.446 142.483L402.776 142.841C403.116 142.93 403.496 143.054 403.913 143.212C404.335 143.369 404.738 143.585 405.121 143.857C405.509 144.126 405.829 144.471 406.08 144.893C406.332 145.315 406.457 145.832 406.457 146.446C406.457 147.153 406.272 147.793 405.901 148.364C405.535 148.935 404.998 149.388 404.29 149.725C403.587 150.062 402.733 150.23 401.727 150.23C400.79 150.23 399.978 150.079 399.292 149.776C398.61 149.474 398.073 149.052 397.681 148.511C397.293 147.969 397.074 147.341 397.023 146.625H398.659C398.702 147.119 398.868 147.528 399.158 147.852C399.452 148.172 399.822 148.411 400.27 148.568C400.722 148.722 401.207 148.798 401.727 148.798C402.332 148.798 402.876 148.7 403.357 148.504C403.839 148.304 404.22 148.027 404.501 147.673C404.783 147.315 404.923 146.898 404.923 146.42C404.923 145.986 404.802 145.632 404.559 145.359C404.316 145.087 403.996 144.865 403.6 144.695C403.204 144.524 402.776 144.375 402.315 144.247L400.705 143.787C399.682 143.493 398.872 143.073 398.276 142.528C397.679 141.982 397.381 141.268 397.381 140.386C397.381 139.653 397.579 139.014 397.975 138.469C398.376 137.919 398.913 137.493 399.586 137.19C400.263 136.884 401.02 136.73 401.855 136.73C402.699 136.73 403.449 136.881 404.105 137.184C404.761 137.482 405.281 137.891 405.665 138.411C406.053 138.931 406.257 139.521 406.278 140.182H404.744ZM412.976 150.205C412.03 150.205 411.214 149.996 410.528 149.578C409.846 149.156 409.319 148.568 408.949 147.814C408.582 147.055 408.399 146.173 408.399 145.168C408.399 144.162 408.582 143.276 408.949 142.509C409.319 141.737 409.835 141.136 410.496 140.706C411.16 140.271 411.936 140.054 412.822 140.054C413.334 140.054 413.839 140.139 414.337 140.31C414.836 140.48 415.29 140.757 415.699 141.141C416.108 141.52 416.434 142.023 416.677 142.649C416.92 143.276 417.041 144.047 417.041 144.963V145.602H409.473V144.298H415.507C415.507 143.744 415.396 143.25 415.175 142.815C414.957 142.381 414.646 142.038 414.241 141.786C413.841 141.535 413.368 141.409 412.822 141.409C412.221 141.409 411.702 141.558 411.263 141.857C410.828 142.151 410.493 142.534 410.259 143.007C410.025 143.48 409.907 143.987 409.907 144.528V145.398C409.907 146.139 410.035 146.768 410.291 147.283C410.551 147.795 410.911 148.185 411.371 148.453C411.831 148.717 412.366 148.849 412.976 148.849C413.372 148.849 413.73 148.794 414.05 148.683C414.373 148.568 414.653 148.398 414.887 148.172C415.121 147.942 415.302 147.656 415.43 147.315L416.888 147.724C416.734 148.219 416.476 148.653 416.114 149.028C415.752 149.399 415.305 149.689 414.772 149.898C414.239 150.102 413.64 150.205 412.976 150.205ZM419.336 150V140.182H420.793V141.665H420.895C421.074 141.179 421.398 140.785 421.867 140.482C422.336 140.18 422.864 140.028 423.452 140.028C423.563 140.028 423.702 140.031 423.868 140.035C424.034 140.039 424.16 140.045 424.245 140.054V141.588C424.194 141.575 424.077 141.556 423.893 141.531C423.714 141.501 423.525 141.486 423.324 141.486C422.847 141.486 422.421 141.586 422.046 141.786C421.675 141.982 421.381 142.255 421.164 142.604C420.951 142.95 420.844 143.344 420.844 143.787V150H419.336ZM434.36 140.182L430.73 150H429.195L425.565 140.182H427.201L429.911 148.006H430.014L432.724 140.182H434.36ZM436.351 150V140.182H437.86V150H436.351ZM437.118 138.545C436.824 138.545 436.571 138.445 436.358 138.245C436.149 138.045 436.045 137.804 436.045 137.523C436.045 137.241 436.149 137.001 436.358 136.8C436.571 136.6 436.824 136.5 437.118 136.5C437.412 136.5 437.664 136.6 437.873 136.8C438.086 137.001 438.192 137.241 438.192 137.523C438.192 137.804 438.086 138.045 437.873 138.245C437.664 138.445 437.412 138.545 437.118 138.545ZM444.612 150.205C443.691 150.205 442.898 149.987 442.234 149.553C441.569 149.118 441.058 148.519 440.7 147.756C440.342 146.994 440.163 146.122 440.163 145.142C440.163 144.145 440.346 143.265 440.712 142.502C441.083 141.735 441.599 141.136 442.259 140.706C442.924 140.271 443.7 140.054 444.586 140.054C445.276 140.054 445.898 140.182 446.452 140.438C447.006 140.693 447.46 141.051 447.814 141.511C448.168 141.972 448.387 142.509 448.472 143.122H446.964C446.849 142.675 446.593 142.278 446.197 141.933C445.805 141.584 445.276 141.409 444.612 141.409C444.023 141.409 443.508 141.562 443.065 141.869C442.626 142.172 442.283 142.6 442.036 143.154C441.793 143.704 441.671 144.349 441.671 145.091C441.671 145.849 441.79 146.51 442.029 147.072C442.272 147.635 442.613 148.072 443.052 148.383C443.495 148.694 444.015 148.849 444.612 148.849C445.004 148.849 445.359 148.781 445.679 148.645C445.999 148.509 446.269 148.312 446.491 148.057C446.712 147.801 446.87 147.494 446.964 147.136H448.472C448.387 147.716 448.176 148.238 447.839 148.702C447.507 149.163 447.066 149.529 446.516 149.802C445.971 150.07 445.336 150.205 444.612 150.205ZM454.794 150.205C453.848 150.205 453.032 149.996 452.346 149.578C451.664 149.156 451.138 148.568 450.767 147.814C450.401 147.055 450.217 146.173 450.217 145.168C450.217 144.162 450.401 143.276 450.767 142.509C451.138 141.737 451.653 141.136 452.314 140.706C452.979 140.271 453.754 140.054 454.641 140.054C455.152 140.054 455.657 140.139 456.156 140.31C456.654 140.48 457.108 140.757 457.517 141.141C457.926 141.52 458.252 142.023 458.495 142.649C458.738 143.276 458.859 144.047 458.859 144.963V145.602H451.291V144.298H457.325C457.325 143.744 457.214 143.25 456.993 142.815C456.776 142.381 456.464 142.038 456.06 141.786C455.659 141.535 455.186 141.409 454.641 141.409C454.04 141.409 453.52 141.558 453.081 141.857C452.646 142.151 452.312 142.534 452.077 143.007C451.843 143.48 451.726 143.987 451.726 144.528V145.398C451.726 146.139 451.854 146.768 452.109 147.283C452.369 147.795 452.729 148.185 453.19 148.453C453.65 148.717 454.185 148.849 454.794 148.849C455.19 148.849 455.548 148.794 455.868 148.683C456.192 148.568 456.471 148.398 456.705 148.172C456.94 147.942 457.121 147.656 457.249 147.315L458.706 147.724C458.553 148.219 458.295 148.653 457.933 149.028C457.57 149.399 457.123 149.689 456.59 149.898C456.058 150.102 455.459 150.205 454.794 150.205Z" fill="white"/>
<g clip-path="url(#clip4_460_139)">
<circle cx="374.5" cy="103.5" r="10.5" fill="#FEFDFA"/>
<g clip-path="url(#clip5_460_139)">
<path d="M371.708 107.01C371.697 106.992 371.688 106.974 371.68 106.954C371.623 106.826 371.605 106.685 371.629 106.547H368.262L373.266 97.9796L374.909 100.789L375.386 99.9691L373.953 97.5147C373.885 97.389 373.785 97.282 373.663 97.2035C373.541 97.1251 373.4 97.0777 373.254 97.0657C373.109 97.0722 372.968 97.1182 372.848 97.1986C372.728 97.279 372.634 97.3905 372.576 97.5205L367.506 106.192C367.43 106.314 367.387 106.453 367.379 106.596C367.371 106.738 367.4 106.881 367.462 107.01C367.54 107.13 367.65 107.226 367.782 107.287C367.913 107.349 368.059 107.374 368.204 107.358H372.45C372.305 107.374 372.159 107.349 372.028 107.288C371.897 107.226 371.786 107.13 371.708 107.01Z" fill="#00C492"/>
<path d="M381.471 106.192L377.305 99.0523C377.236 98.9252 377.136 98.817 377.014 98.7375C376.891 98.658 376.75 98.6099 376.603 98.5975C376.457 98.6036 376.317 98.6494 376.197 98.7295C376.077 98.8097 375.982 98.921 375.925 99.0509L375.386 99.9691L375.865 100.789L376.607 99.5114L380.729 106.547H379.161C379.182 106.663 379.17 106.783 379.129 106.894C379.12 106.918 379.109 106.942 379.096 106.964L379.083 106.99C378.998 107.107 378.884 107.202 378.752 107.266C378.621 107.33 378.475 107.362 378.327 107.358H380.779C380.927 107.362 381.073 107.331 381.204 107.266C381.336 107.202 381.45 107.107 381.535 106.99C381.602 106.865 381.631 106.723 381.62 106.582C381.609 106.441 381.557 106.306 381.471 106.192Z" fill="#008776"/>
<path d="M379.083 106.99L379.096 106.964C379.109 106.942 379.12 106.918 379.129 106.894C379.17 106.783 379.182 106.663 379.161 106.547C379.138 106.422 379.092 106.301 379.025 106.192L375.868 100.789L375.386 99.9691L374.906 100.789L371.751 106.192C371.69 106.303 371.649 106.423 371.629 106.547C371.604 106.684 371.62 106.826 371.675 106.954C371.684 106.974 371.693 106.992 371.704 107.011C371.782 107.13 371.893 107.226 372.024 107.288C372.155 107.349 372.301 107.374 372.446 107.359H378.323C378.471 107.363 378.618 107.331 378.75 107.267C378.883 107.203 378.997 107.108 379.083 106.99ZM375.386 101.609L378.271 106.547H372.502L375.386 101.609Z" fill="#2D4A5D"/>
</g>
</g>
<path d="M399.963 110L396.384 96.9091H397.994L400.73 107.571H400.858L403.645 96.9091H405.435L408.222 107.571H408.349L411.085 96.9091H412.696L409.116 110H407.48L404.591 99.5682H404.489L401.599 110H399.963ZM417.669 110.205C416.723 110.205 415.907 109.996 415.221 109.578C414.539 109.156 414.013 108.568 413.642 107.814C413.276 107.055 413.092 106.173 413.092 105.168C413.092 104.162 413.276 103.276 413.642 102.509C414.013 101.737 414.528 101.136 415.189 100.706C415.854 100.271 416.629 100.054 417.516 100.054C418.027 100.054 418.532 100.139 419.031 100.31C419.529 100.48 419.983 100.757 420.392 101.141C420.801 101.52 421.127 102.023 421.37 102.649C421.613 103.276 421.734 104.047 421.734 104.963V105.602H414.166V104.298H420.2C420.2 103.744 420.089 103.25 419.868 102.815C419.651 102.381 419.339 102.038 418.935 101.786C418.534 101.535 418.061 101.409 417.516 101.409C416.915 101.409 416.395 101.558 415.956 101.857C415.521 102.151 415.187 102.534 414.952 103.007C414.718 103.48 414.601 103.987 414.601 104.528V105.398C414.601 106.139 414.729 106.768 414.984 107.283C415.244 107.795 415.604 108.185 416.065 108.453C416.525 108.717 417.06 108.849 417.669 108.849C418.065 108.849 418.423 108.794 418.743 108.683C419.067 108.568 419.346 108.398 419.58 108.172C419.815 107.942 419.996 107.656 420.124 107.315L421.581 107.724C421.428 108.219 421.17 108.653 420.808 109.028C420.445 109.399 419.998 109.689 419.465 109.898C418.933 110.102 418.334 110.205 417.669 110.205ZM424.234 110V96.9091H425.742V101.741H425.87C425.981 101.571 426.134 101.354 426.33 101.089C426.531 100.821 426.816 100.582 427.187 100.374C427.562 100.161 428.069 100.054 428.708 100.054C429.535 100.054 430.263 100.261 430.894 100.674C431.525 101.087 432.017 101.673 432.371 102.432C432.724 103.19 432.901 104.085 432.901 105.116C432.901 106.156 432.724 107.058 432.371 107.82C432.017 108.579 431.527 109.167 430.901 109.585C430.274 109.998 429.552 110.205 428.734 110.205C428.103 110.205 427.598 110.1 427.219 109.891C426.839 109.678 426.548 109.437 426.343 109.169C426.138 108.896 425.981 108.67 425.87 108.491H425.691V110H424.234ZM425.717 105.091C425.717 105.832 425.825 106.487 426.043 107.053C426.26 107.616 426.577 108.057 426.995 108.376C427.413 108.692 427.924 108.849 428.529 108.849C429.16 108.849 429.686 108.683 430.108 108.351C430.534 108.014 430.854 107.562 431.067 106.996C431.284 106.425 431.393 105.79 431.393 105.091C431.393 104.401 431.286 103.778 431.073 103.224C430.864 102.666 430.547 102.225 430.121 101.901C429.699 101.573 429.168 101.409 428.529 101.409C427.915 101.409 427.4 101.565 426.982 101.876C426.565 102.183 426.249 102.613 426.036 103.167C425.823 103.717 425.717 104.358 425.717 105.091ZM442.163 102.381L440.808 102.764C440.723 102.538 440.597 102.319 440.431 102.106C440.269 101.888 440.048 101.71 439.766 101.569C439.485 101.428 439.125 101.358 438.686 101.358C438.085 101.358 437.585 101.496 437.184 101.773C436.788 102.046 436.589 102.393 436.589 102.815C436.589 103.19 436.726 103.487 436.999 103.704C437.271 103.921 437.697 104.102 438.277 104.247L439.734 104.605C440.612 104.818 441.266 105.144 441.697 105.583C442.127 106.018 442.342 106.578 442.342 107.264C442.342 107.827 442.18 108.33 441.857 108.773C441.537 109.216 441.089 109.565 440.514 109.821C439.939 110.077 439.27 110.205 438.507 110.205C437.506 110.205 436.677 109.987 436.021 109.553C435.364 109.118 434.949 108.483 434.774 107.648L436.206 107.29C436.342 107.818 436.6 108.214 436.979 108.479C437.363 108.743 437.864 108.875 438.482 108.875C439.185 108.875 439.743 108.726 440.156 108.428C440.574 108.125 440.783 107.763 440.783 107.341C440.783 107 440.663 106.714 440.425 106.484C440.186 106.25 439.82 106.075 439.325 105.96L437.689 105.577C436.79 105.364 436.129 105.033 435.707 104.586C435.29 104.134 435.081 103.57 435.081 102.892C435.081 102.338 435.237 101.848 435.548 101.422C435.863 100.996 436.291 100.661 436.832 100.418C437.378 100.175 437.996 100.054 438.686 100.054C439.658 100.054 440.42 100.267 440.974 100.693C441.533 101.119 441.929 101.682 442.163 102.381ZM444.613 110V100.182H446.122V110H444.613ZM445.38 98.5455C445.086 98.5455 444.833 98.4453 444.619 98.245C444.411 98.0447 444.306 97.804 444.306 97.5227C444.306 97.2415 444.411 97.0007 444.619 96.8004C444.833 96.6001 445.086 96.5 445.38 96.5C445.674 96.5 445.926 96.6001 446.134 96.8004C446.347 97.0007 446.454 97.2415 446.454 97.5227C446.454 97.804 446.347 98.0447 446.134 98.245C445.926 98.4453 445.674 98.5455 445.38 98.5455ZM453.154 100.182V101.46H448.066V100.182H453.154ZM449.549 97.8295H451.058V107.188C451.058 107.614 451.12 107.933 451.243 108.146C451.371 108.355 451.533 108.496 451.729 108.568C451.929 108.636 452.14 108.67 452.362 108.67C452.528 108.67 452.664 108.662 452.771 108.645C452.877 108.624 452.963 108.607 453.027 108.594L453.333 109.949C453.231 109.987 453.088 110.026 452.905 110.064C452.722 110.107 452.49 110.128 452.208 110.128C451.782 110.128 451.365 110.036 450.956 109.853C450.551 109.67 450.214 109.391 449.946 109.016C449.681 108.641 449.549 108.168 449.549 107.597V97.8295ZM459.435 110.205C458.489 110.205 457.673 109.996 456.987 109.578C456.305 109.156 455.778 108.568 455.408 107.814C455.041 107.055 454.858 106.173 454.858 105.168C454.858 104.162 455.041 103.276 455.408 102.509C455.778 101.737 456.294 101.136 456.955 100.706C457.619 100.271 458.395 100.054 459.281 100.054C459.793 100.054 460.298 100.139 460.796 100.31C461.295 100.48 461.749 100.757 462.158 101.141C462.567 101.52 462.893 102.023 463.136 102.649C463.379 103.276 463.5 104.047 463.5 104.963V105.602H455.932V104.298H461.966C461.966 103.744 461.855 103.25 461.634 102.815C461.416 102.381 461.105 102.038 460.7 101.786C460.3 101.535 459.827 101.409 459.281 101.409C458.68 101.409 458.161 101.558 457.722 101.857C457.287 102.151 456.952 102.534 456.718 103.007C456.484 103.48 456.366 103.987 456.366 104.528V105.398C456.366 106.139 456.494 106.768 456.75 107.283C457.01 107.795 457.37 108.185 457.83 108.453C458.29 108.717 458.825 108.849 459.435 108.849C459.831 108.849 460.189 108.794 460.509 108.683C460.832 108.568 461.112 108.398 461.346 108.172C461.58 107.942 461.761 107.656 461.889 107.315L463.347 107.724C463.193 108.219 462.935 108.653 462.573 109.028C462.211 109.399 461.763 109.689 461.231 109.898C460.698 110.102 460.099 110.205 459.435 110.205Z" fill="white"/>
<g clip-path="url(#clip6_460_139)">
<circle cx="375.5" cy="183.5" r="10.5" fill="#FEFDFA"/>
<g clip-path="url(#clip7_460_139)">
<path d="M376.791 190.339C376.423 190.789 375.677 190.542 375.669 189.967L375.539 181.556H381.353C382.406 181.556 382.994 182.739 382.339 183.541L376.791 190.339Z" fill="url(#paint2_linear_460_139)"/>
<path d="M376.791 190.339C376.423 190.789 375.677 190.542 375.669 189.967L375.539 181.556H381.353C382.406 181.556 382.994 182.739 382.339 183.541L376.791 190.339Z" fill="url(#paint3_linear_460_139)" fill-opacity="0.2"/>
<path d="M374.426 176.804C374.794 176.354 375.539 176.6 375.548 177.176L375.605 185.587H369.863C368.81 185.587 368.223 184.404 368.878 183.601L374.426 176.804Z" fill="#3ECF8E"/>
</g>
</g>
<path d="M405.744 180.182C405.668 179.534 405.357 179.031 404.811 178.673C404.266 178.315 403.597 178.136 402.804 178.136C402.224 178.136 401.717 178.23 401.283 178.418C400.852 178.605 400.516 178.863 400.273 179.191C400.034 179.519 399.915 179.892 399.915 180.31C399.915 180.659 399.998 180.96 400.164 181.211C400.335 181.458 400.552 181.665 400.816 181.831C401.08 181.993 401.357 182.127 401.647 182.234C401.937 182.336 402.203 182.419 402.446 182.483L403.776 182.841C404.116 182.93 404.496 183.054 404.913 183.212C405.335 183.369 405.738 183.585 406.121 183.857C406.509 184.126 406.829 184.471 407.08 184.893C407.332 185.315 407.457 185.832 407.457 186.446C407.457 187.153 407.272 187.793 406.901 188.364C406.535 188.935 405.998 189.388 405.29 189.725C404.587 190.062 403.733 190.23 402.727 190.23C401.79 190.23 400.978 190.079 400.292 189.776C399.61 189.474 399.073 189.052 398.681 188.511C398.293 187.969 398.074 187.341 398.023 186.625H399.659C399.702 187.119 399.868 187.528 400.158 187.852C400.452 188.172 400.822 188.411 401.27 188.568C401.722 188.722 402.207 188.798 402.727 188.798C403.332 188.798 403.876 188.7 404.357 188.504C404.839 188.304 405.22 188.027 405.501 187.673C405.783 187.315 405.923 186.898 405.923 186.42C405.923 185.986 405.802 185.632 405.559 185.359C405.316 185.087 404.996 184.865 404.6 184.695C404.204 184.524 403.776 184.375 403.315 184.247L401.705 183.787C400.682 183.493 399.872 183.073 399.276 182.528C398.679 181.982 398.381 181.268 398.381 180.386C398.381 179.653 398.579 179.014 398.975 178.469C399.376 177.919 399.913 177.493 400.586 177.19C401.263 176.884 402.02 176.73 402.855 176.73C403.699 176.73 404.449 176.881 405.105 177.184C405.761 177.482 406.281 177.891 406.665 178.411C407.053 178.931 407.257 179.521 407.278 180.182H405.744ZM413.976 190.205C413.03 190.205 412.214 189.996 411.528 189.578C410.846 189.156 410.319 188.568 409.949 187.814C409.582 187.055 409.399 186.173 409.399 185.168C409.399 184.162 409.582 183.276 409.949 182.509C410.319 181.737 410.835 181.136 411.496 180.706C412.16 180.271 412.936 180.054 413.822 180.054C414.334 180.054 414.839 180.139 415.337 180.31C415.836 180.48 416.29 180.757 416.699 181.141C417.108 181.52 417.434 182.023 417.677 182.649C417.92 183.276 418.041 184.047 418.041 184.963V185.602H410.473V184.298H416.507C416.507 183.744 416.396 183.25 416.175 182.815C415.957 182.381 415.646 182.038 415.241 181.786C414.841 181.535 414.368 181.409 413.822 181.409C413.221 181.409 412.702 181.558 412.263 181.857C411.828 182.151 411.493 182.534 411.259 183.007C411.025 183.48 410.907 183.987 410.907 184.528V185.398C410.907 186.139 411.035 186.768 411.291 187.283C411.551 187.795 411.911 188.185 412.371 188.453C412.831 188.717 413.366 188.849 413.976 188.849C414.372 188.849 414.73 188.794 415.05 188.683C415.373 188.568 415.653 188.398 415.887 188.172C416.121 187.942 416.302 187.656 416.43 187.315L417.888 187.724C417.734 188.219 417.476 188.653 417.114 189.028C416.752 189.399 416.305 189.689 415.772 189.898C415.239 190.102 414.64 190.205 413.976 190.205ZM420.336 190V180.182H421.793V181.665H421.895C422.074 181.179 422.398 180.785 422.867 180.482C423.336 180.18 423.864 180.028 424.452 180.028C424.563 180.028 424.702 180.031 424.868 180.035C425.034 180.039 425.16 180.045 425.245 180.054V181.588C425.194 181.575 425.077 181.556 424.893 181.531C424.714 181.501 424.525 181.486 424.324 181.486C423.847 181.486 423.421 181.586 423.046 181.786C422.675 181.982 422.381 182.255 422.164 182.604C421.951 182.95 421.844 183.344 421.844 183.787V190H420.336ZM435.36 180.182L431.73 190H430.195L426.565 180.182H428.201L430.911 188.006H431.014L433.724 180.182H435.36ZM437.351 190V180.182H438.86V190H437.351ZM438.118 178.545C437.824 178.545 437.571 178.445 437.358 178.245C437.149 178.045 437.045 177.804 437.045 177.523C437.045 177.241 437.149 177.001 437.358 176.8C437.571 176.6 437.824 176.5 438.118 176.5C438.412 176.5 438.664 176.6 438.873 176.8C439.086 177.001 439.192 177.241 439.192 177.523C439.192 177.804 439.086 178.045 438.873 178.245C438.664 178.445 438.412 178.545 438.118 178.545ZM445.612 190.205C444.691 190.205 443.898 189.987 443.234 189.553C442.569 189.118 442.058 188.519 441.7 187.756C441.342 186.994 441.163 186.122 441.163 185.142C441.163 184.145 441.346 183.265 441.712 182.502C442.083 181.735 442.599 181.136 443.259 180.706C443.924 180.271 444.7 180.054 445.586 180.054C446.276 180.054 446.898 180.182 447.452 180.438C448.006 180.693 448.46 181.051 448.814 181.511C449.168 181.972 449.387 182.509 449.472 183.122H447.964C447.849 182.675 447.593 182.278 447.197 181.933C446.805 181.584 446.276 181.409 445.612 181.409C445.023 181.409 444.508 181.562 444.065 181.869C443.626 182.172 443.283 182.6 443.036 183.154C442.793 183.704 442.671 184.349 442.671 185.091C442.671 185.849 442.79 186.51 443.029 187.072C443.272 187.635 443.613 188.072 444.052 188.383C444.495 188.694 445.015 188.849 445.612 188.849C446.004 188.849 446.359 188.781 446.679 188.645C446.999 188.509 447.269 188.312 447.491 188.057C447.712 187.801 447.87 187.494 447.964 187.136H449.472C449.387 187.716 449.176 188.238 448.839 188.702C448.507 189.163 448.066 189.529 447.516 189.802C446.971 190.07 446.336 190.205 445.612 190.205ZM455.794 190.205C454.848 190.205 454.032 189.996 453.346 189.578C452.664 189.156 452.138 188.568 451.767 187.814C451.401 187.055 451.217 186.173 451.217 185.168C451.217 184.162 451.401 183.276 451.767 182.509C452.138 181.737 452.653 181.136 453.314 180.706C453.979 180.271 454.754 180.054 455.641 180.054C456.152 180.054 456.657 180.139 457.156 180.31C457.654 180.48 458.108 180.757 458.517 181.141C458.926 181.52 459.252 182.023 459.495 182.649C459.738 183.276 459.859 184.047 459.859 184.963V185.602H452.291V184.298H458.325C458.325 183.744 458.214 183.25 457.993 182.815C457.776 182.381 457.464 182.038 457.06 181.786C456.659 181.535 456.186 181.409 455.641 181.409C455.04 181.409 454.52 181.558 454.081 181.857C453.646 182.151 453.312 182.534 453.077 183.007C452.843 183.48 452.726 183.987 452.726 184.528V185.398C452.726 186.139 452.854 186.768 453.109 187.283C453.369 187.795 453.729 188.185 454.19 188.453C454.65 188.717 455.185 188.849 455.794 188.849C456.19 188.849 456.548 188.794 456.868 188.683C457.192 188.568 457.471 188.398 457.705 188.172C457.94 187.942 458.121 187.656 458.249 187.315L459.706 187.724C459.553 188.219 459.295 188.653 458.933 189.028C458.57 189.399 458.123 189.689 457.59 189.898C457.058 190.102 456.459 190.205 455.794 190.205ZM470.924 190.205C470.106 190.205 469.384 189.998 468.757 189.585C468.131 189.167 467.641 188.579 467.287 187.82C466.933 187.058 466.756 186.156 466.756 185.116C466.756 184.085 466.933 183.19 467.287 182.432C467.641 181.673 468.133 181.087 468.763 180.674C469.394 180.261 470.123 180.054 470.95 180.054C471.589 180.054 472.094 180.161 472.464 180.374C472.839 180.582 473.125 180.821 473.321 181.089C473.521 181.354 473.677 181.571 473.788 181.741H473.915V176.909H475.424V190H473.967V188.491H473.788C473.677 188.67 473.519 188.896 473.315 189.169C473.11 189.437 472.818 189.678 472.439 189.891C472.06 190.1 471.555 190.205 470.924 190.205ZM471.129 188.849C471.734 188.849 472.245 188.692 472.663 188.376C473.08 188.057 473.398 187.616 473.615 187.053C473.832 186.487 473.941 185.832 473.941 185.091C473.941 184.358 473.835 183.717 473.621 183.167C473.408 182.613 473.093 182.183 472.675 181.876C472.258 181.565 471.742 181.409 471.129 181.409C470.489 181.409 469.957 181.573 469.531 181.901C469.109 182.225 468.791 182.666 468.578 183.224C468.369 183.778 468.265 184.401 468.265 185.091C468.265 185.79 468.371 186.425 468.585 186.996C468.802 187.562 469.121 188.014 469.543 188.351C469.969 188.683 470.498 188.849 471.129 188.849ZM478.601 190V176.909H480.109V181.741H480.237C480.348 181.571 480.501 181.354 480.697 181.089C480.898 180.821 481.183 180.582 481.554 180.374C481.929 180.161 482.436 180.054 483.075 180.054C483.902 180.054 484.631 180.261 485.261 180.674C485.892 181.087 486.384 181.673 486.738 182.432C487.092 183.19 487.268 184.085 487.268 185.116C487.268 186.156 487.092 187.058 486.738 187.82C486.384 188.579 485.894 189.167 485.268 189.585C484.641 189.998 483.919 190.205 483.101 190.205C482.47 190.205 481.965 190.1 481.586 189.891C481.207 189.678 480.915 189.437 480.71 189.169C480.506 188.896 480.348 188.67 480.237 188.491H480.058V190H478.601ZM480.084 185.091C480.084 185.832 480.192 186.487 480.41 187.053C480.627 187.616 480.945 188.057 481.362 188.376C481.78 188.692 482.291 188.849 482.896 188.849C483.527 188.849 484.053 188.683 484.475 188.351C484.901 188.014 485.221 187.562 485.434 186.996C485.651 186.425 485.76 185.79 485.76 185.091C485.76 184.401 485.653 183.778 485.44 183.224C485.232 182.666 484.914 182.225 484.488 181.901C484.066 181.573 483.536 181.409 482.896 181.409C482.283 181.409 481.767 181.565 481.349 181.876C480.932 182.183 480.616 182.613 480.403 183.167C480.19 183.717 480.084 184.358 480.084 185.091Z" fill="white"/>
<defs>
<linearGradient id="paint0_linear_460_139" x1="374.539" y1="265.421" x2="379.663" y2="267.63" gradientUnits="userSpaceOnUse">
<stop stop-color="#249361"/>
<stop offset="1" stop-color="#3ECF8E"/>
</linearGradient>
<linearGradient id="paint1_linear_460_139" x1="372.248" y1="262.37" x2="374.505" y2="266.737" gradientUnits="userSpaceOnUse">
<stop/>
<stop offset="1" stop-opacity="0"/>
</linearGradient>
<linearGradient id="paint2_linear_460_139" x1="375.539" y1="183.421" x2="380.663" y2="185.63" gradientUnits="userSpaceOnUse">
<stop stop-color="#249361"/>
<stop offset="1" stop-color="#3ECF8E"/>
</linearGradient>
<linearGradient id="paint3_linear_460_139" x1="373.248" y1="180.37" x2="375.505" y2="184.737" gradientUnits="userSpaceOnUse">
<stop/>
<stop offset="1" stop-opacity="0"/>
</linearGradient>
<clipPath id="clip0_460_139">
<rect width="21" height="21" fill="white" transform="translate(364 255)"/>
</clipPath>
<clipPath id="clip1_460_139">
<rect width="14.3916" height="14" fill="white" transform="translate(367.378 258.571)"/>
</clipPath>
<clipPath id="clip2_460_139">
<rect width="21" height="21" fill="white" transform="translate(365 212)"/>
</clipPath>
<clipPath id="clip3_460_139">
<rect width="21" height="21" fill="white" transform="translate(364 132)"/>
</clipPath>
<clipPath id="clip4_460_139">
<rect width="21" height="21" fill="white" transform="translate(364 93)"/>
</clipPath>
<clipPath id="clip5_460_139">
<rect width="14.2448" height="13.8571" fill="white" transform="translate(367.378 95.2858)"/>
</clipPath>
<clipPath id="clip6_460_139">
<rect width="21" height="21" fill="white" transform="translate(365 173)"/>
</clipPath>
<clipPath id="clip7_460_139">
<rect width="14.3916" height="14" fill="white" transform="translate(368.378 176.571)"/>
</clipPath>
</defs>
</svg>
