<svg width="929" height="229" viewBox="0 0 929 229" fill="none" xmlns="http://www.w3.org/2000/svg">
<rect width="929" height="229" fill="#202124"/>
<path d="M270.427 78.5855H296.127C318.652 78.5855 333.537 91.783 333.537 116.293C333.537 140.802 318.652 154 296.127 154H270.427V78.5855ZM280.449 145.069H296.425C313.294 145.069 323.118 134.849 323.118 116.293C323.118 97.836 313.294 87.5161 296.425 87.5161H280.449V145.069ZM368.885 155.092C353.108 155.092 342.986 143.879 342.986 127.406C342.986 110.934 353.108 99.7214 368.885 99.7214C384.663 99.7214 394.685 110.934 394.685 127.406C394.685 143.879 384.663 155.092 368.885 155.092ZM368.885 147.947C379.007 147.947 384.762 139.909 384.762 127.406C384.762 114.904 379.007 106.866 368.885 106.866C358.764 106.866 352.909 114.904 352.909 127.406C352.909 139.909 358.764 147.947 368.885 147.947ZM429.353 155.092C413.576 155.092 403.454 143.879 403.454 127.406C403.454 110.934 413.576 99.7214 429.353 99.7214C442.451 99.7214 451.084 107.66 453.367 118.873H443.444C441.955 112.324 437.391 106.866 429.353 106.866C419.232 106.866 413.377 114.904 413.377 127.406C413.377 139.909 419.232 147.947 429.353 147.947C437.093 147.947 441.856 143.779 444.039 136.238H453.962C451.184 148.443 441.459 155.092 429.353 155.092ZM485.908 124.33L512.005 154H499.899L474.695 125.323V154H464.97V78.5855H474.695V123.537L498.907 100.813H511.013L485.908 124.33ZM563.943 126.613C563.943 127.605 563.844 128.994 563.745 130.284H523.557C524.351 141.795 530.205 147.947 539.037 147.947C546.777 147.947 550.845 144.375 552.83 138.421H562.753C559.677 149.733 551.044 155.092 539.037 155.092C522.962 155.092 513.733 143.382 513.733 127.406C513.733 111.232 523.16 99.7214 538.938 99.7214C553.822 99.7214 563.943 110.24 563.943 126.613ZM538.938 106.866C530.503 106.866 524.847 112.324 523.656 122.941H554.02C553.425 113.415 547.67 106.866 538.938 106.866ZM585.747 100.813V112.224C588.128 104.782 593.387 99.7214 603.211 99.7214V109.347H600.234C590.51 109.347 585.747 112.423 585.747 121.949V154H576.022V100.813H585.747ZM660.074 100.813V154H650.35V108.156H627.626V154H617.902V108.156H606.887V100.813H617.902V93.3707C617.902 83.15 625.046 78.5855 634.374 78.5855H641.32V85.9285H635.366C630.504 85.9285 627.626 87.5161 627.626 93.3707V100.813H660.074ZM649.953 91.6838V78.5855H660.471V91.6838H649.953ZM685.267 154H675.543V78.5855H685.267V154ZM747.673 126.613C747.673 127.605 747.574 128.994 747.475 130.284H707.287C708.081 141.795 713.935 147.947 722.767 147.947C730.507 147.947 734.575 144.375 736.56 138.421H746.483C743.406 149.733 734.773 155.092 722.767 155.092C706.691 155.092 697.463 143.382 697.463 127.406C697.463 111.232 706.89 99.7214 722.667 99.7214C737.552 99.7214 747.673 110.24 747.673 126.613ZM722.667 106.866C714.233 106.866 708.577 112.324 707.386 122.941H737.75C737.155 113.415 731.4 106.866 722.667 106.866Z" fill="#FEFDFA"/>
<ellipse cx="213.5" cy="116.5" rx="36.5" ry="37.5" fill="#FEFDFA"/>
</svg>
