<svg width="929" height="393" viewBox="0 0 929 393" fill="none" xmlns="http://www.w3.org/2000/svg">
<rect width="929" height="393" fill="#161719"/>
<rect width="164.648" height="212.608" transform="translate(196 80)" fill="#FEFDFA"/>
<rect x="203.417" y="87.664" width="42.5216" height="50.927" stroke="#161719" stroke-width="0.494437" stroke-dasharray="0.99 0.99"/>
<rect x="203.169" y="87.4167" width="43.0161" height="8.40544" fill="#161719"/>
<rect x="230.363" y="125.983" width="43.0161" height="51.4215" fill="#161719"/>
<rect x="230.61" y="126.23" width="96.9097" height="50.927" stroke="#161719" stroke-width="0.494437" stroke-dasharray="0.99 0.99"/>
<rect x="230.363" y="189.765" width="97.4042" height="13.8442" fill="#161719"/>
<rect x="230.487" y="244.524" width="97.157" height="10.6304" stroke="#161719" stroke-width="0.247219" stroke-dasharray="0.49 0.49"/>
<rect x="230.363" y="208.554" width="97.4042" height="13.8442" fill="#161719"/>
<rect x="230.363" y="215.476" width="87.7626" height="13.8442" fill="#161719"/>
<rect x="230.363" y="234.265" width="21.508" height="4.69716" fill="#161719"/>
<rect x="256.816" y="234.265" width="16.5637" height="4.69716" fill="#161719"/>
<rect x="284.751" y="144.277" width="43.0161" height="33.1273" fill="#161719"/>
<rect x="318.374" y="87.4167" width="20.2719" height="8.40544" fill="#161719"/>
<circle cx="348.781" cy="91.6195" r="4.20272" fill="#161719"/>
<ellipse cx="279.065" cy="249.839" rx="48.7021" ry="5.43881" fill="#161719"/>
<rect width="327.07" height="212.608" transform="translate(404.9 80)" fill="#FEFDFA"/>
<rect x="412.316" y="87.664" width="42.5216" height="50.927" stroke="#161719" stroke-width="0.494437" stroke-dasharray="0.99 0.99"/>
<rect x="412.069" y="87.4167" width="43.0161" height="8.40544" fill="#161719"/>
<rect x="520.598" y="125.983" width="43.0161" height="51.4215" fill="#161719"/>
<rect x="520.845" y="126.23" width="96.9097" height="50.927" stroke="#161719" stroke-width="0.494437" stroke-dasharray="0.99 0.99"/>
<rect x="520.598" y="189.765" width="97.4042" height="13.8442" fill="#161719"/>
<rect x="520.722" y="244.524" width="97.157" height="10.6304" stroke="#161719" stroke-width="0.247219" stroke-dasharray="0.49 0.49"/>
<rect x="520.598" y="208.554" width="97.4042" height="13.8442" fill="#161719"/>
<rect x="520.598" y="215.476" width="87.7626" height="13.8442" fill="#161719"/>
<rect x="520.598" y="234.265" width="21.508" height="4.69716" fill="#161719"/>
<rect x="547.051" y="234.265" width="16.5637" height="4.69716" fill="#161719"/>
<rect x="574.986" y="144.277" width="43.0161" height="33.1273" fill="#161719"/>
<rect x="689.696" y="87.4167" width="20.2719" height="8.40544" fill="#161719"/>
<circle cx="720.104" cy="91.6195" r="4.20272" fill="#161719"/>
<ellipse cx="569.3" cy="249.839" rx="48.7021" ry="5.43881" fill="#161719"/>
</svg>
