<svg width="929" height="229" viewBox="0 0 929 229" fill="none" xmlns="http://www.w3.org/2000/svg">
<rect width="929" height="229" fill="#202124"/>
<path d="M371.942 110.637V78.5855H381.965V154H371.942V119.567H332.449V154H322.427V78.5855H332.449V110.637H371.942ZM419.201 99.7214C435.375 99.7214 441.229 109.843 441.229 119.766V119.964V154H431.505V143.085C427.833 150.527 423.467 155.092 413.148 155.092C403.225 155.092 395.286 147.848 395.286 138.024C395.286 125.62 407.69 123.239 417.216 122.247L431.505 120.758V119.865V119.667C431.505 112.72 427.635 106.866 419.201 106.866C411.758 106.866 407.591 111.43 406.896 116.491H396.973C398.164 106.469 406.698 99.7214 419.201 99.7214ZM416.72 148.642C426.544 148.642 431.505 140.902 431.505 131.376V127.406L420.887 128.498C413.544 129.292 405.209 130.284 405.209 138.024C405.209 144.871 410.568 148.642 416.72 148.642ZM465.839 100.813V112.224C468.221 104.782 473.48 99.7214 483.304 99.7214V109.347H480.327C470.602 109.347 465.839 112.423 465.839 121.949V154H456.115V100.813H465.839ZM513.97 153.504L531.236 100.813H541.159L523.397 154H504.444L486.682 100.813H496.605L513.97 153.504ZM596.563 126.613C596.563 127.605 596.463 128.994 596.364 130.284H556.176C556.97 141.795 562.825 147.947 571.656 147.947C579.396 147.947 583.464 144.375 585.449 138.421H595.372C592.296 149.733 583.663 155.092 571.656 155.092C555.581 155.092 546.352 143.382 546.352 127.406C546.352 111.232 555.779 99.7214 571.557 99.7214C586.441 99.7214 596.563 110.24 596.563 126.613ZM571.557 106.866C563.122 106.866 557.466 112.324 556.275 122.941H586.64C586.044 113.415 580.289 106.866 571.557 106.866ZM627.098 155.092C615.29 155.092 606.062 149.336 604.573 138.421H614.496C615.984 145.962 621.74 147.947 627.098 147.947C635.433 147.947 639.7 144.772 639.7 139.909C639.7 135.146 636.922 132.864 628.984 131.177L621.541 129.59C612.313 127.605 605.962 123.437 605.962 115.3C605.962 105.874 615.29 99.7214 626.9 99.7214C637.22 99.7214 646.051 104.484 648.433 114.11H638.51C637.021 109.446 632.06 106.866 626.9 106.866C621.144 106.866 615.588 109.545 615.588 114.308C615.588 118.575 619.061 120.063 626.205 121.552L633.647 123.14C644.761 125.521 649.326 130.483 649.326 138.719C649.326 148.939 640.197 155.092 627.098 155.092ZM682.519 146.657H688.473V154H681.526C672.298 154 665.054 149.535 665.054 139.413V139.215V108.156H653.841V100.813H665.054V88.2108H674.779V100.813H688.274V108.156H674.779V139.215V139.413C674.779 145.069 677.656 146.657 682.519 146.657Z" fill="#FEFDFA"/>
<ellipse cx="265.5" cy="116.5" rx="36.5" ry="37.5" fill="#FEFDFA"/>
</svg>
