<svg width="929" height="199" viewBox="0 0 929 199" fill="none" xmlns="http://www.w3.org/2000/svg">
<rect width="929" height="199" fill="#202124"/>
<path d="M250.356 106.2L266.736 123H261.108L245.232 106.662V123H240.99V91.08H245.232V105.822L259.638 91.08H265.14L250.356 106.2ZM278.095 100.026C284.941 100.026 287.419 104.31 287.419 108.51V108.594V123H283.303V118.38C281.749 121.53 279.901 123.462 275.533 123.462C271.333 123.462 267.973 120.396 267.973 116.238C267.973 110.988 273.223 109.98 277.255 109.56L283.303 108.93V108.552V108.468C283.303 105.528 281.665 103.05 278.095 103.05C274.945 103.05 273.181 104.982 272.887 107.124H268.687C269.191 102.882 272.803 100.026 278.095 100.026ZM277.045 120.732C281.203 120.732 283.303 117.456 283.303 113.424V111.744L278.809 112.206C275.701 112.542 272.173 112.962 272.173 116.238C272.173 119.136 274.441 120.732 277.045 120.732ZM297.835 123H293.719V91.08H297.835V123ZM313.791 119.892H316.311V123H313.371C309.465 123 306.399 121.11 306.399 116.826V116.742V103.596H301.653V100.488H306.399V95.154H310.515V100.488H316.227V103.596H310.515V116.742V116.826C310.515 119.22 311.733 119.892 313.791 119.892ZM361.071 112.836H330.705V109.392H361.071V112.836Z" fill="#FEFDFA"/>
<path d="M389.07 123.462C382.518 123.462 377.73 119.598 376.848 113.55H379.83C380.502 118.296 384.324 120.984 389.07 120.984C395.118 120.984 398.604 118.128 398.604 114.054C398.604 110.4 395.916 109.182 390.12 107.88L386.466 107.082C381.72 106.032 377.856 103.89 377.856 99.06C377.856 94.314 382.602 90.618 388.944 90.618C395.328 90.618 399.948 93.978 400.788 99.27H397.806C396.924 95.154 393.438 93.096 388.944 93.096C384.198 93.096 380.796 95.448 380.796 98.808C380.796 102.252 383.232 103.47 388.44 104.604L392.136 105.444C398.772 106.914 401.544 109.182 401.544 113.76C401.544 119.43 396.672 123.462 389.07 123.462ZM426.435 111.45C426.435 111.828 426.393 112.08 426.351 112.542H408.501C408.753 118.17 411.819 121.362 416.229 121.362C419.967 121.362 422.151 119.514 423.117 116.448H425.973C424.671 121.194 421.059 123.462 416.229 123.462C409.887 123.462 405.687 118.8 405.687 111.828C405.687 104.898 409.887 100.194 416.103 100.194C422.025 100.194 426.435 104.562 426.435 111.45ZM416.103 102.294C411.861 102.294 409.005 105.318 408.543 110.4H423.579C423.327 105.738 420.387 102.294 416.103 102.294ZM441.128 123.462C434.702 123.462 430.46 118.8 430.46 111.828C430.46 104.856 434.702 100.194 441.128 100.194C446.336 100.194 449.822 103.428 450.956 108.132H448.1C447.26 104.814 444.95 102.294 441.128 102.294C436.256 102.294 433.274 106.158 433.274 111.828C433.274 117.498 436.256 121.362 441.128 121.362C444.866 121.362 447.302 119.136 448.352 115.566H451.208C449.948 120.522 446.084 123.462 441.128 123.462ZM470.952 114.096V100.656H473.724V123H470.952V118.422C469.86 121.194 467.508 123.462 463.896 123.462C459.234 123.462 456.042 119.85 456.042 114.6V114.516V100.656H458.814V114.054V114.138C458.814 118.926 461.376 121.362 464.904 121.362C468.432 121.362 470.952 118.884 470.952 114.096ZM483.635 100.656V105.486C484.727 102.294 487.037 100.194 491.363 100.194V102.924H490.565C486.113 102.924 483.635 104.898 483.635 109.392V123H480.863V100.656H483.635ZM498.649 96.372H495.667V91.08H498.649V96.372ZM498.565 123H495.793V100.656H498.565V123ZM514.076 120.858H516.638V123H513.824C510.17 123 507.65 121.194 507.65 117.33V117.246V102.798H502.652V100.656H507.65V95.364H510.422V100.656H516.596V102.798H510.422V117.246V117.33C510.422 119.934 511.724 120.858 514.076 120.858ZM529.415 120.606H526.517L517.865 100.656H520.763L529.415 120.606ZM528.575 131.232H525.635L537.143 100.656H539.999L528.575 131.232ZM565.619 100.194C571.247 100.194 575.447 104.898 575.447 111.828C575.447 118.758 571.289 123.462 565.619 123.462C561.713 123.462 558.437 120.9 557.135 117.456V131.232H554.363V100.656H557.135V106.494C558.269 103.218 561.209 100.194 565.619 100.194ZM564.821 121.362C569.651 121.362 572.591 117.498 572.591 111.828C572.591 106.158 569.651 102.294 564.821 102.294C559.991 102.294 557.009 106.158 557.009 111.828C557.009 117.498 559.991 121.362 564.821 121.362ZM590.178 123.462C583.836 123.462 579.552 118.8 579.552 111.828C579.552 104.856 583.836 100.194 590.178 100.194C596.562 100.194 600.804 104.856 600.804 111.828C600.804 118.8 596.562 123.462 590.178 123.462ZM590.178 121.362C595.008 121.362 597.948 117.498 597.948 111.828C597.948 106.158 595.008 102.294 590.178 102.294C585.348 102.294 582.366 106.158 582.366 111.828C582.366 117.498 585.348 121.362 590.178 121.362ZM609.143 123H606.371V91.08H609.143V123ZM619.153 96.372H616.171V91.08H619.153V96.372ZM619.069 123H616.297V100.656H619.069V123ZM635.378 123.462C628.952 123.462 624.71 118.8 624.71 111.828C624.71 104.856 628.952 100.194 635.378 100.194C640.586 100.194 644.072 103.428 645.206 108.132H642.35C641.51 104.814 639.2 102.294 635.378 102.294C630.506 102.294 627.524 106.158 627.524 111.828C627.524 117.498 630.506 121.362 635.378 121.362C639.116 121.362 641.552 119.136 642.602 115.566H645.458C644.198 120.522 640.334 123.462 635.378 123.462ZM658.902 120.606H656.004L647.352 100.656H650.25L658.902 120.606ZM658.062 131.232H655.122L666.63 100.656H669.486L658.062 131.232Z" fill="#FEFDFA"/>
<ellipse cx="209.5" cy="107" rx="15.5" ry="16" fill="#FEFDFA"/>
</svg>
