<svg width="929" height="199" viewBox="0 0 929 199" fill="none" xmlns="http://www.w3.org/2000/svg">
<rect width="929" height="199" fill="#161719"/>
<path d="M240.199 90.874H244.178V105.558L258.861 90.874H264.501L251.971 103.015L264.85 121H259.538L248.997 105.886L244.178 110.5V121H240.199V90.874ZM270.551 115.155C270.551 116.222 270.94 117.062 271.72 117.678C272.499 118.293 273.422 118.601 274.488 118.601C275.787 118.601 277.045 118.3 278.262 117.698C280.312 116.7 281.338 115.066 281.338 112.797V109.823C280.887 110.11 280.306 110.35 279.595 110.541C278.884 110.732 278.187 110.869 277.503 110.951L275.268 111.238C273.928 111.416 272.923 111.696 272.253 112.079C271.118 112.722 270.551 113.747 270.551 115.155ZM279.492 107.69C280.34 107.581 280.907 107.226 281.194 106.624C281.358 106.296 281.44 105.824 281.44 105.209C281.44 103.951 280.989 103.042 280.087 102.481C279.198 101.907 277.92 101.62 276.252 101.62C274.324 101.62 272.957 102.14 272.15 103.179C271.699 103.753 271.405 104.607 271.269 105.742H267.823C267.892 103.035 268.767 101.155 270.448 100.103C272.144 99.0361 274.105 98.5029 276.334 98.5029C278.918 98.5029 281.017 98.9951 282.63 99.9795C284.229 100.964 285.029 102.495 285.029 104.573V117.227C285.029 117.609 285.104 117.917 285.255 118.149C285.419 118.382 285.754 118.498 286.26 118.498C286.424 118.498 286.608 118.491 286.813 118.478C287.019 118.45 287.237 118.416 287.47 118.375V121.103C286.896 121.267 286.458 121.369 286.157 121.41C285.856 121.451 285.446 121.472 284.927 121.472C283.655 121.472 282.732 121.021 282.158 120.118C281.857 119.64 281.646 118.963 281.522 118.088C280.771 119.072 279.69 119.927 278.282 120.651C276.874 121.376 275.322 121.738 273.627 121.738C271.59 121.738 269.922 121.123 268.623 119.893C267.338 118.648 266.695 117.097 266.695 115.237C266.695 113.2 267.331 111.621 268.603 110.5C269.874 109.379 271.542 108.688 273.606 108.429L279.492 107.69ZM291.202 90.874H294.894V121H291.202V90.874ZM301.189 92.9043H304.922V99.0361H308.429V102.051H304.922V116.386C304.922 117.151 305.182 117.664 305.701 117.924C305.988 118.074 306.467 118.149 307.137 118.149C307.314 118.149 307.506 118.149 307.711 118.149C307.916 118.136 308.155 118.115 308.429 118.088V121C308.005 121.123 307.561 121.212 307.096 121.267C306.645 121.321 306.152 121.349 305.619 121.349C303.896 121.349 302.728 120.911 302.112 120.036C301.497 119.147 301.189 117.999 301.189 116.591V102.051H298.216V99.0361H301.189V92.9043ZM326.065 107.875H358.16V110.89H326.065V107.875Z" fill="#FEFDFA"/>
<path d="M378.402 121V90.76H381.258V118.564H397.47V121H378.402ZM401.74 121V99.244H404.26V121H401.74ZM401.614 94.498V90.76H404.386V94.498H401.614ZM426.086 106.09C425.638 104.466 424.868 103.206 423.776 102.31C422.684 101.386 421.298 100.924 419.618 100.924C418.33 100.924 417.224 101.19 416.3 101.722C415.376 102.254 414.62 102.968 414.032 103.864C413.444 104.732 413.01 105.726 412.73 106.846C412.45 107.938 412.31 109.044 412.31 110.164C412.31 111.312 412.436 112.432 412.688 113.524C412.968 114.616 413.402 115.596 413.99 116.464C414.578 117.332 415.334 118.032 416.258 118.564C417.182 119.068 418.302 119.32 419.618 119.32C421.494 119.32 422.992 118.802 424.112 117.766C425.26 116.73 425.988 115.302 426.296 113.482H428.984C428.76 114.686 428.396 115.792 427.892 116.8C427.416 117.78 426.786 118.634 426.002 119.362C425.246 120.062 424.336 120.608 423.272 121C422.208 121.392 420.99 121.588 419.618 121.588C417.882 121.588 416.384 121.294 415.124 120.706C413.864 120.118 412.828 119.32 412.016 118.312C411.204 117.276 410.602 116.058 410.21 114.658C409.818 113.258 409.622 111.76 409.622 110.164C409.622 108.652 409.832 107.21 410.252 105.838C410.7 104.438 411.344 103.206 412.184 102.142C413.024 101.078 414.06 100.238 415.292 99.622C416.552 98.978 417.994 98.656 419.618 98.656C422.138 98.656 424.168 99.258 425.708 100.462C427.276 101.666 428.256 103.542 428.648 106.09H426.086ZM449.76 108.61C449.76 107.546 449.606 106.552 449.298 105.628C449.018 104.676 448.584 103.864 447.996 103.192C447.436 102.492 446.722 101.946 445.854 101.554C444.986 101.134 443.992 100.924 442.872 100.924C441.752 100.924 440.758 101.134 439.89 101.554C439.05 101.974 438.322 102.534 437.706 103.234C437.118 103.934 436.642 104.746 436.278 105.67C435.914 106.594 435.676 107.574 435.564 108.61H449.76ZM435.564 110.71C435.564 111.886 435.718 113.006 436.026 114.07C436.334 115.106 436.782 116.016 437.37 116.8C437.986 117.556 438.756 118.172 439.68 118.648C440.604 119.096 441.668 119.32 442.872 119.32C444.524 119.32 445.938 118.886 447.114 118.018C448.29 117.15 449.074 115.918 449.466 114.322H452.28C451.972 115.358 451.566 116.324 451.062 117.22C450.558 118.088 449.928 118.858 449.172 119.53C448.416 120.174 447.52 120.678 446.484 121.042C445.448 121.406 444.244 121.588 442.872 121.588C441.136 121.588 439.638 121.294 438.378 120.706C437.118 120.118 436.082 119.32 435.27 118.312C434.458 117.276 433.856 116.072 433.464 114.7C433.072 113.3 432.876 111.802 432.876 110.206C432.876 108.61 433.1 107.112 433.548 105.712C434.024 104.312 434.682 103.094 435.522 102.058C436.39 100.994 437.44 100.168 438.672 99.58C439.904 98.964 441.304 98.656 442.872 98.656C445.868 98.656 448.22 99.692 449.928 101.764C451.636 103.808 452.476 106.79 452.448 110.71H435.564ZM459.868 121H457.348V99.244H459.868V102.268C460.876 101.204 461.912 100.336 462.976 99.664C464.068 98.992 465.37 98.656 466.882 98.656C468.226 98.656 469.472 98.894 470.62 99.37C471.768 99.818 472.734 100.616 473.518 101.764C474.05 102.548 474.358 103.36 474.442 104.2C474.554 105.012 474.61 105.866 474.61 106.762V121H472.09V106.804C472.09 104.844 471.656 103.374 470.788 102.394C469.92 101.414 468.478 100.924 466.462 100.924C465.678 100.924 464.964 101.05 464.32 101.302C463.676 101.526 463.088 101.834 462.556 102.226C462.052 102.618 461.618 103.066 461.254 103.57C460.89 104.074 460.61 104.606 460.414 105.166C460.162 105.866 460.008 106.538 459.952 107.182C459.896 107.826 459.868 108.526 459.868 109.282V121ZM496.1 106.09C495.652 104.466 494.882 103.206 493.79 102.31C492.698 101.386 491.312 100.924 489.632 100.924C488.344 100.924 487.238 101.19 486.314 101.722C485.39 102.254 484.634 102.968 484.046 103.864C483.458 104.732 483.024 105.726 482.744 106.846C482.464 107.938 482.324 109.044 482.324 110.164C482.324 111.312 482.45 112.432 482.702 113.524C482.982 114.616 483.416 115.596 484.004 116.464C484.592 117.332 485.348 118.032 486.272 118.564C487.196 119.068 488.316 119.32 489.632 119.32C491.508 119.32 493.006 118.802 494.126 117.766C495.274 116.73 496.002 115.302 496.31 113.482H498.998C498.774 114.686 498.41 115.792 497.906 116.8C497.43 117.78 496.8 118.634 496.016 119.362C495.26 120.062 494.35 120.608 493.286 121C492.222 121.392 491.004 121.588 489.632 121.588C487.896 121.588 486.398 121.294 485.138 120.706C483.878 120.118 482.842 119.32 482.03 118.312C481.218 117.276 480.616 116.058 480.224 114.658C479.832 113.258 479.636 111.76 479.636 110.164C479.636 108.652 479.846 107.21 480.266 105.838C480.714 104.438 481.358 103.206 482.198 102.142C483.038 101.078 484.074 100.238 485.306 99.622C486.566 98.978 488.008 98.656 489.632 98.656C492.152 98.656 494.182 99.258 495.722 100.462C497.29 101.666 498.27 103.542 498.662 106.09H496.1ZM519.774 108.61C519.774 107.546 519.62 106.552 519.312 105.628C519.032 104.676 518.598 103.864 518.01 103.192C517.45 102.492 516.736 101.946 515.868 101.554C515 101.134 514.006 100.924 512.886 100.924C511.766 100.924 510.772 101.134 509.904 101.554C509.064 101.974 508.336 102.534 507.72 103.234C507.132 103.934 506.656 104.746 506.292 105.67C505.928 106.594 505.69 107.574 505.578 108.61H519.774ZM505.578 110.71C505.578 111.886 505.732 113.006 506.04 114.07C506.348 115.106 506.796 116.016 507.384 116.8C508 117.556 508.77 118.172 509.694 118.648C510.618 119.096 511.682 119.32 512.886 119.32C514.538 119.32 515.952 118.886 517.128 118.018C518.304 117.15 519.088 115.918 519.48 114.322H522.294C521.986 115.358 521.58 116.324 521.076 117.22C520.572 118.088 519.942 118.858 519.186 119.53C518.43 120.174 517.534 120.678 516.498 121.042C515.462 121.406 514.258 121.588 512.886 121.588C511.15 121.588 509.652 121.294 508.392 120.706C507.132 120.118 506.096 119.32 505.284 118.312C504.472 117.276 503.87 116.072 503.478 114.7C503.086 113.3 502.89 111.802 502.89 110.206C502.89 108.61 503.114 107.112 503.562 105.712C504.038 104.312 504.696 103.094 505.536 102.058C506.404 100.994 507.454 100.168 508.686 99.58C509.918 98.964 511.318 98.656 512.886 98.656C515.882 98.656 518.234 99.692 519.942 101.764C521.65 103.808 522.49 106.79 522.462 110.71H505.578Z" fill="#FEFDFA"/>
<ellipse cx="209.5" cy="107" rx="15.5" ry="16" fill="#FEFDFA"/>
</svg>
