<svg width="929" height="199" viewBox="0 0 929 199" fill="none" xmlns="http://www.w3.org/2000/svg">
<rect width="929" height="199" fill="#161719"/>
<path d="M240.199 90.874H244.178V105.558L258.861 90.874H264.501L251.971 103.015L264.85 121H259.538L248.997 105.886L244.178 110.5V121H240.199V90.874ZM270.551 115.155C270.551 116.222 270.94 117.062 271.72 117.678C272.499 118.293 273.422 118.601 274.488 118.601C275.787 118.601 277.045 118.3 278.262 117.698C280.312 116.7 281.338 115.066 281.338 112.797V109.823C280.887 110.11 280.306 110.35 279.595 110.541C278.884 110.732 278.187 110.869 277.503 110.951L275.268 111.238C273.928 111.416 272.923 111.696 272.253 112.079C271.118 112.722 270.551 113.747 270.551 115.155ZM279.492 107.69C280.34 107.581 280.907 107.226 281.194 106.624C281.358 106.296 281.44 105.824 281.44 105.209C281.44 103.951 280.989 103.042 280.087 102.481C279.198 101.907 277.92 101.62 276.252 101.62C274.324 101.62 272.957 102.14 272.15 103.179C271.699 103.753 271.405 104.607 271.269 105.742H267.823C267.892 103.035 268.767 101.155 270.448 100.103C272.144 99.0361 274.105 98.5029 276.334 98.5029C278.918 98.5029 281.017 98.9951 282.63 99.9795C284.229 100.964 285.029 102.495 285.029 104.573V117.227C285.029 117.609 285.104 117.917 285.255 118.149C285.419 118.382 285.754 118.498 286.26 118.498C286.424 118.498 286.608 118.491 286.813 118.478C287.019 118.45 287.237 118.416 287.47 118.375V121.103C286.896 121.267 286.458 121.369 286.157 121.41C285.856 121.451 285.446 121.472 284.927 121.472C283.655 121.472 282.732 121.021 282.158 120.118C281.857 119.64 281.646 118.963 281.522 118.088C280.771 119.072 279.69 119.927 278.282 120.651C276.874 121.376 275.322 121.738 273.627 121.738C271.59 121.738 269.922 121.123 268.623 119.893C267.338 118.648 266.695 117.097 266.695 115.237C266.695 113.2 267.331 111.621 268.603 110.5C269.874 109.379 271.542 108.688 273.606 108.429L279.492 107.69ZM291.202 90.874H294.894V121H291.202V90.874ZM301.189 92.9043H304.922V99.0361H308.429V102.051H304.922V116.386C304.922 117.151 305.182 117.664 305.701 117.924C305.988 118.074 306.467 118.149 307.137 118.149C307.314 118.149 307.506 118.149 307.711 118.149C307.916 118.136 308.155 118.115 308.429 118.088V121C308.005 121.123 307.561 121.212 307.096 121.267C306.645 121.321 306.152 121.349 305.619 121.349C303.896 121.349 302.728 120.911 302.112 120.036C301.497 119.147 301.189 117.999 301.189 116.591V102.051H298.216V99.0361H301.189V92.9043ZM326.065 107.875H358.16V110.89H326.065V107.875Z" fill="#FEFDFA"/>
<path d="M379.578 111.97C379.69 113.314 379.984 114.462 380.46 115.414C380.964 116.338 381.594 117.094 382.35 117.682C383.134 118.27 384.03 118.704 385.038 118.984C386.046 119.236 387.124 119.362 388.272 119.362C389.616 119.362 390.778 119.194 391.758 118.858C392.738 118.522 393.536 118.074 394.152 117.514C394.768 116.926 395.216 116.254 395.496 115.498C395.804 114.742 395.958 113.944 395.958 113.104C395.958 111.928 395.692 110.976 395.16 110.248C394.628 109.52 393.928 108.932 393.06 108.484C392.22 108.008 391.24 107.63 390.12 107.35C389.028 107.07 387.894 106.804 386.718 106.552C385.57 106.272 384.436 105.95 383.316 105.586C382.224 105.222 381.244 104.732 380.376 104.116C379.536 103.5 378.85 102.716 378.318 101.764C377.786 100.784 377.52 99.552 377.52 98.068C377.52 97.032 377.73 96.024 378.15 95.044C378.598 94.064 379.242 93.196 380.082 92.44C380.95 91.684 382.028 91.082 383.316 90.634C384.604 90.186 386.088 89.962 387.768 89.962C389.476 89.962 390.96 90.2 392.22 90.676C393.508 91.152 394.572 91.81 395.412 92.65C396.252 93.462 396.882 94.414 397.302 95.506C397.722 96.598 397.932 97.76 397.932 98.992H395.202C395.202 97.844 394.992 96.85 394.572 96.01C394.18 95.17 393.634 94.484 392.934 93.952C392.234 93.42 391.436 93.028 390.54 92.776C389.644 92.524 388.72 92.398 387.768 92.398C386.312 92.398 385.08 92.608 384.072 93.028C383.092 93.42 382.308 93.938 381.72 94.582C381.132 95.226 380.726 95.94 380.502 96.724C380.278 97.508 380.236 98.292 380.376 99.076C380.544 100.056 380.936 100.84 381.552 101.428C382.168 102.016 382.924 102.506 383.82 102.898C384.716 103.262 385.696 103.57 386.76 103.822C387.852 104.046 388.958 104.298 390.078 104.578C391.198 104.83 392.276 105.138 393.312 105.502C394.376 105.866 395.314 106.356 396.126 106.972C396.938 107.588 397.582 108.386 398.058 109.366C398.562 110.318 398.814 111.522 398.814 112.978C398.814 115.778 397.848 117.948 395.916 119.488C393.984 121.028 391.268 121.798 387.768 121.798C386.2 121.798 384.744 121.588 383.4 121.168C382.056 120.776 380.894 120.174 379.914 119.362C378.934 118.522 378.164 117.5 377.604 116.296C377.072 115.064 376.806 113.622 376.806 111.97H379.578ZM419.45 108.61C419.45 107.546 419.296 106.552 418.988 105.628C418.708 104.676 418.274 103.864 417.686 103.192C417.126 102.492 416.412 101.946 415.544 101.554C414.676 101.134 413.682 100.924 412.562 100.924C411.442 100.924 410.448 101.134 409.58 101.554C408.74 101.974 408.012 102.534 407.396 103.234C406.808 103.934 406.332 104.746 405.968 105.67C405.604 106.594 405.366 107.574 405.254 108.61H419.45ZM405.254 110.71C405.254 111.886 405.408 113.006 405.716 114.07C406.024 115.106 406.472 116.016 407.06 116.8C407.676 117.556 408.446 118.172 409.37 118.648C410.294 119.096 411.358 119.32 412.562 119.32C414.214 119.32 415.628 118.886 416.804 118.018C417.98 117.15 418.764 115.918 419.156 114.322H421.97C421.662 115.358 421.256 116.324 420.752 117.22C420.248 118.088 419.618 118.858 418.862 119.53C418.106 120.174 417.21 120.678 416.174 121.042C415.138 121.406 413.934 121.588 412.562 121.588C410.826 121.588 409.328 121.294 408.068 120.706C406.808 120.118 405.772 119.32 404.96 118.312C404.148 117.276 403.546 116.072 403.154 114.7C402.762 113.3 402.566 111.802 402.566 110.206C402.566 108.61 402.79 107.112 403.238 105.712C403.714 104.312 404.372 103.094 405.212 102.058C406.08 100.994 407.13 100.168 408.362 99.58C409.594 98.964 410.994 98.656 412.562 98.656C415.558 98.656 417.91 99.692 419.618 101.764C421.326 103.808 422.166 106.79 422.138 110.71H405.254ZM442.452 106.09C442.004 104.466 441.234 103.206 440.142 102.31C439.05 101.386 437.664 100.924 435.984 100.924C434.696 100.924 433.59 101.19 432.666 101.722C431.742 102.254 430.986 102.968 430.398 103.864C429.81 104.732 429.376 105.726 429.096 106.846C428.816 107.938 428.676 109.044 428.676 110.164C428.676 111.312 428.802 112.432 429.054 113.524C429.334 114.616 429.768 115.596 430.356 116.464C430.944 117.332 431.7 118.032 432.624 118.564C433.548 119.068 434.668 119.32 435.984 119.32C437.86 119.32 439.358 118.802 440.478 117.766C441.626 116.73 442.354 115.302 442.662 113.482H445.35C445.126 114.686 444.762 115.792 444.258 116.8C443.782 117.78 443.152 118.634 442.368 119.362C441.612 120.062 440.702 120.608 439.638 121C438.574 121.392 437.356 121.588 435.984 121.588C434.248 121.588 432.75 121.294 431.49 120.706C430.23 120.118 429.194 119.32 428.382 118.312C427.57 117.276 426.968 116.058 426.576 114.658C426.184 113.258 425.988 111.76 425.988 110.164C425.988 108.652 426.198 107.21 426.618 105.838C427.066 104.438 427.71 103.206 428.55 102.142C429.39 101.078 430.426 100.238 431.658 99.622C432.918 98.978 434.36 98.656 435.984 98.656C438.504 98.656 440.534 99.258 442.074 100.462C443.642 101.666 444.622 103.542 445.014 106.09H442.452ZM465.118 99.244H467.638V121H465.118V117.976C464.782 118.368 464.404 118.774 463.984 119.194C463.564 119.614 463.074 120.006 462.514 120.37C461.982 120.706 461.352 120.986 460.624 121.21C459.896 121.462 459.056 121.588 458.104 121.588C456.648 121.588 455.43 121.392 454.45 121C453.47 120.58 452.672 120.006 452.056 119.278C451.468 118.55 451.034 117.71 450.754 116.758C450.502 115.778 450.376 114.714 450.376 113.566V99.244H452.896V113.524C452.896 115.4 453.33 116.842 454.198 117.85C455.066 118.83 456.494 119.32 458.482 119.32C459.518 119.32 460.442 119.124 461.254 118.732C462.094 118.312 462.794 117.738 463.354 117.01C463.914 116.282 464.348 115.414 464.656 114.406C464.964 113.398 465.118 112.292 465.118 111.088V99.244ZM476.359 121H473.839V99.244H476.359V103.318H476.443C477.143 101.582 478.039 100.378 479.131 99.706C480.251 99.006 481.721 98.656 483.541 98.656V101.386C482.113 101.358 480.937 101.582 480.013 102.058C479.089 102.534 478.347 103.178 477.787 103.99C477.255 104.802 476.877 105.768 476.653 106.888C476.457 107.98 476.359 109.128 476.359 110.332V121ZM487.34 121V99.244H489.86V121H487.34ZM487.214 94.498V90.76H489.986V94.498H487.214ZM503.916 121.084C503.608 121.14 503.202 121.238 502.698 121.378C502.194 121.518 501.634 121.588 501.018 121.588C499.758 121.588 498.792 121.28 498.12 120.664C497.476 120.02 497.154 118.886 497.154 117.262V101.344H494.088V99.244H497.154V93.196H499.674V99.244H503.748V101.344H499.674V116.254C499.674 116.786 499.688 117.248 499.716 117.64C499.744 118.032 499.828 118.354 499.968 118.606C500.108 118.858 500.318 119.04 500.598 119.152C500.906 119.264 501.326 119.32 501.858 119.32C502.194 119.32 502.53 119.292 502.866 119.236C503.23 119.18 503.58 119.11 503.916 119.026V121.084ZM507.794 126.922C508.13 126.978 508.466 127.034 508.802 127.09C509.166 127.146 509.53 127.174 509.894 127.174C510.594 127.174 511.168 126.95 511.616 126.502C512.064 126.054 512.428 125.508 512.708 124.864C513.016 124.248 513.268 123.59 513.464 122.89C513.66 122.218 513.884 121.644 514.136 121.168L505.694 99.244H508.508L515.48 117.934L522.452 99.244H525.182L517.076 120.706C516.572 122.078 516.082 123.31 515.606 124.402C515.158 125.494 514.668 126.418 514.136 127.174C513.632 127.958 513.058 128.546 512.414 128.938C511.798 129.358 511.056 129.568 510.188 129.568C509.74 129.568 509.306 129.54 508.886 129.484C508.494 129.428 508.13 129.358 507.794 129.274V126.922ZM543.465 110.206C543.465 111.438 543.633 112.614 543.969 113.734C544.305 114.826 544.781 115.792 545.397 116.632C546.041 117.444 546.811 118.102 547.707 118.606C548.631 119.082 549.667 119.32 550.815 119.32C552.103 119.32 553.223 119.068 554.175 118.564C555.155 118.032 555.953 117.318 556.569 116.422C557.185 115.526 557.633 114.49 557.913 113.314C558.193 112.11 558.305 110.822 558.249 109.45C558.249 108.078 558.053 106.874 557.661 105.838C557.297 104.774 556.779 103.878 556.107 103.15C555.435 102.422 554.651 101.876 553.755 101.512C552.859 101.12 551.879 100.924 550.815 100.924C549.639 100.924 548.589 101.162 547.665 101.638C546.741 102.114 545.971 102.772 545.355 103.612C544.739 104.424 544.263 105.404 543.927 106.552C543.619 107.672 543.465 108.89 543.465 110.206ZM543.465 129.568H540.945V99.244H543.465V103.066H543.549C543.913 102.366 544.375 101.736 544.935 101.176C545.523 100.616 546.153 100.154 546.825 99.79C547.525 99.426 548.239 99.146 548.967 98.95C549.695 98.754 550.409 98.656 551.109 98.656C552.873 98.656 554.371 98.95 555.603 99.538C556.835 100.126 557.843 100.938 558.627 101.974C559.439 102.982 560.027 104.186 560.391 105.586C560.755 106.986 560.937 108.484 560.937 110.08C560.937 111.592 560.741 113.048 560.349 114.448C559.957 115.848 559.355 117.08 558.543 118.144C557.759 119.18 556.751 120.02 555.519 120.664C554.315 121.28 552.887 121.588 551.235 121.588C549.695 121.588 548.211 121.252 546.783 120.58C545.383 119.88 544.277 118.858 543.465 117.514V129.568ZM574.979 121.588C573.579 121.56 572.263 121.308 571.031 120.832C569.827 120.356 568.763 119.642 567.839 118.69C566.943 117.738 566.229 116.548 565.697 115.12C565.165 113.692 564.899 112.026 564.899 110.122C564.899 108.526 565.109 107.042 565.529 105.67C565.949 104.27 566.579 103.052 567.419 102.016C568.259 100.98 569.309 100.168 570.569 99.58C571.829 98.964 573.299 98.656 574.979 98.656C576.687 98.656 578.171 98.964 579.431 99.58C580.691 100.168 581.741 100.98 582.581 102.016C583.421 103.024 584.037 104.228 584.429 105.628C584.849 107.028 585.059 108.526 585.059 110.122C585.059 111.858 584.821 113.426 584.345 114.826C583.869 116.226 583.183 117.43 582.287 118.438C581.419 119.446 580.355 120.23 579.095 120.79C577.863 121.322 576.491 121.588 574.979 121.588ZM582.371 110.122C582.371 108.834 582.231 107.63 581.951 106.51C581.671 105.39 581.237 104.424 580.649 103.612C580.061 102.772 579.305 102.114 578.381 101.638C577.457 101.162 576.323 100.924 574.979 100.924C573.663 100.924 572.529 101.19 571.577 101.722C570.653 102.226 569.897 102.912 569.309 103.78C568.721 104.62 568.287 105.6 568.007 106.72C567.727 107.812 567.587 108.946 567.587 110.122C567.587 111.466 567.741 112.712 568.049 113.86C568.385 114.98 568.861 115.946 569.477 116.758C570.093 117.57 570.863 118.2 571.787 118.648C572.711 119.096 573.775 119.32 574.979 119.32C576.295 119.32 577.415 119.068 578.339 118.564C579.291 118.032 580.061 117.332 580.649 116.464C581.237 115.596 581.671 114.616 581.951 113.524C582.231 112.432 582.371 111.298 582.371 110.122ZM590.043 121V90.76H592.563V121H590.043ZM598.615 121V99.244H601.135V121H598.615ZM598.489 94.498V90.76H601.261V94.498H598.489ZM622.961 106.09C622.513 104.466 621.743 103.206 620.651 102.31C619.559 101.386 618.173 100.924 616.493 100.924C615.205 100.924 614.099 101.19 613.175 101.722C612.251 102.254 611.495 102.968 610.907 103.864C610.319 104.732 609.885 105.726 609.605 106.846C609.325 107.938 609.185 109.044 609.185 110.164C609.185 111.312 609.311 112.432 609.563 113.524C609.843 114.616 610.277 115.596 610.865 116.464C611.453 117.332 612.209 118.032 613.133 118.564C614.057 119.068 615.177 119.32 616.493 119.32C618.369 119.32 619.867 118.802 620.987 117.766C622.135 116.73 622.863 115.302 623.171 113.482H625.859C625.635 114.686 625.271 115.792 624.767 116.8C624.291 117.78 623.661 118.634 622.877 119.362C622.121 120.062 621.211 120.608 620.147 121C619.083 121.392 617.865 121.588 616.493 121.588C614.757 121.588 613.259 121.294 611.999 120.706C610.739 120.118 609.703 119.32 608.891 118.312C608.079 117.276 607.477 116.058 607.085 114.658C606.693 113.258 606.497 111.76 606.497 110.164C606.497 108.652 606.707 107.21 607.127 105.838C607.575 104.438 608.219 103.206 609.059 102.142C609.899 101.078 610.935 100.238 612.167 99.622C613.427 98.978 614.869 98.656 616.493 98.656C619.013 98.656 621.043 99.258 622.583 100.462C624.151 101.666 625.131 103.542 625.523 106.09H622.961ZM630.717 126.922C631.053 126.978 631.389 127.034 631.725 127.09C632.089 127.146 632.453 127.174 632.817 127.174C633.517 127.174 634.091 126.95 634.539 126.502C634.987 126.054 635.351 125.508 635.631 124.864C635.939 124.248 636.191 123.59 636.387 122.89C636.583 122.218 636.807 121.644 637.059 121.168L628.617 99.244H631.431L638.403 117.934L645.375 99.244H648.105L639.999 120.706C639.495 122.078 639.005 123.31 638.529 124.402C638.081 125.494 637.591 126.418 637.059 127.174C636.555 127.958 635.981 128.546 635.337 128.938C634.721 129.358 633.979 129.568 633.111 129.568C632.663 129.568 632.229 129.54 631.809 129.484C631.417 129.428 631.053 129.358 630.717 129.274V126.922Z" fill="#FEFDFA"/>
<ellipse cx="209.5" cy="107" rx="15.5" ry="16" fill="#FEFDFA"/>
</svg>
