<svg width="929" height="199" viewBox="0 0 929 199" fill="none" xmlns="http://www.w3.org/2000/svg">
<rect width="929" height="199" fill="#161719"/>
<path d="M240.199 90.874H244.178V105.558L258.861 90.874H264.501L251.971 103.015L264.85 121H259.538L248.997 105.886L244.178 110.5V121H240.199V90.874ZM270.551 115.155C270.551 116.222 270.94 117.062 271.72 117.678C272.499 118.293 273.422 118.601 274.488 118.601C275.787 118.601 277.045 118.3 278.262 117.698C280.312 116.7 281.338 115.066 281.338 112.797V109.823C280.887 110.11 280.306 110.35 279.595 110.541C278.884 110.732 278.187 110.869 277.503 110.951L275.268 111.238C273.928 111.416 272.923 111.696 272.253 112.079C271.118 112.722 270.551 113.747 270.551 115.155ZM279.492 107.69C280.34 107.581 280.907 107.226 281.194 106.624C281.358 106.296 281.44 105.824 281.44 105.209C281.44 103.951 280.989 103.042 280.087 102.481C279.198 101.907 277.92 101.62 276.252 101.62C274.324 101.62 272.957 102.14 272.15 103.179C271.699 103.753 271.405 104.607 271.269 105.742H267.823C267.892 103.035 268.767 101.155 270.448 100.103C272.144 99.0361 274.105 98.5029 276.334 98.5029C278.918 98.5029 281.017 98.9951 282.63 99.9795C284.229 100.964 285.029 102.495 285.029 104.573V117.227C285.029 117.609 285.104 117.917 285.255 118.149C285.419 118.382 285.754 118.498 286.26 118.498C286.424 118.498 286.608 118.491 286.813 118.478C287.019 118.45 287.237 118.416 287.47 118.375V121.103C286.896 121.267 286.458 121.369 286.157 121.41C285.856 121.451 285.446 121.472 284.927 121.472C283.655 121.472 282.732 121.021 282.158 120.118C281.857 119.64 281.646 118.963 281.522 118.088C280.771 119.072 279.69 119.927 278.282 120.651C276.874 121.376 275.322 121.738 273.627 121.738C271.59 121.738 269.922 121.123 268.623 119.893C267.338 118.648 266.695 117.097 266.695 115.237C266.695 113.2 267.331 111.621 268.603 110.5C269.874 109.379 271.542 108.688 273.606 108.429L279.492 107.69ZM291.202 90.874H294.894V121H291.202V90.874ZM301.189 92.9043H304.922V99.0361H308.429V102.051H304.922V116.386C304.922 117.151 305.182 117.664 305.701 117.924C305.988 118.074 306.467 118.149 307.137 118.149C307.314 118.149 307.506 118.149 307.711 118.149C307.916 118.136 308.155 118.115 308.429 118.088V121C308.005 121.123 307.561 121.212 307.096 121.267C306.645 121.321 306.152 121.349 305.619 121.349C303.896 121.349 302.728 120.911 302.112 120.036C301.497 119.147 301.189 117.999 301.189 116.591V102.051H298.216V99.0361H301.189V92.9043ZM326.065 107.875H358.16V110.89H326.065V107.875Z" fill="#FEFDFA"/>
<path d="M375.756 90.76H378.738L387.852 117.64L396.924 90.76H399.906L389.406 121H386.256L375.756 90.76ZM415.641 109.576C414.577 110.024 413.499 110.318 412.407 110.458C411.315 110.598 410.223 110.71 409.131 110.794C407.199 110.934 405.687 111.368 404.595 112.096C403.531 112.824 402.999 113.93 402.999 115.414C402.999 116.086 403.125 116.674 403.377 117.178C403.657 117.654 404.007 118.06 404.427 118.396C404.875 118.704 405.379 118.942 405.939 119.11C406.527 119.25 407.115 119.32 407.703 119.32C408.711 119.32 409.691 119.194 410.643 118.942C411.595 118.69 412.435 118.312 413.163 117.808C413.919 117.276 414.521 116.618 414.969 115.834C415.417 115.022 415.641 114.07 415.641 112.978V109.576ZM411.399 108.316C411.875 108.26 412.435 108.176 413.079 108.064C413.751 107.952 414.297 107.798 414.717 107.602C415.137 107.406 415.389 107.084 415.473 106.636C415.585 106.16 415.641 105.726 415.641 105.334C415.641 104.046 415.221 102.996 414.381 102.184C413.569 101.344 412.183 100.924 410.223 100.924C409.355 100.924 408.557 101.008 407.829 101.176C407.101 101.316 406.457 101.582 405.897 101.974C405.365 102.338 404.917 102.842 404.553 103.486C404.217 104.102 403.993 104.886 403.881 105.838H401.319C401.403 104.55 401.697 103.458 402.201 102.562C402.705 101.638 403.349 100.896 404.133 100.336C404.945 99.748 405.869 99.328 406.905 99.076C407.969 98.796 409.089 98.656 410.265 98.656C411.357 98.656 412.379 98.782 413.331 99.034C414.311 99.258 415.151 99.636 415.851 100.168C416.579 100.672 417.139 101.358 417.531 102.226C417.951 103.094 418.161 104.158 418.161 105.418V117.262C418.161 118.242 418.329 118.872 418.665 119.152C419.029 119.404 419.743 119.334 420.807 118.942V120.916C420.611 120.972 420.317 121.056 419.925 121.168C419.561 121.28 419.197 121.336 418.833 121.336C418.441 121.336 418.063 121.294 417.699 121.21C417.279 121.154 416.943 121.028 416.691 120.832C416.439 120.608 416.229 120.356 416.061 120.076C415.921 119.768 415.823 119.446 415.767 119.11C415.711 118.746 415.683 118.368 415.683 117.976C414.619 119.152 413.401 120.048 412.029 120.664C410.657 121.28 409.173 121.588 407.577 121.588C406.625 121.588 405.701 121.462 404.805 121.21C403.937 120.958 403.167 120.566 402.495 120.034C401.823 119.502 401.291 118.858 400.899 118.102C400.507 117.318 400.311 116.394 400.311 115.33C400.311 111.634 402.845 109.45 407.913 108.778L411.399 108.316ZM425.119 121V90.76H427.639V121H425.119ZM448.793 99.244H451.313V121H448.793V117.976C448.457 118.368 448.079 118.774 447.659 119.194C447.239 119.614 446.749 120.006 446.189 120.37C445.657 120.706 445.027 120.986 444.299 121.21C443.571 121.462 442.731 121.588 441.779 121.588C440.323 121.588 439.105 121.392 438.125 121C437.145 120.58 436.347 120.006 435.731 119.278C435.143 118.55 434.709 117.71 434.429 116.758C434.177 115.778 434.051 114.714 434.051 113.566V99.244H436.571V113.524C436.571 115.4 437.005 116.842 437.873 117.85C438.741 118.83 440.169 119.32 442.157 119.32C443.193 119.32 444.117 119.124 444.929 118.732C445.769 118.312 446.469 117.738 447.029 117.01C447.589 116.282 448.023 115.414 448.331 114.406C448.639 113.398 448.793 112.292 448.793 111.088V99.244ZM471.627 109.576C470.563 110.024 469.485 110.318 468.393 110.458C467.301 110.598 466.209 110.71 465.117 110.794C463.185 110.934 461.673 111.368 460.581 112.096C459.517 112.824 458.985 113.93 458.985 115.414C458.985 116.086 459.111 116.674 459.363 117.178C459.643 117.654 459.993 118.06 460.413 118.396C460.861 118.704 461.365 118.942 461.925 119.11C462.513 119.25 463.101 119.32 463.689 119.32C464.697 119.32 465.677 119.194 466.629 118.942C467.581 118.69 468.421 118.312 469.149 117.808C469.905 117.276 470.507 116.618 470.955 115.834C471.403 115.022 471.627 114.07 471.627 112.978V109.576ZM467.385 108.316C467.861 108.26 468.421 108.176 469.065 108.064C469.737 107.952 470.283 107.798 470.703 107.602C471.123 107.406 471.375 107.084 471.459 106.636C471.571 106.16 471.627 105.726 471.627 105.334C471.627 104.046 471.207 102.996 470.367 102.184C469.555 101.344 468.169 100.924 466.209 100.924C465.341 100.924 464.543 101.008 463.815 101.176C463.087 101.316 462.443 101.582 461.883 101.974C461.351 102.338 460.903 102.842 460.539 103.486C460.203 104.102 459.979 104.886 459.867 105.838H457.305C457.389 104.55 457.683 103.458 458.187 102.562C458.691 101.638 459.335 100.896 460.119 100.336C460.931 99.748 461.855 99.328 462.891 99.076C463.955 98.796 465.075 98.656 466.251 98.656C467.343 98.656 468.365 98.782 469.317 99.034C470.297 99.258 471.137 99.636 471.837 100.168C472.565 100.672 473.125 101.358 473.517 102.226C473.937 103.094 474.147 104.158 474.147 105.418V117.262C474.147 118.242 474.315 118.872 474.651 119.152C475.015 119.404 475.729 119.334 476.793 118.942V120.916C476.597 120.972 476.303 121.056 475.911 121.168C475.547 121.28 475.183 121.336 474.819 121.336C474.427 121.336 474.049 121.294 473.685 121.21C473.265 121.154 472.929 121.028 472.677 120.832C472.425 120.608 472.215 120.356 472.047 120.076C471.907 119.768 471.809 119.446 471.753 119.11C471.697 118.746 471.669 118.368 471.669 117.976C470.605 119.152 469.387 120.048 468.015 120.664C466.643 121.28 465.159 121.588 463.563 121.588C462.611 121.588 461.687 121.462 460.791 121.21C459.923 120.958 459.153 120.566 458.481 120.034C457.809 119.502 457.277 118.858 456.885 118.102C456.493 117.318 456.297 116.394 456.297 115.33C456.297 111.634 458.831 109.45 463.899 108.778L467.385 108.316ZM488.371 121.084C488.063 121.14 487.657 121.238 487.153 121.378C486.649 121.518 486.089 121.588 485.473 121.588C484.213 121.588 483.247 121.28 482.575 120.664C481.931 120.02 481.609 118.886 481.609 117.262V101.344H478.543V99.244H481.609V93.196H484.129V99.244H488.203V101.344H484.129V116.254C484.129 116.786 484.143 117.248 484.171 117.64C484.199 118.032 484.283 118.354 484.423 118.606C484.563 118.858 484.773 119.04 485.053 119.152C485.361 119.264 485.781 119.32 486.313 119.32C486.649 119.32 486.985 119.292 487.321 119.236C487.685 119.18 488.035 119.11 488.371 119.026V121.084ZM492.056 121V99.244H494.576V121H492.056ZM491.93 94.498V90.76H494.702V94.498H491.93ZM509.641 121.588C508.241 121.56 506.925 121.308 505.693 120.832C504.489 120.356 503.425 119.642 502.501 118.69C501.605 117.738 500.891 116.548 500.359 115.12C499.827 113.692 499.561 112.026 499.561 110.122C499.561 108.526 499.771 107.042 500.191 105.67C500.611 104.27 501.241 103.052 502.081 102.016C502.921 100.98 503.971 100.168 505.231 99.58C506.491 98.964 507.961 98.656 509.641 98.656C511.349 98.656 512.833 98.964 514.093 99.58C515.353 100.168 516.403 100.98 517.243 102.016C518.083 103.024 518.699 104.228 519.091 105.628C519.511 107.028 519.721 108.526 519.721 110.122C519.721 111.858 519.483 113.426 519.007 114.826C518.531 116.226 517.845 117.43 516.949 118.438C516.081 119.446 515.017 120.23 513.757 120.79C512.525 121.322 511.153 121.588 509.641 121.588ZM517.033 110.122C517.033 108.834 516.893 107.63 516.613 106.51C516.333 105.39 515.899 104.424 515.311 103.612C514.723 102.772 513.967 102.114 513.043 101.638C512.119 101.162 510.985 100.924 509.641 100.924C508.325 100.924 507.191 101.19 506.239 101.722C505.315 102.226 504.559 102.912 503.971 103.78C503.383 104.62 502.949 105.6 502.669 106.72C502.389 107.812 502.249 108.946 502.249 110.122C502.249 111.466 502.403 112.712 502.711 113.86C503.047 114.98 503.523 115.946 504.139 116.758C504.755 117.57 505.525 118.2 506.449 118.648C507.373 119.096 508.437 119.32 509.641 119.32C510.957 119.32 512.077 119.068 513.001 118.564C513.953 118.032 514.723 117.332 515.311 116.464C515.899 115.596 516.333 114.616 516.613 113.524C516.893 112.432 517.033 111.298 517.033 110.122ZM526.847 121H524.327V99.244H526.847V102.268C527.855 101.204 528.891 100.336 529.955 99.664C531.047 98.992 532.349 98.656 533.861 98.656C535.205 98.656 536.451 98.894 537.599 99.37C538.747 99.818 539.713 100.616 540.497 101.764C541.029 102.548 541.337 103.36 541.421 104.2C541.533 105.012 541.589 105.866 541.589 106.762V121H539.069V106.804C539.069 104.844 538.635 103.374 537.767 102.394C536.899 101.414 535.457 100.924 533.441 100.924C532.657 100.924 531.943 101.05 531.299 101.302C530.655 101.526 530.067 101.834 529.535 102.226C529.031 102.618 528.597 103.066 528.233 103.57C527.869 104.074 527.589 104.606 527.393 105.166C527.141 105.866 526.987 106.538 526.931 107.182C526.875 107.826 526.847 108.526 526.847 109.282V121Z" fill="#FEFDFA"/>
<ellipse cx="209.5" cy="107" rx="15.5" ry="16" fill="#FEFDFA"/>
</svg>
