<svg width="929" height="388" viewBox="0 0 929 388" fill="none" xmlns="http://www.w3.org/2000/svg">
<rect width="929" height="388" fill="#202124"/>
<path d="M441.555 145.308L480.255 185H466.958L429.449 146.4V185H419.427V109.585H429.449V144.415L463.485 109.585H476.484L441.555 145.308ZM507.092 130.721C523.266 130.721 529.121 140.843 529.121 150.766V150.964V185H519.396V174.085C515.725 181.527 511.358 186.092 501.039 186.092C491.116 186.092 483.177 178.848 483.177 169.024C483.177 156.62 495.581 154.239 505.107 153.247L519.396 151.758V150.865V150.667C519.396 143.72 515.526 137.866 507.092 137.866C499.649 137.866 495.482 142.43 494.787 147.491H484.864C486.055 137.469 494.589 130.721 507.092 130.721ZM504.611 179.642C514.435 179.642 519.396 171.902 519.396 162.376V158.406L508.778 159.498C501.435 160.292 493.1 161.284 493.1 169.024C493.1 175.871 498.459 179.642 504.611 179.642ZM553.73 185H544.006V109.585H553.73V185ZM591.428 177.657H597.382V185H590.436C581.208 185 573.964 180.535 573.964 170.413V170.215V139.156H562.751V131.813H573.964V119.211H583.688V131.813H597.184V139.156H583.688V170.215V170.413C583.688 176.069 586.566 177.657 591.428 177.657Z" fill="#FEFDFA"/>
<ellipse cx="362.5" cy="147.5" rx="36.5" ry="37.5" fill="#FEFDFA"/>
<g clip-path="url(#clip0_725_114)">
<circle cx="408.5" cy="269.5" r="10.5" fill="#FEFDFA"/>
<path fill-rule="evenodd" clip-rule="evenodd" d="M408.573 261.821L415.733 273.893H401.414L408.573 261.821Z" fill="#202124"/>
</g>
<path d="M436.678 277.928L441.25 264.32H443.248L438.568 278H434.77L430.09 264.32H432.088L436.678 277.928ZM452.346 273.032C452.346 273.212 452.328 273.464 452.31 273.698H445.02C445.164 275.786 446.226 276.902 447.828 276.902C449.232 276.902 449.97 276.254 450.33 275.174H452.13C451.572 277.226 450.006 278.198 447.828 278.198C444.912 278.198 443.238 276.074 443.238 273.176C443.238 270.242 444.948 268.154 447.81 268.154C450.51 268.154 452.346 270.062 452.346 273.032ZM447.81 269.45C446.28 269.45 445.254 270.44 445.038 272.366H450.546C450.438 270.638 449.394 269.45 447.81 269.45ZM456.301 268.352V270.422C456.733 269.072 457.687 268.154 459.469 268.154V269.9H458.929C457.165 269.9 456.301 270.458 456.301 272.186V278H454.537V268.352H456.301ZM465.127 278.198C462.265 278.198 460.429 276.164 460.429 273.176C460.429 270.188 462.265 268.154 465.127 268.154C467.503 268.154 469.069 269.594 469.483 271.628H467.683C467.413 270.44 466.585 269.45 465.127 269.45C463.291 269.45 462.229 270.908 462.229 273.176C462.229 275.444 463.291 276.902 465.127 276.902C466.531 276.902 467.395 276.146 467.791 274.778H469.591C469.087 276.992 467.323 278.198 465.127 278.198ZM480.102 273.032C480.102 273.212 480.084 273.464 480.066 273.698H472.776C472.92 275.786 473.982 276.902 475.584 276.902C476.988 276.902 477.726 276.254 478.086 275.174H479.886C479.328 277.226 477.762 278.198 475.584 278.198C472.668 278.198 470.994 276.074 470.994 273.176C470.994 270.242 472.704 268.154 475.566 268.154C478.266 268.154 480.102 270.062 480.102 273.032ZM475.566 269.45C474.036 269.45 473.01 270.44 472.794 272.366H478.302C478.194 270.638 477.15 269.45 475.566 269.45ZM484.057 278H482.293V264.32H484.057V278Z" fill="#FEFDFA"/>
<g clip-path="url(#clip1_725_114)">
<circle cx="291.5" cy="270.5" r="10.5" fill="#FEFDFA"/>
<g clip-path="url(#clip2_725_114)">
<path d="M288.708 274.01C288.697 273.992 288.688 273.973 288.68 273.954C288.623 273.826 288.605 273.685 288.629 273.547H285.262L290.266 264.98L291.909 267.789L292.386 266.969L290.953 264.515C290.885 264.389 290.785 264.282 290.663 264.204C290.541 264.125 290.4 264.078 290.254 264.066C290.109 264.072 289.968 264.118 289.848 264.199C289.728 264.279 289.634 264.39 289.576 264.52L284.506 273.192C284.43 273.314 284.387 273.453 284.379 273.596C284.371 273.738 284.4 273.881 284.462 274.01C284.54 274.13 284.65 274.226 284.782 274.287C284.913 274.349 285.059 274.374 285.204 274.358H289.45C289.305 274.374 289.159 274.349 289.028 274.288C288.896 274.226 288.786 274.13 288.708 274.01Z" fill="#00C492"/>
<path d="M298.471 273.192L294.305 266.052C294.236 265.925 294.136 265.817 294.014 265.737C293.891 265.658 293.75 265.61 293.603 265.598C293.457 265.604 293.317 265.649 293.197 265.73C293.077 265.81 292.982 265.921 292.924 266.051L292.386 266.969L292.865 267.789L293.607 266.511L297.729 273.547H296.161C296.181 273.663 296.17 273.783 296.129 273.894C296.12 273.918 296.109 273.942 296.096 273.964L296.083 273.99C295.998 274.107 295.884 274.202 295.752 274.266C295.621 274.33 295.475 274.362 295.327 274.358H297.779C297.926 274.362 298.072 274.331 298.204 274.266C298.336 274.202 298.449 274.107 298.535 273.99C298.602 273.865 298.631 273.723 298.62 273.582C298.609 273.441 298.557 273.306 298.471 273.192Z" fill="#008776"/>
<path d="M296.083 273.99L296.096 273.964C296.109 273.942 296.12 273.918 296.129 273.894C296.17 273.783 296.181 273.663 296.161 273.547C296.138 273.422 296.092 273.301 296.025 273.192L292.868 267.789L292.386 266.969L291.906 267.789L288.751 273.192C288.69 273.303 288.649 273.423 288.629 273.547C288.604 273.684 288.62 273.826 288.675 273.954C288.684 273.974 288.693 273.992 288.704 274.011C288.782 274.13 288.892 274.226 289.024 274.288C289.155 274.349 289.301 274.374 289.446 274.359H295.323C295.471 274.363 295.618 274.331 295.75 274.267C295.883 274.203 295.997 274.108 296.083 273.99ZM292.386 268.609L295.271 273.547H289.502L292.386 268.609Z" fill="#2D4A5D"/>
</g>
</g>
<path d="M324.646 277.928V264.32H326.464V278H322.702L316.528 264.392V278H314.71V264.32H318.472L324.646 277.928ZM335.607 274.058V268.352H337.371V278H335.607V276.074C335.193 277.172 334.239 278.198 332.637 278.198C330.459 278.198 329.325 276.524 329.325 274.364V274.328V268.352H331.089V274.058V274.094C331.089 276.038 331.953 276.902 333.357 276.902C334.761 276.902 335.607 276.02 335.607 274.058ZM344.764 272.816L348.562 278H346.654L343.72 273.986L340.786 278H338.878L342.676 272.816L339.256 268.352H341.164L343.72 271.7L346.276 268.352H348.184L344.764 272.816ZM354.102 276.668H355.182V278H353.922C352.248 278 350.934 277.19 350.934 275.354V275.318V269.684H348.9V268.352H350.934V266.066H352.698V268.352H355.146V269.684H352.698V275.318V275.354C352.698 276.38 353.22 276.668 354.102 276.668Z" fill="#FEFDFA"/>
<g clip-path="url(#clip3_725_114)">
<circle cx="532.5" cy="270.5" r="10.5" fill="#FEFDFA"/>
<g clip-path="url(#clip4_725_114)">
<path d="M533.79 277.339C533.423 277.789 532.677 277.542 532.668 276.967L532.539 268.556H538.353C539.406 268.556 539.993 269.739 539.339 270.541L533.79 277.339Z" fill="url(#paint0_linear_725_114)"/>
<path d="M533.79 277.339C533.423 277.789 532.677 277.542 532.668 276.967L532.539 268.556H538.353C539.406 268.556 539.993 269.739 539.339 270.541L533.79 277.339Z" fill="url(#paint1_linear_725_114)" fill-opacity="0.2"/>
<path d="M531.426 263.804C531.794 263.354 532.539 263.6 532.548 264.176L532.605 272.587H526.863C525.81 272.587 525.223 271.404 525.878 270.601L531.426 263.804Z" fill="#3ECF8E"/>
</g>
</g>
<path d="M560.084 278.198C557.186 278.198 555.098 276.56 554.684 273.878H556.574C556.826 275.732 558.248 276.668 560.084 276.668C562.496 276.668 563.81 275.66 563.81 274.238C563.81 272.744 562.712 272.384 560.516 271.898L558.806 271.52C556.664 271.052 555.116 269.972 555.116 267.92C555.116 265.742 557.294 264.122 560.048 264.122C562.928 264.122 564.89 265.634 565.286 267.884H563.396C562.964 266.318 561.704 265.652 560.048 265.652C558.32 265.652 556.952 266.48 556.952 267.74C556.952 269.036 557.834 269.468 559.94 269.936L561.65 270.314C564.404 270.926 565.646 271.898 565.646 274.04C565.646 276.488 563.432 278.198 560.084 278.198ZM574.041 274.058V268.352H575.805V278H574.041V276.074C573.627 277.172 572.673 278.198 571.071 278.198C568.893 278.198 567.759 276.524 567.759 274.364V274.328V268.352H569.523V274.058V274.094C569.523 276.038 570.387 276.902 571.791 276.902C573.195 276.902 574.041 276.02 574.041 274.058ZM583.773 268.154C586.095 268.154 587.877 270.206 587.877 273.176C587.877 276.146 586.113 278.198 583.773 278.198C582.333 278.198 580.965 277.28 580.371 275.894V281.528H578.607V268.352H580.371V270.692C580.821 269.396 581.973 268.154 583.773 268.154ZM583.197 276.902C585.033 276.902 586.077 275.444 586.077 273.176C586.077 270.908 585.033 269.45 583.197 269.45C581.361 269.45 580.299 270.908 580.299 273.176C580.299 275.444 581.361 276.902 583.197 276.902ZM593.884 268.154C596.818 268.154 597.88 269.99 597.88 271.79V271.826V278H596.116V276.02C595.45 277.37 594.658 278.198 592.786 278.198C590.986 278.198 589.546 276.884 589.546 275.102C589.546 272.852 591.796 272.42 593.524 272.24L596.116 271.97V271.808V271.772C596.116 270.512 595.414 269.45 593.884 269.45C592.534 269.45 591.778 270.278 591.652 271.196H589.852C590.068 269.378 591.616 268.154 593.884 268.154ZM593.434 277.028C595.216 277.028 596.116 275.624 596.116 273.896V273.176L594.19 273.374C592.858 273.518 591.346 273.698 591.346 275.102C591.346 276.344 592.318 277.028 593.434 277.028ZM605.746 268.154C608.068 268.154 609.85 270.206 609.85 273.176C609.85 276.146 608.086 278.198 605.746 278.198C604.306 278.198 602.938 277.28 602.344 275.894V278H600.58V264.32H602.344V270.692C602.794 269.396 603.946 268.154 605.746 268.154ZM605.17 276.902C607.006 276.902 608.05 275.444 608.05 273.176C608.05 270.908 607.006 269.45 605.17 269.45C603.334 269.45 602.272 270.908 602.272 273.176C602.272 275.444 603.334 276.902 605.17 276.902ZM615.856 268.154C618.79 268.154 619.852 269.99 619.852 271.79V271.826V278H618.088V276.02C617.422 277.37 616.63 278.198 614.758 278.198C612.958 278.198 611.518 276.884 611.518 275.102C611.518 272.852 613.768 272.42 615.496 272.24L618.088 271.97V271.808V271.772C618.088 270.512 617.386 269.45 615.856 269.45C614.506 269.45 613.75 270.278 613.624 271.196H611.824C612.04 269.378 613.588 268.154 615.856 268.154ZM615.406 277.028C617.188 277.028 618.088 275.624 618.088 273.896V273.176L616.162 273.374C614.83 273.518 613.318 273.698 613.318 275.102C613.318 276.344 614.29 277.028 615.406 277.028ZM625.9 278.198C623.758 278.198 622.084 277.154 621.814 275.174H623.614C623.884 276.542 624.928 276.902 625.9 276.902C627.412 276.902 628.186 276.326 628.186 275.444C628.186 274.58 627.682 274.166 626.242 273.86L624.892 273.572C623.218 273.212 622.066 272.456 622.066 270.98C622.066 269.27 623.758 268.154 625.864 268.154C627.736 268.154 629.338 269.018 629.77 270.764H627.97C627.7 269.918 626.8 269.45 625.864 269.45C624.82 269.45 623.812 269.936 623.812 270.8C623.812 271.574 624.442 271.844 625.738 272.114L627.088 272.402C629.104 272.834 629.932 273.734 629.932 275.228C629.932 277.082 628.276 278.198 625.9 278.198ZM640.611 273.032C640.611 273.212 640.593 273.464 640.575 273.698H633.285C633.429 275.786 634.491 276.902 636.093 276.902C637.497 276.902 638.235 276.254 638.595 275.174H640.395C639.837 277.226 638.271 278.198 636.093 278.198C633.177 278.198 631.503 276.074 631.503 273.176C631.503 270.242 633.213 268.154 636.075 268.154C638.775 268.154 640.611 270.062 640.611 273.032ZM636.075 269.45C634.545 269.45 633.519 270.44 633.303 272.366H638.811C638.703 270.638 637.659 269.45 636.075 269.45Z" fill="#FEFDFA"/>
<defs>
<linearGradient id="paint0_linear_725_114" x1="532.539" y1="270.421" x2="537.663" y2="272.63" gradientUnits="userSpaceOnUse">
<stop stop-color="#249361"/>
<stop offset="1" stop-color="#3ECF8E"/>
</linearGradient>
<linearGradient id="paint1_linear_725_114" x1="530.248" y1="267.37" x2="532.505" y2="271.737" gradientUnits="userSpaceOnUse">
<stop/>
<stop offset="1" stop-opacity="0"/>
</linearGradient>
<clipPath id="clip0_725_114">
<rect width="21" height="21" fill="white" transform="translate(398 259)"/>
</clipPath>
<clipPath id="clip1_725_114">
<rect width="21" height="21" fill="white" transform="translate(281 260)"/>
</clipPath>
<clipPath id="clip2_725_114">
<rect width="14.2448" height="13.8571" fill="white" transform="translate(284.378 262.286)"/>
</clipPath>
<clipPath id="clip3_725_114">
<rect width="21" height="21" fill="white" transform="translate(522 260)"/>
</clipPath>
<clipPath id="clip4_725_114">
<rect width="14.3916" height="14" fill="white" transform="translate(525.378 263.571)"/>
</clipPath>
</defs>
</svg>
