<svg width="929" height="199" viewBox="0 0 929 199" fill="none" xmlns="http://www.w3.org/2000/svg">
<rect width="929" height="199" fill="#202124"/>
<path d="M250.356 106.2L266.736 123H261.108L245.232 106.662V123H240.99V91.08H245.232V105.822L259.638 91.08H265.14L250.356 106.2ZM278.095 100.026C284.941 100.026 287.419 104.31 287.419 108.51V108.594V123H283.303V118.38C281.749 121.53 279.901 123.462 275.533 123.462C271.333 123.462 267.973 120.396 267.973 116.238C267.973 110.988 273.223 109.98 277.255 109.56L283.303 108.93V108.552V108.468C283.303 105.528 281.665 103.05 278.095 103.05C274.945 103.05 273.181 104.982 272.887 107.124H268.687C269.191 102.882 272.803 100.026 278.095 100.026ZM277.045 120.732C281.203 120.732 283.303 117.456 283.303 113.424V111.744L278.809 112.206C275.701 112.542 272.173 112.962 272.173 116.238C272.173 119.136 274.441 120.732 277.045 120.732ZM297.835 123H293.719V91.08H297.835V123ZM313.791 119.892H316.311V123H313.371C309.465 123 306.399 121.11 306.399 116.826V116.742V103.596H301.653V100.488H306.399V95.154H310.515V100.488H316.227V103.596H310.515V116.742V116.826C310.515 119.22 311.733 119.892 313.791 119.892ZM361.071 112.836H330.705V109.392H361.071V112.836Z" fill="#FEFDFA"/>
<path d="M391.8 123.462C383.736 123.462 377.352 116.868 377.352 107.04C377.352 97.254 383.652 90.618 392.01 90.618C399.234 90.618 404.106 95.112 405.828 101.118H402.846C401.166 96.582 397.68 93.096 392.01 93.096C385.248 93.096 380.334 98.85 380.334 107.04C380.334 115.272 385.416 120.984 391.8 120.984C397.638 120.984 401.334 117.876 403.098 112.92H406.08C403.896 119.808 398.982 123.462 391.8 123.462ZM420.332 123.462C413.99 123.462 409.706 118.8 409.706 111.828C409.706 104.856 413.99 100.194 420.332 100.194C426.716 100.194 430.958 104.856 430.958 111.828C430.958 118.8 426.716 123.462 420.332 123.462ZM420.332 121.362C425.162 121.362 428.102 117.498 428.102 111.828C428.102 106.158 425.162 102.294 420.332 102.294C415.502 102.294 412.52 106.158 412.52 111.828C412.52 117.498 415.502 121.362 420.332 121.362ZM453.325 106.494V91.08H456.097V123H453.325V117.456C452.023 120.9 448.747 123.462 444.841 123.462C439.171 123.462 435.013 118.758 435.013 111.828C435.013 104.898 439.213 100.194 444.841 100.194C449.251 100.194 452.191 103.218 453.325 106.494ZM445.639 121.362C450.469 121.362 453.451 117.498 453.451 111.828C453.451 106.158 450.469 102.294 445.639 102.294C440.809 102.294 437.869 106.158 437.869 111.828C437.869 117.498 440.809 121.362 445.639 121.362ZM482.462 111.45C482.462 111.828 482.42 112.08 482.378 112.542H464.528C464.78 118.17 467.846 121.362 472.256 121.362C475.994 121.362 478.178 119.514 479.144 116.448H482C480.698 121.194 477.086 123.462 472.256 123.462C465.914 123.462 461.714 118.8 461.714 111.828C461.714 104.898 465.914 100.194 472.13 100.194C478.052 100.194 482.462 104.562 482.462 111.45ZM472.13 102.294C467.888 102.294 465.032 105.318 464.57 110.4H479.606C479.354 105.738 476.414 102.294 472.13 102.294ZM508.106 123.462C501.764 123.462 497.48 118.8 497.48 111.828C497.48 104.856 501.764 100.194 508.106 100.194C514.49 100.194 518.732 104.856 518.732 111.828C518.732 118.8 514.49 123.462 508.106 123.462ZM508.106 121.362C512.936 121.362 515.876 117.498 515.876 111.828C515.876 106.158 512.936 102.294 508.106 102.294C503.276 102.294 500.294 106.158 500.294 111.828C500.294 117.498 503.276 121.362 508.106 121.362ZM534.645 93.222H532.125C529.773 93.222 528.471 94.188 528.471 96.834V100.656H534.645V102.798H528.471V123H525.699V102.798H520.701V100.656H525.699V96.834C525.699 92.928 528.219 91.08 531.873 91.08H534.645V93.222ZM557.654 123.462C551.228 123.462 546.986 118.8 546.986 111.828C546.986 104.856 551.228 100.194 557.654 100.194C562.862 100.194 566.348 103.428 567.482 108.132H564.626C563.786 104.814 561.476 102.294 557.654 102.294C552.782 102.294 549.8 106.158 549.8 111.828C549.8 117.498 552.782 121.362 557.654 121.362C561.392 121.362 563.828 119.136 564.878 115.566H567.734C566.474 120.522 562.61 123.462 557.654 123.462ZM581.975 123.462C575.633 123.462 571.349 118.8 571.349 111.828C571.349 104.856 575.633 100.194 581.975 100.194C588.359 100.194 592.601 104.856 592.601 111.828C592.601 118.8 588.359 123.462 581.975 123.462ZM581.975 121.362C586.805 121.362 589.745 117.498 589.745 111.828C589.745 106.158 586.805 102.294 581.975 102.294C577.145 102.294 574.163 106.158 574.163 111.828C574.163 117.498 577.145 121.362 581.975 121.362ZM608.122 100.194C612.868 100.194 616.06 103.806 616.06 109.056V109.14V123H613.288V109.602V109.518C613.288 104.688 610.684 102.294 607.114 102.294C603.544 102.294 600.94 104.73 600.94 109.56V123H598.168V100.656H600.94V105.276C601.99 102.42 604.426 100.194 608.122 100.194ZM639.7 106.494V91.08H642.472V123H639.7V117.456C638.398 120.9 635.122 123.462 631.216 123.462C625.546 123.462 621.388 118.758 621.388 111.828C621.388 104.898 625.588 100.194 631.216 100.194C635.626 100.194 638.566 103.218 639.7 106.494ZM632.014 121.362C636.844 121.362 639.826 117.498 639.826 111.828C639.826 106.158 636.844 102.294 632.014 102.294C627.184 102.294 624.244 106.158 624.244 111.828C624.244 117.498 627.184 121.362 632.014 121.362ZM664.217 114.096V100.656H666.989V123H664.217V118.422C663.125 121.194 660.773 123.462 657.161 123.462C652.499 123.462 649.307 119.85 649.307 114.6V114.516V100.656H652.079V114.054V114.138C652.079 118.926 654.641 121.362 658.169 121.362C661.697 121.362 664.217 118.884 664.217 114.096ZM683.285 123.462C676.859 123.462 672.617 118.8 672.617 111.828C672.617 104.856 676.859 100.194 683.285 100.194C688.493 100.194 691.979 103.428 693.113 108.132H690.257C689.417 104.814 687.107 102.294 683.285 102.294C678.413 102.294 675.431 106.158 675.431 111.828C675.431 117.498 678.413 121.362 683.285 121.362C687.023 121.362 689.459 119.136 690.509 115.566H693.365C692.105 120.522 688.241 123.462 683.285 123.462ZM706.522 120.858H709.084V123H706.27C702.616 123 700.096 121.194 700.096 117.33V117.246V102.798H695.098V100.656H700.096V95.364H702.868V100.656H709.042V102.798H702.868V117.246V117.33C702.868 119.934 704.17 120.858 706.522 120.858Z" fill="#FEFDFA"/>
<ellipse cx="209.5" cy="107" rx="15.5" ry="16" fill="#FEFDFA"/>
</svg>
