<svg width="929" height="199" viewBox="0 0 929 199" fill="none" xmlns="http://www.w3.org/2000/svg">
<rect width="929" height="199" fill="#202124"/>
<path d="M250.356 106.2L266.736 123H261.108L245.232 106.662V123H240.99V91.08H245.232V105.822L259.638 91.08H265.14L250.356 106.2ZM278.095 100.026C284.941 100.026 287.419 104.31 287.419 108.51V108.594V123H283.303V118.38C281.749 121.53 279.901 123.462 275.533 123.462C271.333 123.462 267.973 120.396 267.973 116.238C267.973 110.988 273.223 109.98 277.255 109.56L283.303 108.93V108.552V108.468C283.303 105.528 281.665 103.05 278.095 103.05C274.945 103.05 273.181 104.982 272.887 107.124H268.687C269.191 102.882 272.803 100.026 278.095 100.026ZM277.045 120.732C281.203 120.732 283.303 117.456 283.303 113.424V111.744L278.809 112.206C275.701 112.542 272.173 112.962 272.173 116.238C272.173 119.136 274.441 120.732 277.045 120.732ZM297.835 123H293.719V91.08H297.835V123ZM313.791 119.892H316.311V123H313.371C309.465 123 306.399 121.11 306.399 116.826V116.742V103.596H301.653V100.488H306.399V95.154H310.515V100.488H316.227V103.596H310.515V116.742V116.826C310.515 119.22 311.733 119.892 313.791 119.892ZM361.071 112.836H330.705V109.392H361.071V112.836Z" fill="#FEFDFA"/>
<path d="M382.224 123H379.326V91.08H382.224V123ZM396.714 123H393.69L382.518 91.08H385.584L396.714 123ZM400.032 123H397.008L408.138 91.08H411.162L400.032 123ZM414.354 123H411.498V91.08H414.354V123ZM441.119 111.45C441.119 111.828 441.077 112.08 441.035 112.542H423.185C423.437 118.17 426.503 121.362 430.913 121.362C434.651 121.362 436.835 119.514 437.801 116.448H440.657C439.355 121.194 435.743 123.462 430.913 123.462C424.571 123.462 420.371 118.8 420.371 111.828C420.371 104.898 424.571 100.194 430.787 100.194C436.709 100.194 441.119 104.562 441.119 111.45ZM430.787 102.294C426.545 102.294 423.689 105.318 423.227 110.4H438.263C438.011 105.738 435.071 102.294 430.787 102.294ZM454.563 120.858H457.125V123H454.311C450.657 123 448.137 121.194 448.137 117.33V117.246V102.798H443.139V100.656H448.137V95.364H450.909V100.656H457.083V102.798H450.909V117.246V117.33C450.909 119.934 452.211 120.858 454.563 120.858ZM471.54 100.194C476.286 100.194 479.478 103.806 479.478 109.056V109.14V123H476.706V109.602V109.518C476.706 104.688 474.102 102.294 470.532 102.294C466.962 102.294 464.358 104.73 464.358 109.56V123H461.586V91.08H464.358V105.276C465.408 102.42 467.844 100.194 471.54 100.194ZM495.432 123.462C489.09 123.462 484.806 118.8 484.806 111.828C484.806 104.856 489.09 100.194 495.432 100.194C501.816 100.194 506.058 104.856 506.058 111.828C506.058 118.8 501.816 123.462 495.432 123.462ZM495.432 121.362C500.262 121.362 503.202 117.498 503.202 111.828C503.202 106.158 500.262 102.294 495.432 102.294C490.602 102.294 487.62 106.158 487.62 111.828C487.62 117.498 490.602 121.362 495.432 121.362ZM528.425 106.494V91.08H531.197V123H528.425V117.456C527.123 120.9 523.847 123.462 519.941 123.462C514.271 123.462 510.113 118.758 510.113 111.828C510.113 104.898 514.313 100.194 519.941 100.194C524.351 100.194 527.291 103.218 528.425 106.494ZM520.739 121.362C525.569 121.362 528.551 117.498 528.551 111.828C528.551 106.158 525.569 102.294 520.739 102.294C515.909 102.294 512.969 106.158 512.969 111.828C512.969 117.498 515.909 121.362 520.739 121.362Z" fill="#FEFDFA"/>
<ellipse cx="209.5" cy="107" rx="15.5" ry="16" fill="#FEFDFA"/>
</svg>
