<svg width="929" height="199" viewBox="0 0 929 199" fill="none" xmlns="http://www.w3.org/2000/svg">
<rect width="929" height="199" fill="#202124"/>
<path d="M250.356 106.2L266.736 123H261.108L245.232 106.662V123H240.99V91.08H245.232V105.822L259.638 91.08H265.14L250.356 106.2ZM278.095 100.026C284.941 100.026 287.419 104.31 287.419 108.51V108.594V123H283.303V118.38C281.749 121.53 279.901 123.462 275.533 123.462C271.333 123.462 267.973 120.396 267.973 116.238C267.973 110.988 273.223 109.98 277.255 109.56L283.303 108.93V108.552V108.468C283.303 105.528 281.665 103.05 278.095 103.05C274.945 103.05 273.181 104.982 272.887 107.124H268.687C269.191 102.882 272.803 100.026 278.095 100.026ZM277.045 120.732C281.203 120.732 283.303 117.456 283.303 113.424V111.744L278.809 112.206C275.701 112.542 272.173 112.962 272.173 116.238C272.173 119.136 274.441 120.732 277.045 120.732ZM297.835 123H293.719V91.08H297.835V123ZM313.791 119.892H316.311V123H313.371C309.465 123 306.399 121.11 306.399 116.826V116.742V103.596H301.653V100.488H306.399V95.154H310.515V100.488H316.227V103.596H310.515V116.742V116.826C310.515 119.22 311.733 119.892 313.791 119.892ZM361.071 112.836H330.705V109.392H361.071V112.836Z" fill="#FEFDFA"/>
<path d="M382.224 91.08V120.396H397.134V123H379.326V91.08H382.224ZM404.354 96.372H401.372V91.08H404.354V96.372ZM404.27 123H401.498V100.656H404.27V123ZM420.58 123.462C414.154 123.462 409.912 118.8 409.912 111.828C409.912 104.856 414.154 100.194 420.58 100.194C425.788 100.194 429.274 103.428 430.408 108.132H427.552C426.712 104.814 424.402 102.294 420.58 102.294C415.708 102.294 412.726 106.158 412.726 111.828C412.726 117.498 415.708 121.362 420.58 121.362C424.318 121.362 426.754 119.136 427.804 115.566H430.66C429.4 120.522 425.536 123.462 420.58 123.462ZM455.023 111.45C455.023 111.828 454.981 112.08 454.939 112.542H437.089C437.341 118.17 440.407 121.362 444.817 121.362C448.555 121.362 450.739 119.514 451.705 116.448H454.561C453.259 121.194 449.647 123.462 444.817 123.462C438.475 123.462 434.275 118.8 434.275 111.828C434.275 104.898 438.475 100.194 444.691 100.194C450.613 100.194 455.023 104.562 455.023 111.45ZM444.691 102.294C440.449 102.294 437.593 105.318 437.131 110.4H452.167C451.915 105.738 448.975 102.294 444.691 102.294ZM470.514 100.194C475.26 100.194 478.452 103.806 478.452 109.056V109.14V123H475.68V109.602V109.518C475.68 104.688 473.076 102.294 469.506 102.294C465.936 102.294 463.332 104.73 463.332 109.56V123H460.56V100.656H463.332V105.276C464.382 102.42 466.818 100.194 470.514 100.194ZM494.449 123.462C488.023 123.462 483.781 118.8 483.781 111.828C483.781 104.856 488.023 100.194 494.449 100.194C499.657 100.194 503.143 103.428 504.277 108.132H501.421C500.581 104.814 498.271 102.294 494.449 102.294C489.577 102.294 486.595 106.158 486.595 111.828C486.595 117.498 489.577 121.362 494.449 121.362C498.187 121.362 500.623 119.136 501.673 115.566H504.529C503.269 120.522 499.405 123.462 494.449 123.462ZM528.892 111.45C528.892 111.828 528.85 112.08 528.808 112.542H510.958C511.21 118.17 514.276 121.362 518.686 121.362C522.424 121.362 524.608 119.514 525.574 116.448H528.43C527.128 121.194 523.516 123.462 518.686 123.462C512.344 123.462 508.144 118.8 508.144 111.828C508.144 104.898 512.344 100.194 518.56 100.194C524.482 100.194 528.892 104.562 528.892 111.45ZM518.56 102.294C514.318 102.294 511.462 105.318 511 110.4H526.036C525.784 105.738 522.844 102.294 518.56 102.294Z" fill="#FEFDFA"/>
<ellipse cx="209.5" cy="107" rx="15.5" ry="16" fill="#FEFDFA"/>
</svg>
