<svg width="1532" height="518" viewBox="0 0 1532 518" fill="none" xmlns="http://www.w3.org/2000/svg">
<rect width="1532" height="517.333" fill="#202124"/>
<rect x="1363.33" y="427.333" width="54" height="42" rx="2" fill="#FEFDFA"/>
<path d="M1382.2 447.848L1390.37 455.333H1388.64L1380.59 447.96V455.333H1379.3V441.147H1380.59V447.773L1387.93 441.147H1389.65L1382.2 447.848ZM1398.69 449.061L1402.63 455.333H1401.14L1397.31 449.229H1397.12H1393.41V455.333H1392.12V441.147H1397.12C1400.09 441.147 1402.01 442.677 1402.01 445.197C1402.01 447.232 1400.74 448.613 1398.69 449.061ZM1397.16 442.304H1393.41V448.072H1397.16C1399.31 448.072 1400.69 447.045 1400.69 445.197C1400.69 443.349 1399.31 442.304 1397.16 442.304Z" fill="#202124"/>
<rect x="1295.33" y="427.333" width="54" height="42" rx="2" fill="#FEFDFA"/>
<path d="M1314.2 447.848L1322.37 455.333H1320.64L1312.59 447.96V455.333H1311.3V441.147H1312.59V447.773L1319.93 441.147H1321.65L1314.2 447.848ZM1330.69 449.061L1334.63 455.333H1333.14L1329.31 449.229H1329.12H1325.41V455.333H1324.12V441.147H1329.12C1332.09 441.147 1334.01 442.677 1334.01 445.197C1334.01 447.232 1332.74 448.613 1330.69 449.061ZM1329.16 442.304H1325.41V448.072H1329.16C1331.31 448.072 1332.69 447.045 1332.69 445.197C1332.69 443.349 1331.31 442.304 1329.16 442.304Z" fill="#202124"/>
<rect x="1227.33" y="427.333" width="54" height="42" rx="2" fill="#FEFDFA"/>
<path d="M1246.2 447.848L1254.37 455.333H1252.64L1244.59 447.96V455.333H1243.3V441.147H1244.59V447.773L1251.93 441.147H1253.65L1246.2 447.848ZM1262.69 449.061L1266.63 455.333H1265.14L1261.31 449.229H1261.12H1257.41V455.333H1256.12V441.147H1261.12C1264.09 441.147 1266.01 442.677 1266.01 445.197C1266.01 447.232 1264.74 448.613 1262.69 449.061ZM1261.16 442.304H1257.41V448.072H1261.16C1263.31 448.072 1264.69 447.045 1264.69 445.197C1264.69 443.349 1263.31 442.304 1261.16 442.304Z" fill="#202124"/>
<rect x="1152" y="427.333" width="54" height="42" rx="2" fill="#FEFDFA"/>
<path d="M1170.86 447.848L1179.04 455.333H1177.3L1169.26 447.96V455.333H1167.97V441.147H1169.26V447.773L1176.59 441.147H1178.31L1170.86 447.848ZM1187.36 449.061L1191.3 455.333H1189.8L1185.98 449.229H1185.79H1182.07V455.333H1180.79V441.147H1185.79C1188.76 441.147 1190.68 442.677 1190.68 445.197C1190.68 447.232 1189.41 448.613 1187.36 449.061ZM1185.83 442.304H1182.07V448.072H1185.83C1187.97 448.072 1189.35 447.045 1189.35 445.197C1189.35 443.349 1187.97 442.304 1185.83 442.304Z" fill="#202124"/>
<rect x="1084" y="427.333" width="54" height="42" rx="2" fill="#FEFDFA"/>
<path d="M1102.86 447.848L1111.04 455.333H1109.3L1101.26 447.96V455.333H1099.97V441.147H1101.26V447.773L1108.59 441.147H1110.31L1102.86 447.848ZM1119.36 449.061L1123.3 455.333H1121.8L1117.98 449.229H1117.79H1114.07V455.333H1112.79V441.147H1117.79C1120.76 441.147 1122.68 442.677 1122.68 445.197C1122.68 447.232 1121.41 448.613 1119.36 449.061ZM1117.83 442.304H1114.07V448.072H1117.83C1119.97 448.072 1121.35 447.045 1121.35 445.197C1121.35 443.349 1119.97 442.304 1117.83 442.304Z" fill="#202124"/>
<rect x="1016" y="427.333" width="54" height="42" rx="2" fill="#FEFDFA"/>
<path d="M1034.86 447.848L1043.04 455.333H1041.3L1033.26 447.96V455.333H1031.97V441.147H1033.26V447.773L1040.59 441.147H1042.31L1034.86 447.848ZM1051.36 449.061L1055.3 455.333H1053.8L1049.98 449.229H1049.79H1046.07V455.333H1044.79V441.147H1049.79C1052.76 441.147 1054.68 442.677 1054.68 445.197C1054.68 447.232 1053.41 448.613 1051.36 449.061ZM1049.83 442.304H1046.07V448.072H1049.83C1051.97 448.072 1053.35 447.045 1053.35 445.197C1053.35 443.349 1051.97 442.304 1049.83 442.304Z" fill="#202124"/>
<rect x="940.667" y="427.333" width="54" height="42" rx="2" fill="#FEFDFA"/>
<path d="M959.531 447.848L967.707 455.333H965.971L957.925 447.96V455.333H956.637V441.147H957.925V447.773L965.261 441.147H966.979L959.531 447.848ZM976.023 449.061L979.962 455.333H978.469L974.642 449.229H974.455H970.741V455.333H969.453V441.147H974.455C977.423 441.147 979.346 442.677 979.346 445.197C979.346 447.232 978.077 448.613 976.023 449.061ZM974.493 442.304H970.741V448.072H974.493C976.639 448.072 978.021 447.045 978.021 445.197C978.021 443.349 976.639 442.304 974.493 442.304Z" fill="#202124"/>
<rect x="872.667" y="427.333" width="54" height="42" rx="2" fill="#FEFDFA"/>
<path d="M891.531 447.848L899.707 455.333H897.971L889.925 447.96V455.333H888.637V441.147H889.925V447.773L897.261 441.147H898.979L891.531 447.848ZM908.023 449.061L911.962 455.333H910.469L906.642 449.229H906.455H902.741V455.333H901.453V441.147H906.455C909.423 441.147 911.346 442.677 911.346 445.197C911.346 447.232 910.077 448.613 908.023 449.061ZM906.493 442.304H902.741V448.072H906.493C908.639 448.072 910.021 447.045 910.021 445.197C910.021 443.349 908.639 442.304 906.493 442.304Z" fill="#202124"/>
<rect x="804.667" y="427.333" width="54" height="42" rx="2" fill="#FEFDFA"/>
<path d="M823.531 447.848L831.707 455.333H829.971L821.926 447.96V455.333H820.638V441.147H821.926V447.773L829.262 441.147H830.979L823.531 447.848ZM840.023 449.061L843.962 455.333H842.469L838.642 449.229H838.455H834.741V455.333H833.453V441.147H838.455C841.423 441.147 843.346 442.677 843.346 445.197C843.346 447.232 842.077 448.613 840.023 449.061ZM838.493 442.304H834.741V448.072H838.493C840.639 448.072 842.021 447.045 842.021 445.197C842.021 443.349 840.639 442.304 838.493 442.304Z" fill="#202124"/>
<rect x="729.333" y="427.333" width="54" height="42" rx="2" fill="#FEFDFA"/>
<path d="M748.198 447.848L756.374 455.333H754.638L746.592 447.96V455.333H745.304V441.147H746.592V447.773L753.928 441.147H755.646L748.198 447.848ZM764.69 449.061L768.629 455.333H767.135L763.309 449.229H763.122H759.407V455.333H758.119V441.147H763.122C766.09 441.147 768.013 442.677 768.013 445.197C768.013 447.232 766.743 448.613 764.69 449.061ZM763.159 442.304H759.407V448.072H763.159C765.306 448.072 766.687 447.045 766.687 445.197C766.687 443.349 765.306 442.304 763.159 442.304Z" fill="#202124"/>
<rect x="661.333" y="427.333" width="54" height="42" rx="2" fill="#FEFDFA"/>
<path d="M680.198 447.848L688.374 455.333H686.638L678.592 447.96V455.333H677.304V441.147H678.592V447.773L685.928 441.147H687.646L680.198 447.848ZM696.69 449.061L700.629 455.333H699.135L695.309 449.229H695.122H691.407V455.333H690.119V441.147H695.122C698.09 441.147 700.013 442.677 700.013 445.197C700.013 447.232 698.743 448.613 696.69 449.061ZM695.159 442.304H691.407V448.072H695.159C697.306 448.072 698.687 447.045 698.687 445.197C698.687 443.349 697.306 442.304 695.159 442.304Z" fill="#202124"/>
<rect x="593.333" y="427.333" width="54" height="42" rx="2" fill="#FEFDFA"/>
<path d="M612.198 447.848L620.374 455.333H618.638L610.592 447.96V455.333H609.304V441.147H610.592V447.773L617.928 441.147H619.646L612.198 447.848ZM628.69 449.061L632.629 455.333H631.135L627.309 449.229H627.122H623.407V455.333H622.119V441.147H627.122C630.09 441.147 632.013 442.677 632.013 445.197C632.013 447.232 630.743 448.613 628.69 449.061ZM627.159 442.304H623.407V448.072H627.159C629.306 448.072 630.687 447.045 630.687 445.197C630.687 443.349 629.306 442.304 627.159 442.304Z" fill="#202124"/>
<rect x="518" y="427.333" width="54" height="42" rx="2" fill="#FEFDFA"/>
<path d="M536.864 447.848L545.04 455.333H543.304L535.259 447.96V455.333H533.971V441.147H535.259V447.773L542.595 441.147H544.312L536.864 447.848ZM553.357 449.061L557.295 455.333H555.802L551.975 449.229H551.789H548.074V455.333H546.786V441.147H551.789C554.757 441.147 556.679 442.677 556.679 445.197C556.679 447.232 555.41 448.613 553.357 449.061ZM551.826 442.304H548.074V448.072H551.826C553.973 448.072 555.354 447.045 555.354 445.197C555.354 443.349 553.973 442.304 551.826 442.304Z" fill="#202124"/>
<rect x="450" y="427.333" width="54" height="42" rx="2" fill="#FEFDFA"/>
<path d="M468.864 447.848L477.04 455.333H475.304L467.259 447.96V455.333H465.971V441.147H467.259V447.773L474.595 441.147H476.312L468.864 447.848ZM485.357 449.061L489.295 455.333H487.802L483.975 449.229H483.789H480.074V455.333H478.786V441.147H483.789C486.757 441.147 488.679 442.677 488.679 445.197C488.679 447.232 487.41 448.613 485.357 449.061ZM483.826 442.304H480.074V448.072H483.826C485.973 448.072 487.354 447.045 487.354 445.197C487.354 443.349 485.973 442.304 483.826 442.304Z" fill="#202124"/>
<rect x="382" y="427.333" width="54" height="42" rx="2" fill="#FEFDFA"/>
<path d="M400.864 447.848L409.04 455.333H407.304L399.259 447.96V455.333H397.971V441.147H399.259V447.773L406.595 441.147H408.312L400.864 447.848ZM417.357 449.061L421.295 455.333H419.802L415.975 449.229H415.789H412.074V455.333H410.786V441.147H415.789C418.757 441.147 420.679 442.677 420.679 445.197C420.679 447.232 419.41 448.613 417.357 449.061ZM415.826 442.304H412.074V448.072H415.826C417.973 448.072 419.354 447.045 419.354 445.197C419.354 443.349 417.973 442.304 415.826 442.304Z" fill="#202124"/>
<rect x="306.667" y="427.333" width="54" height="42" rx="2" fill="#FEFDFA"/>
<path d="M325.531 447.848L333.707 455.333H331.971L323.925 447.96V455.333H322.637V441.147H323.925V447.773L331.261 441.147H332.979L325.531 447.848ZM342.023 449.061L345.962 455.333H344.469L340.642 449.229H340.455H336.741V455.333H335.453V441.147H340.455C343.423 441.147 345.346 442.677 345.346 445.197C345.346 447.232 344.077 448.613 342.023 449.061ZM340.493 442.304H336.741V448.072H340.493C342.639 448.072 344.021 447.045 344.021 445.197C344.021 443.349 342.639 442.304 340.493 442.304Z" fill="#202124"/>
<rect x="238.667" y="427.333" width="54" height="42" rx="2" fill="#FEFDFA"/>
<path d="M257.531 447.848L265.707 455.333H263.971L255.925 447.96V455.333H254.637V441.147H255.925V447.773L263.261 441.147H264.979L257.531 447.848ZM274.023 449.061L277.962 455.333H276.469L272.642 449.229H272.455H268.741V455.333H267.453V441.147H272.455C275.423 441.147 277.346 442.677 277.346 445.197C277.346 447.232 276.077 448.613 274.023 449.061ZM272.493 442.304H268.741V448.072H272.493C274.639 448.072 276.021 447.045 276.021 445.197C276.021 443.349 274.639 442.304 272.493 442.304Z" fill="#202124"/>
<rect x="170.667" y="427.333" width="54" height="42" rx="2" fill="#FEFDFA"/>
<path d="M189.531 447.848L197.707 455.333H195.971L187.925 447.96V455.333H186.637V441.147H187.925V447.773L195.261 441.147H196.979L189.531 447.848ZM206.023 449.061L209.962 455.333H208.469L204.642 449.229H204.455H200.741V455.333H199.453V441.147H204.455C207.423 441.147 209.346 442.677 209.346 445.197C209.346 447.232 208.077 448.613 206.023 449.061ZM204.493 442.304H200.741V448.072H204.493C206.639 448.072 208.021 447.045 208.021 445.197C208.021 443.349 206.639 442.304 204.493 442.304Z" fill="#202124"/>
<rect x="1227.33" y="336" width="190" height="65.3333" rx="2" fill="#FEFDFA"/>
<path d="M1269.37 380.308C1263.51 380.308 1259.37 375.884 1259.37 369.36C1259.37 362.836 1263.51 358.412 1269.37 358.412C1275.25 358.412 1279.39 362.836 1279.39 369.36C1279.39 375.884 1275.25 380.308 1269.37 380.308ZM1269.37 378.656C1274.07 378.656 1277.37 374.82 1277.37 369.36C1277.37 363.9 1274.07 360.064 1269.37 360.064C1264.69 360.064 1261.36 363.9 1261.36 369.36C1261.36 374.82 1264.69 378.656 1269.37 378.656ZM1290.76 364.796C1294.52 364.796 1297.32 367.932 1297.32 372.552C1297.32 377.172 1294.54 380.308 1290.76 380.308C1288.16 380.308 1285.98 378.6 1285.11 376.304V380H1283.26V358.72H1285.11V368.996C1285.86 366.812 1287.82 364.796 1290.76 364.796ZM1290.23 378.908C1293.45 378.908 1295.41 376.332 1295.41 372.552C1295.41 368.772 1293.45 366.196 1290.23 366.196C1287.01 366.196 1285.02 368.772 1285.02 372.552C1285.02 376.332 1287.01 378.908 1290.23 378.908ZM1302.97 362.248H1300.98V358.72H1302.97V362.248ZM1298.79 385.488H1297.95V384.06H1298.63C1300.19 384.06 1301.06 383.416 1301.06 381.652V365.104H1302.91V381.652C1302.91 384.256 1301.23 385.488 1298.79 385.488ZM1320.5 372.3C1320.5 372.552 1320.47 372.72 1320.45 373.028H1308.55C1308.71 376.78 1310.76 378.908 1313.7 378.908C1316.19 378.908 1317.65 377.676 1318.29 375.632H1320.19C1319.33 378.796 1316.92 380.308 1313.7 380.308C1309.47 380.308 1306.67 377.2 1306.67 372.552C1306.67 367.932 1309.47 364.796 1313.61 364.796C1317.56 364.796 1320.5 367.708 1320.5 372.3ZM1313.61 366.196C1310.79 366.196 1308.88 368.212 1308.57 371.6H1318.6C1318.43 368.492 1316.47 366.196 1313.61 366.196ZM1330.3 380.308C1326.01 380.308 1323.19 377.2 1323.19 372.552C1323.19 367.904 1326.01 364.796 1330.3 364.796C1333.77 364.796 1336.09 366.952 1336.85 370.088H1334.95C1334.39 367.876 1332.85 366.196 1330.3 366.196C1327.05 366.196 1325.06 368.772 1325.06 372.552C1325.06 376.332 1327.05 378.908 1330.3 378.908C1332.79 378.908 1334.41 377.424 1335.11 375.044H1337.02C1336.18 378.348 1333.6 380.308 1330.3 380.308ZM1345.79 378.572H1347.5V380H1345.62C1343.19 380 1341.51 378.796 1341.51 376.22V376.164V366.532H1338.17V365.104H1341.51V361.576H1343.35V365.104H1347.47V366.532H1343.35V376.164V376.22C1343.35 377.956 1344.22 378.572 1345.79 378.572ZM1352.38 362.248H1350.39V358.72H1352.38V362.248ZM1352.32 380H1350.47V365.104H1352.32V380ZM1362.52 380H1360.67L1355.13 365.104H1357.03L1362.52 380ZM1364.54 380H1362.69L1368.18 365.104H1370.08L1364.54 380ZM1385.55 372.3C1385.55 372.552 1385.53 372.72 1385.5 373.028H1373.6C1373.77 376.78 1375.81 378.908 1378.75 378.908C1381.24 378.908 1382.7 377.676 1383.34 375.632H1385.25C1384.38 378.796 1381.97 380.308 1378.75 380.308C1374.52 380.308 1371.72 377.2 1371.72 372.552C1371.72 367.932 1374.52 364.796 1378.67 364.796C1382.61 364.796 1385.55 367.708 1385.55 372.3ZM1378.67 366.196C1375.84 366.196 1373.93 368.212 1373.63 371.6H1383.65C1383.48 368.492 1381.52 366.196 1378.67 366.196Z" fill="#202124"/>
<rect x="1016" y="336" width="190" height="65.3333" rx="2" fill="#FEFDFA"/>
<path d="M1058.03 380.308C1052.18 380.308 1048.04 375.884 1048.04 369.36C1048.04 362.836 1052.18 358.412 1058.03 358.412C1063.91 358.412 1068.06 362.836 1068.06 369.36C1068.06 375.884 1063.91 380.308 1058.03 380.308ZM1058.03 378.656C1062.74 378.656 1066.04 374.82 1066.04 369.36C1066.04 363.9 1062.74 360.064 1058.03 360.064C1053.36 360.064 1050.02 363.9 1050.02 369.36C1050.02 374.82 1053.36 378.656 1058.03 378.656ZM1079.43 364.796C1083.18 364.796 1085.98 367.932 1085.98 372.552C1085.98 377.172 1083.21 380.308 1079.43 380.308C1076.83 380.308 1074.64 378.6 1073.77 376.304V380H1071.93V358.72H1073.77V368.996C1074.53 366.812 1076.49 364.796 1079.43 364.796ZM1078.9 378.908C1082.12 378.908 1084.08 376.332 1084.08 372.552C1084.08 368.772 1082.12 366.196 1078.9 366.196C1075.68 366.196 1073.69 368.772 1073.69 372.552C1073.69 376.332 1075.68 378.908 1078.9 378.908ZM1091.63 362.248H1089.64V358.72H1091.63V362.248ZM1087.46 385.488H1086.62V384.06H1087.29C1088.86 384.06 1089.73 383.416 1089.73 381.652V365.104H1091.58V381.652C1091.58 384.256 1089.9 385.488 1087.46 385.488ZM1109.17 372.3C1109.17 372.552 1109.14 372.72 1109.11 373.028H1097.21C1097.38 376.78 1099.42 378.908 1102.36 378.908C1104.86 378.908 1106.31 377.676 1106.96 375.632H1108.86C1107.99 378.796 1105.58 380.308 1102.36 380.308C1098.14 380.308 1095.34 377.2 1095.34 372.552C1095.34 367.932 1098.14 364.796 1102.28 364.796C1106.23 364.796 1109.17 367.708 1109.17 372.3ZM1102.28 366.196C1099.45 366.196 1097.55 368.212 1097.24 371.6H1107.26C1107.1 368.492 1105.14 366.196 1102.28 366.196ZM1118.96 380.308C1114.68 380.308 1111.85 377.2 1111.85 372.552C1111.85 367.904 1114.68 364.796 1118.96 364.796C1122.44 364.796 1124.76 366.952 1125.52 370.088H1123.61C1123.05 367.876 1121.51 366.196 1118.96 366.196C1115.72 366.196 1113.73 368.772 1113.73 372.552C1113.73 376.332 1115.72 378.908 1118.96 378.908C1121.46 378.908 1123.08 377.424 1123.78 375.044H1125.68C1124.84 378.348 1122.27 380.308 1118.96 380.308ZM1134.46 378.572H1136.16V380H1134.29C1131.85 380 1130.17 378.796 1130.17 376.22V376.164V366.532H1126.84V365.104H1130.17V361.576H1132.02V365.104H1136.14V366.532H1132.02V376.164V376.22C1132.02 377.956 1132.89 378.572 1134.46 378.572ZM1141.04 362.248H1139.05V358.72H1141.04V362.248ZM1140.99 380H1139.14V365.104H1140.99V380ZM1151.19 380H1149.34L1143.8 365.104H1145.7L1151.19 380ZM1153.2 380H1151.36L1156.84 365.104H1158.75L1153.2 380ZM1174.22 372.3C1174.22 372.552 1174.19 372.72 1174.16 373.028H1162.26C1162.43 376.78 1164.48 378.908 1167.42 378.908C1169.91 378.908 1171.36 377.676 1172.01 375.632H1173.91C1173.04 378.796 1170.64 380.308 1167.42 380.308C1163.19 380.308 1160.39 377.2 1160.39 372.552C1160.39 367.932 1163.19 364.796 1167.33 364.796C1171.28 364.796 1174.22 367.708 1174.22 372.3ZM1167.33 366.196C1164.5 366.196 1162.6 368.212 1162.29 371.6H1172.32C1172.15 368.492 1170.19 366.196 1167.33 366.196Z" fill="#202124"/>
<rect x="804.667" y="336" width="190" height="65.3333" rx="2" fill="#FEFDFA"/>
<path d="M846.699 380.308C840.847 380.308 836.703 375.884 836.703 369.36C836.703 362.836 840.847 358.412 846.699 358.412C852.579 358.412 856.723 362.836 856.723 369.36C856.723 375.884 852.579 380.308 846.699 380.308ZM846.699 378.656C851.403 378.656 854.707 374.82 854.707 369.36C854.707 363.9 851.403 360.064 846.699 360.064C842.023 360.064 838.691 363.9 838.691 369.36C838.691 374.82 842.023 378.656 846.699 378.656ZM868.098 364.796C871.85 364.796 874.65 367.932 874.65 372.552C874.65 377.172 871.878 380.308 868.098 380.308C865.494 380.308 863.31 378.6 862.442 376.304V380H860.594V358.72H862.442V368.996C863.198 366.812 865.158 364.796 868.098 364.796ZM867.566 378.908C870.786 378.908 872.746 376.332 872.746 372.552C872.746 368.772 870.786 366.196 867.566 366.196C864.346 366.196 862.358 368.772 862.358 372.552C862.358 376.332 864.346 378.908 867.566 378.908ZM880.298 362.248H878.31V358.72H880.298V362.248ZM876.126 385.488H875.286V384.06H875.958C877.526 384.06 878.394 383.416 878.394 381.652V365.104H880.242V381.652C880.242 384.256 878.562 385.488 876.126 385.488ZM897.836 372.3C897.836 372.552 897.808 372.72 897.78 373.028H885.88C886.048 376.78 888.092 378.908 891.032 378.908C893.524 378.908 894.98 377.676 895.624 375.632H897.528C896.66 378.796 894.252 380.308 891.032 380.308C886.804 380.308 884.004 377.2 884.004 372.552C884.004 367.932 886.804 364.796 890.948 364.796C894.896 364.796 897.836 367.708 897.836 372.3ZM890.948 366.196C888.12 366.196 886.216 368.212 885.908 371.6H895.932C895.764 368.492 893.804 366.196 890.948 366.196ZM907.631 380.308C903.347 380.308 900.519 377.2 900.519 372.552C900.519 367.904 903.347 364.796 907.631 364.796C911.103 364.796 913.427 366.952 914.183 370.088H912.279C911.719 367.876 910.179 366.196 907.631 366.196C904.383 366.196 902.395 368.772 902.395 372.552C902.395 376.332 904.383 378.908 907.631 378.908C910.123 378.908 911.747 377.424 912.447 375.044H914.351C913.511 378.348 910.935 380.308 907.631 380.308ZM923.123 378.572H924.831V380H922.955C920.519 380 918.839 378.796 918.839 376.22V376.164V366.532H915.507V365.104H918.839V361.576H920.687V365.104H924.803V366.532H920.687V376.164V376.22C920.687 377.956 921.555 378.572 923.123 378.572ZM929.709 362.248H927.721V358.72H929.709V362.248ZM929.653 380H927.805V365.104H929.653V380ZM939.854 380H938.006L932.462 365.104H934.366L939.854 380ZM941.87 380H940.022L945.51 365.104H947.414L941.87 380ZM962.886 372.3C962.886 372.552 962.858 372.72 962.83 373.028H950.93C951.098 376.78 953.142 378.908 956.082 378.908C958.574 378.908 960.03 377.676 960.674 375.632H962.578C961.71 378.796 959.302 380.308 956.082 380.308C951.854 380.308 949.054 377.2 949.054 372.552C949.054 367.932 951.854 364.796 955.998 364.796C959.946 364.796 962.886 367.708 962.886 372.3ZM955.998 366.196C953.17 366.196 951.266 368.212 950.958 371.6H960.982C960.814 368.492 958.854 366.196 955.998 366.196Z" fill="#202124"/>
<rect x="593.333" y="336" width="190" height="65.3333" rx="2" fill="#FEFDFA"/>
<path d="M635.366 380.308C629.514 380.308 625.37 375.884 625.37 369.36C625.37 362.836 629.514 358.412 635.366 358.412C641.246 358.412 645.39 362.836 645.39 369.36C645.39 375.884 641.246 380.308 635.366 380.308ZM635.366 378.656C640.07 378.656 643.374 374.82 643.374 369.36C643.374 363.9 640.07 360.064 635.366 360.064C630.69 360.064 627.358 363.9 627.358 369.36C627.358 374.82 630.69 378.656 635.366 378.656ZM656.764 364.796C660.516 364.796 663.316 367.932 663.316 372.552C663.316 377.172 660.544 380.308 656.764 380.308C654.16 380.308 651.976 378.6 651.108 376.304V380H649.26V358.72H651.108V368.996C651.864 366.812 653.824 364.796 656.764 364.796ZM656.232 378.908C659.452 378.908 661.412 376.332 661.412 372.552C661.412 368.772 659.452 366.196 656.232 366.196C653.012 366.196 651.024 368.772 651.024 372.552C651.024 376.332 653.012 378.908 656.232 378.908ZM668.965 362.248H666.977V358.72H668.965V362.248ZM664.793 385.488H663.953V384.06H664.625C666.193 384.06 667.061 383.416 667.061 381.652V365.104H668.909V381.652C668.909 384.256 667.229 385.488 664.793 385.488ZM686.502 372.3C686.502 372.552 686.474 372.72 686.446 373.028H674.546C674.714 376.78 676.758 378.908 679.698 378.908C682.19 378.908 683.646 377.676 684.29 375.632H686.194C685.326 378.796 682.918 380.308 679.698 380.308C675.47 380.308 672.67 377.2 672.67 372.552C672.67 367.932 675.47 364.796 679.614 364.796C683.562 364.796 686.502 367.708 686.502 372.3ZM679.614 366.196C676.786 366.196 674.882 368.212 674.574 371.6H684.598C684.43 368.492 682.47 366.196 679.614 366.196ZM696.298 380.308C692.014 380.308 689.186 377.2 689.186 372.552C689.186 367.904 692.014 364.796 696.298 364.796C699.77 364.796 702.094 366.952 702.85 370.088H700.946C700.386 367.876 698.846 366.196 696.298 366.196C693.05 366.196 691.062 368.772 691.062 372.552C691.062 376.332 693.05 378.908 696.298 378.908C698.79 378.908 700.414 377.424 701.114 375.044H703.018C702.178 378.348 699.602 380.308 696.298 380.308ZM711.789 378.572H713.497V380H711.621C709.185 380 707.505 378.796 707.505 376.22V376.164V366.532H704.173V365.104H707.505V361.576H709.353V365.104H713.469V366.532H709.353V376.164V376.22C709.353 377.956 710.221 378.572 711.789 378.572ZM718.375 362.248H716.387V358.72H718.375V362.248ZM718.319 380H716.471V365.104H718.319V380ZM728.52 380H726.672L721.128 365.104H723.032L728.52 380ZM730.536 380H728.688L734.176 365.104H736.08L730.536 380ZM751.553 372.3C751.553 372.552 751.525 372.72 751.497 373.028H739.597C739.765 376.78 741.809 378.908 744.749 378.908C747.241 378.908 748.697 377.676 749.341 375.632H751.245C750.377 378.796 747.969 380.308 744.749 380.308C740.521 380.308 737.721 377.2 737.721 372.552C737.721 367.932 740.521 364.796 744.665 364.796C748.613 364.796 751.553 367.708 751.553 372.3ZM744.665 366.196C741.837 366.196 739.933 368.212 739.625 371.6H749.649C749.481 368.492 747.521 366.196 744.665 366.196Z" fill="#202124"/>
<rect x="382" y="336" width="190" height="65.3333" rx="2" fill="#FEFDFA"/>
<path d="M424.033 380.308C418.181 380.308 414.037 375.884 414.037 369.36C414.037 362.836 418.181 358.412 424.033 358.412C429.913 358.412 434.057 362.836 434.057 369.36C434.057 375.884 429.913 380.308 424.033 380.308ZM424.033 378.656C428.737 378.656 432.041 374.82 432.041 369.36C432.041 363.9 428.737 360.064 424.033 360.064C419.357 360.064 416.025 363.9 416.025 369.36C416.025 374.82 419.357 378.656 424.033 378.656ZM445.431 364.796C449.183 364.796 451.983 367.932 451.983 372.552C451.983 377.172 449.211 380.308 445.431 380.308C442.827 380.308 440.643 378.6 439.775 376.304V380H437.927V358.72H439.775V368.996C440.531 366.812 442.491 364.796 445.431 364.796ZM444.899 378.908C448.119 378.908 450.079 376.332 450.079 372.552C450.079 368.772 448.119 366.196 444.899 366.196C441.679 366.196 439.691 368.772 439.691 372.552C439.691 376.332 441.679 378.908 444.899 378.908ZM457.632 362.248H455.644V358.72H457.632V362.248ZM453.46 385.488H452.62V384.06H453.292C454.86 384.06 455.728 383.416 455.728 381.652V365.104H457.576V381.652C457.576 384.256 455.896 385.488 453.46 385.488ZM475.169 372.3C475.169 372.552 475.141 372.72 475.113 373.028H463.213C463.381 376.78 465.425 378.908 468.365 378.908C470.857 378.908 472.313 377.676 472.957 375.632H474.861C473.993 378.796 471.585 380.308 468.365 380.308C464.137 380.308 461.337 377.2 461.337 372.552C461.337 367.932 464.137 364.796 468.281 364.796C472.229 364.796 475.169 367.708 475.169 372.3ZM468.281 366.196C465.453 366.196 463.549 368.212 463.241 371.6H473.265C473.097 368.492 471.137 366.196 468.281 366.196ZM484.964 380.308C480.68 380.308 477.852 377.2 477.852 372.552C477.852 367.904 480.68 364.796 484.964 364.796C488.436 364.796 490.76 366.952 491.516 370.088H489.612C489.052 367.876 487.512 366.196 484.964 366.196C481.716 366.196 479.728 368.772 479.728 372.552C479.728 376.332 481.716 378.908 484.964 378.908C487.456 378.908 489.08 377.424 489.78 375.044H491.684C490.844 378.348 488.268 380.308 484.964 380.308ZM500.456 378.572H502.164V380H500.288C497.852 380 496.172 378.796 496.172 376.22V376.164V366.532H492.84V365.104H496.172V361.576H498.02V365.104H502.136V366.532H498.02V376.164V376.22C498.02 377.956 498.888 378.572 500.456 378.572ZM507.042 362.248H505.054V358.72H507.042V362.248ZM506.986 380H505.138V365.104H506.986V380ZM517.187 380H515.339L509.795 365.104H511.699L517.187 380ZM519.203 380H517.355L522.843 365.104H524.747L519.203 380ZM540.22 372.3C540.22 372.552 540.192 372.72 540.164 373.028H528.264C528.432 376.78 530.476 378.908 533.416 378.908C535.908 378.908 537.364 377.676 538.008 375.632H539.912C539.044 378.796 536.636 380.308 533.416 380.308C529.188 380.308 526.388 377.2 526.388 372.552C526.388 367.932 529.188 364.796 533.332 364.796C537.28 364.796 540.22 367.708 540.22 372.3ZM533.332 366.196C530.504 366.196 528.6 368.212 528.292 371.6H538.316C538.148 368.492 536.188 366.196 533.332 366.196Z" fill="#202124"/>
<rect x="170.667" y="336" width="190" height="65.3333" rx="2" fill="#FEFDFA"/>
<path d="M212.699 380.308C206.847 380.308 202.703 375.884 202.703 369.36C202.703 362.836 206.847 358.412 212.699 358.412C218.579 358.412 222.723 362.836 222.723 369.36C222.723 375.884 218.579 380.308 212.699 380.308ZM212.699 378.656C217.403 378.656 220.707 374.82 220.707 369.36C220.707 363.9 217.403 360.064 212.699 360.064C208.023 360.064 204.691 363.9 204.691 369.36C204.691 374.82 208.023 378.656 212.699 378.656ZM234.098 364.796C237.85 364.796 240.65 367.932 240.65 372.552C240.65 377.172 237.878 380.308 234.098 380.308C231.494 380.308 229.31 378.6 228.442 376.304V380H226.594V358.72H228.442V368.996C229.198 366.812 231.158 364.796 234.098 364.796ZM233.566 378.908C236.786 378.908 238.746 376.332 238.746 372.552C238.746 368.772 236.786 366.196 233.566 366.196C230.346 366.196 228.358 368.772 228.358 372.552C228.358 376.332 230.346 378.908 233.566 378.908ZM246.298 362.248H244.31V358.72H246.298V362.248ZM242.126 385.488H241.286V384.06H241.958C243.526 384.06 244.394 383.416 244.394 381.652V365.104H246.242V381.652C246.242 384.256 244.562 385.488 242.126 385.488ZM263.835 372.3C263.835 372.552 263.807 372.72 263.779 373.028H251.879C252.047 376.78 254.091 378.908 257.031 378.908C259.523 378.908 260.979 377.676 261.623 375.632H263.527C262.659 378.796 260.251 380.308 257.031 380.308C252.803 380.308 250.003 377.2 250.003 372.552C250.003 367.932 252.803 364.796 256.947 364.796C260.895 364.796 263.835 367.708 263.835 372.3ZM256.947 366.196C254.119 366.196 252.215 368.212 251.907 371.6H261.931C261.763 368.492 259.803 366.196 256.947 366.196ZM273.631 380.308C269.347 380.308 266.519 377.2 266.519 372.552C266.519 367.904 269.347 364.796 273.631 364.796C277.103 364.796 279.427 366.952 280.183 370.088H278.279C277.719 367.876 276.179 366.196 273.631 366.196C270.383 366.196 268.395 368.772 268.395 372.552C268.395 376.332 270.383 378.908 273.631 378.908C276.123 378.908 277.747 377.424 278.447 375.044H280.351C279.511 378.348 276.935 380.308 273.631 380.308ZM289.123 378.572H290.831V380H288.955C286.519 380 284.839 378.796 284.839 376.22V376.164V366.532H281.507V365.104H284.839V361.576H286.687V365.104H290.803V366.532H286.687V376.164V376.22C286.687 377.956 287.555 378.572 289.123 378.572ZM295.708 362.248H293.72V358.72H295.708V362.248ZM295.652 380H293.804V365.104H295.652V380ZM305.854 380H304.006L298.462 365.104H300.366L305.854 380ZM307.87 380H306.022L311.51 365.104H313.414L307.87 380ZM328.886 372.3C328.886 372.552 328.858 372.72 328.83 373.028H316.93C317.098 376.78 319.142 378.908 322.082 378.908C324.574 378.908 326.03 377.676 326.674 375.632H328.578C327.71 378.796 325.302 380.308 322.082 380.308C317.854 380.308 315.054 377.2 315.054 372.552C315.054 367.932 317.854 364.796 321.998 364.796C325.946 364.796 328.886 367.708 328.886 372.3ZM321.998 366.196C319.17 366.196 317.266 368.212 316.958 371.6H326.982C326.814 368.492 324.854 366.196 321.998 366.196Z" fill="#202124"/>
<rect x="909.333" y="236.667" width="190" height="65.3333" rx="2" fill="#FEFDFA"/>
<path d="M983.735 271.287V269.579H993.899V280.667H992.191V274.899C991.351 277.811 988.943 280.975 984.295 280.975C978.807 280.975 974.607 276.523 974.607 270.027C974.607 263.503 978.779 259.079 984.379 259.079C989.279 259.079 992.443 261.879 993.591 265.883H991.603C990.511 262.887 988.187 260.731 984.379 260.731C979.927 260.731 976.595 264.567 976.595 270.027C976.595 275.515 979.927 279.323 984.491 279.323C988.747 279.323 991.939 276.439 991.967 271.287H983.735ZM1004.55 280.975C1000.32 280.975 997.461 277.867 997.461 273.219C997.461 268.571 1000.32 265.463 1004.55 265.463C1008.8 265.463 1011.63 268.571 1011.63 273.219C1011.63 277.867 1008.8 280.975 1004.55 280.975ZM1004.55 279.575C1007.77 279.575 1009.73 276.999 1009.73 273.219C1009.73 269.439 1007.77 266.863 1004.55 266.863C1001.33 266.863 999.337 269.439 999.337 273.219C999.337 276.999 1001.33 279.575 1004.55 279.575ZM1020.88 265.463C1025.2 265.463 1026.82 268.319 1026.82 270.951V271.007V280.667H1024.97V277.391C1024.02 279.491 1022.56 280.975 1019.54 280.975C1016.66 280.975 1014.47 278.987 1014.47 276.271C1014.47 272.883 1018 272.239 1020.83 271.903L1024.97 271.455V271.147V271.091C1024.97 268.935 1023.8 266.863 1020.88 266.863C1018.31 266.863 1016.99 268.375 1016.82 270.027H1014.92C1015.23 267.367 1017.41 265.463 1020.88 265.463ZM1020.13 279.687C1023.32 279.687 1024.97 277.307 1024.97 274.339V272.771L1021.7 273.135C1019.01 273.443 1016.38 273.835 1016.38 276.271C1016.38 278.455 1018.11 279.687 1020.13 279.687ZM1033.24 280.667H1031.39V259.387H1033.24V280.667Z" fill="#202124"/>
<rect x="699.333" y="236.667" width="190" height="65.3333" rx="2" fill="#FEFDFA"/>
<path d="M773.735 271.287V269.579H783.899V280.667H782.191V274.899C781.351 277.811 778.943 280.975 774.295 280.975C768.807 280.975 764.607 276.523 764.607 270.027C764.607 263.503 768.779 259.079 774.379 259.079C779.279 259.079 782.443 261.879 783.591 265.883H781.603C780.511 262.887 778.187 260.731 774.379 260.731C769.927 260.731 766.595 264.567 766.595 270.027C766.595 275.515 769.927 279.323 774.491 279.323C778.747 279.323 781.939 276.439 781.967 271.287H773.735ZM794.545 280.975C790.317 280.975 787.461 277.867 787.461 273.219C787.461 268.571 790.317 265.463 794.545 265.463C798.801 265.463 801.629 268.571 801.629 273.219C801.629 277.867 798.801 280.975 794.545 280.975ZM794.545 279.575C797.765 279.575 799.725 276.999 799.725 273.219C799.725 269.439 797.765 266.863 794.545 266.863C791.325 266.863 789.337 269.439 789.337 273.219C789.337 276.999 791.325 279.575 794.545 279.575ZM810.884 265.463C815.196 265.463 816.82 268.319 816.82 270.951V271.007V280.667H814.972V277.391C814.02 279.491 812.564 280.975 809.54 280.975C806.656 280.975 804.472 278.987 804.472 276.271C804.472 272.883 808 272.239 810.828 271.903L814.972 271.455V271.147V271.091C814.972 268.935 813.796 266.863 810.884 266.863C808.308 266.863 806.992 268.375 806.824 270.027H804.92C805.228 267.367 807.412 265.463 810.884 265.463ZM810.128 279.687C813.32 279.687 814.972 277.307 814.972 274.339V272.771L811.696 273.135C809.008 273.443 806.376 273.835 806.376 276.271C806.376 278.455 808.112 279.687 810.128 279.687ZM823.239 280.667H821.391V259.387H823.239V280.667Z" fill="#202124"/>
<rect x="489.333" y="236.667" width="190" height="65.3333" rx="2" fill="#FEFDFA"/>
<path d="M563.734 271.287V269.579H573.898V280.667H572.19V274.899C571.35 277.811 568.942 280.975 564.294 280.975C558.806 280.975 554.606 276.523 554.606 270.027C554.606 263.503 558.778 259.079 564.378 259.079C569.278 259.079 572.442 261.879 573.59 265.883H571.602C570.51 262.887 568.186 260.731 564.378 260.731C559.926 260.731 556.594 264.567 556.594 270.027C556.594 275.515 559.926 279.323 564.49 279.323C568.746 279.323 571.938 276.439 571.966 271.287H563.734ZM584.545 280.975C580.317 280.975 577.461 277.867 577.461 273.219C577.461 268.571 580.317 265.463 584.545 265.463C588.801 265.463 591.629 268.571 591.629 273.219C591.629 277.867 588.801 280.975 584.545 280.975ZM584.545 279.575C587.765 279.575 589.725 276.999 589.725 273.219C589.725 269.439 587.765 266.863 584.545 266.863C581.325 266.863 579.337 269.439 579.337 273.219C579.337 276.999 581.325 279.575 584.545 279.575ZM600.884 265.463C605.196 265.463 606.82 268.319 606.82 270.951V271.007V280.667H604.972V277.391C604.02 279.491 602.564 280.975 599.54 280.975C596.656 280.975 594.472 278.987 594.472 276.271C594.472 272.883 598 272.239 600.828 271.903L604.972 271.455V271.147V271.091C604.972 268.935 603.796 266.863 600.884 266.863C598.308 266.863 596.992 268.375 596.824 270.027H594.92C595.228 267.367 597.412 265.463 600.884 265.463ZM600.128 279.687C603.32 279.687 604.972 277.307 604.972 274.339V272.771L601.696 273.135C599.008 273.443 596.376 273.835 596.376 276.271C596.376 278.455 598.112 279.687 600.128 279.687ZM613.239 280.667H611.391V259.387H613.239V280.667Z" fill="#202124"/>
<rect x="656.667" y="137.333" width="274.667" height="65.3333" rx="2" fill="#FEFDFA"/>
<path d="M746.658 181.333H744.726V160.053H746.658V181.333ZM756.318 181.333H754.302L746.854 160.053H748.898L756.318 181.333ZM758.53 181.333H756.514L763.934 160.053H765.95L758.53 181.333ZM768.078 181.333H766.174V160.053H768.078V181.333ZM775.083 163.581H773.095V160.053H775.083V163.581ZM775.027 181.333H773.179V166.437H775.027V181.333ZM784.696 181.641C781.448 181.641 779.04 179.961 778.564 176.993H780.468C780.944 179.317 782.764 180.241 784.696 180.241C787.272 180.241 788.7 178.925 788.7 177.357C788.7 175.677 787.636 175.033 785.144 174.501L783.408 174.137C780.916 173.605 778.956 172.597 778.956 170.273C778.956 167.809 781.448 166.129 784.528 166.129C787.216 166.129 789.68 167.473 790.24 170.133H788.336C787.944 168.425 786.264 167.529 784.528 167.529C782.624 167.529 780.804 168.453 780.804 170.105C780.804 171.673 782.176 172.149 784.276 172.597L786.012 172.961C789.092 173.605 790.548 174.809 790.548 177.161C790.548 179.821 788.112 181.641 784.696 181.641ZM799.079 181.641C795.831 181.641 793.423 179.961 792.947 176.993H794.851C795.327 179.317 797.147 180.241 799.079 180.241C801.655 180.241 803.083 178.925 803.083 177.357C803.083 175.677 802.019 175.033 799.527 174.501L797.791 174.137C795.299 173.605 793.339 172.597 793.339 170.273C793.339 167.809 795.831 166.129 798.911 166.129C801.599 166.129 804.063 167.473 804.623 170.133H802.719C802.327 168.425 800.647 167.529 798.911 167.529C797.007 167.529 795.187 168.453 795.187 170.105C795.187 171.673 796.559 172.149 798.659 172.597L800.395 172.961C803.475 173.605 804.931 174.809 804.931 177.161C804.931 179.821 802.495 181.641 799.079 181.641ZM810.466 163.581H808.478V160.053H810.466V163.581ZM810.41 181.333H808.562V166.437H810.41V181.333ZM821.255 181.641C817.027 181.641 814.171 178.533 814.171 173.885C814.171 169.237 817.027 166.129 821.255 166.129C825.511 166.129 828.339 169.237 828.339 173.885C828.339 178.533 825.511 181.641 821.255 181.641ZM821.255 180.241C824.475 180.241 826.435 177.665 826.435 173.885C826.435 170.105 824.475 167.529 821.255 167.529C818.035 167.529 816.047 170.105 816.047 173.885C816.047 177.665 818.035 180.241 821.255 180.241ZM838.686 166.129C841.85 166.129 843.978 168.537 843.978 172.037V172.093V181.333H842.13V172.401V172.345C842.13 169.125 840.394 167.529 838.014 167.529C835.634 167.529 833.898 169.153 833.898 172.373V181.333H832.05V166.437H833.898V169.517C834.598 167.613 836.222 166.129 838.686 166.129Z" fill="#202124"/>
<rect x="656.667" y="38" width="274.667" height="65.3333" rx="2" fill="#FEFDFA"/>
<path d="M763.413 82.6667H761.369L753.529 61.3867H755.629L763.413 82.6667ZM765.653 82.6667H763.609L771.365 61.3867H773.493L765.653 82.6667ZM777.961 64.9147H775.973V61.3867H777.961V64.9147ZM777.905 82.6667H776.057V67.7707H777.905V82.6667ZM787.574 82.9747C784.326 82.9747 781.918 81.2947 781.442 78.3267H783.346C783.822 80.6507 785.642 81.5747 787.574 81.5747C790.15 81.5747 791.578 80.2587 791.578 78.6907C791.578 77.0107 790.514 76.3667 788.022 75.8347L786.286 75.4707C783.794 74.9387 781.834 73.9307 781.834 71.6067C781.834 69.1427 784.326 67.4627 787.406 67.4627C790.094 67.4627 792.558 68.8067 793.118 71.4667H791.214C790.822 69.7587 789.142 68.8627 787.406 68.8627C785.502 68.8627 783.682 69.7867 783.682 71.4387C783.682 73.0067 785.054 73.4827 787.154 73.9307L788.89 74.2947C791.97 74.9387 793.426 76.1427 793.426 78.4947C793.426 81.1547 790.99 82.9747 787.574 82.9747ZM798.961 64.9147H796.973V61.3867H798.961V64.9147ZM798.905 82.6667H797.057V67.7707H798.905V82.6667ZM809.75 82.9747C805.522 82.9747 802.666 79.8667 802.666 75.2187C802.666 70.5707 805.522 67.4627 809.75 67.4627C814.006 67.4627 816.834 70.5707 816.834 75.2187C816.834 79.8667 814.006 82.9747 809.75 82.9747ZM809.75 81.5747C812.97 81.5747 814.93 78.9987 814.93 75.2187C814.93 71.4387 812.97 68.8627 809.75 68.8627C806.53 68.8627 804.542 71.4387 804.542 75.2187C804.542 78.9987 806.53 81.5747 809.75 81.5747ZM827.181 67.4627C830.345 67.4627 832.473 69.8707 832.473 73.3707V73.4267V82.6667H830.625V73.7347V73.6787C830.625 70.4587 828.889 68.8627 826.509 68.8627C824.129 68.8627 822.393 70.4867 822.393 73.7067V82.6667H820.545V67.7707H822.393V70.8507C823.093 68.9467 824.717 67.4627 827.181 67.4627Z" fill="#202124"/>
</svg>
