<svg width="420" height="131" viewBox="0 0 420 131" fill="none" xmlns="http://www.w3.org/2000/svg">
<path d="M274.835 65.5C274.835 101.585 245.806 130.835 210 130.835C174.194 130.835 145.165 101.585 145.165 65.5C145.165 29.4153 174.194 0.165 210 0.165C245.806 0.165 274.835 29.4153 274.835 65.5Z" stroke="#FEFDFA" stroke-width="0.33"/>
<path d="M357.835 65.5C357.835 74.4897 353.719 83.0665 346.25 90.8816C338.78 98.6974 327.964 105.744 314.585 111.665C287.828 123.506 250.852 130.835 210 130.835C169.148 130.835 132.172 123.506 105.415 111.665C92.0362 105.744 81.2195 98.6974 73.7499 90.8816C66.281 83.0665 62.165 74.4897 62.165 65.5C62.165 56.5103 66.281 47.9335 73.7499 40.1184C81.2195 32.3026 92.0362 25.2564 105.415 19.3354C132.172 7.49353 169.148 0.165 210 0.165C250.852 0.165 287.828 7.49353 314.585 19.3354C327.964 25.2564 338.78 32.3026 346.25 40.1184C353.719 47.9335 357.835 56.5103 357.835 65.5Z" stroke="#FEFDFA" stroke-width="0.33"/>
<path d="M419.835 65.5C419.835 74.4666 414.008 83.0392 403.399 90.8628C392.793 98.6839 377.436 105.734 358.443 111.658C320.461 123.505 267.978 130.835 210 130.835C152.022 130.835 99.5394 123.505 61.5567 111.658C42.5644 105.734 27.2068 98.6839 16.6008 90.8628C5.99151 83.0392 0.165 74.4666 0.165 65.5C0.165 56.5334 5.99151 47.9608 16.6008 40.1372C27.2068 32.3161 42.5644 25.2658 61.5567 19.342C99.5394 7.49505 152.022 0.165 210 0.165C267.978 0.165 320.461 7.49505 358.443 19.342C377.436 25.2658 392.793 32.3161 403.399 40.1372C414.008 47.9608 419.835 56.5334 419.835 65.5Z" stroke="#FEFDFA" stroke-width="0.33"/>
</svg>
