<svg width="929" height="559" viewBox="0 0 929 559" fill="none" xmlns="http://www.w3.org/2000/svg">
<rect width="929" height="559" fill="#202124"/>
<rect x="204" y="410" width="519" height="27" fill="#FCF9F2"/>
<ellipse cx="724" cy="423.5" rx="8" ry="13.5" fill="#FCF9F2"/>
<path d="M211.5 423.5C211.5 427.154 210.621 430.438 209.227 432.791C207.826 435.155 205.961 436.5 204 436.5C202.039 436.5 200.174 435.155 198.773 432.791C197.379 430.438 196.5 427.154 196.5 423.5C196.5 419.846 197.379 416.562 198.773 414.209C200.174 411.845 202.039 410.5 204 410.5C205.961 410.5 207.826 411.845 209.227 414.209C210.621 416.562 211.5 419.846 211.5 423.5Z" fill="#202124" stroke="#FCF9F2"/>
<path d="M398.171 430V420.182H399.628V421.716H399.756C399.96 421.192 400.291 420.785 400.747 420.495C401.203 420.201 401.75 420.054 402.389 420.054C403.037 420.054 403.576 420.201 404.007 420.495C404.441 420.785 404.78 421.192 405.023 421.716H405.125C405.377 421.209 405.754 420.806 406.257 420.508C406.759 420.205 407.362 420.054 408.066 420.054C408.943 420.054 409.661 420.329 410.22 420.879C410.778 421.424 411.057 422.274 411.057 423.429V430H409.549V423.429C409.549 422.705 409.35 422.187 408.954 421.876C408.558 421.565 408.091 421.409 407.554 421.409C406.864 421.409 406.329 421.618 405.95 422.036C405.571 422.449 405.381 422.973 405.381 423.608V430H403.847V423.276C403.847 422.717 403.666 422.268 403.304 421.927C402.941 421.582 402.475 421.409 401.904 421.409C401.512 421.409 401.145 421.513 400.804 421.722C400.468 421.931 400.195 422.221 399.986 422.592C399.782 422.958 399.679 423.382 399.679 423.864V430H398.171ZM417.932 430.205C416.986 430.205 416.17 429.996 415.484 429.578C414.802 429.156 414.275 428.568 413.905 427.814C413.538 427.055 413.355 426.173 413.355 425.168C413.355 424.162 413.538 423.276 413.905 422.509C414.275 421.737 414.791 421.136 415.452 420.706C416.116 420.271 416.892 420.054 417.778 420.054C418.29 420.054 418.795 420.139 419.293 420.31C419.792 420.48 420.246 420.757 420.655 421.141C421.064 421.52 421.39 422.023 421.633 422.649C421.876 423.276 421.997 424.047 421.997 424.963V425.602H414.429V424.298H420.463C420.463 423.744 420.352 423.25 420.131 422.815C419.913 422.381 419.602 422.038 419.197 421.786C418.797 421.535 418.324 421.409 417.778 421.409C417.177 421.409 416.658 421.558 416.219 421.857C415.784 422.151 415.449 422.534 415.215 423.007C414.981 423.48 414.864 423.987 414.864 424.528V425.398C414.864 426.139 414.991 426.768 415.247 427.283C415.507 427.795 415.867 428.185 416.327 428.453C416.788 428.717 417.322 428.849 417.932 428.849C418.328 428.849 418.686 428.794 419.006 428.683C419.329 428.568 419.609 428.398 419.843 428.172C420.077 427.942 420.258 427.656 420.386 427.315L421.844 427.724C421.69 428.219 421.432 428.653 421.07 429.028C420.708 429.399 420.261 429.689 419.728 429.898C419.195 430.102 418.597 430.205 417.932 430.205ZM431.246 422.381L429.891 422.764C429.806 422.538 429.68 422.319 429.514 422.106C429.352 421.888 429.131 421.71 428.849 421.569C428.568 421.428 428.208 421.358 427.769 421.358C427.168 421.358 426.668 421.496 426.267 421.773C425.871 422.046 425.672 422.393 425.672 422.815C425.672 423.19 425.809 423.487 426.082 423.704C426.354 423.921 426.78 424.102 427.36 424.247L428.817 424.605C429.695 424.818 430.349 425.144 430.78 425.583C431.21 426.018 431.425 426.578 431.425 427.264C431.425 427.827 431.263 428.33 430.94 428.773C430.62 429.216 430.172 429.565 429.597 429.821C429.022 430.077 428.353 430.205 427.59 430.205C426.589 430.205 425.76 429.987 425.104 429.553C424.447 429.118 424.032 428.483 423.857 427.648L425.289 427.29C425.425 427.818 425.683 428.214 426.062 428.479C426.446 428.743 426.947 428.875 427.565 428.875C428.268 428.875 428.826 428.726 429.239 428.428C429.657 428.125 429.866 427.763 429.866 427.341C429.866 427 429.746 426.714 429.508 426.484C429.269 426.25 428.903 426.075 428.408 425.96L426.772 425.577C425.873 425.364 425.212 425.033 424.79 424.586C424.373 424.134 424.164 423.57 424.164 422.892C424.164 422.338 424.32 421.848 424.631 421.422C424.946 420.996 425.374 420.661 425.915 420.418C426.461 420.175 427.079 420.054 427.769 420.054C428.741 420.054 429.503 420.267 430.057 420.693C430.616 421.119 431.012 421.682 431.246 422.381ZM440.651 422.381L439.296 422.764C439.21 422.538 439.085 422.319 438.918 422.106C438.756 421.888 438.535 421.71 438.254 421.569C437.972 421.428 437.612 421.358 437.173 421.358C436.573 421.358 436.072 421.496 435.671 421.773C435.275 422.046 435.077 422.393 435.077 422.815C435.077 423.19 435.213 423.487 435.486 423.704C435.759 423.921 436.185 424.102 436.764 424.247L438.222 424.605C439.1 424.818 439.754 425.144 440.184 425.583C440.614 426.018 440.83 426.578 440.83 427.264C440.83 427.827 440.668 428.33 440.344 428.773C440.024 429.216 439.577 429.565 439.002 429.821C438.426 430.077 437.757 430.205 436.994 430.205C435.993 430.205 435.164 429.987 434.508 429.553C433.852 429.118 433.436 428.483 433.261 427.648L434.693 427.29C434.83 427.818 435.087 428.214 435.467 428.479C435.85 428.743 436.351 428.875 436.969 428.875C437.672 428.875 438.23 428.726 438.644 428.428C439.061 428.125 439.27 427.763 439.27 427.341C439.27 427 439.151 426.714 438.912 426.484C438.673 426.25 438.307 426.075 437.813 425.96L436.176 425.577C435.277 425.364 434.617 425.033 434.195 424.586C433.777 424.134 433.568 423.57 433.568 422.892C433.568 422.338 433.724 421.848 434.035 421.422C434.35 420.996 434.778 420.661 435.32 420.418C435.865 420.175 436.483 420.054 437.173 420.054C438.145 420.054 438.908 420.267 439.462 420.693C440.02 421.119 440.416 421.682 440.651 422.381ZM445.99 430.23C445.367 430.23 444.803 430.113 444.296 429.879C443.789 429.64 443.386 429.297 443.088 428.849C442.789 428.398 442.64 427.852 442.64 427.213C442.64 426.651 442.751 426.195 442.973 425.845C443.194 425.491 443.49 425.214 443.861 425.014C444.232 424.814 444.641 424.665 445.088 424.567C445.54 424.464 445.994 424.384 446.45 424.324C447.046 424.247 447.53 424.19 447.901 424.151C448.276 424.109 448.549 424.038 448.719 423.94C448.894 423.842 448.981 423.672 448.981 423.429V423.378C448.981 422.747 448.809 422.257 448.463 421.908C448.122 421.558 447.605 421.384 446.91 421.384C446.19 421.384 445.625 421.541 445.216 421.857C444.807 422.172 444.519 422.509 444.353 422.866L442.921 422.355C443.177 421.759 443.518 421.294 443.944 420.962C444.375 420.625 444.843 420.391 445.35 420.259C445.862 420.122 446.365 420.054 446.859 420.054C447.174 420.054 447.536 420.092 447.946 420.169C448.359 420.241 448.757 420.393 449.141 420.623C449.529 420.853 449.85 421.2 450.106 421.665C450.362 422.129 450.49 422.751 450.49 423.531V430H448.981V428.67H448.904C448.802 428.884 448.632 429.112 448.393 429.354C448.154 429.597 447.837 429.804 447.441 429.974C447.044 430.145 446.561 430.23 445.99 430.23ZM446.22 428.875C446.816 428.875 447.319 428.758 447.728 428.523C448.142 428.289 448.453 427.987 448.661 427.616C448.875 427.245 448.981 426.855 448.981 426.446V425.065C448.917 425.142 448.777 425.212 448.559 425.276C448.346 425.336 448.099 425.389 447.818 425.436C447.541 425.479 447.27 425.517 447.006 425.551C446.746 425.581 446.535 425.607 446.373 425.628C445.981 425.679 445.615 425.762 445.274 425.877C444.937 425.988 444.664 426.156 444.456 426.382C444.251 426.604 444.149 426.906 444.149 427.29C444.149 427.814 444.343 428.21 444.73 428.479C445.122 428.743 445.619 428.875 446.22 428.875ZM457.206 433.886C456.477 433.886 455.851 433.793 455.327 433.605C454.803 433.422 454.366 433.179 454.016 432.876C453.671 432.578 453.396 432.259 453.192 431.918L454.394 431.074C454.53 431.253 454.703 431.457 454.911 431.688C455.12 431.922 455.406 432.124 455.768 432.295C456.134 432.469 456.614 432.557 457.206 432.557C457.999 432.557 458.653 432.365 459.168 431.982C459.684 431.598 459.942 430.997 459.942 430.179V428.185H459.814C459.703 428.364 459.546 428.585 459.341 428.849C459.141 429.109 458.851 429.342 458.472 429.546C458.097 429.746 457.59 429.847 456.95 429.847C456.158 429.847 455.446 429.659 454.815 429.284C454.189 428.909 453.693 428.364 453.326 427.648C452.964 426.932 452.783 426.062 452.783 425.04C452.783 424.034 452.96 423.158 453.313 422.413C453.667 421.663 454.159 421.083 454.79 420.674C455.421 420.261 456.149 420.054 456.976 420.054C457.615 420.054 458.122 420.161 458.497 420.374C458.877 420.582 459.166 420.821 459.367 421.089C459.571 421.354 459.729 421.571 459.84 421.741H459.993V420.182H461.45V430.281C461.45 431.125 461.259 431.811 460.875 432.339C460.496 432.872 459.984 433.262 459.341 433.509C458.702 433.761 457.99 433.886 457.206 433.886ZM457.155 428.491C457.76 428.491 458.271 428.353 458.689 428.076C459.107 427.799 459.424 427.401 459.641 426.881C459.859 426.361 459.967 425.739 459.967 425.014C459.967 424.307 459.861 423.683 459.648 423.141C459.435 422.6 459.119 422.176 458.702 421.869C458.284 421.562 457.769 421.409 457.155 421.409C456.516 421.409 455.983 421.571 455.557 421.895C455.135 422.219 454.818 422.653 454.604 423.199C454.396 423.744 454.291 424.349 454.291 425.014C454.291 425.696 454.398 426.299 454.611 426.823C454.828 427.343 455.148 427.752 455.57 428.05C455.996 428.344 456.524 428.491 457.155 428.491ZM468.328 430.205C467.382 430.205 466.566 429.996 465.88 429.578C465.198 429.156 464.672 428.568 464.301 427.814C463.935 427.055 463.752 426.173 463.752 425.168C463.752 424.162 463.935 423.276 464.301 422.509C464.672 421.737 465.188 421.136 465.848 420.706C466.513 420.271 467.288 420.054 468.175 420.054C468.686 420.054 469.191 420.139 469.69 420.31C470.188 420.48 470.642 420.757 471.051 421.141C471.46 421.52 471.786 422.023 472.029 422.649C472.272 423.276 472.394 424.047 472.394 424.963V425.602H464.825V424.298H470.859C470.859 423.744 470.749 423.25 470.527 422.815C470.31 422.381 469.999 422.038 469.594 421.786C469.193 421.535 468.72 421.409 468.175 421.409C467.574 421.409 467.054 421.558 466.615 421.857C466.18 422.151 465.846 422.534 465.612 423.007C465.377 423.48 465.26 423.987 465.26 424.528V425.398C465.26 426.139 465.388 426.768 465.644 427.283C465.903 427.795 466.264 428.185 466.724 428.453C467.184 428.717 467.719 428.849 468.328 428.849C468.725 428.849 469.082 428.794 469.402 428.683C469.726 428.568 470.005 428.398 470.239 428.172C470.474 427.942 470.655 427.656 470.783 427.315L472.24 427.724C472.087 428.219 471.829 428.653 471.467 429.028C471.104 429.399 470.657 429.689 470.124 429.898C469.592 430.102 468.993 430.205 468.328 430.205ZM486.45 433.682V428.491H486.322C486.211 428.67 486.053 428.896 485.849 429.169C485.644 429.437 485.352 429.678 484.973 429.891C484.594 430.1 484.089 430.205 483.458 430.205C482.64 430.205 481.918 429.998 481.291 429.585C480.665 429.167 480.175 428.579 479.821 427.82C479.467 427.058 479.291 426.156 479.291 425.116C479.291 424.085 479.467 423.19 479.821 422.432C480.175 421.673 480.667 421.087 481.298 420.674C481.928 420.261 482.657 420.054 483.484 420.054C484.123 420.054 484.628 420.161 484.999 420.374C485.374 420.582 485.659 420.821 485.855 421.089C486.055 421.354 486.211 421.571 486.322 421.741H486.501V420.182H487.958V433.682H486.45ZM483.663 428.849C484.268 428.849 484.779 428.692 485.197 428.376C485.614 428.057 485.932 427.616 486.149 427.053C486.367 426.487 486.475 425.832 486.475 425.091C486.475 424.358 486.369 423.717 486.156 423.167C485.943 422.613 485.627 422.183 485.21 421.876C484.792 421.565 484.276 421.409 483.663 421.409C483.024 421.409 482.491 421.573 482.065 421.901C481.643 422.225 481.325 422.666 481.112 423.224C480.903 423.778 480.799 424.401 480.799 425.091C480.799 425.79 480.906 426.425 481.119 426.996C481.336 427.562 481.656 428.014 482.078 428.351C482.504 428.683 483.032 428.849 483.663 428.849ZM496.907 425.986V420.182H498.416V430H496.907V428.338H496.805C496.575 428.837 496.217 429.261 495.731 429.61C495.245 429.955 494.631 430.128 493.89 430.128C493.276 430.128 492.731 429.994 492.254 429.725C491.776 429.452 491.401 429.043 491.129 428.498C490.856 427.948 490.72 427.256 490.72 426.42V420.182H492.228V426.318C492.228 427.034 492.428 427.605 492.829 428.031C493.234 428.457 493.749 428.67 494.376 428.67C494.751 428.67 495.132 428.575 495.52 428.383C495.912 428.191 496.24 427.897 496.504 427.501C496.773 427.104 496.907 426.599 496.907 425.986ZM505.295 430.205C504.349 430.205 503.533 429.996 502.847 429.578C502.165 429.156 501.639 428.568 501.268 427.814C500.902 427.055 500.718 426.173 500.718 425.168C500.718 424.162 500.902 423.276 501.268 422.509C501.639 421.737 502.154 421.136 502.815 420.706C503.48 420.271 504.255 420.054 505.142 420.054C505.653 420.054 506.158 420.139 506.657 420.31C507.155 420.48 507.609 420.757 508.018 421.141C508.427 421.52 508.753 422.023 508.996 422.649C509.239 423.276 509.36 424.047 509.36 424.963V425.602H501.792V424.298H507.826C507.826 423.744 507.715 423.25 507.494 422.815C507.277 422.381 506.965 422.038 506.561 421.786C506.16 421.535 505.687 421.409 505.142 421.409C504.541 421.409 504.021 421.558 503.582 421.857C503.147 422.151 502.813 422.534 502.578 423.007C502.344 423.48 502.227 423.987 502.227 424.528V425.398C502.227 426.139 502.355 426.768 502.61 427.283C502.87 427.795 503.23 428.185 503.691 428.453C504.151 428.717 504.686 428.849 505.295 428.849C505.691 428.849 506.049 428.794 506.369 428.683C506.693 428.568 506.972 428.398 507.206 428.172C507.441 427.942 507.622 427.656 507.75 427.315L509.207 427.724C509.054 428.219 508.796 428.653 508.434 429.028C508.071 429.399 507.624 429.689 507.091 429.898C506.559 430.102 505.96 430.205 505.295 430.205ZM517.843 425.986V420.182H519.351V430H517.843V428.338H517.74C517.51 428.837 517.152 429.261 516.666 429.61C516.181 429.955 515.567 430.128 514.826 430.128C514.212 430.128 513.666 429.994 513.189 429.725C512.712 429.452 512.337 429.043 512.064 428.498C511.791 427.948 511.655 427.256 511.655 426.42V420.182H513.164V426.318C513.164 427.034 513.364 427.605 513.764 428.031C514.169 428.457 514.685 428.67 515.311 428.67C515.686 428.67 516.068 428.575 516.456 428.383C516.848 428.191 517.176 427.897 517.44 427.501C517.708 427.104 517.843 426.599 517.843 425.986ZM526.231 430.205C525.285 430.205 524.468 429.996 523.782 429.578C523.101 429.156 522.574 428.568 522.204 427.814C521.837 427.055 521.654 426.173 521.654 425.168C521.654 424.162 521.837 423.276 522.204 422.509C522.574 421.737 523.09 421.136 523.75 420.706C524.415 420.271 525.191 420.054 526.077 420.054C526.589 420.054 527.093 420.139 527.592 420.31C528.091 420.48 528.544 420.757 528.954 421.141C529.363 421.52 529.689 422.023 529.932 422.649C530.174 423.276 530.296 424.047 530.296 424.963V425.602H522.728V424.298H528.762C528.762 423.744 528.651 423.25 528.429 422.815C528.212 422.381 527.901 422.038 527.496 421.786C527.096 421.535 526.623 421.409 526.077 421.409C525.476 421.409 524.956 421.558 524.517 421.857C524.083 422.151 523.748 422.534 523.514 423.007C523.28 423.48 523.162 423.987 523.162 424.528V425.398C523.162 426.139 523.29 426.768 523.546 427.283C523.806 427.795 524.166 428.185 524.626 428.453C525.086 428.717 525.621 428.849 526.231 428.849C526.627 428.849 526.985 428.794 527.304 428.683C527.628 428.568 527.907 428.398 528.142 428.172C528.376 427.942 528.557 427.656 528.685 427.315L530.142 427.724C529.989 428.219 529.731 428.653 529.369 429.028C529.007 429.399 528.559 429.689 528.027 429.898C527.494 430.102 526.895 430.205 526.231 430.205Z" fill="#202124"/>
<g clip-path="url(#clip0_460_139)">
<circle cx="335.5" cy="231.5" r="10.5" fill="#FCF9F2"/>
<path fill-rule="evenodd" clip-rule="evenodd" d="M335.573 223.821L342.732 235.893H328.414L335.573 223.821Z" fill="#202124"/>
</g>
<path d="M365.744 229.182C365.668 228.534 365.357 228.031 364.811 227.673C364.266 227.315 363.597 227.136 362.804 227.136C362.224 227.136 361.717 227.23 361.283 227.418C360.852 227.605 360.516 227.863 360.273 228.191C360.034 228.519 359.915 228.892 359.915 229.31C359.915 229.659 359.998 229.96 360.164 230.211C360.335 230.458 360.552 230.665 360.816 230.831C361.08 230.993 361.357 231.127 361.647 231.234C361.937 231.336 362.203 231.419 362.446 231.483L363.776 231.841C364.116 231.93 364.496 232.054 364.913 232.212C365.335 232.369 365.738 232.585 366.121 232.857C366.509 233.126 366.829 233.471 367.08 233.893C367.332 234.315 367.457 234.832 367.457 235.446C367.457 236.153 367.272 236.793 366.901 237.364C366.535 237.935 365.998 238.388 365.29 238.725C364.587 239.062 363.733 239.23 362.727 239.23C361.79 239.23 360.978 239.079 360.292 238.776C359.61 238.474 359.073 238.052 358.681 237.511C358.293 236.969 358.074 236.341 358.023 235.625H359.659C359.702 236.119 359.868 236.528 360.158 236.852C360.452 237.172 360.822 237.411 361.27 237.568C361.722 237.722 362.207 237.798 362.727 237.798C363.332 237.798 363.876 237.7 364.357 237.504C364.839 237.304 365.22 237.027 365.501 236.673C365.783 236.315 365.923 235.898 365.923 235.42C365.923 234.986 365.802 234.632 365.559 234.359C365.316 234.087 364.996 233.865 364.6 233.695C364.204 233.524 363.776 233.375 363.315 233.247L361.705 232.787C360.682 232.493 359.872 232.073 359.276 231.528C358.679 230.982 358.381 230.268 358.381 229.386C358.381 228.653 358.579 228.014 358.975 227.469C359.376 226.919 359.913 226.493 360.586 226.19C361.263 225.884 362.02 225.73 362.855 225.73C363.699 225.73 364.449 225.881 365.105 226.184C365.761 226.482 366.281 226.891 366.665 227.411C367.053 227.931 367.257 228.521 367.278 229.182H365.744ZM373.976 239.205C373.03 239.205 372.214 238.996 371.528 238.578C370.846 238.156 370.319 237.568 369.949 236.814C369.582 236.055 369.399 235.173 369.399 234.168C369.399 233.162 369.582 232.276 369.949 231.509C370.319 230.737 370.835 230.136 371.496 229.706C372.16 229.271 372.936 229.054 373.822 229.054C374.334 229.054 374.839 229.139 375.337 229.31C375.836 229.48 376.29 229.757 376.699 230.141C377.108 230.52 377.434 231.023 377.677 231.649C377.92 232.276 378.041 233.047 378.041 233.963V234.602H370.473V233.298H376.507C376.507 232.744 376.396 232.25 376.175 231.815C375.957 231.381 375.646 231.038 375.241 230.786C374.841 230.535 374.368 230.409 373.822 230.409C373.221 230.409 372.702 230.558 372.263 230.857C371.828 231.151 371.493 231.534 371.259 232.007C371.025 232.48 370.907 232.987 370.907 233.528V234.398C370.907 235.139 371.035 235.768 371.291 236.283C371.551 236.795 371.911 237.185 372.371 237.453C372.831 237.717 373.366 237.849 373.976 237.849C374.372 237.849 374.73 237.794 375.05 237.683C375.373 237.568 375.653 237.398 375.887 237.172C376.121 236.942 376.302 236.656 376.43 236.315L377.888 236.724C377.734 237.219 377.476 237.653 377.114 238.028C376.752 238.399 376.305 238.689 375.772 238.898C375.239 239.102 374.64 239.205 373.976 239.205ZM380.336 239V229.182H381.793V230.665H381.895C382.074 230.179 382.398 229.785 382.867 229.482C383.336 229.18 383.864 229.028 384.452 229.028C384.563 229.028 384.702 229.031 384.868 229.035C385.034 229.039 385.16 229.045 385.245 229.054V230.588C385.194 230.575 385.077 230.556 384.893 230.531C384.714 230.501 384.525 230.486 384.324 230.486C383.847 230.486 383.421 230.586 383.046 230.786C382.675 230.982 382.381 231.255 382.164 231.604C381.951 231.95 381.844 232.344 381.844 232.787V239H380.336ZM395.36 229.182L391.73 239H390.195L386.565 229.182H388.201L390.911 237.006H391.014L393.724 229.182H395.36ZM397.351 239V229.182H398.86V239H397.351ZM398.118 227.545C397.824 227.545 397.571 227.445 397.358 227.245C397.149 227.045 397.045 226.804 397.045 226.523C397.045 226.241 397.149 226.001 397.358 225.8C397.571 225.6 397.824 225.5 398.118 225.5C398.412 225.5 398.664 225.6 398.873 225.8C399.086 226.001 399.192 226.241 399.192 226.523C399.192 226.804 399.086 227.045 398.873 227.245C398.664 227.445 398.412 227.545 398.118 227.545ZM405.612 239.205C404.691 239.205 403.898 238.987 403.234 238.553C402.569 238.118 402.058 237.519 401.7 236.756C401.342 235.994 401.163 235.122 401.163 234.142C401.163 233.145 401.346 232.265 401.712 231.502C402.083 230.735 402.599 230.136 403.259 229.706C403.924 229.271 404.7 229.054 405.586 229.054C406.276 229.054 406.898 229.182 407.452 229.438C408.006 229.693 408.46 230.051 408.814 230.511C409.168 230.972 409.387 231.509 409.472 232.122H407.964C407.849 231.675 407.593 231.278 407.197 230.933C406.805 230.584 406.276 230.409 405.612 230.409C405.023 230.409 404.508 230.562 404.065 230.869C403.626 231.172 403.283 231.6 403.036 232.154C402.793 232.704 402.671 233.349 402.671 234.091C402.671 234.849 402.79 235.51 403.029 236.072C403.272 236.635 403.613 237.072 404.052 237.383C404.495 237.694 405.015 237.849 405.612 237.849C406.004 237.849 406.359 237.781 406.679 237.645C406.999 237.509 407.269 237.312 407.491 237.057C407.712 236.801 407.87 236.494 407.964 236.136H409.472C409.387 236.716 409.176 237.238 408.839 237.702C408.507 238.163 408.066 238.529 407.516 238.802C406.971 239.07 406.336 239.205 405.612 239.205ZM415.794 239.205C414.848 239.205 414.032 238.996 413.346 238.578C412.664 238.156 412.138 237.568 411.767 236.814C411.401 236.055 411.217 235.173 411.217 234.168C411.217 233.162 411.401 232.276 411.767 231.509C412.138 230.737 412.653 230.136 413.314 229.706C413.979 229.271 414.754 229.054 415.641 229.054C416.152 229.054 416.657 229.139 417.156 229.31C417.654 229.48 418.108 229.757 418.517 230.141C418.926 230.52 419.252 231.023 419.495 231.649C419.738 232.276 419.859 233.047 419.859 233.963V234.602H412.291V233.298H418.325C418.325 232.744 418.214 232.25 417.993 231.815C417.776 231.381 417.464 231.038 417.06 230.786C416.659 230.535 416.186 230.409 415.641 230.409C415.04 230.409 414.52 230.558 414.081 230.857C413.646 231.151 413.312 231.534 413.077 232.007C412.843 232.48 412.726 232.987 412.726 233.528V234.398C412.726 235.139 412.854 235.768 413.109 236.283C413.369 236.795 413.729 237.185 414.19 237.453C414.65 237.717 415.185 237.849 415.794 237.849C416.19 237.849 416.548 237.794 416.868 237.683C417.192 237.568 417.471 237.398 417.705 237.172C417.94 236.942 418.121 236.656 418.249 236.315L419.706 236.724C419.553 237.219 419.295 237.653 418.933 238.028C418.57 238.399 418.123 238.689 417.59 238.898C417.058 239.102 416.459 239.205 415.794 239.205Z" fill="white"/>
<g clip-path="url(#clip1_460_139)">
<circle cx="493.5" cy="231.5" r="10.5" fill="#FCF9F2"/>
<path fill-rule="evenodd" clip-rule="evenodd" d="M493.573 223.821L500.732 235.893H486.414L493.573 223.821Z" fill="#202124"/>
</g>
<path d="M523.744 229.182C523.668 228.534 523.357 228.031 522.811 227.673C522.266 227.315 521.597 227.136 520.804 227.136C520.224 227.136 519.717 227.23 519.283 227.418C518.852 227.605 518.516 227.863 518.273 228.191C518.034 228.519 517.915 228.892 517.915 229.31C517.915 229.659 517.998 229.96 518.164 230.211C518.335 230.458 518.552 230.665 518.816 230.831C519.08 230.993 519.357 231.127 519.647 231.234C519.937 231.336 520.203 231.419 520.446 231.483L521.776 231.841C522.116 231.93 522.496 232.054 522.913 232.212C523.335 232.369 523.738 232.585 524.121 232.857C524.509 233.126 524.829 233.471 525.08 233.893C525.332 234.315 525.457 234.832 525.457 235.446C525.457 236.153 525.272 236.793 524.901 237.364C524.535 237.935 523.998 238.388 523.29 238.725C522.587 239.062 521.733 239.23 520.727 239.23C519.79 239.23 518.978 239.079 518.292 238.776C517.61 238.474 517.073 238.052 516.681 237.511C516.293 236.969 516.074 236.341 516.023 235.625H517.659C517.702 236.119 517.868 236.528 518.158 236.852C518.452 237.172 518.822 237.411 519.27 237.568C519.722 237.722 520.207 237.798 520.727 237.798C521.332 237.798 521.876 237.7 522.357 237.504C522.839 237.304 523.22 237.027 523.501 236.673C523.783 236.315 523.923 235.898 523.923 235.42C523.923 234.986 523.802 234.632 523.559 234.359C523.316 234.087 522.996 233.865 522.6 233.695C522.204 233.524 521.776 233.375 521.315 233.247L519.705 232.787C518.682 232.493 517.872 232.073 517.276 231.528C516.679 230.982 516.381 230.268 516.381 229.386C516.381 228.653 516.579 228.014 516.975 227.469C517.376 226.919 517.913 226.493 518.586 226.19C519.263 225.884 520.02 225.73 520.855 225.73C521.699 225.73 522.449 225.881 523.105 226.184C523.761 226.482 524.281 226.891 524.665 227.411C525.053 227.931 525.257 228.521 525.278 229.182H523.744ZM531.976 239.205C531.03 239.205 530.214 238.996 529.528 238.578C528.846 238.156 528.319 237.568 527.949 236.814C527.582 236.055 527.399 235.173 527.399 234.168C527.399 233.162 527.582 232.276 527.949 231.509C528.319 230.737 528.835 230.136 529.496 229.706C530.16 229.271 530.936 229.054 531.822 229.054C532.334 229.054 532.839 229.139 533.337 229.31C533.836 229.48 534.29 229.757 534.699 230.141C535.108 230.52 535.434 231.023 535.677 231.649C535.92 232.276 536.041 233.047 536.041 233.963V234.602H528.473V233.298H534.507C534.507 232.744 534.396 232.25 534.175 231.815C533.957 231.381 533.646 231.038 533.241 230.786C532.841 230.535 532.368 230.409 531.822 230.409C531.221 230.409 530.702 230.558 530.263 230.857C529.828 231.151 529.493 231.534 529.259 232.007C529.025 232.48 528.907 232.987 528.907 233.528V234.398C528.907 235.139 529.035 235.768 529.291 236.283C529.551 236.795 529.911 237.185 530.371 237.453C530.831 237.717 531.366 237.849 531.976 237.849C532.372 237.849 532.73 237.794 533.05 237.683C533.373 237.568 533.653 237.398 533.887 237.172C534.121 236.942 534.302 236.656 534.43 236.315L535.888 236.724C535.734 237.219 535.476 237.653 535.114 238.028C534.752 238.399 534.305 238.689 533.772 238.898C533.239 239.102 532.64 239.205 531.976 239.205ZM538.336 239V229.182H539.793V230.665H539.895C540.074 230.179 540.398 229.785 540.867 229.482C541.336 229.18 541.864 229.028 542.452 229.028C542.563 229.028 542.702 229.031 542.868 229.035C543.034 229.039 543.16 229.045 543.245 229.054V230.588C543.194 230.575 543.077 230.556 542.893 230.531C542.714 230.501 542.525 230.486 542.324 230.486C541.847 230.486 541.421 230.586 541.046 230.786C540.675 230.982 540.381 231.255 540.164 231.604C539.951 231.95 539.844 232.344 539.844 232.787V239H538.336ZM553.36 229.182L549.73 239H548.195L544.565 229.182H546.201L548.911 237.006H549.014L551.724 229.182H553.36ZM555.351 239V229.182H556.86V239H555.351ZM556.118 227.545C555.824 227.545 555.571 227.445 555.358 227.245C555.149 227.045 555.045 226.804 555.045 226.523C555.045 226.241 555.149 226.001 555.358 225.8C555.571 225.6 555.824 225.5 556.118 225.5C556.412 225.5 556.664 225.6 556.873 225.8C557.086 226.001 557.192 226.241 557.192 226.523C557.192 226.804 557.086 227.045 556.873 227.245C556.664 227.445 556.412 227.545 556.118 227.545ZM563.612 239.205C562.691 239.205 561.898 238.987 561.234 238.553C560.569 238.118 560.058 237.519 559.7 236.756C559.342 235.994 559.163 235.122 559.163 234.142C559.163 233.145 559.346 232.265 559.712 231.502C560.083 230.735 560.599 230.136 561.259 229.706C561.924 229.271 562.7 229.054 563.586 229.054C564.276 229.054 564.898 229.182 565.452 229.438C566.006 229.693 566.46 230.051 566.814 230.511C567.168 230.972 567.387 231.509 567.472 232.122H565.964C565.849 231.675 565.593 231.278 565.197 230.933C564.805 230.584 564.276 230.409 563.612 230.409C563.023 230.409 562.508 230.562 562.065 230.869C561.626 231.172 561.283 231.6 561.036 232.154C560.793 232.704 560.671 233.349 560.671 234.091C560.671 234.849 560.79 235.51 561.029 236.072C561.272 236.635 561.613 237.072 562.052 237.383C562.495 237.694 563.015 237.849 563.612 237.849C564.004 237.849 564.359 237.781 564.679 237.645C564.999 237.509 565.269 237.312 565.491 237.057C565.712 236.801 565.87 236.494 565.964 236.136H567.472C567.387 236.716 567.176 237.238 566.839 237.702C566.507 238.163 566.066 238.529 565.516 238.802C564.971 239.07 564.336 239.205 563.612 239.205ZM573.794 239.205C572.848 239.205 572.032 238.996 571.346 238.578C570.664 238.156 570.138 237.568 569.767 236.814C569.401 236.055 569.217 235.173 569.217 234.168C569.217 233.162 569.401 232.276 569.767 231.509C570.138 230.737 570.653 230.136 571.314 229.706C571.979 229.271 572.754 229.054 573.641 229.054C574.152 229.054 574.657 229.139 575.156 229.31C575.654 229.48 576.108 229.757 576.517 230.141C576.926 230.52 577.252 231.023 577.495 231.649C577.738 232.276 577.859 233.047 577.859 233.963V234.602H570.291V233.298H576.325C576.325 232.744 576.214 232.25 575.993 231.815C575.776 231.381 575.464 231.038 575.06 230.786C574.659 230.535 574.186 230.409 573.641 230.409C573.04 230.409 572.52 230.558 572.081 230.857C571.646 231.151 571.312 231.534 571.077 232.007C570.843 232.48 570.726 232.987 570.726 233.528V234.398C570.726 235.139 570.854 235.768 571.109 236.283C571.369 236.795 571.729 237.185 572.19 237.453C572.65 237.717 573.185 237.849 573.794 237.849C574.19 237.849 574.548 237.794 574.868 237.683C575.192 237.568 575.471 237.398 575.705 237.172C575.94 236.942 576.121 236.656 576.249 236.315L577.706 236.724C577.553 237.219 577.295 237.653 576.933 238.028C576.57 238.399 576.123 238.689 575.59 238.898C575.058 239.102 574.459 239.205 573.794 239.205Z" fill="white"/>
<g clip-path="url(#clip2_460_139)">
<circle cx="434.5" cy="134.5" r="10.5" fill="#FCF9F2"/>
<g clip-path="url(#clip3_460_139)">
<path d="M431.708 138.01C431.697 137.992 431.688 137.974 431.68 137.954C431.623 137.826 431.605 137.685 431.629 137.547H428.262L433.266 128.98L434.909 131.789L435.386 130.969L433.953 128.515C433.885 128.389 433.785 128.282 433.663 128.204C433.541 128.125 433.4 128.078 433.254 128.066C433.109 128.072 432.968 128.118 432.848 128.199C432.728 128.279 432.634 128.391 432.576 128.52L427.506 137.192C427.43 137.314 427.387 137.453 427.379 137.596C427.371 137.738 427.4 137.881 427.462 138.01C427.54 138.13 427.65 138.226 427.782 138.287C427.913 138.349 428.059 138.374 428.204 138.358H432.45C432.305 138.374 432.159 138.349 432.028 138.288C431.897 138.226 431.786 138.13 431.708 138.01Z" fill="#00C492"/>
<path d="M441.471 137.192L437.305 130.052C437.236 129.925 437.136 129.817 437.014 129.738C436.891 129.658 436.75 129.61 436.603 129.598C436.457 129.604 436.317 129.649 436.197 129.73C436.077 129.81 435.982 129.921 435.925 130.051L435.386 130.969L435.865 131.789L436.607 130.512L440.729 137.547H439.161C439.182 137.663 439.17 137.783 439.129 137.894C439.12 137.918 439.109 137.942 439.096 137.964L439.083 137.99C438.998 138.107 438.884 138.202 438.752 138.266C438.621 138.331 438.475 138.362 438.327 138.358H440.779C440.927 138.362 441.073 138.331 441.204 138.267C441.336 138.202 441.45 138.107 441.535 137.99C441.602 137.865 441.631 137.723 441.62 137.582C441.609 137.441 441.557 137.306 441.471 137.192Z" fill="#008776"/>
<path d="M439.083 137.99L439.096 137.964C439.109 137.942 439.12 137.918 439.129 137.894C439.17 137.783 439.182 137.663 439.161 137.547C439.138 137.422 439.092 137.301 439.025 137.192L435.868 131.789L435.386 130.969L434.906 131.789L431.751 137.192C431.69 137.303 431.649 137.423 431.629 137.547C431.604 137.684 431.62 137.826 431.675 137.954C431.684 137.974 431.693 137.993 431.704 138.011C431.782 138.13 431.893 138.226 432.024 138.288C432.155 138.349 432.301 138.374 432.446 138.359H438.323C438.471 138.363 438.618 138.331 438.75 138.267C438.883 138.203 438.997 138.108 439.083 137.99ZM435.386 132.609L438.271 137.547H432.502L435.386 132.609Z" fill="#2D4A5D"/>
</g>
</g>
<path d="M467.966 127.909V141H466.432L459.298 130.722H459.17V141H457.585V127.909H459.119L466.278 138.213H466.406V127.909H467.966ZM477.121 136.986V131.182H478.629V141H477.121V139.338H477.019C476.789 139.837 476.431 140.261 475.945 140.61C475.459 140.955 474.845 141.128 474.104 141.128C473.49 141.128 472.945 140.994 472.468 140.725C471.99 140.452 471.615 140.043 471.343 139.498C471.07 138.948 470.933 138.256 470.933 137.42V131.182H472.442V137.318C472.442 138.034 472.642 138.605 473.043 139.031C473.448 139.457 473.963 139.67 474.59 139.67C474.965 139.67 475.346 139.575 475.734 139.383C476.126 139.191 476.454 138.897 476.718 138.501C476.987 138.104 477.121 137.599 477.121 136.986ZM482.517 131.182L484.87 135.196L487.222 131.182H488.961L485.79 136.091L488.961 141H487.222L484.87 137.19L482.517 141H480.779L483.898 136.091L480.779 131.182H482.517ZM495.383 131.182V132.46H490.295V131.182H495.383ZM491.778 128.83H493.286V138.188C493.286 138.614 493.348 138.933 493.472 139.146C493.6 139.355 493.762 139.496 493.958 139.568C494.158 139.636 494.369 139.67 494.59 139.67C494.757 139.67 494.893 139.662 494.999 139.645C495.106 139.624 495.191 139.607 495.255 139.594L495.562 140.949C495.46 140.987 495.317 141.026 495.134 141.064C494.95 141.107 494.718 141.128 494.437 141.128C494.011 141.128 493.593 141.036 493.184 140.853C492.779 140.67 492.443 140.391 492.174 140.016C491.91 139.641 491.778 139.168 491.778 138.597V128.83Z" fill="white"/>
<g clip-path="url(#clip4_460_139)">
<circle cx="252.5" cy="330.5" r="10.5" fill="#FCF9F2"/>
<g clip-path="url(#clip5_460_139)">
<path d="M253.791 337.339C253.423 337.789 252.677 337.542 252.669 336.967L252.539 328.556H258.353C259.406 328.556 259.994 329.739 259.339 330.541L253.791 337.339Z" fill="url(#paint0_linear_460_139)"/>
<path d="M253.791 337.339C253.423 337.789 252.677 337.542 252.669 336.967L252.539 328.556H258.353C259.406 328.556 259.994 329.739 259.339 330.541L253.791 337.339Z" fill="url(#paint1_linear_460_139)" fill-opacity="0.2"/>
<path d="M251.426 323.804C251.794 323.354 252.539 323.601 252.548 324.176L252.605 332.587H246.863C245.81 332.587 245.223 331.404 245.878 330.602L251.426 323.804Z" fill="#3ECF8E"/>
</g>
</g>
<path d="M282.744 327.182C282.668 326.534 282.357 326.031 281.811 325.673C281.266 325.315 280.597 325.136 279.804 325.136C279.224 325.136 278.717 325.23 278.283 325.418C277.852 325.605 277.516 325.863 277.273 326.191C277.034 326.519 276.915 326.892 276.915 327.31C276.915 327.659 276.998 327.96 277.164 328.211C277.335 328.458 277.552 328.665 277.816 328.831C278.08 328.993 278.357 329.127 278.647 329.234C278.937 329.336 279.203 329.419 279.446 329.483L280.776 329.841C281.116 329.93 281.496 330.054 281.913 330.212C282.335 330.369 282.738 330.585 283.121 330.857C283.509 331.126 283.829 331.471 284.08 331.893C284.332 332.315 284.457 332.832 284.457 333.446C284.457 334.153 284.272 334.793 283.901 335.364C283.535 335.935 282.998 336.388 282.29 336.725C281.587 337.062 280.733 337.23 279.727 337.23C278.79 337.23 277.978 337.079 277.292 336.776C276.61 336.474 276.073 336.052 275.681 335.511C275.293 334.969 275.074 334.341 275.023 333.625H276.659C276.702 334.119 276.868 334.528 277.158 334.852C277.452 335.172 277.822 335.411 278.27 335.568C278.722 335.722 279.207 335.798 279.727 335.798C280.332 335.798 280.876 335.7 281.357 335.504C281.839 335.304 282.22 335.027 282.501 334.673C282.783 334.315 282.923 333.898 282.923 333.42C282.923 332.986 282.802 332.632 282.559 332.359C282.316 332.087 281.996 331.865 281.6 331.695C281.204 331.524 280.776 331.375 280.315 331.247L278.705 330.787C277.682 330.493 276.872 330.073 276.276 329.528C275.679 328.982 275.381 328.268 275.381 327.386C275.381 326.653 275.579 326.014 275.975 325.469C276.376 324.919 276.913 324.493 277.586 324.19C278.263 323.884 279.02 323.73 279.855 323.73C280.699 323.73 281.449 323.881 282.105 324.184C282.761 324.482 283.281 324.891 283.665 325.411C284.053 325.931 284.257 326.521 284.278 327.182H282.744ZM293.047 332.986V327.182H294.555V337H293.047V335.338H292.944C292.714 335.837 292.356 336.261 291.871 336.61C291.385 336.955 290.771 337.128 290.03 337.128C289.416 337.128 288.871 336.994 288.393 336.725C287.916 336.452 287.541 336.043 287.268 335.498C286.996 334.948 286.859 334.256 286.859 333.42V327.182H288.368V333.318C288.368 334.034 288.568 334.605 288.969 335.031C289.373 335.457 289.889 335.67 290.515 335.67C290.89 335.67 291.272 335.575 291.66 335.383C292.052 335.191 292.38 334.897 292.644 334.501C292.912 334.104 293.047 333.599 293.047 332.986ZM297.523 337V323.909H299.031V328.741H299.159C299.27 328.571 299.423 328.354 299.619 328.089C299.82 327.821 300.105 327.582 300.476 327.374C300.851 327.161 301.358 327.054 301.997 327.054C302.824 327.054 303.553 327.261 304.183 327.674C304.814 328.087 305.306 328.673 305.66 329.432C306.013 330.19 306.19 331.085 306.19 332.116C306.19 333.156 306.013 334.058 305.66 334.82C305.306 335.579 304.816 336.167 304.19 336.585C303.563 336.998 302.841 337.205 302.023 337.205C301.392 337.205 300.887 337.1 300.508 336.891C300.129 336.678 299.837 336.437 299.632 336.169C299.428 335.896 299.27 335.67 299.159 335.491H298.98V337H297.523ZM299.006 332.091C299.006 332.832 299.114 333.487 299.332 334.053C299.549 334.616 299.866 335.057 300.284 335.376C300.702 335.692 301.213 335.849 301.818 335.849C302.449 335.849 302.975 335.683 303.397 335.351C303.823 335.014 304.143 334.562 304.356 333.996C304.573 333.425 304.682 332.79 304.682 332.091C304.682 331.401 304.575 330.778 304.362 330.224C304.153 329.666 303.836 329.225 303.41 328.901C302.988 328.573 302.457 328.409 301.818 328.409C301.205 328.409 300.689 328.565 300.271 328.876C299.854 329.183 299.538 329.613 299.325 330.167C299.112 330.717 299.006 331.358 299.006 332.091ZM317.268 337.205C316.45 337.205 315.727 336.998 315.101 336.585C314.474 336.167 313.984 335.579 313.631 334.82C313.277 334.058 313.1 333.156 313.1 332.116C313.1 331.085 313.277 330.19 313.631 329.432C313.984 328.673 314.477 328.087 315.107 327.674C315.738 327.261 316.467 327.054 317.293 327.054C317.933 327.054 318.438 327.161 318.808 327.374C319.183 327.582 319.469 327.821 319.665 328.089C319.865 328.354 320.021 328.571 320.131 328.741H320.259V323.909H321.768V337H320.31V335.491H320.131C320.021 335.67 319.863 335.896 319.658 336.169C319.454 336.437 319.162 336.678 318.783 336.891C318.403 337.1 317.898 337.205 317.268 337.205ZM317.472 335.849C318.077 335.849 318.589 335.692 319.006 335.376C319.424 335.057 319.741 334.616 319.959 334.053C320.176 333.487 320.285 332.832 320.285 332.091C320.285 331.358 320.178 330.717 319.965 330.167C319.752 329.613 319.437 329.183 319.019 328.876C318.602 328.565 318.086 328.409 317.472 328.409C316.833 328.409 316.3 328.573 315.874 328.901C315.452 329.225 315.135 329.666 314.922 330.224C314.713 330.778 314.609 331.401 314.609 332.091C314.609 332.79 314.715 333.425 314.928 333.996C315.146 334.562 315.465 335.014 315.887 335.351C316.313 335.683 316.842 335.849 317.472 335.849ZM324.945 337V323.909H326.453V328.741H326.581C326.692 328.571 326.845 328.354 327.041 328.089C327.241 327.821 327.527 327.582 327.898 327.374C328.273 327.161 328.78 327.054 329.419 327.054C330.246 327.054 330.974 327.261 331.605 327.674C332.236 328.087 332.728 328.673 333.082 329.432C333.435 330.19 333.612 331.085 333.612 332.116C333.612 333.156 333.435 334.058 333.082 334.82C332.728 335.579 332.238 336.167 331.612 336.585C330.985 336.998 330.263 337.205 329.445 337.205C328.814 337.205 328.309 337.1 327.93 336.891C327.55 336.678 327.259 336.437 327.054 336.169C326.849 335.896 326.692 335.67 326.581 335.491H326.402V337H324.945ZM326.428 332.091C326.428 332.832 326.536 333.487 326.754 334.053C326.971 334.616 327.288 335.057 327.706 335.376C328.124 335.692 328.635 335.849 329.24 335.849C329.871 335.849 330.397 335.683 330.819 335.351C331.245 335.014 331.565 334.562 331.778 333.996C331.995 333.425 332.104 332.79 332.104 332.091C332.104 331.401 331.997 330.778 331.784 330.224C331.575 329.666 331.258 329.225 330.832 328.901C330.41 328.573 329.879 328.409 329.24 328.409C328.626 328.409 328.111 328.565 327.693 328.876C327.276 329.183 326.96 329.613 326.747 330.167C326.534 330.717 326.428 331.358 326.428 332.091Z" fill="white"/>
<g clip-path="url(#clip6_460_139)">
<circle cx="410.5" cy="330.5" r="10.5" fill="#FCF9F2"/>
<g clip-path="url(#clip7_460_139)">
<path d="M411.791 337.339C411.423 337.789 410.677 337.542 410.669 336.967L410.539 328.556H416.353C417.406 328.556 417.994 329.739 417.339 330.541L411.791 337.339Z" fill="url(#paint2_linear_460_139)"/>
<path d="M411.791 337.339C411.423 337.789 410.677 337.542 410.669 336.967L410.539 328.556H416.353C417.406 328.556 417.994 329.739 417.339 330.541L411.791 337.339Z" fill="url(#paint3_linear_460_139)" fill-opacity="0.2"/>
<path d="M409.426 323.804C409.794 323.354 410.539 323.601 410.548 324.176L410.605 332.587H404.863C403.81 332.587 403.223 331.404 403.878 330.602L409.426 323.804Z" fill="#3ECF8E"/>
</g>
</g>
<path d="M440.744 327.182C440.668 326.534 440.357 326.031 439.811 325.673C439.266 325.315 438.597 325.136 437.804 325.136C437.224 325.136 436.717 325.23 436.283 325.418C435.852 325.605 435.516 325.863 435.273 326.191C435.034 326.519 434.915 326.892 434.915 327.31C434.915 327.659 434.998 327.96 435.164 328.211C435.335 328.458 435.552 328.665 435.816 328.831C436.08 328.993 436.357 329.127 436.647 329.234C436.937 329.336 437.203 329.419 437.446 329.483L438.776 329.841C439.116 329.93 439.496 330.054 439.913 330.212C440.335 330.369 440.738 330.585 441.121 330.857C441.509 331.126 441.829 331.471 442.08 331.893C442.332 332.315 442.457 332.832 442.457 333.446C442.457 334.153 442.272 334.793 441.901 335.364C441.535 335.935 440.998 336.388 440.29 336.725C439.587 337.062 438.733 337.23 437.727 337.23C436.79 337.23 435.978 337.079 435.292 336.776C434.61 336.474 434.073 336.052 433.681 335.511C433.293 334.969 433.074 334.341 433.023 333.625H434.659C434.702 334.119 434.868 334.528 435.158 334.852C435.452 335.172 435.822 335.411 436.27 335.568C436.722 335.722 437.207 335.798 437.727 335.798C438.332 335.798 438.876 335.7 439.357 335.504C439.839 335.304 440.22 335.027 440.501 334.673C440.783 334.315 440.923 333.898 440.923 333.42C440.923 332.986 440.802 332.632 440.559 332.359C440.316 332.087 439.996 331.865 439.6 331.695C439.204 331.524 438.776 331.375 438.315 331.247L436.705 330.787C435.682 330.493 434.872 330.073 434.276 329.528C433.679 328.982 433.381 328.268 433.381 327.386C433.381 326.653 433.579 326.014 433.975 325.469C434.376 324.919 434.913 324.493 435.586 324.19C436.263 323.884 437.02 323.73 437.855 323.73C438.699 323.73 439.449 323.881 440.105 324.184C440.761 324.482 441.281 324.891 441.665 325.411C442.053 325.931 442.257 326.521 442.278 327.182H440.744ZM451.047 332.986V327.182H452.555V337H451.047V335.338H450.944C450.714 335.837 450.356 336.261 449.871 336.61C449.385 336.955 448.771 337.128 448.03 337.128C447.416 337.128 446.871 336.994 446.393 336.725C445.916 336.452 445.541 336.043 445.268 335.498C444.996 334.948 444.859 334.256 444.859 333.42V327.182H446.368V333.318C446.368 334.034 446.568 334.605 446.969 335.031C447.373 335.457 447.889 335.67 448.515 335.67C448.89 335.67 449.272 335.575 449.66 335.383C450.052 335.191 450.38 334.897 450.644 334.501C450.912 334.104 451.047 333.599 451.047 332.986ZM455.523 337V323.909H457.031V328.741H457.159C457.27 328.571 457.423 328.354 457.619 328.089C457.82 327.821 458.105 327.582 458.476 327.374C458.851 327.161 459.358 327.054 459.997 327.054C460.824 327.054 461.553 327.261 462.183 327.674C462.814 328.087 463.306 328.673 463.66 329.432C464.013 330.19 464.19 331.085 464.19 332.116C464.19 333.156 464.013 334.058 463.66 334.82C463.306 335.579 462.816 336.167 462.19 336.585C461.563 336.998 460.841 337.205 460.023 337.205C459.392 337.205 458.887 337.1 458.508 336.891C458.129 336.678 457.837 336.437 457.632 336.169C457.428 335.896 457.27 335.67 457.159 335.491H456.98V337H455.523ZM457.006 332.091C457.006 332.832 457.114 333.487 457.332 334.053C457.549 334.616 457.866 335.057 458.284 335.376C458.702 335.692 459.213 335.849 459.818 335.849C460.449 335.849 460.975 335.683 461.397 335.351C461.823 335.014 462.143 334.562 462.356 333.996C462.573 333.425 462.682 332.79 462.682 332.091C462.682 331.401 462.575 330.778 462.362 330.224C462.153 329.666 461.836 329.225 461.41 328.901C460.988 328.573 460.457 328.409 459.818 328.409C459.205 328.409 458.689 328.565 458.271 328.876C457.854 329.183 457.538 329.613 457.325 330.167C457.112 330.717 457.006 331.358 457.006 332.091ZM475.268 337.205C474.45 337.205 473.727 336.998 473.101 336.585C472.474 336.167 471.984 335.579 471.631 334.82C471.277 334.058 471.1 333.156 471.1 332.116C471.1 331.085 471.277 330.19 471.631 329.432C471.984 328.673 472.477 328.087 473.107 327.674C473.738 327.261 474.467 327.054 475.293 327.054C475.933 327.054 476.438 327.161 476.808 327.374C477.183 327.582 477.469 327.821 477.665 328.089C477.865 328.354 478.021 328.571 478.131 328.741H478.259V323.909H479.768V337H478.31V335.491H478.131C478.021 335.67 477.863 335.896 477.658 336.169C477.454 336.437 477.162 336.678 476.783 336.891C476.403 337.1 475.898 337.205 475.268 337.205ZM475.472 335.849C476.077 335.849 476.589 335.692 477.006 335.376C477.424 335.057 477.741 334.616 477.959 334.053C478.176 333.487 478.285 332.832 478.285 332.091C478.285 331.358 478.178 330.717 477.965 330.167C477.752 329.613 477.437 329.183 477.019 328.876C476.602 328.565 476.086 328.409 475.472 328.409C474.833 328.409 474.3 328.573 473.874 328.901C473.452 329.225 473.135 329.666 472.922 330.224C472.713 330.778 472.609 331.401 472.609 332.091C472.609 332.79 472.715 333.425 472.928 333.996C473.146 334.562 473.465 335.014 473.887 335.351C474.313 335.683 474.842 335.849 475.472 335.849ZM482.945 337V323.909H484.453V328.741H484.581C484.692 328.571 484.845 328.354 485.041 328.089C485.241 327.821 485.527 327.582 485.898 327.374C486.273 327.161 486.78 327.054 487.419 327.054C488.246 327.054 488.974 327.261 489.605 327.674C490.236 328.087 490.728 328.673 491.082 329.432C491.435 330.19 491.612 331.085 491.612 332.116C491.612 333.156 491.435 334.058 491.082 334.82C490.728 335.579 490.238 336.167 489.612 336.585C488.985 336.998 488.263 337.205 487.445 337.205C486.814 337.205 486.309 337.1 485.93 336.891C485.55 336.678 485.259 336.437 485.054 336.169C484.849 335.896 484.692 335.67 484.581 335.491H484.402V337H482.945ZM484.428 332.091C484.428 332.832 484.536 333.487 484.754 334.053C484.971 334.616 485.288 335.057 485.706 335.376C486.124 335.692 486.635 335.849 487.24 335.849C487.871 335.849 488.397 335.683 488.819 335.351C489.245 335.014 489.565 334.562 489.778 333.996C489.995 333.425 490.104 332.79 490.104 332.091C490.104 331.401 489.997 330.778 489.784 330.224C489.575 329.666 489.258 329.225 488.832 328.901C488.41 328.573 487.879 328.409 487.24 328.409C486.626 328.409 486.111 328.565 485.693 328.876C485.276 329.183 484.96 329.613 484.747 330.167C484.534 330.717 484.428 331.358 484.428 332.091Z" fill="white"/>
<g clip-path="url(#clip8_460_139)">
<circle cx="568.5" cy="330.5" r="10.5" fill="#FCF9F2"/>
<g clip-path="url(#clip9_460_139)">
<path d="M569.791 337.339C569.423 337.789 568.677 337.542 568.669 336.967L568.539 328.556H574.353C575.406 328.556 575.994 329.739 575.339 330.541L569.791 337.339Z" fill="url(#paint4_linear_460_139)"/>
<path d="M569.791 337.339C569.423 337.789 568.677 337.542 568.669 336.967L568.539 328.556H574.353C575.406 328.556 575.994 329.739 575.339 330.541L569.791 337.339Z" fill="url(#paint5_linear_460_139)" fill-opacity="0.2"/>
<path d="M567.426 323.804C567.794 323.354 568.539 323.601 568.548 324.176L568.605 332.587H562.863C561.81 332.587 561.223 331.404 561.878 330.602L567.426 323.804Z" fill="#3ECF8E"/>
</g>
</g>
<path d="M598.744 327.182C598.668 326.534 598.357 326.031 597.811 325.673C597.266 325.315 596.597 325.136 595.804 325.136C595.224 325.136 594.717 325.23 594.283 325.418C593.852 325.605 593.516 325.863 593.273 326.191C593.034 326.519 592.915 326.892 592.915 327.31C592.915 327.659 592.998 327.96 593.164 328.211C593.335 328.458 593.552 328.665 593.816 328.831C594.08 328.993 594.357 329.127 594.647 329.234C594.937 329.336 595.203 329.419 595.446 329.483L596.776 329.841C597.116 329.93 597.496 330.054 597.913 330.212C598.335 330.369 598.738 330.585 599.121 330.857C599.509 331.126 599.829 331.471 600.08 331.893C600.332 332.315 600.457 332.832 600.457 333.446C600.457 334.153 600.272 334.793 599.901 335.364C599.535 335.935 598.998 336.388 598.29 336.725C597.587 337.062 596.733 337.23 595.727 337.23C594.79 337.23 593.978 337.079 593.292 336.776C592.61 336.474 592.073 336.052 591.681 335.511C591.293 334.969 591.074 334.341 591.023 333.625H592.659C592.702 334.119 592.868 334.528 593.158 334.852C593.452 335.172 593.822 335.411 594.27 335.568C594.722 335.722 595.207 335.798 595.727 335.798C596.332 335.798 596.876 335.7 597.357 335.504C597.839 335.304 598.22 335.027 598.501 334.673C598.783 334.315 598.923 333.898 598.923 333.42C598.923 332.986 598.802 332.632 598.559 332.359C598.316 332.087 597.996 331.865 597.6 331.695C597.204 331.524 596.776 331.375 596.315 331.247L594.705 330.787C593.682 330.493 592.872 330.073 592.276 329.528C591.679 328.982 591.381 328.268 591.381 327.386C591.381 326.653 591.579 326.014 591.975 325.469C592.376 324.919 592.913 324.493 593.586 324.19C594.263 323.884 595.02 323.73 595.855 323.73C596.699 323.73 597.449 323.881 598.105 324.184C598.761 324.482 599.281 324.891 599.665 325.411C600.053 325.931 600.257 326.521 600.278 327.182H598.744ZM606.976 337.205C606.03 337.205 605.214 336.996 604.528 336.578C603.846 336.156 603.319 335.568 602.949 334.814C602.582 334.055 602.399 333.173 602.399 332.168C602.399 331.162 602.582 330.276 602.949 329.509C603.319 328.737 603.835 328.136 604.496 327.706C605.16 327.271 605.936 327.054 606.822 327.054C607.334 327.054 607.839 327.139 608.337 327.31C608.836 327.48 609.29 327.757 609.699 328.141C610.108 328.52 610.434 329.023 610.677 329.649C610.92 330.276 611.041 331.047 611.041 331.963V332.602H603.473V331.298H609.507C609.507 330.744 609.396 330.25 609.175 329.815C608.957 329.381 608.646 329.038 608.241 328.786C607.841 328.535 607.368 328.409 606.822 328.409C606.221 328.409 605.702 328.558 605.263 328.857C604.828 329.151 604.493 329.534 604.259 330.007C604.025 330.48 603.907 330.987 603.907 331.528V332.398C603.907 333.139 604.035 333.768 604.291 334.283C604.551 334.795 604.911 335.185 605.371 335.453C605.831 335.717 606.366 335.849 606.976 335.849C607.372 335.849 607.73 335.794 608.05 335.683C608.373 335.568 608.653 335.398 608.887 335.172C609.121 334.942 609.302 334.656 609.43 334.315L610.888 334.724C610.734 335.219 610.476 335.653 610.114 336.028C609.752 336.399 609.305 336.689 608.772 336.898C608.239 337.102 607.64 337.205 606.976 337.205ZM613.336 337V327.182H614.793V328.665H614.895C615.074 328.179 615.398 327.785 615.867 327.482C616.336 327.18 616.864 327.028 617.452 327.028C617.563 327.028 617.702 327.031 617.868 327.035C618.034 327.039 618.16 327.045 618.245 327.054V328.588C618.194 328.575 618.077 328.556 617.893 328.531C617.714 328.501 617.525 328.486 617.324 328.486C616.847 328.486 616.421 328.586 616.046 328.786C615.675 328.982 615.381 329.255 615.164 329.604C614.951 329.95 614.844 330.344 614.844 330.787V337H613.336ZM628.36 327.182L624.73 337H623.195L619.565 327.182H621.201L623.911 335.006H624.014L626.724 327.182H628.36ZM630.351 337V327.182H631.86V337H630.351ZM631.118 325.545C630.824 325.545 630.571 325.445 630.358 325.245C630.149 325.045 630.045 324.804 630.045 324.523C630.045 324.241 630.149 324.001 630.358 323.8C630.571 323.6 630.824 323.5 631.118 323.5C631.412 323.5 631.664 323.6 631.873 323.8C632.086 324.001 632.192 324.241 632.192 324.523C632.192 324.804 632.086 325.045 631.873 325.245C631.664 325.445 631.412 325.545 631.118 325.545ZM638.612 337.205C637.691 337.205 636.898 336.987 636.234 336.553C635.569 336.118 635.058 335.519 634.7 334.756C634.342 333.994 634.163 333.122 634.163 332.142C634.163 331.145 634.346 330.265 634.712 329.502C635.083 328.735 635.599 328.136 636.259 327.706C636.924 327.271 637.7 327.054 638.586 327.054C639.276 327.054 639.898 327.182 640.452 327.438C641.006 327.693 641.46 328.051 641.814 328.511C642.168 328.972 642.387 329.509 642.472 330.122H640.964C640.849 329.675 640.593 329.278 640.197 328.933C639.805 328.584 639.276 328.409 638.612 328.409C638.023 328.409 637.508 328.562 637.065 328.869C636.626 329.172 636.283 329.6 636.036 330.154C635.793 330.704 635.671 331.349 635.671 332.091C635.671 332.849 635.79 333.51 636.029 334.072C636.272 334.635 636.613 335.072 637.052 335.383C637.495 335.694 638.015 335.849 638.612 335.849C639.004 335.849 639.359 335.781 639.679 335.645C639.999 335.509 640.269 335.312 640.491 335.057C640.712 334.801 640.87 334.494 640.964 334.136H642.472C642.387 334.716 642.176 335.238 641.839 335.702C641.507 336.163 641.066 336.529 640.516 336.802C639.971 337.07 639.336 337.205 638.612 337.205ZM648.794 337.205C647.848 337.205 647.032 336.996 646.346 336.578C645.664 336.156 645.138 335.568 644.767 334.814C644.401 334.055 644.217 333.173 644.217 332.168C644.217 331.162 644.401 330.276 644.767 329.509C645.138 328.737 645.653 328.136 646.314 327.706C646.979 327.271 647.754 327.054 648.641 327.054C649.152 327.054 649.657 327.139 650.156 327.31C650.654 327.48 651.108 327.757 651.517 328.141C651.926 328.52 652.252 329.023 652.495 329.649C652.738 330.276 652.859 331.047 652.859 331.963V332.602H645.291V331.298H651.325C651.325 330.744 651.214 330.25 650.993 329.815C650.776 329.381 650.464 329.038 650.06 328.786C649.659 328.535 649.186 328.409 648.641 328.409C648.04 328.409 647.52 328.558 647.081 328.857C646.646 329.151 646.312 329.534 646.077 330.007C645.843 330.48 645.726 330.987 645.726 331.528V332.398C645.726 333.139 645.854 333.768 646.109 334.283C646.369 334.795 646.729 335.185 647.19 335.453C647.65 335.717 648.185 335.849 648.794 335.849C649.19 335.849 649.548 335.794 649.868 335.683C650.192 335.568 650.471 335.398 650.705 335.172C650.94 334.942 651.121 334.656 651.249 334.315L652.706 334.724C652.553 335.219 652.295 335.653 651.933 336.028C651.57 336.399 651.123 336.689 650.59 336.898C650.058 337.102 649.459 337.205 648.794 337.205ZM663.924 337.205C663.106 337.205 662.384 336.998 661.757 336.585C661.131 336.167 660.641 335.579 660.287 334.82C659.933 334.058 659.756 333.156 659.756 332.116C659.756 331.085 659.933 330.19 660.287 329.432C660.641 328.673 661.133 328.087 661.763 327.674C662.394 327.261 663.123 327.054 663.95 327.054C664.589 327.054 665.094 327.161 665.464 327.374C665.839 327.582 666.125 327.821 666.321 328.089C666.521 328.354 666.677 328.571 666.788 328.741H666.915V323.909H668.424V337H666.967V335.491H666.788C666.677 335.67 666.519 335.896 666.315 336.169C666.11 336.437 665.818 336.678 665.439 336.891C665.06 337.1 664.555 337.205 663.924 337.205ZM664.129 335.849C664.734 335.849 665.245 335.692 665.663 335.376C666.08 335.057 666.398 334.616 666.615 334.053C666.832 333.487 666.941 332.832 666.941 332.091C666.941 331.358 666.835 330.717 666.621 330.167C666.408 329.613 666.093 329.183 665.675 328.876C665.258 328.565 664.742 328.409 664.129 328.409C663.489 328.409 662.957 328.573 662.531 328.901C662.109 329.225 661.791 329.666 661.578 330.224C661.369 330.778 661.265 331.401 661.265 332.091C661.265 332.79 661.371 333.425 661.585 333.996C661.802 334.562 662.121 335.014 662.543 335.351C662.969 335.683 663.498 335.849 664.129 335.849ZM671.601 337V323.909H673.109V328.741H673.237C673.348 328.571 673.501 328.354 673.697 328.089C673.898 327.821 674.183 327.582 674.554 327.374C674.929 327.161 675.436 327.054 676.075 327.054C676.902 327.054 677.631 327.261 678.261 327.674C678.892 328.087 679.384 328.673 679.738 329.432C680.092 330.19 680.268 331.085 680.268 332.116C680.268 333.156 680.092 334.058 679.738 334.82C679.384 335.579 678.894 336.167 678.268 336.585C677.641 336.998 676.919 337.205 676.101 337.205C675.47 337.205 674.965 337.1 674.586 336.891C674.207 336.678 673.915 336.437 673.71 336.169C673.506 335.896 673.348 335.67 673.237 335.491H673.058V337H671.601ZM673.084 332.091C673.084 332.832 673.192 333.487 673.41 334.053C673.627 334.616 673.945 335.057 674.362 335.376C674.78 335.692 675.291 335.849 675.896 335.849C676.527 335.849 677.053 335.683 677.475 335.351C677.901 335.014 678.221 334.562 678.434 333.996C678.651 333.425 678.76 332.79 678.76 332.091C678.76 331.401 678.653 330.778 678.44 330.224C678.232 329.666 677.914 329.225 677.488 328.901C677.066 328.573 676.536 328.409 675.896 328.409C675.283 328.409 674.767 328.565 674.349 328.876C673.932 329.183 673.616 329.613 673.403 330.167C673.19 330.717 673.084 331.358 673.084 332.091Z" fill="white"/>
<defs>
<linearGradient id="paint0_linear_460_139" x1="252.539" y1="330.421" x2="257.663" y2="332.63" gradientUnits="userSpaceOnUse">
<stop stop-color="#249361"/>
<stop offset="1" stop-color="#3ECF8E"/>
</linearGradient>
<linearGradient id="paint1_linear_460_139" x1="250.248" y1="327.37" x2="252.505" y2="331.737" gradientUnits="userSpaceOnUse">
<stop/>
<stop offset="1" stop-opacity="0"/>
</linearGradient>
<linearGradient id="paint2_linear_460_139" x1="410.539" y1="330.421" x2="415.663" y2="332.63" gradientUnits="userSpaceOnUse">
<stop stop-color="#249361"/>
<stop offset="1" stop-color="#3ECF8E"/>
</linearGradient>
<linearGradient id="paint3_linear_460_139" x1="408.248" y1="327.37" x2="410.505" y2="331.737" gradientUnits="userSpaceOnUse">
<stop/>
<stop offset="1" stop-opacity="0"/>
</linearGradient>
<linearGradient id="paint4_linear_460_139" x1="568.539" y1="330.421" x2="573.663" y2="332.63" gradientUnits="userSpaceOnUse">
<stop stop-color="#249361"/>
<stop offset="1" stop-color="#3ECF8E"/>
</linearGradient>
<linearGradient id="paint5_linear_460_139" x1="566.248" y1="327.37" x2="568.505" y2="331.737" gradientUnits="userSpaceOnUse">
<stop/>
<stop offset="1" stop-opacity="0"/>
</linearGradient>
<clipPath id="clip0_460_139">
<rect width="21" height="21" fill="white" transform="translate(325 221)"/>
</clipPath>
<clipPath id="clip1_460_139">
<rect width="21" height="21" fill="white" transform="translate(483 221)"/>
</clipPath>
<clipPath id="clip2_460_139">
<rect width="21" height="21" fill="white" transform="translate(424 124)"/>
</clipPath>
<clipPath id="clip3_460_139">
<rect width="14.2448" height="13.8571" fill="white" transform="translate(427.378 126.286)"/>
</clipPath>
<clipPath id="clip4_460_139">
<rect width="21" height="21" fill="white" transform="translate(242 320)"/>
</clipPath>
<clipPath id="clip5_460_139">
<rect width="14.3916" height="14" fill="white" transform="translate(245.378 323.572)"/>
</clipPath>
<clipPath id="clip6_460_139">
<rect width="21" height="21" fill="white" transform="translate(400 320)"/>
</clipPath>
<clipPath id="clip7_460_139">
<rect width="14.3916" height="14" fill="white" transform="translate(403.378 323.572)"/>
</clipPath>
<clipPath id="clip8_460_139">
<rect width="21" height="21" fill="white" transform="translate(558 320)"/>
</clipPath>
<clipPath id="clip9_460_139">
<rect width="14.3916" height="14" fill="white" transform="translate(561.378 323.572)"/>
</clipPath>
</defs>
</svg>
