<svg width="929" height="199" viewBox="0 0 929 199" fill="none" xmlns="http://www.w3.org/2000/svg">
<rect width="929" height="199" fill="#202124"/>
<path d="M240.199 90.874H244.178V105.558L258.861 90.874H264.501L251.971 103.015L264.85 121H259.538L248.997 105.886L244.178 110.5V121H240.199V90.874ZM270.551 115.155C270.551 116.222 270.94 117.062 271.72 117.678C272.499 118.293 273.422 118.601 274.488 118.601C275.787 118.601 277.045 118.3 278.262 117.698C280.312 116.7 281.338 115.066 281.338 112.797V109.823C280.887 110.11 280.306 110.35 279.595 110.541C278.884 110.732 278.187 110.869 277.503 110.951L275.268 111.238C273.928 111.416 272.923 111.696 272.253 112.079C271.118 112.722 270.551 113.747 270.551 115.155ZM279.492 107.69C280.34 107.581 280.907 107.226 281.194 106.624C281.358 106.296 281.44 105.824 281.44 105.209C281.44 103.951 280.989 103.042 280.087 102.481C279.198 101.907 277.92 101.62 276.252 101.62C274.324 101.62 272.957 102.14 272.15 103.179C271.699 103.753 271.405 104.607 271.269 105.742H267.823C267.892 103.035 268.767 101.155 270.448 100.103C272.144 99.0361 274.105 98.5029 276.334 98.5029C278.918 98.5029 281.017 98.9951 282.63 99.9795C284.229 100.964 285.029 102.495 285.029 104.573V117.227C285.029 117.609 285.104 117.917 285.255 118.149C285.419 118.382 285.754 118.498 286.26 118.498C286.424 118.498 286.608 118.491 286.813 118.478C287.019 118.45 287.237 118.416 287.47 118.375V121.103C286.896 121.267 286.458 121.369 286.157 121.41C285.856 121.451 285.446 121.472 284.927 121.472C283.655 121.472 282.732 121.021 282.158 120.118C281.857 119.64 281.646 118.963 281.522 118.088C280.771 119.072 279.69 119.927 278.282 120.651C276.874 121.376 275.322 121.738 273.627 121.738C271.59 121.738 269.922 121.123 268.623 119.893C267.338 118.648 266.695 117.097 266.695 115.237C266.695 113.2 267.331 111.621 268.603 110.5C269.874 109.379 271.542 108.688 273.606 108.429L279.492 107.69ZM291.202 90.874H294.894V121H291.202V90.874ZM301.189 92.9043H304.922V99.0361H308.429V102.051H304.922V116.386C304.922 117.151 305.182 117.664 305.701 117.924C305.988 118.074 306.467 118.149 307.137 118.149C307.314 118.149 307.506 118.149 307.711 118.149C307.916 118.136 308.155 118.115 308.429 118.088V121C308.005 121.123 307.561 121.212 307.096 121.267C306.645 121.321 306.152 121.349 305.619 121.349C303.896 121.349 302.728 120.911 302.112 120.036C301.497 119.147 301.189 117.999 301.189 116.591V102.051H298.216V99.0361H301.189V92.9043ZM326.065 107.875H358.16V110.89H326.065V107.875Z" fill="#FCF9F2"/>
<path d="M399.864 99.538C399.276 96.962 398.184 95.128 396.588 94.036C394.992 92.944 392.906 92.398 390.33 92.398C388.51 92.398 386.942 92.762 385.626 93.49C384.31 94.218 383.218 95.198 382.35 96.43C381.51 97.662 380.88 99.09 380.46 100.714C380.068 102.31 379.872 104.004 379.872 105.796C379.872 107.476 380.04 109.128 380.376 110.752C380.74 112.376 381.328 113.832 382.14 115.12C382.952 116.38 384.044 117.402 385.416 118.186C386.788 118.97 388.51 119.362 390.582 119.362C391.87 119.362 393.046 119.152 394.11 118.732C395.174 118.312 396.098 117.738 396.882 117.01C397.694 116.254 398.366 115.372 398.898 114.364C399.458 113.356 399.878 112.25 400.158 111.046H403.14C402.804 112.502 402.314 113.888 401.67 115.204C401.026 116.492 400.172 117.626 399.108 118.606C398.072 119.586 396.798 120.37 395.286 120.958C393.802 121.518 392.052 121.798 390.036 121.798C387.712 121.798 385.724 121.378 384.072 120.538C382.42 119.67 381.062 118.508 379.998 117.052C378.962 115.596 378.206 113.916 377.73 112.012C377.254 110.08 377.016 108.036 377.016 105.88C377.016 102.996 377.366 100.546 378.066 98.53C378.794 96.514 379.788 94.876 381.048 93.616C382.308 92.328 383.792 91.404 385.5 90.844C387.208 90.256 389.07 89.962 391.086 89.962C392.626 89.962 394.054 90.172 395.37 90.592C396.714 90.984 397.89 91.586 398.898 92.398C399.934 93.21 400.774 94.218 401.418 95.422C402.09 96.598 402.552 97.97 402.804 99.538H399.864ZM416.987 121.588C415.587 121.56 414.271 121.308 413.039 120.832C411.835 120.356 410.771 119.642 409.847 118.69C408.951 117.738 408.237 116.548 407.705 115.12C407.173 113.692 406.907 112.026 406.907 110.122C406.907 108.526 407.117 107.042 407.537 105.67C407.957 104.27 408.587 103.052 409.427 102.016C410.267 100.98 411.317 100.168 412.577 99.58C413.837 98.964 415.307 98.656 416.987 98.656C418.695 98.656 420.179 98.964 421.439 99.58C422.699 100.168 423.749 100.98 424.589 102.016C425.429 103.024 426.045 104.228 426.437 105.628C426.857 107.028 427.067 108.526 427.067 110.122C427.067 111.858 426.829 113.426 426.353 114.826C425.877 116.226 425.191 117.43 424.295 118.438C423.427 119.446 422.363 120.23 421.103 120.79C419.871 121.322 418.499 121.588 416.987 121.588ZM424.379 110.122C424.379 108.834 424.239 107.63 423.959 106.51C423.679 105.39 423.245 104.424 422.657 103.612C422.069 102.772 421.313 102.114 420.389 101.638C419.465 101.162 418.331 100.924 416.987 100.924C415.671 100.924 414.537 101.19 413.585 101.722C412.661 102.226 411.905 102.912 411.317 103.78C410.729 104.62 410.295 105.6 410.015 106.72C409.735 107.812 409.595 108.946 409.595 110.122C409.595 111.466 409.749 112.712 410.057 113.86C410.393 114.98 410.869 115.946 411.485 116.758C412.101 117.57 412.871 118.2 413.795 118.648C414.719 119.096 415.783 119.32 416.987 119.32C418.303 119.32 419.423 119.068 420.347 118.564C421.299 118.032 422.069 117.332 422.657 116.464C423.245 115.596 423.679 114.616 423.959 113.524C424.239 112.432 424.379 111.298 424.379 110.122ZM448.472 110.038C448.472 108.806 448.304 107.644 447.968 106.552C447.632 105.432 447.142 104.466 446.498 103.654C445.882 102.814 445.112 102.156 444.188 101.68C443.292 101.176 442.27 100.924 441.122 100.924C439.806 100.924 438.672 101.19 437.72 101.722C436.768 102.226 435.984 102.926 435.368 103.822C434.752 104.718 434.304 105.768 434.024 106.972C433.744 108.148 433.632 109.422 433.688 110.794C433.688 112.166 433.87 113.384 434.234 114.448C434.626 115.484 435.158 116.366 435.83 117.094C436.502 117.822 437.286 118.382 438.182 118.774C439.078 119.138 440.058 119.32 441.122 119.32C442.298 119.32 443.348 119.082 444.272 118.606C445.196 118.13 445.966 117.486 446.582 116.674C447.198 115.834 447.66 114.854 447.968 113.734C448.304 112.586 448.472 111.354 448.472 110.038ZM448.472 90.76H450.992V121H448.472V117.178H448.388C448.024 117.906 447.548 118.55 446.96 119.11C446.4 119.642 445.77 120.09 445.07 120.454C444.398 120.818 443.698 121.098 442.97 121.294C442.242 121.49 441.528 121.588 440.828 121.588C439.064 121.588 437.566 121.294 436.334 120.706C435.102 120.118 434.08 119.32 433.268 118.312C432.484 117.276 431.91 116.058 431.546 114.658C431.182 113.258 431 111.76 431 110.164C431 108.652 431.196 107.196 431.588 105.796C431.98 104.396 432.568 103.178 433.352 102.142C434.164 101.078 435.172 100.238 436.376 99.622C437.608 98.978 439.05 98.656 440.702 98.656C442.242 98.656 443.712 99.006 445.112 99.706C446.54 100.378 447.66 101.386 448.472 102.73V90.76ZM473.098 108.61C473.098 107.546 472.944 106.552 472.636 105.628C472.356 104.676 471.922 103.864 471.334 103.192C470.774 102.492 470.06 101.946 469.192 101.554C468.324 101.134 467.33 100.924 466.21 100.924C465.09 100.924 464.096 101.134 463.228 101.554C462.388 101.974 461.66 102.534 461.044 103.234C460.456 103.934 459.98 104.746 459.616 105.67C459.252 106.594 459.014 107.574 458.902 108.61H473.098ZM458.902 110.71C458.902 111.886 459.056 113.006 459.364 114.07C459.672 115.106 460.12 116.016 460.708 116.8C461.324 117.556 462.094 118.172 463.018 118.648C463.942 119.096 465.006 119.32 466.21 119.32C467.862 119.32 469.276 118.886 470.452 118.018C471.628 117.15 472.412 115.918 472.804 114.322H475.618C475.31 115.358 474.904 116.324 474.4 117.22C473.896 118.088 473.266 118.858 472.51 119.53C471.754 120.174 470.858 120.678 469.822 121.042C468.786 121.406 467.582 121.588 466.21 121.588C464.474 121.588 462.976 121.294 461.716 120.706C460.456 120.118 459.42 119.32 458.608 118.312C457.796 117.276 457.194 116.072 456.802 114.7C456.41 113.3 456.214 111.802 456.214 110.206C456.214 108.61 456.438 107.112 456.886 105.712C457.362 104.312 458.02 103.094 458.86 102.058C459.728 100.994 460.778 100.168 462.01 99.58C463.242 98.964 464.642 98.656 466.21 98.656C469.206 98.656 471.558 99.692 473.266 101.764C474.974 103.808 475.814 106.79 475.786 110.71H458.902ZM501.028 121.588C499.628 121.56 498.312 121.308 497.08 120.832C495.876 120.356 494.812 119.642 493.888 118.69C492.992 117.738 492.278 116.548 491.746 115.12C491.214 113.692 490.948 112.026 490.948 110.122C490.948 108.526 491.158 107.042 491.578 105.67C491.998 104.27 492.628 103.052 493.468 102.016C494.308 100.98 495.358 100.168 496.618 99.58C497.878 98.964 499.348 98.656 501.028 98.656C502.736 98.656 504.22 98.964 505.48 99.58C506.74 100.168 507.79 100.98 508.63 102.016C509.47 103.024 510.086 104.228 510.478 105.628C510.898 107.028 511.108 108.526 511.108 110.122C511.108 111.858 510.87 113.426 510.394 114.826C509.918 116.226 509.232 117.43 508.336 118.438C507.468 119.446 506.404 120.23 505.144 120.79C503.912 121.322 502.54 121.588 501.028 121.588ZM508.42 110.122C508.42 108.834 508.28 107.63 508 106.51C507.72 105.39 507.286 104.424 506.698 103.612C506.11 102.772 505.354 102.114 504.43 101.638C503.506 101.162 502.372 100.924 501.028 100.924C499.712 100.924 498.578 101.19 497.626 101.722C496.702 102.226 495.946 102.912 495.358 103.78C494.77 104.62 494.336 105.6 494.056 106.72C493.776 107.812 493.636 108.946 493.636 110.122C493.636 111.466 493.79 112.712 494.098 113.86C494.434 114.98 494.91 115.946 495.526 116.758C496.142 117.57 496.912 118.2 497.836 118.648C498.76 119.096 499.824 119.32 501.028 119.32C502.344 119.32 503.464 119.068 504.388 118.564C505.34 118.032 506.11 117.332 506.698 116.464C507.286 115.596 507.72 114.616 508 113.524C508.28 112.432 508.42 111.298 508.42 110.122ZM513.529 101.344V99.244H516.763V95.8C516.763 94.064 517.113 92.692 517.813 91.684C518.513 90.676 519.703 90.172 521.383 90.172C521.775 90.172 522.139 90.186 522.475 90.214C522.811 90.242 523.147 90.284 523.483 90.34V92.65C522.923 92.51 522.419 92.44 521.971 92.44C521.327 92.44 520.823 92.566 520.459 92.818C520.095 93.042 519.829 93.35 519.661 93.742C519.493 94.134 519.381 94.582 519.325 95.086C519.297 95.562 519.283 96.052 519.283 96.556V99.244H523.483V101.344H519.283V121H516.763V101.344H513.529ZM554.506 106.09C554.058 104.466 553.288 103.206 552.196 102.31C551.104 101.386 549.718 100.924 548.038 100.924C546.75 100.924 545.644 101.19 544.72 101.722C543.796 102.254 543.04 102.968 542.452 103.864C541.864 104.732 541.43 105.726 541.15 106.846C540.87 107.938 540.73 109.044 540.73 110.164C540.73 111.312 540.856 112.432 541.108 113.524C541.388 114.616 541.822 115.596 542.41 116.464C542.998 117.332 543.754 118.032 544.678 118.564C545.602 119.068 546.722 119.32 548.038 119.32C549.914 119.32 551.412 118.802 552.532 117.766C553.68 116.73 554.408 115.302 554.716 113.482H557.404C557.18 114.686 556.816 115.792 556.312 116.8C555.836 117.78 555.206 118.634 554.422 119.362C553.666 120.062 552.756 120.608 551.692 121C550.628 121.392 549.41 121.588 548.038 121.588C546.302 121.588 544.804 121.294 543.544 120.706C542.284 120.118 541.248 119.32 540.436 118.312C539.624 117.276 539.022 116.058 538.63 114.658C538.238 113.258 538.042 111.76 538.042 110.164C538.042 108.652 538.252 107.21 538.672 105.838C539.12 104.438 539.764 103.206 540.604 102.142C541.444 101.078 542.48 100.238 543.712 99.622C544.972 98.978 546.414 98.656 548.038 98.656C550.558 98.656 552.588 99.258 554.128 100.462C555.696 101.666 556.676 103.542 557.068 106.09H554.506ZM571.082 121.588C569.682 121.56 568.366 121.308 567.134 120.832C565.93 120.356 564.866 119.642 563.942 118.69C563.046 117.738 562.332 116.548 561.8 115.12C561.268 113.692 561.002 112.026 561.002 110.122C561.002 108.526 561.212 107.042 561.632 105.67C562.052 104.27 562.682 103.052 563.522 102.016C564.362 100.98 565.412 100.168 566.672 99.58C567.932 98.964 569.402 98.656 571.082 98.656C572.79 98.656 574.274 98.964 575.534 99.58C576.794 100.168 577.844 100.98 578.684 102.016C579.524 103.024 580.14 104.228 580.532 105.628C580.952 107.028 581.162 108.526 581.162 110.122C581.162 111.858 580.924 113.426 580.448 114.826C579.972 116.226 579.286 117.43 578.39 118.438C577.522 119.446 576.458 120.23 575.198 120.79C573.966 121.322 572.594 121.588 571.082 121.588ZM578.474 110.122C578.474 108.834 578.334 107.63 578.054 106.51C577.774 105.39 577.34 104.424 576.752 103.612C576.164 102.772 575.408 102.114 574.484 101.638C573.56 101.162 572.426 100.924 571.082 100.924C569.766 100.924 568.632 101.19 567.68 101.722C566.756 102.226 566 102.912 565.412 103.78C564.824 104.62 564.39 105.6 564.11 106.72C563.83 107.812 563.69 108.946 563.69 110.122C563.69 111.466 563.844 112.712 564.152 113.86C564.488 114.98 564.964 115.946 565.58 116.758C566.196 117.57 566.966 118.2 567.89 118.648C568.814 119.096 569.878 119.32 571.082 119.32C572.398 119.32 573.518 119.068 574.442 118.564C575.394 118.032 576.164 117.332 576.752 116.464C577.34 115.596 577.774 114.616 578.054 113.524C578.334 112.432 578.474 111.298 578.474 110.122ZM588.288 121H585.768V99.244H588.288V102.268C589.296 101.204 590.332 100.336 591.396 99.664C592.488 98.992 593.79 98.656 595.302 98.656C596.646 98.656 597.892 98.894 599.04 99.37C600.188 99.818 601.154 100.616 601.938 101.764C602.47 102.548 602.778 103.36 602.862 104.2C602.974 105.012 603.03 105.866 603.03 106.762V121H600.51V106.804C600.51 104.844 600.076 103.374 599.208 102.394C598.34 101.414 596.898 100.924 594.882 100.924C594.098 100.924 593.384 101.05 592.74 101.302C592.096 101.526 591.508 101.834 590.976 102.226C590.472 102.618 590.038 103.066 589.674 103.57C589.31 104.074 589.03 104.606 588.834 105.166C588.582 105.866 588.428 106.538 588.372 107.182C588.316 107.826 588.288 108.526 588.288 109.282V121ZM625.906 110.038C625.906 108.806 625.738 107.644 625.402 106.552C625.066 105.432 624.576 104.466 623.932 103.654C623.316 102.814 622.546 102.156 621.622 101.68C620.726 101.176 619.704 100.924 618.556 100.924C617.24 100.924 616.106 101.19 615.154 101.722C614.202 102.226 613.418 102.926 612.802 103.822C612.186 104.718 611.738 105.768 611.458 106.972C611.178 108.148 611.066 109.422 611.122 110.794C611.122 112.166 611.304 113.384 611.668 114.448C612.06 115.484 612.592 116.366 613.264 117.094C613.936 117.822 614.72 118.382 615.616 118.774C616.512 119.138 617.492 119.32 618.556 119.32C619.732 119.32 620.782 119.082 621.706 118.606C622.63 118.13 623.4 117.486 624.016 116.674C624.632 115.834 625.094 114.854 625.402 113.734C625.738 112.586 625.906 111.354 625.906 110.038ZM625.906 90.76H628.426V121H625.906V117.178H625.822C625.458 117.906 624.982 118.55 624.394 119.11C623.834 119.642 623.204 120.09 622.504 120.454C621.832 120.818 621.132 121.098 620.404 121.294C619.676 121.49 618.962 121.588 618.262 121.588C616.498 121.588 615 121.294 613.768 120.706C612.536 120.118 611.514 119.32 610.702 118.312C609.918 117.276 609.344 116.058 608.98 114.658C608.616 113.258 608.434 111.76 608.434 110.164C608.434 108.652 608.63 107.196 609.022 105.796C609.414 104.396 610.002 103.178 610.786 102.142C611.598 101.078 612.606 100.238 613.81 99.622C615.042 98.978 616.484 98.656 618.136 98.656C619.676 98.656 621.146 99.006 622.546 99.706C623.974 100.378 625.094 101.386 625.906 102.73V90.76ZM649.524 99.244H652.044V121H649.524V117.976C649.188 118.368 648.81 118.774 648.39 119.194C647.97 119.614 647.48 120.006 646.92 120.37C646.388 120.706 645.758 120.986 645.03 121.21C644.302 121.462 643.462 121.588 642.51 121.588C641.054 121.588 639.836 121.392 638.856 121C637.876 120.58 637.078 120.006 636.462 119.278C635.874 118.55 635.44 117.71 635.16 116.758C634.908 115.778 634.782 114.714 634.782 113.566V99.244H637.302V113.524C637.302 115.4 637.736 116.842 638.604 117.85C639.472 118.83 640.9 119.32 642.888 119.32C643.924 119.32 644.848 119.124 645.66 118.732C646.5 118.312 647.2 117.738 647.76 117.01C648.32 116.282 648.754 115.414 649.062 114.406C649.37 113.398 649.524 112.292 649.524 111.088V99.244ZM673.534 106.09C673.086 104.466 672.316 103.206 671.224 102.31C670.132 101.386 668.746 100.924 667.066 100.924C665.778 100.924 664.672 101.19 663.748 101.722C662.824 102.254 662.068 102.968 661.48 103.864C660.892 104.732 660.458 105.726 660.178 106.846C659.898 107.938 659.758 109.044 659.758 110.164C659.758 111.312 659.884 112.432 660.136 113.524C660.416 114.616 660.85 115.596 661.438 116.464C662.026 117.332 662.782 118.032 663.706 118.564C664.63 119.068 665.75 119.32 667.066 119.32C668.942 119.32 670.44 118.802 671.56 117.766C672.708 116.73 673.436 115.302 673.744 113.482H676.432C676.208 114.686 675.844 115.792 675.34 116.8C674.864 117.78 674.234 118.634 673.45 119.362C672.694 120.062 671.784 120.608 670.72 121C669.656 121.392 668.438 121.588 667.066 121.588C665.33 121.588 663.832 121.294 662.572 120.706C661.312 120.118 660.276 119.32 659.464 118.312C658.652 117.276 658.05 116.058 657.658 114.658C657.266 113.258 657.07 111.76 657.07 110.164C657.07 108.652 657.28 107.21 657.7 105.838C658.148 104.438 658.792 103.206 659.632 102.142C660.472 101.078 661.508 100.238 662.74 99.622C664 98.978 665.442 98.656 667.066 98.656C669.586 98.656 671.616 99.258 673.156 100.462C674.724 101.666 675.704 103.542 676.096 106.09H673.534ZM689.102 121.084C688.794 121.14 688.388 121.238 687.884 121.378C687.38 121.518 686.82 121.588 686.204 121.588C684.944 121.588 683.978 121.28 683.306 120.664C682.662 120.02 682.34 118.886 682.34 117.262V101.344H679.274V99.244H682.34V93.196H684.86V99.244H688.934V101.344H684.86V116.254C684.86 116.786 684.874 117.248 684.902 117.64C684.93 118.032 685.014 118.354 685.154 118.606C685.294 118.858 685.504 119.04 685.784 119.152C686.092 119.264 686.512 119.32 687.044 119.32C687.38 119.32 687.716 119.292 688.052 119.236C688.416 119.18 688.766 119.11 689.102 119.026V121.084Z" fill="#FCF9F2"/>
<ellipse cx="209.5" cy="107" rx="15.5" ry="16" fill="#FCF9F2"/>
</svg>
