<svg width="709" height="388" viewBox="0 0 709 388" fill="none" xmlns="http://www.w3.org/2000/svg">
<g clip-path="url(#clip0_457_14)">
<rect width="709" height="388" fill="#202124"/>
<path d="M260.773 80.543H279.719V150.465L349.641 80.543H376.496L316.828 138.355L378.156 224H352.863L302.668 152.027L279.719 174V224H260.773V80.543ZM405.305 196.168C405.305 201.246 407.16 205.25 410.871 208.18C414.582 211.109 418.977 212.574 424.055 212.574C430.24 212.574 436.229 211.142 442.023 208.277C451.789 203.525 456.672 195.745 456.672 184.938V170.777C454.523 172.145 451.757 173.284 448.371 174.195C444.986 175.107 441.665 175.758 438.41 176.148L427.766 177.516C421.385 178.362 416.6 179.697 413.41 181.52C408.007 184.579 405.305 189.462 405.305 196.168ZM447.883 160.621C451.919 160.1 454.621 158.408 455.988 155.543C456.77 153.98 457.16 151.734 457.16 148.805C457.16 142.815 455.012 138.486 450.715 135.816C446.483 133.082 440.396 131.715 432.453 131.715C423.273 131.715 416.763 134.189 412.922 139.137C410.773 141.871 409.374 145.94 408.723 151.344H392.316C392.642 138.453 396.809 129.501 404.816 124.488C412.889 119.41 422.232 116.871 432.844 116.871C445.148 116.871 455.142 119.215 462.824 123.902C470.441 128.59 474.25 135.882 474.25 145.777V206.031C474.25 207.854 474.608 209.319 475.324 210.426C476.105 211.533 477.701 212.086 480.109 212.086C480.891 212.086 481.77 212.053 482.746 211.988C483.723 211.858 484.764 211.695 485.871 211.5V224.488C483.137 225.27 481.053 225.758 479.621 225.953C478.189 226.148 476.236 226.246 473.762 226.246C467.707 226.246 463.312 224.098 460.578 219.801C459.146 217.522 458.137 214.299 457.551 210.133C453.97 214.82 448.827 218.889 442.121 222.34C435.415 225.79 428.026 227.516 419.953 227.516C410.253 227.516 402.31 224.586 396.125 218.727C390.005 212.802 386.945 205.413 386.945 196.559C386.945 186.858 389.973 179.339 396.027 174C402.082 168.661 410.025 165.374 419.855 164.137L447.883 160.621ZM503.645 80.543H521.223V224H503.645V80.543ZM551.203 90.2109H568.977V119.41H585.676V133.766H568.977V202.027C568.977 205.673 570.214 208.115 572.688 209.352C574.055 210.068 576.333 210.426 579.523 210.426C580.37 210.426 581.281 210.426 582.258 210.426C583.234 210.361 584.374 210.263 585.676 210.133V224C583.658 224.586 581.542 225.009 579.328 225.27C577.18 225.53 574.836 225.66 572.297 225.66C564.094 225.66 558.527 223.577 555.598 219.41C552.668 215.178 551.203 209.71 551.203 203.004V133.766H537.043V119.41H551.203V90.2109Z" fill="#FCF9F2"/>
<ellipse cx="125.5" cy="150.5" rx="71.5" ry="73.5" fill="#FCF9F2"/>
<g clip-path="url(#clip1_457_14)">
<circle cx="299.5" cy="309.5" r="10.5" fill="#FCF9F2"/>
<path fill-rule="evenodd" clip-rule="evenodd" d="M299.573 301.821L306.732 313.893H292.414L299.573 301.821Z" fill="black"/>
</g>
<g clip-path="url(#clip2_457_14)">
<circle cx="423.5" cy="310.5" r="10.5" fill="#FCF9F2"/>
<g clip-path="url(#clip3_457_14)">
<path d="M424.79 317.339C424.423 317.789 423.677 317.542 423.668 316.967L423.539 308.556H429.353C430.406 308.556 430.993 309.739 430.339 310.541L424.79 317.339Z" fill="url(#paint0_linear_457_14)"/>
<path d="M424.79 317.339C424.423 317.789 423.677 317.542 423.668 316.967L423.539 308.556H429.353C430.406 308.556 430.993 309.739 430.339 310.541L424.79 317.339Z" fill="url(#paint1_linear_457_14)" fill-opacity="0.2"/>
<path d="M422.426 303.804C422.793 303.354 423.539 303.6 423.548 304.176L423.605 312.587H417.863C416.81 312.587 416.223 311.404 416.878 310.601L422.426 303.804Z" fill="#3ECF8E"/>
</g>
</g>
<g clip-path="url(#clip4_457_14)">
<circle cx="182.5" cy="310.5" r="10.5" fill="#FCF9F2"/>
<g clip-path="url(#clip5_457_14)">
<path d="M179.708 314.01C179.697 313.992 179.688 313.974 179.68 313.954C179.623 313.826 179.605 313.685 179.629 313.547H176.262L181.266 304.98L182.909 307.789L183.386 306.969L181.953 304.515C181.885 304.389 181.785 304.282 181.663 304.204C181.54 304.125 181.4 304.078 181.254 304.066C181.109 304.072 180.968 304.118 180.848 304.199C180.728 304.279 180.634 304.391 180.576 304.52L175.506 313.192C175.43 313.314 175.387 313.453 175.379 313.596C175.371 313.738 175.399 313.881 175.462 314.01C175.54 314.13 175.65 314.226 175.782 314.287C175.913 314.349 176.059 314.374 176.204 314.358H180.45C180.305 314.374 180.159 314.349 180.028 314.288C179.896 314.226 179.786 314.13 179.708 314.01Z" fill="#00C492"/>
<path d="M189.471 313.192L185.305 306.052C185.236 305.925 185.136 305.817 185.014 305.737C184.891 305.658 184.75 305.61 184.603 305.598C184.457 305.604 184.317 305.649 184.197 305.73C184.077 305.81 183.982 305.921 183.924 306.051L183.386 306.969L183.865 307.789L184.607 306.511L188.729 313.547H187.161C187.181 313.663 187.17 313.783 187.129 313.894C187.12 313.918 187.109 313.942 187.096 313.964L187.083 313.99C186.998 314.107 186.884 314.202 186.752 314.266C186.621 314.33 186.475 314.362 186.327 314.358H188.779C188.926 314.362 189.072 314.331 189.204 314.266C189.336 314.202 189.449 314.107 189.535 313.99C189.602 313.865 189.631 313.723 189.62 313.582C189.609 313.441 189.557 313.306 189.471 313.192Z" fill="#008776"/>
<path d="M187.083 313.99L187.096 313.964C187.109 313.942 187.12 313.918 187.129 313.894C187.17 313.783 187.181 313.663 187.161 313.547C187.138 313.422 187.092 313.301 187.025 313.192L183.868 307.789L183.386 306.969L182.906 307.789L179.751 313.192C179.69 313.303 179.649 313.423 179.629 313.547C179.604 313.684 179.62 313.826 179.675 313.954C179.684 313.974 179.693 313.992 179.704 314.011C179.782 314.13 179.892 314.226 180.024 314.288C180.155 314.349 180.301 314.374 180.446 314.359H186.323C186.471 314.363 186.618 314.331 186.75 314.267C186.883 314.203 186.997 314.108 187.083 313.99ZM183.386 308.609L186.271 313.547H180.502L183.386 308.609Z" fill="#2D4A5D"/>
</g>
</g>
<path d="M323.122 303.909L327.009 314.929H327.162L331.048 303.909H332.71L327.903 317H326.267L321.46 303.909H323.122ZM337.747 317.205C336.801 317.205 335.985 316.996 335.299 316.578C334.617 316.156 334.091 315.568 333.72 314.814C333.354 314.055 333.17 313.173 333.17 312.168C333.17 311.162 333.354 310.276 333.72 309.509C334.091 308.737 334.607 308.136 335.267 307.706C335.932 307.271 336.707 307.054 337.594 307.054C338.105 307.054 338.61 307.139 339.109 307.31C339.607 307.48 340.061 307.757 340.47 308.141C340.879 308.52 341.205 309.023 341.448 309.649C341.691 310.276 341.812 311.047 341.812 311.963V312.602H334.244V311.298H340.278C340.278 310.744 340.168 310.25 339.946 309.815C339.729 309.381 339.418 309.038 339.013 308.786C338.612 308.535 338.139 308.409 337.594 308.409C336.993 308.409 336.473 308.558 336.034 308.857C335.599 309.151 335.265 309.534 335.031 310.007C334.796 310.48 334.679 310.987 334.679 311.528V312.398C334.679 313.139 334.807 313.768 335.062 314.283C335.322 314.795 335.683 315.185 336.143 315.453C336.603 315.717 337.138 315.849 337.747 315.849C338.143 315.849 338.501 315.794 338.821 315.683C339.145 315.568 339.424 315.398 339.658 315.172C339.893 314.942 340.074 314.656 340.202 314.315L341.659 314.724C341.506 315.219 341.248 315.653 340.886 316.028C340.523 316.399 340.076 316.689 339.543 316.898C339.011 317.102 338.412 317.205 337.747 317.205ZM344.107 317V307.182H345.565V308.665H345.667C345.846 308.179 346.17 307.785 346.638 307.482C347.107 307.18 347.636 307.028 348.224 307.028C348.335 307.028 348.473 307.031 348.639 307.035C348.805 307.039 348.931 307.045 349.016 307.054V308.588C348.965 308.575 348.848 308.556 348.665 308.531C348.486 308.501 348.296 308.486 348.096 308.486C347.619 308.486 347.192 308.586 346.817 308.786C346.447 308.982 346.153 309.255 345.935 309.604C345.722 309.95 345.616 310.344 345.616 310.787V317H344.107ZM354.494 317.205C353.574 317.205 352.781 316.987 352.116 316.553C351.452 316.118 350.94 315.519 350.582 314.756C350.224 313.994 350.045 313.122 350.045 312.142C350.045 311.145 350.229 310.265 350.595 309.502C350.966 308.735 351.482 308.136 352.142 307.706C352.807 307.271 353.582 307.054 354.469 307.054C355.159 307.054 355.781 307.182 356.335 307.438C356.889 307.693 357.343 308.051 357.697 308.511C358.05 308.972 358.27 309.509 358.355 310.122H356.847C356.732 309.675 356.476 309.278 356.08 308.933C355.688 308.584 355.159 308.409 354.494 308.409C353.906 308.409 353.391 308.562 352.947 308.869C352.509 309.172 352.165 309.6 351.918 310.154C351.675 310.704 351.554 311.349 351.554 312.091C351.554 312.849 351.673 313.51 351.912 314.072C352.155 314.635 352.496 315.072 352.935 315.383C353.378 315.694 353.898 315.849 354.494 315.849C354.886 315.849 355.242 315.781 355.562 315.645C355.881 315.509 356.152 315.312 356.374 315.057C356.595 314.801 356.753 314.494 356.847 314.136H358.355C358.27 314.716 358.059 315.238 357.722 315.702C357.39 316.163 356.949 316.529 356.399 316.802C355.854 317.07 355.219 317.205 354.494 317.205ZM364.677 317.205C363.731 317.205 362.915 316.996 362.229 316.578C361.547 316.156 361.021 315.568 360.65 314.814C360.283 314.055 360.1 313.173 360.1 312.168C360.1 311.162 360.283 310.276 360.65 309.509C361.021 308.737 361.536 308.136 362.197 307.706C362.862 307.271 363.637 307.054 364.523 307.054C365.035 307.054 365.54 307.139 366.038 307.31C366.537 307.48 366.991 307.757 367.4 308.141C367.809 308.52 368.135 309.023 368.378 309.649C368.621 310.276 368.742 311.047 368.742 311.963V312.602H361.174V311.298H367.208C367.208 310.744 367.097 310.25 366.876 309.815C366.658 309.381 366.347 309.038 365.942 308.786C365.542 308.535 365.069 308.409 364.523 308.409C363.923 308.409 363.403 308.558 362.964 308.857C362.529 309.151 362.195 309.534 361.96 310.007C361.726 310.48 361.609 310.987 361.609 311.528V312.398C361.609 313.139 361.737 313.768 361.992 314.283C362.252 314.795 362.612 315.185 363.072 315.453C363.533 315.717 364.067 315.849 364.677 315.849C365.073 315.849 365.431 315.794 365.751 315.683C366.075 315.568 366.354 315.398 366.588 315.172C366.822 314.942 367.004 314.656 367.131 314.315L368.589 314.724C368.435 315.219 368.178 315.653 367.815 316.028C367.453 316.399 367.006 316.689 366.473 316.898C365.94 317.102 365.342 317.205 364.677 317.205ZM372.545 303.909V317H371.037V303.909H372.545Z" fill="white"/>
<path d="M215.966 303.909V317H214.432L207.298 306.722H207.17V317H205.585V303.909H207.119L214.278 314.213H214.406V303.909H215.966ZM225.121 312.986V307.182H226.629V317H225.121V315.338H225.019C224.789 315.837 224.431 316.261 223.945 316.61C223.459 316.955 222.845 317.128 222.104 317.128C221.49 317.128 220.945 316.994 220.468 316.725C219.99 316.452 219.615 316.043 219.343 315.498C219.07 314.948 218.933 314.256 218.933 313.42V307.182H220.442V313.318C220.442 314.034 220.642 314.605 221.043 315.031C221.448 315.457 221.963 315.67 222.59 315.67C222.965 315.67 223.346 315.575 223.734 315.383C224.126 315.191 224.454 314.897 224.718 314.501C224.987 314.104 225.121 313.599 225.121 312.986ZM230.517 307.182L232.87 311.196L235.222 307.182H236.961L233.79 312.091L236.961 317H235.222L232.87 313.19L230.517 317H228.779L231.898 312.091L228.779 307.182H230.517ZM243.383 307.182V308.46H238.295V307.182H243.383ZM239.778 304.83H241.286V314.188C241.286 314.614 241.348 314.933 241.472 315.146C241.6 315.355 241.762 315.496 241.958 315.568C242.158 315.636 242.369 315.67 242.59 315.67C242.757 315.67 242.893 315.662 242.999 315.645C243.106 315.624 243.191 315.607 243.255 315.594L243.562 316.949C243.46 316.987 243.317 317.026 243.134 317.064C242.95 317.107 242.718 317.128 242.437 317.128C242.011 317.128 241.593 317.036 241.184 316.853C240.779 316.67 240.443 316.391 240.174 316.016C239.91 315.641 239.778 315.168 239.778 314.597V304.83Z" fill="white"/>
<path d="M453.744 307.182C453.668 306.534 453.357 306.031 452.811 305.673C452.266 305.315 451.597 305.136 450.804 305.136C450.224 305.136 449.717 305.23 449.283 305.418C448.852 305.605 448.516 305.863 448.273 306.191C448.034 306.519 447.915 306.892 447.915 307.31C447.915 307.659 447.998 307.96 448.164 308.211C448.335 308.458 448.552 308.665 448.816 308.831C449.08 308.993 449.357 309.127 449.647 309.234C449.937 309.336 450.203 309.419 450.446 309.483L451.776 309.841C452.116 309.93 452.496 310.054 452.913 310.212C453.335 310.369 453.738 310.585 454.121 310.857C454.509 311.126 454.829 311.471 455.08 311.893C455.332 312.315 455.457 312.832 455.457 313.446C455.457 314.153 455.272 314.793 454.901 315.364C454.535 315.935 453.998 316.388 453.29 316.725C452.587 317.062 451.733 317.23 450.727 317.23C449.79 317.23 448.978 317.079 448.292 316.776C447.61 316.474 447.073 316.052 446.681 315.511C446.293 314.969 446.074 314.341 446.023 313.625H447.659C447.702 314.119 447.868 314.528 448.158 314.852C448.452 315.172 448.822 315.411 449.27 315.568C449.722 315.722 450.207 315.798 450.727 315.798C451.332 315.798 451.876 315.7 452.357 315.504C452.839 315.304 453.22 315.027 453.501 314.673C453.783 314.315 453.923 313.898 453.923 313.42C453.923 312.986 453.802 312.632 453.559 312.359C453.316 312.087 452.996 311.865 452.6 311.695C452.204 311.524 451.776 311.375 451.315 311.247L449.705 310.787C448.682 310.493 447.872 310.073 447.276 309.528C446.679 308.982 446.381 308.268 446.381 307.386C446.381 306.653 446.579 306.014 446.975 305.469C447.376 304.919 447.913 304.493 448.586 304.19C449.263 303.884 450.02 303.73 450.855 303.73C451.699 303.73 452.449 303.881 453.105 304.184C453.761 304.482 454.281 304.891 454.665 305.411C455.053 305.931 455.257 306.521 455.278 307.182H453.744ZM464.047 312.986V307.182H465.555V317H464.047V315.338H463.944C463.714 315.837 463.356 316.261 462.871 316.61C462.385 316.955 461.771 317.128 461.03 317.128C460.416 317.128 459.871 316.994 459.393 316.725C458.916 316.452 458.541 316.043 458.268 315.498C457.996 314.948 457.859 314.256 457.859 313.42V307.182H459.368V313.318C459.368 314.034 459.568 314.605 459.969 315.031C460.373 315.457 460.889 315.67 461.515 315.67C461.89 315.67 462.272 315.575 462.66 315.383C463.052 315.191 463.38 314.897 463.644 314.501C463.912 314.104 464.047 313.599 464.047 312.986ZM468.318 320.682V307.182H469.776V308.741H469.955C470.065 308.571 470.219 308.354 470.415 308.089C470.615 307.821 470.901 307.582 471.271 307.374C471.646 307.161 472.153 307.054 472.793 307.054C473.619 307.054 474.348 307.261 474.979 307.674C475.609 308.087 476.102 308.673 476.455 309.432C476.809 310.19 476.986 311.085 476.986 312.116C476.986 313.156 476.809 314.058 476.455 314.82C476.102 315.579 475.612 316.167 474.985 316.585C474.359 316.998 473.636 317.205 472.818 317.205C472.188 317.205 471.683 317.1 471.303 316.891C470.924 316.678 470.632 316.437 470.428 316.169C470.223 315.896 470.065 315.67 469.955 315.491H469.827V320.682H468.318ZM469.801 312.091C469.801 312.832 469.91 313.487 470.127 314.053C470.344 314.616 470.662 315.057 471.08 315.376C471.497 315.692 472.009 315.849 472.614 315.849C473.244 315.849 473.771 315.683 474.192 315.351C474.619 315.014 474.938 314.562 475.151 313.996C475.369 313.425 475.477 312.79 475.477 312.091C475.477 311.401 475.371 310.778 475.158 310.224C474.949 309.666 474.631 309.225 474.205 308.901C473.783 308.573 473.253 308.409 472.614 308.409C472 308.409 471.484 308.565 471.067 308.876C470.649 309.183 470.334 309.613 470.121 310.167C469.908 310.717 469.801 311.358 469.801 312.091ZM482.176 317.23C481.554 317.23 480.989 317.113 480.482 316.879C479.975 316.64 479.572 316.297 479.274 315.849C478.976 315.398 478.827 314.852 478.827 314.213C478.827 313.651 478.938 313.195 479.159 312.845C479.381 312.491 479.677 312.214 480.048 312.014C480.418 311.814 480.827 311.665 481.275 311.567C481.727 311.464 482.18 311.384 482.636 311.324C483.233 311.247 483.717 311.19 484.087 311.151C484.462 311.109 484.735 311.038 484.906 310.94C485.08 310.842 485.168 310.672 485.168 310.429V310.378C485.168 309.747 484.995 309.257 484.65 308.908C484.309 308.558 483.791 308.384 483.097 308.384C482.376 308.384 481.812 308.541 481.403 308.857C480.994 309.172 480.706 309.509 480.54 309.866L479.108 309.355C479.364 308.759 479.705 308.294 480.131 307.962C480.561 307.625 481.03 307.391 481.537 307.259C482.048 307.122 482.551 307.054 483.045 307.054C483.361 307.054 483.723 307.092 484.132 307.169C484.545 307.241 484.944 307.393 485.327 307.623C485.715 307.853 486.037 308.2 486.293 308.665C486.548 309.129 486.676 309.751 486.676 310.531V317H485.168V315.67H485.091C484.989 315.884 484.818 316.112 484.58 316.354C484.341 316.597 484.023 316.804 483.627 316.974C483.231 317.145 482.747 317.23 482.176 317.23ZM482.406 315.875C483.003 315.875 483.506 315.758 483.915 315.523C484.328 315.289 484.639 314.987 484.848 314.616C485.061 314.245 485.168 313.855 485.168 313.446V312.065C485.104 312.142 484.963 312.212 484.746 312.276C484.533 312.336 484.286 312.389 484.004 312.436C483.727 312.479 483.457 312.517 483.192 312.551C482.933 312.581 482.722 312.607 482.56 312.628C482.168 312.679 481.801 312.762 481.46 312.877C481.124 312.988 480.851 313.156 480.642 313.382C480.438 313.604 480.335 313.906 480.335 314.29C480.335 314.814 480.529 315.21 480.917 315.479C481.309 315.743 481.805 315.875 482.406 315.875ZM489.634 317V303.909H491.143V308.741H491.27C491.381 308.571 491.535 308.354 491.731 308.089C491.931 307.821 492.216 307.582 492.587 307.374C492.962 307.161 493.469 307.054 494.108 307.054C494.935 307.054 495.664 307.261 496.295 307.674C496.925 308.087 497.417 308.673 497.771 309.432C498.125 310.19 498.302 311.085 498.302 312.116C498.302 313.156 498.125 314.058 497.771 314.82C497.417 315.579 496.927 316.167 496.301 316.585C495.675 316.998 494.952 317.205 494.134 317.205C493.503 317.205 492.998 317.1 492.619 316.891C492.24 316.678 491.948 316.437 491.743 316.169C491.539 315.896 491.381 315.67 491.27 315.491H491.091V317H489.634ZM491.117 312.091C491.117 312.832 491.226 313.487 491.443 314.053C491.66 314.616 491.978 315.057 492.395 315.376C492.813 315.692 493.324 315.849 493.93 315.849C494.56 315.849 495.086 315.683 495.508 315.351C495.934 315.014 496.254 314.562 496.467 313.996C496.684 313.425 496.793 312.79 496.793 312.091C496.793 311.401 496.687 310.778 496.474 310.224C496.265 309.666 495.947 309.225 495.521 308.901C495.099 308.573 494.569 308.409 493.93 308.409C493.316 308.409 492.8 308.565 492.383 308.876C491.965 309.183 491.65 309.613 491.437 310.167C491.224 310.717 491.117 311.358 491.117 312.091ZM503.498 317.23C502.876 317.23 502.312 317.113 501.805 316.879C501.297 316.64 500.895 316.297 500.596 315.849C500.298 315.398 500.149 314.852 500.149 314.213C500.149 313.651 500.26 313.195 500.481 312.845C500.703 312.491 500.999 312.214 501.37 312.014C501.741 311.814 502.15 311.665 502.597 311.567C503.049 311.464 503.503 311.384 503.959 311.324C504.555 311.247 505.039 311.19 505.41 311.151C505.785 311.109 506.057 311.038 506.228 310.94C506.403 310.842 506.49 310.672 506.49 310.429V310.378C506.49 309.747 506.317 309.257 505.972 308.908C505.631 308.558 505.113 308.384 504.419 308.384C503.699 308.384 503.134 308.541 502.725 308.857C502.316 309.172 502.028 309.509 501.862 309.866L500.43 309.355C500.686 308.759 501.027 308.294 501.453 307.962C501.883 307.625 502.352 307.391 502.859 307.259C503.371 307.122 503.873 307.054 504.368 307.054C504.683 307.054 505.045 307.092 505.454 307.169C505.868 307.241 506.266 307.393 506.65 307.623C507.037 307.853 507.359 308.2 507.615 308.665C507.871 309.129 507.998 309.751 507.998 310.531V317H506.49V315.67H506.413C506.311 315.884 506.14 316.112 505.902 316.354C505.663 316.597 505.346 316.804 504.949 316.974C504.553 317.145 504.069 317.23 503.498 317.23ZM503.729 315.875C504.325 315.875 504.828 315.758 505.237 315.523C505.65 315.289 505.961 314.987 506.17 314.616C506.383 314.245 506.49 313.855 506.49 313.446V312.065C506.426 312.142 506.285 312.212 506.068 312.276C505.855 312.336 505.608 312.389 505.327 312.436C505.05 312.479 504.779 312.517 504.515 312.551C504.255 312.581 504.044 312.607 503.882 312.628C503.49 312.679 503.123 312.762 502.782 312.877C502.446 312.988 502.173 313.156 501.964 313.382C501.76 313.604 501.657 313.906 501.657 314.29C501.657 314.814 501.851 315.21 502.239 315.479C502.631 315.743 503.128 315.875 503.729 315.875ZM517.706 309.381L516.351 309.764C516.266 309.538 516.14 309.319 515.974 309.106C515.812 308.888 515.591 308.71 515.309 308.569C515.028 308.428 514.668 308.358 514.229 308.358C513.628 308.358 513.127 308.496 512.727 308.773C512.331 309.046 512.132 309.393 512.132 309.815C512.132 310.19 512.269 310.487 512.542 310.704C512.814 310.921 513.24 311.102 513.82 311.247L515.277 311.605C516.155 311.818 516.809 312.144 517.24 312.583C517.67 313.018 517.885 313.578 517.885 314.264C517.885 314.827 517.723 315.33 517.4 315.773C517.08 316.216 516.632 316.565 516.057 316.821C515.482 317.077 514.813 317.205 514.05 317.205C513.049 317.205 512.22 316.987 511.564 316.553C510.907 316.118 510.492 315.483 510.317 314.648L511.749 314.29C511.885 314.818 512.143 315.214 512.522 315.479C512.906 315.743 513.407 315.875 514.025 315.875C514.728 315.875 515.286 315.726 515.699 315.428C516.117 315.125 516.326 314.763 516.326 314.341C516.326 314 516.206 313.714 515.968 313.484C515.729 313.25 515.363 313.075 514.868 312.96L513.232 312.577C512.333 312.364 511.672 312.033 511.25 311.586C510.833 311.134 510.624 310.57 510.624 309.892C510.624 309.338 510.779 308.848 511.091 308.422C511.406 307.996 511.834 307.661 512.375 307.418C512.921 307.175 513.539 307.054 514.229 307.054C515.201 307.054 515.963 307.267 516.517 307.693C517.076 308.119 517.472 308.682 517.706 309.381ZM524.273 317.205C523.327 317.205 522.51 316.996 521.824 316.578C521.143 316.156 520.616 315.568 520.246 314.814C519.879 314.055 519.696 313.173 519.696 312.168C519.696 311.162 519.879 310.276 520.246 309.509C520.616 308.737 521.132 308.136 521.792 307.706C522.457 307.271 523.233 307.054 524.119 307.054C524.631 307.054 525.135 307.139 525.634 307.31C526.133 307.48 526.586 307.757 526.996 308.141C527.405 308.52 527.731 309.023 527.974 309.649C528.216 310.276 528.338 311.047 528.338 311.963V312.602H520.77V311.298H526.804C526.804 310.744 526.693 310.25 526.471 309.815C526.254 309.381 525.943 309.038 525.538 308.786C525.138 308.535 524.665 308.409 524.119 308.409C523.518 308.409 522.998 308.558 522.559 308.857C522.125 309.151 521.79 309.534 521.556 310.007C521.322 310.48 521.204 310.987 521.204 311.528V312.398C521.204 313.139 521.332 313.768 521.588 314.283C521.848 314.795 522.208 315.185 522.668 315.453C523.128 315.717 523.663 315.849 524.273 315.849C524.669 315.849 525.027 315.794 525.346 315.683C525.67 315.568 525.949 315.398 526.184 315.172C526.418 314.942 526.599 314.656 526.727 314.315L528.184 314.724C528.031 315.219 527.773 315.653 527.411 316.028C527.049 316.399 526.601 316.689 526.069 316.898C525.536 317.102 524.937 317.205 524.273 317.205Z" fill="white"/>
</g>
<defs>
<linearGradient id="paint0_linear_457_14" x1="423.539" y1="310.421" x2="428.663" y2="312.63" gradientUnits="userSpaceOnUse">
<stop stop-color="#249361"/>
<stop offset="1" stop-color="#3ECF8E"/>
</linearGradient>
<linearGradient id="paint1_linear_457_14" x1="421.248" y1="307.37" x2="423.505" y2="311.737" gradientUnits="userSpaceOnUse">
<stop/>
<stop offset="1" stop-opacity="0"/>
</linearGradient>
<clipPath id="clip0_457_14">
<rect width="709" height="388" fill="white"/>
</clipPath>
<clipPath id="clip1_457_14">
<rect width="21" height="21" fill="white" transform="translate(289 299)"/>
</clipPath>
<clipPath id="clip2_457_14">
<rect width="21" height="21" fill="white" transform="translate(413 300)"/>
</clipPath>
<clipPath id="clip3_457_14">
<rect width="14.3916" height="14" fill="white" transform="translate(416.378 303.571)"/>
</clipPath>
<clipPath id="clip4_457_14">
<rect width="21" height="21" fill="white" transform="translate(172 300)"/>
</clipPath>
<clipPath id="clip5_457_14">
<rect width="14.2448" height="13.8571" fill="white" transform="translate(175.378 302.286)"/>
</clipPath>
</defs>
</svg>
