<svg width="709" height="311" viewBox="0 0 709 311" fill="none" xmlns="http://www.w3.org/2000/svg">
<g clip-path="url(#clip0_457_14)">
<rect width="709" height="311" fill="#202124"/>
<path d="M260.773 80.543H279.719V150.465L349.641 80.543H376.496L316.828 138.355L378.156 224H352.863L302.668 152.027L279.719 174V224H260.773V80.543ZM405.305 196.168C405.305 201.246 407.16 205.25 410.871 208.18C414.582 211.109 418.977 212.574 424.055 212.574C430.24 212.574 436.229 211.142 442.023 208.277C451.789 203.525 456.672 195.745 456.672 184.938V170.777C454.523 172.145 451.757 173.284 448.371 174.195C444.986 175.107 441.665 175.758 438.41 176.148L427.766 177.516C421.385 178.362 416.6 179.697 413.41 181.52C408.007 184.579 405.305 189.462 405.305 196.168ZM447.883 160.621C451.919 160.1 454.621 158.408 455.988 155.543C456.77 153.98 457.16 151.734 457.16 148.805C457.16 142.815 455.012 138.486 450.715 135.816C446.483 133.082 440.396 131.715 432.453 131.715C423.273 131.715 416.763 134.189 412.922 139.137C410.773 141.871 409.374 145.94 408.723 151.344H392.316C392.642 138.453 396.809 129.501 404.816 124.488C412.889 119.41 422.232 116.871 432.844 116.871C445.148 116.871 455.142 119.215 462.824 123.902C470.441 128.59 474.25 135.882 474.25 145.777V206.031C474.25 207.854 474.608 209.319 475.324 210.426C476.105 211.533 477.701 212.086 480.109 212.086C480.891 212.086 481.77 212.053 482.746 211.988C483.723 211.858 484.764 211.695 485.871 211.5V224.488C483.137 225.27 481.053 225.758 479.621 225.953C478.189 226.148 476.236 226.246 473.762 226.246C467.707 226.246 463.312 224.098 460.578 219.801C459.146 217.522 458.137 214.299 457.551 210.133C453.97 214.82 448.827 218.889 442.121 222.34C435.415 225.79 428.026 227.516 419.953 227.516C410.253 227.516 402.31 224.586 396.125 218.727C390.005 212.802 386.945 205.413 386.945 196.559C386.945 186.858 389.973 179.339 396.027 174C402.082 168.661 410.025 165.374 419.855 164.137L447.883 160.621ZM503.645 80.543H521.223V224H503.645V80.543ZM551.203 90.2109H568.977V119.41H585.676V133.766H568.977V202.027C568.977 205.673 570.214 208.115 572.688 209.352C574.055 210.068 576.333 210.426 579.523 210.426C580.37 210.426 581.281 210.426 582.258 210.426C583.234 210.361 584.374 210.263 585.676 210.133V224C583.658 224.586 581.542 225.009 579.328 225.27C577.18 225.53 574.836 225.66 572.297 225.66C564.094 225.66 558.527 223.577 555.598 219.41C552.668 215.178 551.203 209.71 551.203 203.004V133.766H537.043V119.41H551.203V90.2109Z" fill="#FCF9F2"/>
<ellipse cx="125.5" cy="150.5" rx="71.5" ry="73.5" fill="#FCF9F2"/>
</g>
<defs>
<clipPath id="clip0_457_14">
<rect width="709" height="311" fill="white"/>
</clipPath>
</defs>
</svg>
