<svg width="39" height="39" viewBox="0 0 39 39" fill="none" xmlns="http://www.w3.org/2000/svg">
<path d="M34.4446 16.083C34.0846 15.6783 33.7857 15.2189 33.5581 14.7206C33.4509 14.1496 33.4288 13.5648 33.4925 12.9868C33.6903 11.7387 33.4628 10.4578 32.8492 9.36624C32.0378 8.41831 30.9335 7.79635 29.7281 7.60827C29.1875 7.49594 28.6667 7.29738 28.1842 7.0196C27.789 6.63269 27.4535 6.18445 27.1897 5.69073C26.6431 4.54359 25.7261 3.6339 24.5999 3.12149C23.4279 2.85748 22.2044 3.02673 21.1391 3.60021C20.6202 3.8484 20.0671 4.00995 19.5 4.07892C18.9329 4.00995 18.3798 3.8484 17.8609 3.60021C16.7949 3.0275 15.5712 2.85829 14.3988 3.12149C13.2718 3.63388 12.3543 4.54412 11.8077 5.69207C11.5431 6.18449 11.2082 6.63212 10.8145 7.0196C10.332 7.29738 9.81124 7.49594 9.27064 7.60827C8.06542 7.79747 6.96193 8.42094 6.15205 9.37027C5.53822 10.4617 5.31061 11.7427 5.50877 12.9908C5.57244 13.5684 5.55031 14.1527 5.44316 14.7233C5.21557 15.2216 4.91668 15.681 4.55673 16.0857C3.66915 16.9901 3.11763 18.193 3 19.4809C3.11669 20.7697 3.66779 21.9736 4.55544 22.8789C4.9154 23.2836 5.21428 23.743 5.44187 24.2413C5.54905 24.8123 5.57118 25.3971 5.50749 25.9751C5.30966 27.2232 5.53724 28.5041 6.15076 29.5956C6.96223 30.5436 8.06648 31.1655 9.27193 31.3536C9.81253 31.4659 10.3333 31.6645 10.8158 31.9423C11.211 32.3292 11.5465 32.7774 11.8103 33.2712C12.3569 34.4183 13.2739 35.328 14.4001 35.8404C14.7189 35.9477 15.0519 36.0016 15.3869 36C16.2419 35.9452 17.0802 35.7289 17.8609 35.3617C18.3798 35.1135 18.9329 34.9519 19.5 34.883C20.0671 34.9519 20.6202 35.1135 21.1391 35.3617C22.2043 35.937 23.4289 36.1063 24.6012 35.8404C25.7282 35.328 26.6457 34.4178 27.1923 33.2698C27.4569 32.7774 27.7918 32.3298 28.1855 31.9423C28.668 31.6645 29.1888 31.4659 29.7294 31.3536C30.9355 31.165 32.04 30.5415 32.8505 29.5916C33.4644 28.5002 33.692 27.2192 33.4938 25.9711C33.4301 25.3935 33.4523 24.8091 33.5594 24.2386C33.787 23.7403 34.0859 23.2809 34.4458 22.8762C35.3325 21.9714 35.8831 20.7685 36 19.4809C35.8833 18.1922 35.3322 16.9883 34.4446 16.083Z" fill="#FEFDFA"/>
</svg>
