<svg xmlns="http://www.w3.org/2000/svg" viewBox="0 0 30 30" width="30" height="30"
  preserveAspectRatio="xMidYMid meet"
  style="width: 100%; height: 100%; transform: translate3d(0px, 0px, 0px);">
  <defs>
    <text font-family="Soleil" font-style="Bold" font-weight=""
      style="font-size: 100px; font-family: Soleil;">1</text>
    <text font-family="Soleil" font-style="Regular" font-weight=""
      style="font-size: 100px; font-family: Soleil;">1</text>
    <clipPath id="__lottie_element_52">
      <rect width="30" height="30" x="0" y="0"></rect>
    </clipPath>
  </defs>
  <g clip-path="url(#__lottie_element_52)">
    <g style="display: block;" transform="matrix(1,0,0,1,15.5,14.13700008392334)" opacity="1">
      <g opacity="1" transform="matrix(1,0,0,1,0,0)">
        <path fill="rgb(23,158,126)" fill-opacity="1"
          d=" M8.454999923706055,-8.454999923706055 C8.454999923706055,-8.454999923706055 7.14300012588501,-12 7.14300012588501,-12 C7.14300012588501,-12 5.830999851226807,-8.454999923706055 5.830999851226807,-8.454999923706055 C5.830999851226807,-8.454999923706055 2.2860000133514404,-7.14300012588501 2.2860000133514404,-7.14300012588501 C2.2860000133514404,-7.14300012588501 5.830999851226807,-5.830999851226807 5.830999851226807,-5.830999851226807 C5.830999851226807,-5.830999851226807 7.14300012588501,-2.2860000133514404 7.14300012588501,-2.2860000133514404 C7.14300012588501,-2.2860000133514404 8.454999923706055,-5.830999851226807 8.454999923706055,-5.830999851226807 C8.454999923706055,-5.830999851226807 12,-7.14300012588501 12,-7.14300012588501 C12,-7.14300012588501 8.454999923706055,-8.454999923706055 8.454999923706055,-8.454999923706055z"></path>
      </g>
    </g>
    <g transform="matrix(1,0,0,1,15.5,14.13599967956543)" opacity="1" style="display: block;">
      <g opacity="1" transform="matrix(1,0,0,1,0,0)">
        <path fill="rgb(23,158,126)" fill-opacity="1"
          d=" M1.4270000457763672,-1.4270000457763672 C1.4270000457763672,-1.4270000457763672 -1.4290000200271606,-9.142999649047852 -1.4290000200271606,-9.142999649047852 C-1.4290000200271606,-9.142999649047852 -4.283999919891357,-1.4270000457763672 -4.283999919891357,-1.4270000457763672 C-4.283999919891357,-1.4270000457763672 -12,1.4290000200271606 -12,1.4290000200271606 C-12,1.4290000200271606 -4.283999919891357,4.283999919891357 -4.283999919891357,4.283999919891357 C-4.283999919891357,4.283999919891357 -1.4290000200271606,12 -1.4290000200271606,12 C-1.4290000200271606,12 1.4270000457763672,4.283999919891357 1.4270000457763672,4.283999919891357 C1.4270000457763672,4.283999919891357 9.142999649047852,1.4290000200271606 9.142999649047852,1.4290000200271606 C9.142999649047852,1.4290000200271606 1.4270000457763672,-1.4270000457763672 1.4270000457763672,-1.4270000457763672z"></path>
      </g>
    </g>
  </g>
</svg>