<svg width="41" height="40" viewBox="0 0 41 40" fill="none" xmlns="http://www.w3.org/2000/svg">
<path d="M39.0675 15.8582C38.6203 15.3676 38.2489 14.8108 37.9662 14.2068C37.833 13.5147 37.8055 12.8058 37.8846 12.1052C38.1304 10.5923 37.8477 9.0397 37.0854 7.71666C36.0772 6.56764 34.7053 5.81375 33.2076 5.58579C32.536 5.44963 31.889 5.20895 31.2895 4.87224C30.7985 4.40326 30.3817 3.85993 30.0539 3.26149C29.3748 1.87101 28.2355 0.768364 26.8362 0.147263C25.3802 -0.17275 23.86 0.0324 22.5364 0.727524C21.8917 1.02836 21.2045 1.22418 20.5 1.30778C19.7955 1.22418 19.1083 1.02836 18.4636 0.727524C17.1392 0.0333287 15.6188 -0.171769 14.1622 0.147263C12.762 0.768337 11.622 1.87167 10.9429 3.26312C10.6142 3.85999 10.1981 4.40257 9.70893 4.87224C9.10943 5.20895 8.46245 5.44963 7.7908 5.58579C6.2934 5.81511 4.9224 6.57083 3.91618 7.72154C3.15354 9.04443 2.87076 10.5972 3.11696 12.1101C3.19606 12.8102 3.16856 13.5185 3.03544 14.2101C2.75268 14.814 2.38134 15.3709 1.93411 15.8614C0.831367 16.9577 0.146143 18.4158 0 19.9769C0.144979 21.539 0.829677 22.9983 1.93251 24.0956C2.37974 24.5862 2.75108 25.143 3.03384 25.747C3.167 26.4391 3.1945 27.148 3.11536 27.8486C2.86957 29.3615 3.15233 30.9141 3.91458 32.2371C4.92278 33.3862 6.29472 34.14 7.7924 34.368C8.46405 34.5042 9.11103 34.7448 9.71053 35.0816C10.2015 35.5505 10.6183 36.0939 10.9461 36.6923C11.6252 38.0828 12.7645 39.1854 14.1638 39.8065C14.5598 39.9367 14.9736 40.0019 15.3898 40C16.452 39.9336 17.4936 39.6714 18.4636 39.2263C19.1083 38.9254 19.7955 38.7296 20.5 38.646C21.2045 38.7296 21.8917 38.9254 22.5364 39.2263C23.8599 39.9236 25.3813 40.1289 26.8378 39.8065C28.238 39.1855 29.378 38.0821 30.0571 36.6907C30.3858 36.0938 30.8019 35.5512 31.2911 35.0816C31.8906 34.7448 32.5375 34.5042 33.2092 34.368C34.7077 34.1394 36.08 33.3836 37.087 32.2323C37.8497 30.9094 38.1324 29.3566 37.8862 27.8437C37.8071 27.1436 37.8346 26.4353 37.9678 25.7438C38.2505 25.1398 38.6219 24.5829 39.0691 24.0924C40.1707 22.9956 40.8547 21.5376 41 19.9769C40.855 18.4148 40.1703 16.9556 39.0675 15.8582Z" fill="#5FB0FC"/>
<path d="M29.057 13.5238C29.3124 13.7205 29.5256 13.9644 29.6845 14.2416C29.8433 14.5188 29.9448 14.8239 29.9829 15.1395C30.0211 15.455 29.9952 15.7748 29.9068 16.0806C29.8184 16.3864 29.6693 16.6722 29.4678 16.9216L21.2718 27.0786C21.0403 27.3657 20.7452 27.5977 20.4087 27.7573C20.0723 27.9169 19.7032 27.9999 19.3292 28H19.3044C18.9253 27.9955 18.5523 27.906 18.2141 27.7383C17.876 27.5705 17.5819 27.3291 17.3544 27.0327L13.5014 22.0533C13.3053 21.8 13.1621 21.5115 13.0801 21.2041C12.9981 20.8968 12.9788 20.5767 13.0234 20.2621C13.068 19.9475 13.1755 19.6445 13.3399 19.3705C13.5043 19.0965 13.7223 18.8569 13.9815 18.6652C14.5049 18.2781 15.1642 18.1101 15.8144 18.1981C16.1363 18.2416 16.4463 18.3467 16.7267 18.5074C17.0071 18.668 17.2523 18.8811 17.4484 19.1344L19.3713 21.618L25.5801 13.9156C25.7821 13.6667 26.0322 13.4592 26.3163 13.3048C26.6003 13.1505 26.9127 13.0523 27.2355 13.0159C27.5584 12.9795 27.8854 13.0057 28.198 13.0928C28.5105 13.18 28.8024 13.3264 29.057 13.5238Z" fill="#FEFDFA"/>
</svg>
